<?xml version="1.0" encoding="utf-8"?>
<!-- Generator: Adobe Illustrator 18.0.0, SVG Export Plug-In . SVG Version: 6.00 Build 0)  -->
<!DOCTYPE svg PUBLIC "-//W3C//DTD SVG 1.1//EN" "http://www.w3.org/Graphics/SVG/1.1/DTD/svg11.dtd">
<svg version="1.1" id="Layer_1" xmlns="http://www.w3.org/2000/svg" xmlns:xlink="http://www.w3.org/1999/xlink" x="0px" y="0px"
	 viewBox="0 0 512 512" enable-background="new 0 0 512 512" xml:space="preserve">
<g>
	<path fill="#333333" d="M123.7,484.2h167.6c27,0,49.1-22.1,49.1-49.1v-52.2c-4.3,0.4-8.6,0.6-12.9,0.6c-4.4,0-8.8-0.2-13.1-0.7V405
		c0,6.9-5.6,12.6-12.6,12.6H113.3c-6.9,0-12.6-5.6-12.6-12.6V107.2c0-6.9,5.6-12.6,12.6-12.6h188.5c6.9,0,12.6,5.6,12.6,12.6v2.2
		h-0.1v9.4c4.3-0.4,8.7-0.6,13.1-0.6c4.3,0,8.7,0.2,12.9,0.6v-42c0-27-22.1-49.1-49.1-49.1H123.7c-27,0-49.1,22.1-49.1,49.1v358.3
		C74.7,462.1,96.7,484.2,123.7,484.2z M181.4,438.1h47.3c7,0,12.7,5.7,12.7,12.7c0,7-5.7,12.7-12.7,12.7h-47.3
		c-7,0-12.7-5.7-12.7-12.7C168.7,443.8,174.4,438.1,181.4,438.1z"/>
	<path fill="#E2574C" d="M339.8,230.5c-3.1-2.5-6.7-3.8-10.7-4.1c-11-0.9-18.9,2.5-23.2,11.1c-4.3,8.8-4.5,17.9,0,26.6
		c6.7,13.2,25.8,16,36,5.6c2.7-2.8,4.1-6,4.1-10c0-2.8,0-5.5,0-8.3c0-2.8,0-5.5,0-8.3C346.1,237.9,343.9,233.8,339.8,230.5z"/>
	<path fill="#E2574C" d="M249.8,173.2c-41.3,41.3-42.8,107.3-4.6,150.4l1.1,0.9c-4.2,9-11.3,20-22.6,25.6c-3.7,1.8-2.9,7.4,1.2,8.1
		c12.4,1.9,30.2-0.2,46.7-12.8l0.2,0.2c42.1,24.8,97.2,19.1,133.3-17.1c42.9-42.9,42.9-112.5,0-155.4
		C362.3,130.3,292.7,130.3,249.8,173.2z M405.9,270.7c-1.1,5.8-3.5,11.1-7.6,15.6c-6.6,7.2-15,9-24.3,8.3
		c-7.8-0.6-14.6-3.3-19.9-9.1c-1-1.1-1.6-0.3-2.4,0.3c-5.2,4.1-11,7-17.5,8.2c-18.6,3.4-44.4-5.6-49.2-34.6
		c-1.5-9.1-0.9-18,2.8-26.6c6.9-16.1,19.4-24.2,36.7-25c8-0.3,15.5,1.2,22.5,5.3c0.9,0.5,1.6,0.6,2.4-0.2c3-2.7,6.5-3.2,10.1-1.5
		c3.6,1.7,5.3,4.7,5.3,8.7c0,7.2,0,14.6,0,21.8c0,7,0,14.1,0,21c0,2.3,0.3,4.7,1.2,6.8c0.8,2,2,3.7,3.9,4.7c4.1,2,8.5,2.2,12.8,0.9
		c2.3-0.8,3.4-2.8,4.2-5c1.7-4.1,2.2-8.5,2.5-13c0.6-11.6-0.2-22.9-4-34c-5.4-15.6-16.1-26-31.9-30.6c-16-4.7-32.1-5.6-47.9,0.1
		c-22.4,8-35.2,24.4-39,47.8c-2.3,14.4-0.4,28.4,6.5,41.3c9.4,17.6,24.5,27.2,44,30.2c14.1,2.2,27.6,0,40.3-6.7
		c4.7-2.6,10.3-0.9,12.7,3.7c2.4,4.6,0.8,10-4,12.6c-13.9,7.5-28.7,10.6-44.4,9.6c-13.3-0.9-25.9-4.4-37.3-11.4
		c-18.7-11.4-30.3-28-34.9-49.2c-4.9-22.2-2.2-43.5,9.8-63.1c12.4-20,30.7-31.8,53.9-35.7c16.8-2.8,33.5-1.4,49.7,4.6
		c19.1,7.1,32.4,20.3,39.4,39.4C408.6,233.6,409.6,252,405.9,270.7z"/>
</g>
</svg>
