<?xml version="1.0" encoding="utf-8"?>
<!-- Generator: Adobe Illustrator 18.0.0, SVG Export Plug-In . SVG Version: 6.00 Build 0)  -->
<!DOCTYPE svg PUBLIC "-//W3C//DTD SVG 1.1//EN" "http://www.w3.org/Graphics/SVG/1.1/DTD/svg11.dtd">
<svg version="1.1" id="Layer_1" xmlns="http://www.w3.org/2000/svg" xmlns:xlink="http://www.w3.org/1999/xlink" x="0px" y="0px"
	 viewBox="0 0 512 512" enable-background="new 0 0 512 512" xml:space="preserve">
<g>
	<g>
		<path fill="#333333" d="M22.7,362.7l-0.1,15.6c0,5.1,4.1,9.3,9.2,9.3l14.3,0.1c2.1,11,6.4,21.7,12.8,31.4l-10.2,10
			c-3.6,3.6-3.7,9.4-0.1,13.1l10.9,11.1c3.6,3.6,9.4,3.7,13.1,0.1l10.2-10c9.6,6.5,20.2,10.9,31.2,13.1l-0.1,14.3
			c0,5.1,4.1,9.3,9.2,9.3l15.6,0.1c5.1,0,9.3-4.1,9.3-9.2l0.1-14.3c11-2.1,21.7-6.4,31.4-12.8l10,10.2c3.6,3.6,9.4,3.7,13.1,0.1
			l11.1-10.9c3.6-3.6,3.7-9.4,0.1-13.1l-10-10.2c6.5-9.6,10.9-20.2,13.1-31.2l14.3,0.1c5.1,0,9.3-4.1,9.3-9.2l0.1-15.6
			c0-5.1-4.1-9.3-9.2-9.3l-14.3-0.1c-2.1-11-6.4-21.7-12.8-31.4l10.2-10c3.6-3.6,3.7-9.4,0.1-13.1l-10.9-11.1
			c-3.6-3.6-9.4-3.7-13.1-0.1l-10.2,10c-9.6-6.5-20.2-10.9-31.2-13.1l0.1-14.3c0-5.1-4.1-9.3-9.2-9.3l-15.6-0.1
			c-5.1,0-9.3,4.1-9.3,9.2l-0.1,14.3c-11,2.1-21.7,6.4-31.4,12.8l-10-10.2c-3.6-3.6-9.4-3.7-13.1-0.1l-11.1,10.9
			c-3.6,3.6-3.7,9.4-0.1,13.1l10,10.2c-6.5,9.6-10.9,20.2-13.1,31.2L32,353.5C26.9,353.4,22.7,357.6,22.7,362.7z M102.4,341.6
			c16.3-16.1,42.5-16,58.6,0.3c16.1,16.3,15.9,42.5-0.3,58.6c-16.3,16.1-42.5,16-58.6-0.3C85.9,383.9,86.1,357.7,102.4,341.6z"/>
		<path fill="#333333" d="M235.8,417.8l-0.1,10.8c0,3.6,2.8,6.4,6.4,6.5l9.9,0.1c1.5,7.6,4.4,15.1,8.9,21.8l-7.1,7
			c-2.5,2.5-2.5,6.6,0,9.1l7.6,7.7c2.5,2.5,6.6,2.5,9.1,0l7.1-7c6.7,4.5,14.1,7.6,21.7,9.1l-0.1,9.9c0,3.6,2.8,6.4,6.4,6.5l10.8,0.1
			c3.6,0,6.4-2.8,6.5-6.4l0.1-9.9c7.6-1.5,15.1-4.4,21.8-8.9l7,7.1c2.5,2.5,6.6,2.5,9.1,0l7.7-7.6c2.5-2.5,2.5-6.6,0-9.1l-7-7.1
			c4.5-6.7,7.6-14.1,9.1-21.7l9.9,0.1c3.6,0,6.4-2.8,6.5-6.4l0.1-10.8c0-3.6-2.8-6.4-6.4-6.5l-9.9-0.1c-1.5-7.6-4.4-15.1-8.9-21.8
			l7.1-7c2.5-2.5,2.5-6.6,0-9.1l-7.6-7.7c-2.5-2.5-6.6-2.5-9.1,0l-7.1,7c-6.7-4.5-14.1-7.6-21.7-9.1l0.1-9.9c0-3.6-2.8-6.4-6.4-6.5
			l-10.8-0.1c-3.6,0-6.4,2.8-6.5,6.4l-0.1,9.9c-7.6,1.5-15.1,4.4-21.8,8.9l-7-7.1c-2.5-2.5-6.6-2.5-9.1,0l-7.7,7.6
			c-2.5,2.5-2.5,6.6,0,9.1l7,7.1c-4.5,6.7-7.6,14.1-9.1,21.7l-9.9-0.1C238.7,411.4,235.8,414.3,235.8,417.8z M291.2,403.1
			c11.3-11.2,29.5-11.1,40.7,0.2c11.2,11.3,11.1,29.5-0.2,40.7c-11.3,11.2-29.5,11.1-40.7-0.2C279.8,432.6,279.9,414.3,291.2,403.1z
			"/>
		<path fill="#333333" d="M170.3,225.7l9.1,22.1c3,7.2,11.3,10.7,18.5,7.7l20.3-8.4c9.5,14.3,21.9,26.9,36.7,36.8l-8.4,20.3
			c-3,7.2,0.4,15.6,7.7,18.6l22.1,9.1c7.2,3,15.6-0.4,18.6-7.7l8.4-20.3c17.5,3.5,35.1,3.4,52,0l8.4,20.3c3,7.2,11.3,10.7,18.5,7.7
			l22.1-9.1c7.2-3,10.7-11.3,7.7-18.5l-8.4-20.3c14.3-9.5,26.9-21.9,36.8-36.7l20.3,8.4c7.2,3,15.6-0.4,18.6-7.7l9.1-22.1
			c3-7.2-0.4-15.6-7.7-18.6l-20.3-8.4c3.5-17.5,3.4-35.1,0-52l20.3-8.4c7.2-3,10.7-11.3,7.7-18.5l-9.1-22.1
			c-3-7.2-11.3-10.7-18.5-7.7l-20.3,8.4c-9.5-14.3-21.9-26.9-36.7-36.8l8.4-20.3c3-7.2-0.4-15.6-7.7-18.6l-22.1-9.1
			c-7.2-3-15.6,0.4-18.6,7.7l-8.4,20.3c-17.5-3.5-35.1-3.4-52,0L295,21.4c-3-7.2-11.3-10.7-18.5-7.7l-22.1,9.1
			c-7.2,3-10.7,11.3-7.7,18.5l8.4,20.3c-14.3,9.5-26.9,21.9-36.8,36.7L198,90.1c-7.2-3-15.6,0.4-18.6,7.7l-9.1,22.1
			c-3,7.2,0.4,15.6,7.7,18.6l20.3,8.4c-3.5,17.5-3.4,35.1,0,52l-20.3,8.4C170.8,210.1,167.3,218.4,170.3,225.7z M239.9,135.7
			c20.5-49.4,77.1-72.9,126.5-52.4c49.4,20.5,72.9,77.1,52.4,126.5c-20.5,49.4-77.1,72.9-126.5,52.4
			C242.8,241.7,219.4,185.1,239.9,135.7z"/>
	</g>
	<path fill="#E2574C" d="M360,214.8c-4.7,5.7-10.7,9.5-17.8,11.4c-3.1,0.8-4.5,2.5-4.3,5.7c0.1,3.1,0,6.3,0,9.5
		c0,2.8-1.4,4.3-4.2,4.4c-3.4,0.1-6.8,0.1-10.2,0c-3-0.1-4.4-1.7-4.4-4.6c0-2.3,0-4.6-0.1-6.9c-0.1-5.1-0.2-5.3-5.1-6.1
		c-6.3-1-12.4-2.4-18.1-5.2c-4.5-2.2-5-3.3-3.7-8c1-3.5,1.9-7,3-10.5c1.3-4,2.3-4.5,6.1-2.6c6.3,3.3,13.1,5.1,20.1,6
		c4.5,0.6,9,0.1,13.2-1.7c7.8-3.4,9.1-12.5,2.4-18c-2.3-1.9-4.8-3.2-7.5-4.4c-6.9-3-14.1-5.3-20.5-9.2c-10.5-6.3-17.2-15-16.4-27.8
		c0.9-14.5,9.1-23.5,22.4-28.4c5.5-2,5.5-1.9,5.5-7.6c0-1.9,0-3.9,0-5.8c0.1-4.3,0.8-5.1,5.1-5.2c1.3,0,2.7,0,4,0
		c9.2,0,9.2,0,9.2,9.2c0,6.5,0,6.5,6.5,7.5c4.9,0.8,9.7,2.2,14.2,4.2c2.5,1.1,3.5,2.9,2.7,5.5c-1.2,4-2.2,7.9-3.5,11.9
		c-1.2,3.7-2.4,4.2-5.9,2.5c-7.2-3.5-14.7-4.9-22.6-4.5c-2.1,0.1-4.1,0.4-6,1.2c-6.8,3-7.9,10.5-2.1,15.2c2.9,2.4,6.3,4.1,9.8,5.5
		c6,2.5,12.1,4.9,17.9,8.1C367.9,176.2,372.9,199.2,360,214.8z"/>
</g>
</svg>
