<?xml version="1.0" encoding="utf-8"?>
<!-- Generator: Adobe Illustrator 18.0.0, SVG Export Plug-In . SVG Version: 6.00 Build 0)  -->
<!DOCTYPE svg PUBLIC "-//W3C//DTD SVG 1.1//EN" "http://www.w3.org/Graphics/SVG/1.1/DTD/svg11.dtd">
<svg version="1.1" id="Layer_1" xmlns="http://www.w3.org/2000/svg" xmlns:xlink="http://www.w3.org/1999/xlink" x="0px" y="0px"
	 viewBox="0 0 512 512" enable-background="new 0 0 512 512" xml:space="preserve">
<g>
	<g>
		<path fill="#333333" d="M419.2,97.6C375.6,54,317.6,30,256,30c-10.3,0-20.4,0.7-30.4,2c10.2,11,18.1,23.6,23.5,37.2
			c2.3-0.1,4.6-0.1,6.9-0.1c5.7,0,11.3,0.3,16.8,0.7c19.8,30.6,34.5,64,43.8,98.8h-71.8c-5.1,11.2-12.4,24.4-22.9,39h102.7
			c2.4,16.7,3.7,33.6,3.7,50.7c0,18.7-1.5,37.1-4.4,55.3H186.2c-2.4-16.6-3.6-33.4-3.6-50.4c0-3.7,0.1-7.4,0.2-11
			c-7.8,7.4-16.4,15-25.9,22.6c-3.9,3.1-8.3,5.2-12.9,6.2c0.5,10.9,1.4,21.8,2.8,32.5H71.7c-4.8-16.8-7.4-34.5-7.4-52.8
			c0-11.6,1-22.9,3-33.9c-12.8-15.1-22.4-29.1-29.4-41.6c-8.3,24-12.6,49.4-12.6,75.5c0,61.6,24,119.6,67.6,163.2
			c43.6,43.6,101.5,67.6,163.2,67.6s119.6-24,163.2-67.6c43.6-43.6,67.6-101.5,67.6-163.2S462.8,141.2,419.2,97.6z M87.7,352.6H154
			c7.1,30,17.8,59,31.8,86.6C143.9,422.7,109.2,391.8,87.7,352.6z M324.8,81.8c42.4,16.4,77.6,47.4,99.3,86.8h-67.3
			C349.7,138.5,338.9,109.4,324.8,81.8z M269.4,452c-4.4,0.3-8.9,0.5-13.4,0.5c-6.1,0-12.1-0.3-18-0.9c-19.8-30.7-34.5-64.1-43.8-99
			h121.1C305.5,387.8,290,421.3,269.4,452z M321.5,441c15-28,26.5-57.7,34.2-88.3h68.6C402,393.2,365.5,424.9,321.5,441z
			 M363.4,313.6c2.6-18.2,3.9-36.7,3.9-55.3c0-17-1.1-34-3.3-50.7h76.3c4.9,16.9,7.5,34.7,7.5,53.1c0,18.3-2.6,36-7.4,52.8H363.4z"
			/>
	</g>
	<path fill="#E2574C" d="M228.9,113c0-51.1-41.4-92.5-92.5-92.5S43.9,61.9,43.9,113c0,6,0.6,11.9,1.7,17.6l0,0c0,0,0.2,1,0.6,2.9
		c1.4,6.4,3.5,12.5,6.2,18.3c9.6,22.8,32.2,61.4,84,102.9c51.7-41.6,74.3-80.1,84-102.9c2.7-5.8,4.8-12,6.2-18.3
		c0.4-1.9,0.6-2.9,0.6-2.9l0,0C228.3,124.8,228.9,119,228.9,113z M136.4,167.4c-30.1,0-54.5-24.4-54.5-54.5
		c0-30.1,24.4-54.5,54.5-54.5s54.5,24.4,54.5,54.5C190.9,143.1,166.5,167.4,136.4,167.4z"/>
</g>
</svg>
