<?xml version="1.0" encoding="utf-8"?>
<!-- Generator: Adobe Illustrator 18.0.0, SVG Export Plug-In . SVG Version: 6.00 Build 0)  -->
<!DOCTYPE svg PUBLIC "-//W3C//DTD SVG 1.1//EN" "http://www.w3.org/Graphics/SVG/1.1/DTD/svg11.dtd">
<svg version="1.1" id="Layer_1" xmlns="http://www.w3.org/2000/svg" xmlns:xlink="http://www.w3.org/1999/xlink" x="0px" y="0px"
	 viewBox="0 0 512 512" enable-background="new 0 0 512 512" xml:space="preserve">
<g>
	<g id="XMLID_13_">
		<path fill="#E2574C" d="M296.8,256.7l-35.4-23v-42.2c0-2.9-2.3-5.2-5.2-5.2c-2.9,0-5.2,2.3-5.2,5.2v42.2l-35.4,23
			c-2.4,1.6-3.1,4.8-1.5,7.2c1,1.5,2.7,2.4,4.4,2.4c1,0,2-0.3,2.8-0.8l35-22.7l35,22.7c0.9,0.6,1.9,0.8,2.8,0.8
			c1.7,0,3.4-0.8,4.4-2.4C299.9,261.5,299.2,258.3,296.8,256.7z"/>
	</g>
	<g id="XMLID_51_">
		<path fill="#E2574C" d="M394,401.8l-35.4-23v-42.2c0-2.9-2.3-5.2-5.2-5.2c-2.9,0-5.2,2.3-5.2,5.2v42.2l-35.4,23
			c-2.4,1.6-3.1,4.8-1.5,7.2c1,1.5,2.7,2.4,4.4,2.4c1,0,2-0.3,2.8-0.8l35-22.7l35,22.7c0.9,0.6,1.9,0.8,2.8,0.8
			c1.7,0,3.4-0.8,4.4-2.4C397.1,406.6,396.4,403.4,394,401.8z"/>
	</g>
	<g id="XMLID_12_">
		<path fill="#E2574C" d="M199.6,401.8l-35.4-23v-42.2c0-2.9-2.3-5.2-5.2-5.2c-2.9,0-5.2,2.3-5.2,5.2v42.2l-35.4,23
			c-2.4,1.6-3.1,4.8-1.5,7.2c1,1.5,2.7,2.4,4.4,2.4c1,0,2-0.3,2.8-0.8l35-22.7l35,22.7c0.9,0.6,1.9,0.8,2.8,0.8
			c1.7,0,3.4-0.8,4.4-2.4C202.7,406.6,202,403.4,199.6,401.8z"/>
	</g>
	<path fill="#333333" d="M273.4,124.1c0-3.5,0-20.7,0-20.7c2.6-1.7,4.3-4.7,4.3-8.1V76.2c0-12-9.7-21.6-21.6-21.6h0h0
		c-12,0-21.6,9.7-21.6,21.6v19.2c0,3.4,1.7,6.3,4.3,8.1l0,20.7c0,0.4-0.2,0.7-0.5,0.9c-2.9,1.4-17.3,8.7-30.6,19.6
		c-2.4,2-3.7,4.9-3.7,8v14.7h45.3l4.5-20.5c-9-12.6,0.7-13.2,2.4-13.2h0h0c1.7,0,11.4,0.6,2.4,13.2l4.5,20.5h45.3v-14.7
		c0-3.1-1.4-6-3.7-8c-13.3-10.9-27.7-18.2-30.6-19.6C273.6,124.8,273.4,124.5,273.4,124.1z"/>
	<path fill="#333333" d="M370.5,269.2c0-3.5,0-20.7,0-20.7c2.6-1.7,4.3-4.7,4.3-8.1v-19.2c0-12-9.7-21.6-21.6-21.6h0h0
		c-12,0-21.6,9.7-21.6,21.6v19.2c0,3.4,1.7,6.3,4.3,8.1l0,20.7c0,0.4-0.2,0.7-0.5,0.9c-2.9,1.4-17.3,8.7-30.6,19.6
		c-2.4,2-3.7,4.9-3.7,8v14.7h45.3l4.5-20.5c-9-12.6,0.7-13.2,2.4-13.2h0h0c1.7,0,11.4,0.6,2.4,13.2l4.5,20.5h45.3v-14.7
		c0-3.1-1.4-6-3.7-8c-13.3-10.9-27.7-18.2-30.6-19.6C370.7,269.9,370.5,269.5,370.5,269.2z"/>
	<path fill="#333333" d="M176.2,269.2c0-3.5,0-20.7,0-20.7c2.6-1.7,4.3-4.7,4.3-8.1v-19.2c0-12-9.7-21.6-21.6-21.6h0h0
		c-12,0-21.6,9.7-21.6,21.6v19.2c0,3.4,1.7,6.3,4.3,8.1l0,20.7c0,0.4-0.2,0.7-0.5,0.9c-2.9,1.4-17.3,8.7-30.6,19.6
		c-2.4,2-3.7,4.9-3.7,8v14.7H152l4.5-20.5c-9-12.6,0.7-13.2,2.4-13.2h0h0c1.7,0,11.4,0.6,2.4,13.2l4.5,20.5h45.3v-14.7
		c0-3.1-1.4-6-3.7-8c-13.3-10.9-27.7-18.2-30.6-19.6C176.4,269.9,176.2,269.5,176.2,269.2z"/>
	<path fill="#333333" d="M467.7,414.2c0-3.5,0-20.7,0-20.7c2.6-1.7,4.3-4.7,4.3-8.1v-19.2c0-12-9.7-21.6-21.6-21.6h0h0
		c-12,0-21.6,9.7-21.6,21.6v19.2c0,3.4,1.7,6.3,4.3,8.1l0,20.7c0,0.4-0.2,0.7-0.5,0.9c-2.9,1.4-17.3,8.7-30.6,19.6
		c-2.4,2-3.7,4.9-3.7,8v14.7h45.3l4.5-20.5c-9-12.6,0.7-13.2,2.4-13.2h0h0c1.7,0,11.4,0.6,2.4,13.2l4.5,20.5h45.3v-14.7
		c0-3.1-1.4-6-3.7-8c-13.3-10.9-27.7-18.2-30.6-19.6C467.9,414.9,467.7,414.6,467.7,414.2z"/>
	<path fill="#333333" d="M273.4,414.2c0-3.5,0-20.7,0-20.7c2.6-1.7,4.3-4.7,4.3-8.1v-19.2c0-12-9.7-21.6-21.6-21.6l0,0h0
		c-12,0-21.6,9.7-21.6,21.6v19.2c0,3.4,1.7,6.3,4.3,8.1l0,20.7c0,0.4-0.2,0.7-0.5,0.9c-2.9,1.4-17.3,8.7-30.6,19.6
		c-2.4,2-3.7,4.9-3.7,8v14.7h45.3l4.5-20.5c-9-12.6,0.7-13.2,2.4-13.2h0h0c1.7,0,11.4,0.6,2.4,13.2l4.5,20.5h45.3v-14.7
		c0-3.1-1.4-6-3.7-8c-13.3-10.9-27.7-18.2-30.6-19.6C273.6,414.9,273.4,414.6,273.4,414.2z"/>
	<path fill="#333333" d="M78.9,414.2c0-3.5,0-20.7,0-20.7c2.6-1.7,4.3-4.7,4.3-8.1v-19.2c0-12-9.7-21.6-21.6-21.6h0h0
		c-12,0-21.6,9.7-21.6,21.6v19.2c0,3.4,1.7,6.3,4.3,8.1l0,20.7c0,0.4-0.2,0.7-0.5,0.9c-2.9,1.4-17.3,8.7-30.6,19.6
		c-2.4,2-3.7,4.9-3.7,8l0,14.7h45.3l4.5-20.5c-9-12.6,0.7-13.2,2.4-13.2h0h0c1.7,0,11.4,0.6,2.4,13.2l4.5,20.5h45.3v-14.7
		c0-3.1-1.4-6-3.7-8c-13.3-10.9-27.7-18.2-30.6-19.6C79.1,414.9,78.9,414.6,78.9,414.2z"/>
</g>
</svg>
