<?xml version="1.0" encoding="utf-8"?>
<!-- Generator: Adobe Illustrator 18.0.0, SVG Export Plug-In . SVG Version: 6.00 Build 0)  -->
<!DOCTYPE svg PUBLIC "-//W3C//DTD SVG 1.1//EN" "http://www.w3.org/Graphics/SVG/1.1/DTD/svg11.dtd">
<svg version="1.1" id="Layer_1" xmlns="http://www.w3.org/2000/svg" xmlns:xlink="http://www.w3.org/1999/xlink" x="0px" y="0px"
	 viewBox="0 0 512 512" enable-background="new 0 0 512 512" xml:space="preserve">
<g>
	<g>
		<path fill="#333333" d="M401,136.9L401,136.9c-0.1,0-0.1,0-0.2,0c-0.1,0-0.1,0-0.2,0v0c-33-0.3-28.2-44.5-28.2-44.5
			c1.4-29.5,26-29.2,28.4-29.1c2.4-0.1,27.1-0.3,28.4,29.1C429.3,92.5,434.1,136.6,401,136.9z"/>
		<path fill="#333333" d="M250.9,238L250.9,238c0,7,6.4,12.3,13.4,11l67.2-13.2c4-0.8,7.5-3.1,9.8-6.4l14-20.1
			c0.6-0.9,1.9-0.5,2.1,0.5l5.7,56.4l7,171.8c0.2,6,5.3,10.7,11.3,10.6c5.7-0.1,10.4-4.5,10.8-10.2l12-120.2l22.6,121.2
			c1,6,6.7,10,12.7,9.1h0c5.6-0.9,9.7-5.9,9.4-11.6l-8.5-155.3l51.1-43.7c8.8-7.6,9.8-20.9,2.3-29.7l-42.5-45.9
			c-1.3-1.4-2.7-2.7-4.3-3.7c-11.7-8-24.8-13.3-24.8-13.3l-11.5,36.2l-6.7-19c12-16.8-1.4-17.3-3.2-17.3c-1.8,0-15.2,0.5-3.2,17.3
			l-6.7,19l-11.5-36.2c0,0-15,6.1-27.3,15.1c-3.2,2.4-4.6,3.8-7.5,6.6c-0.3,0.3-0.6,0.7-0.9,1.2l0,0l-27.2,42.8L259,227.2
			C254.2,228.6,250.9,233,250.9,238z M466.1,224.1l-26,26.3l4.7-45.5L466.1,224.1z"/>
	</g>
	<path fill="#333333" d="M22.9,448.7h66.8c5.4,0,9.8-4.4,9.8-9.8V246c0-5.4-4.4-9.8-9.8-9.8H22.9c-5.4,0-9.8,4.4-9.8,9.8v192.9
		C13.1,444.3,17.5,448.7,22.9,448.7z M32.7,255.8h47.3v173.4H32.7V255.8z"/>
	<path fill="#333333" d="M237.1,287.4c-5.4,0-9.8,4.4-9.8,9.8v141.7c0,5.4,4.4,9.8,9.8,9.8h66.8c5.4,0,9.8-4.4,9.8-9.8V297.2
		c0-5.4-4.4-9.8-9.8-9.8H237.1z M278.9,429.1l15.2-15.2v15.2H278.9z M248,429.1l46.1-46.1v15.4l-30.7,30.7H248z M246.8,399.4
		l47.3-47.3v15.4l-47.3,47.3V399.4z M246.8,368.5l47.3-47.3v15.4l-47.3,47.3V368.5z M246.8,337.6l30.6-30.6h15.5L246.8,353V337.6z
		 M246.8,306.9H262l-15.2,15.2V306.9z"/>
	<path fill="#E2574C" d="M120.2,438.9V167.6c0-5.4,4.4-9.8,9.8-9.8h66.8c5.4,0,9.8,4.4,9.8,9.8v271.3c0,5.4-4.4,9.8-9.8,9.8H130
		C124.6,448.7,120.2,444.3,120.2,438.9z"/>
</g>
</svg>
