<?xml version="1.0" encoding="utf-8"?>
<!-- Generator: Adobe Illustrator 18.0.0, SVG Export Plug-In . SVG Version: 6.00 Build 0)  -->
<!DOCTYPE svg PUBLIC "-//W3C//DTD SVG 1.1//EN" "http://www.w3.org/Graphics/SVG/1.1/DTD/svg11.dtd">
<svg version="1.1" id="Layer_1" xmlns="http://www.w3.org/2000/svg" xmlns:xlink="http://www.w3.org/1999/xlink" x="0px" y="0px"
	 viewBox="0 0 512 512" enable-background="new 0 0 512 512" xml:space="preserve">
<g>
	<path fill="#333333" d="M204.6,168.1h8.3h9.5H301h11.9h5.8c6.9,0,12.6-5.7,12.6-12.6c0-6.9-5.6-12.6-12.6-12.6h-5.8H273h-22.6
		h-37.5h-8.3c-6.9,0-12.6,5.7-12.6,12.6C192,162.5,197.7,168.1,204.6,168.1z"/>
	<path fill="#333333" d="M111,268.6h77.5v0h52.8v0h77.5c6.9,0,12.6-5.7,12.6-12.6c0-6.9-5.6-12.6-12.6-12.6h-55.9h-22.3h-51.3h-26.4
		H111c-6.9,0-12.6,5.7-12.6,12.6C98.5,262.9,104.1,268.6,111,268.6z"/>
	<path fill="#333333" d="M111,218.3h51.8h31.7h40.8h27.6h55.9c6.9,0,12.6-5.7,12.6-12.6c0-6.9-5.6-12.6-12.6-12.6h-94v0H205v0h-94
		c-6.9,0-12.6,5.7-12.6,12.6C98.5,212.7,104.1,218.3,111,218.3z"/>
	<path fill="#333333" d="M111,293.7c-6.9,0-12.6,5.7-12.6,12.6v0c0,6.9,5.6,12.6,12.6,12.6h51.8h38.1h28h34h38l13.7-25.1h-77v0
		h-45.4v0H111z"/>
	<path fill="#333333" d="M111,419.2h170.8c0-0.4-0.1-0.8-0.2-1.2l-0.9-24H111c-6.9,0-12.6,5.6-12.6,12.6S104.1,419.2,111,419.2z"/>
	<path fill="#333333" d="M111,369h79.5h48.7h40.5l-0.1-3.4c-0.2-4.7,0.9-9.5,3.2-13.6l4.4-8.1h-71.6h-1.4H111
		c-6.9,0-12.6,5.7-12.6,12.6C98.5,363.4,104.1,369,111,369z"/>
	<path fill="#333333" d="M333.9,40.5H159.4c-3.1,0-6.2,0.6-9,1.8c-2.9,1.2-5.5,2.9-7.7,5l-90.9,87.4c-2.3,2.2-4.2,4.9-5.5,7.9
		c-1.3,3-1.9,6.2-1.9,9.4v266.1c0,29.4,23.8,53.3,53.3,53.3h236.3c29.4,0,53.3-23.8,53.3-53.3v-15v-13.7v-24.4l-8,14.7h0l0,0.1
		l-10.3,18.9c-0.1,0.1-0.2,0.2-0.3,0.4l-6.5,12v7.1c0,15.5-12.6,28.2-28.2,28.2H97.6c-15.5,0-28.2-12.6-28.2-28.2V159.7H114
		c29.4,0,53.3-23.9,53.3-53.3V65.6h166.6c15.5,0,28.2,12.6,28.2,28.2v28.5v84l3.2-5.9v0l21.9-40.8v-28.9v-8.4V93.8
		C387.2,64.4,363.3,40.5,333.9,40.5z"/>
	<g>
		<g>
			<path fill="#E2574C" d="M424.3,194.6l-94.2,173.7c-0.1-0.1-0.2-0.2-0.4-0.2c-4.3-2.4-8.9-4-13.5-5l95.2-175.5l-12.9-7l-98.1,181
				c-0.5,1-0.8,2.1-0.8,3.2l2.1,52.5c0,1,1.2,1.6,2,1.1l45.1-26.9c1-0.6,1.8-1.4,2.3-2.4l98.1-181L424.3,194.6z"/>
		</g>
		<g>
			<path fill="#E2574C" d="M427,159.1c1.9-3.6,6.4-4.9,10-2.9c3.6,1.9,4.9,6.4,2.9,10l-6.7,12.3l25,13.5l6-11.1
				c7.6-14,2.4-31.6-11.6-39.2c-14-7.6-31.6-2.4-39.2,11.6l-6,11.1l12.9,7L427,159.1z"/>
		</g>
	</g>
</g>
</svg>
