<?xml version="1.0" encoding="utf-8"?>
<!-- Generator: Adobe Illustrator 18.0.0, SVG Export Plug-In . SVG Version: 6.00 Build 0)  -->
<!DOCTYPE svg PUBLIC "-//W3C//DTD SVG 1.1//EN" "http://www.w3.org/Graphics/SVG/1.1/DTD/svg11.dtd">
<svg version="1.1" id="Layer_1" xmlns="http://www.w3.org/2000/svg" xmlns:xlink="http://www.w3.org/1999/xlink" x="0px" y="0px"
	 viewBox="0 0 512 512" enable-background="new 0 0 512 512" xml:space="preserve">
<g id="XMLID_5701_">
	<g id="XMLID_5708_">
		<path fill="#E2574C" d="M500.3,347.8c-28.1-23.1-58.3-38.3-64.5-41.4c-0.7-0.3-1.1-1-1.1-1.8V261c5.5-3.7,9.1-9.9,9.1-17v-45.3
			c0-22.5-18.3-40.8-40.8-40.8h-4.9h-4.9c-22.5,0-40.8,18.3-40.8,40.8V244c0,7.1,3.6,13.3,9.1,17v43.7c0,0.3-0.1,0.5-0.1,0.8
			c8.6,5.9,17.6,12.5,26.3,19.7c10.3,8.4,16.1,20.9,16.1,34.2v36.5h104.4v-31C508.3,358.2,505.4,352,500.3,347.8z"/>
	</g>
	<g id="XMLID_5705_">
		<path fill="#333333" d="M299,288.7v-51.3c6.5-4.3,10.7-11.6,10.7-20v-53.2c0-26.5-21.5-48-48-48H256h-5.7c-26.5,0-48,21.5-48,48
			v53.2c0,8.3,4.3,15.7,10.7,20v51.3c0,0.9-0.5,1.7-1.3,2.1c-7.2,3.5-42.8,21.5-75.8,48.6c-6,4.9-9.4,12.2-9.4,19.9v36.5H256h129.4
			v-36.5c0-7.7-3.4-15-9.4-19.9c-33-27.1-68.5-45.1-75.8-48.6C299.5,290.4,299,289.6,299,288.7z"/>
	</g>
	<g id="XMLID_5702_">
		<path fill="#E2574C" d="M11.7,347.8c28.1-23.1,58.3-38.3,64.5-41.4c0.7-0.3,1.1-1,1.1-1.8V261c-5.5-3.7-9.1-9.9-9.1-17v-45.3
			c0-22.5,18.3-40.8,40.8-40.8h4.9h4.9c22.5,0,40.8,18.3,40.8,40.8V244c0,7.1-3.6,13.3-9.1,17v43.7c0,0.3,0.1,0.5,0.1,0.8
			c-8.6,5.9-17.6,12.5-26.3,19.7c-10.3,8.4-16.1,20.9-16.1,34.2v36.5H3.7v-31C3.7,358.2,6.6,352,11.7,347.8z"/>
	</g>
</g>
</svg>
