<?xml version="1.0" encoding="utf-8"?>
<!-- Generator: Adobe Illustrator 18.0.0, SVG Export Plug-In . SVG Version: 6.00 Build 0)  -->
<!DOCTYPE svg PUBLIC "-//W3C//DTD SVG 1.1//EN" "http://www.w3.org/Graphics/SVG/1.1/DTD/svg11.dtd">
<svg version="1.1" id="Layer_1" xmlns="http://www.w3.org/2000/svg" xmlns:xlink="http://www.w3.org/1999/xlink" x="0px" y="0px"
	 viewBox="0 0 512 512" enable-background="new 0 0 512 512" xml:space="preserve">
<g id="XMLID_75_">
	<path id="XMLID_654_" fill="#E2574C" d="M105.3,339.2c6.7,0,12.1-5.4,12.1-12.1v-35.5h126.5v35.5c0,6.7,5.4,12.1,12.1,12.1
		c6.7,0,12.1-5.4,12.1-12.1v-35.5h126.5v35.5c0,6.7,5.4,12.1,12.1,12.1c6.7,0,12.1-5.4,12.1-12.1v-47.6c0-6.7-5.4-12.1-12.1-12.1
		H268.5v-38.6c0-6.7-5.4-12.1-12.1-12.1c-6.7,0-12.1,5.4-12.1,12.1v38.6h-139c-6.7,0-12.1,5.4-12.1,12.1v47.6
		C93.2,333.7,98.6,339.2,105.3,339.2z"/>
	<g id="XMLID_283_">
		<path fill="#333333" d="M337.2,174.6v22.9h-70.6l-7-31.9c14.1-19.6-1.1-20.6-3.7-20.6h0h0c-2.6,0-17.8,1-3.7,20.6l-7,31.9h-70.6
			v-22.9c0-4.8,2.1-9.4,5.9-12.5c20.7-17,43-28.3,47.5-30.5c0.5-0.3,0.8-0.8,0.8-1.3V98c-4.1-2.7-6.7-7.3-6.7-12.5V52.1
			c0-16.6,13.5-30.1,30.1-30.1h3.6h3.6c16.6,0,30.1,13.5,30.1,30.1v33.4c0,5.2-2.7,9.8-6.7,12.5v32.2c0,0.6,0.3,1.1,0.8,1.3
			c4.5,2.2,26.9,13.5,47.5,30.5C335.1,165.1,337.2,169.7,337.2,174.6z"/>
	</g>
	<g id="XMLID_652_">
		<path fill="#333333" d="M315.8,473.2V490h-52l-5.1-23.5c10.4-14.5-0.8-15.2-2.7-15.2h0h0c-1.9,0-13.1,0.7-2.7,15.2l-5.1,23.5h-52
			v-16.9c0-3.6,1.6-7,4.3-9.2c15.2-12.5,31.7-20.8,35-22.5c0.4-0.2,0.6-0.6,0.6-1v-23.7c-3-2-5-5.4-5-9.2v-24.6
			c0-12.2,9.9-22.2,22.2-22.2h2.6h2.6c12.2,0,22.2,9.9,22.2,22.2v24.6c0,3.9-2,7.2-5,9.2v23.7c0,0.4,0.2,0.8,0.6,1
			c3.3,1.6,19.8,9.9,35,22.5C314.2,466.2,315.8,469.6,315.8,473.2z"/>
	</g>
	<g id="XMLID_670_">
		<path fill="#333333" d="M166.2,473.2V490h-52l-5.1-23.5c10.4-14.5-0.8-15.2-2.7-15.2h0h0c-1.9,0-13.1,0.7-2.7,15.2L98.5,490h-52
			v-16.9c0-3.6,1.6-7,4.3-9.2c15.2-12.5,31.7-20.8,35-22.5c0.4-0.2,0.6-0.6,0.6-1v-23.7c-3-2-5-5.4-5-9.2v-24.6
			c0-12.2,9.9-22.2,22.2-22.2h2.6h2.6c12.2,0,22.2,9.9,22.2,22.2v24.6c0,3.9-2,7.2-5,9.2v23.7c0,0.4,0.2,0.8,0.6,1
			c3.3,1.6,19.8,9.9,35,22.5C164.6,466.2,166.2,469.6,166.2,473.2z"/>
	</g>
	<g id="XMLID_653_">
		<path fill="#333333" d="M465.5,473.2V490h-52l-5.1-23.5c10.4-14.5-0.8-15.2-2.7-15.2h0h0c-1.9,0-13.1,0.7-2.7,15.2l-5.1,23.5h-52
			v-16.9c0-3.6,1.6-7,4.3-9.2c15.2-12.5,31.7-20.8,35-22.5c0.4-0.2,0.6-0.6,0.6-1v-23.7c-3-2-5-5.4-5-9.2v-24.6
			c0-12.2,9.9-22.2,22.2-22.2h2.6h2.6c12.2,0,22.2,9.9,22.2,22.2v24.6c0,3.9-2,7.2-5,9.2v23.7c0,0.4,0.2,0.8,0.6,1
			c3.3,1.6,19.8,9.9,35,22.5C463.9,466.2,465.5,469.6,465.5,473.2z"/>
	</g>
</g>
</svg>
