<?xml version="1.0" encoding="utf-8"?>
<!-- Generator: Adobe Illustrator 18.0.0, SVG Export Plug-In . SVG Version: 6.00 Build 0)  -->
<!DOCTYPE svg PUBLIC "-//W3C//DTD SVG 1.1//EN" "http://www.w3.org/Graphics/SVG/1.1/DTD/svg11.dtd">
<svg version="1.1" id="Layer_1" xmlns="http://www.w3.org/2000/svg" xmlns:xlink="http://www.w3.org/1999/xlink" x="0px" y="0px"
	 viewBox="0 0 512 512" enable-background="new 0 0 512 512" xml:space="preserve">
<g>
	<path fill="#333333" d="M457.7,56.9H132.3c-20,0-36.1,16.2-36.1,36.1v16.7h27.8V93c0-4.6,3.7-8.3,8.3-8.3h325.4
		c4.6,0,8.3,3.7,8.3,8.3v174c0,4.6-3.7,8.3-8.3,8.3h-18v27.8h18c20,0,36.1-16.2,36.1-36.1V93C493.8,73.1,477.6,56.9,457.7,56.9z"/>
	<path fill="#333333" d="M379.7,133.5H54.3c-20,0-36.1,16.2-36.1,36.1v174c0,20,16.2,36.1,36.1,36.1h59.8v-22.4
		c0-1.8,0.1-3.7,0.3-5.4H54.3c-4.6,0-8.3-3.7-8.3-8.3V234.3h342v109.3c0,4.6-3.7,8.3-8.3,8.3h-60.2c0.2,1.8,0.3,3.6,0.3,5.4v22.4
		h59.8c20,0,36.1-16.2,36.1-36.1v-174C415.9,149.7,399.7,133.5,379.7,133.5z M388.1,188.1H46v-18.4c0-4.6,3.7-8.3,8.3-8.3h325.4
		c4.6,0,8.3,3.7,8.3,8.3V188.1z"/>
	<g id="XMLID_221_">
		<g>
			<path fill="#E2574C" d="M274.8,342.4h-0.4v-19.8c0-31.4-25.5-56.9-56.9-56.9c-31.4,0-56.9,25.5-56.9,56.9v19.8h-1.3
				c-8.3,0-15,6.7-15,15v82.7c0,8.3,6.7,15,15,15h115.5c8.3,0,15-6.7,15-15v-82.7C289.8,349.1,283.1,342.4,274.8,342.4z
				 M185.5,322.6c0-17.6,14.3-32,32-32s32,14.3,32,32v19.8h-64V322.6z M225.9,402.4c-1.1,0.8-1.5,1.7-1.5,3c0,6.1,0,12.1,0,18.2v0
				c0.1,2.5-1.2,5-3.4,6.1c-5.3,2.7-10.6-1.1-10.6-6.1c0,0,0,0,0,0c0-6.1,0-12.2,0-18.3c0-1.2-0.3-2.1-1.4-2.9
				c-5.5-4.1-7.3-11-4.6-17.1c2.7-5.9,9.2-9.4,15.4-8.2c6.8,1.4,11.6,6.9,11.7,13.8C231.7,395.8,229.8,399.6,225.9,402.4z"/>
		</g>
	</g>
</g>
</svg>
