<?xml version="1.0" encoding="utf-8"?>
<!-- Generator: Adobe Illustrator 18.0.0, SVG Export Plug-In . SVG Version: 6.00 Build 0)  -->
<!DOCTYPE svg PUBLIC "-//W3C//DTD SVG 1.1//EN" "http://www.w3.org/Graphics/SVG/1.1/DTD/svg11.dtd">
<svg version="1.1" id="Layer_1" xmlns="http://www.w3.org/2000/svg" xmlns:xlink="http://www.w3.org/1999/xlink" x="0px" y="0px"
	 viewBox="0 0 512 512" enable-background="new 0 0 512 512" xml:space="preserve">
<g id="XMLID_160_">
	<path id="XMLID_475_" fill="#333333" d="M389.2,56.8c-50.7,0-91.7,41.1-91.7,91.7c0,23.8,9,45.4,23.9,61.7
		c-3.5,7.4-9.4,16.4-18.7,21c-3.1,1.5-2.4,6.2,1,6.7c10.3,1.6,25-0.2,38.8-10.5c13.7,8.1,29.6,12.8,46.7,12.8
		c25.3,0,48.3-10.3,64.9-26.9l-64.9-64.9V56.8z"/>
	<path id="XMLID_467_" fill="#E2574C" d="M494.4,131.7c-0.4-3.4-0.9-6.8-1.7-10l-77.9,31.7l7.6,7.7L494.4,131.7z"/>
	<path id="XMLID_464_" fill="#E2574C" d="M403.5,136.4l0,5.4l3.7,3.8l82.7-33.7c-1.1-3.1-2.3-6.2-3.7-9.2L403.5,136.4z"/>
	<path id="XMLID_461_" fill="#E2574C" d="M403.6,114.9l-0.1,10.8L481.4,94c-1.8-2.9-3.7-5.7-5.8-8.4L403.6,114.9z"/>
	<path id="XMLID_458_" fill="#E2574C" d="M403.7,93.4l-0.1,10.8l65-26.5c-2.6-2.6-5.3-5.1-8.2-7.4L403.7,93.4z"/>
	<path id="XMLID_455_" fill="#E2574C" d="M403.8,71.9l-0.1,10.8l47-19.1c-3.7-2.3-7.6-4.3-11.7-6L403.8,71.9z"/>
	<path id="XMLID_451_" fill="#E2574C" d="M403.8,61.1l20.5-8.3c-6.6-1.5-13.4-2.4-20.4-2.4L403.8,61.1z"/>
	<path id="XMLID_437_" fill="#E2574C" d="M467.8,206.8c4.9-4.8,9.2-10.2,12.8-16l-20.4,8.3L467.8,206.8z"/>
	<path id="XMLID_406_" fill="#E2574C" d="M452.7,191.5l35.1-14.3c1.7-4,3.1-8.2,4.2-12.4l-46.9,19.1L452.7,191.5z"/>
	<path id="XMLID_171_" fill="#E2574C" d="M429.9,168.6l7.6,7.7l56.7-23.1c0.4-3.6,0.7-7.2,0.7-10.9c0,0,0-0.1,0-0.1L429.9,168.6z"/>
	<path id="XMLID_170_" fill="#333333" d="M164.6,461.6h143.2l4.3-77.9c-0.7-23.1-5.1-39-28.6-53.8c-18.7-11.7-38.6-22.5-51.7-29.3
		l24.6,61.4l-31.8-4.7l-39.1,57.3l-19.6,28.8l-0.5,0l-0.4,1.3h0L209,302.1v-25.9c0,0,48.9,1.5,72.1-22.2c0,0-33.8-9.6-27.7-71.1
		c6.1-61.5-7.6-115.5-57-110.9c0,0-21.4-25.8-64.1-9.6C117.7,68,78.4,82.1,80.4,167.3c2,85.2-30.3,85.7-30.3,85.7
		s16.6,24.2,73.1,23.7v25.4l41,142.5h0l-0.4-1.3l-0.5,0l-19.6-28.8l-39.1-57.3L72.7,362l24.6-61.4c-13.1,6.8-33,17.5-51.7,29.3
		c-23.6,14.8-28,30.8-28.6,53.8l4.3,77.9H164.6z"/>
</g>
</svg>
