<?xml version="1.0" encoding="utf-8"?>
<!-- Generator: Adobe Illustrator 18.0.0, SVG Export Plug-In . SVG Version: 6.00 Build 0)  -->
<!DOCTYPE svg PUBLIC "-//W3C//DTD SVG 1.1//EN" "http://www.w3.org/Graphics/SVG/1.1/DTD/svg11.dtd">
<svg version="1.1" id="Layer_1" xmlns="http://www.w3.org/2000/svg" xmlns:xlink="http://www.w3.org/1999/xlink" x="0px" y="0px"
	 viewBox="0 0 512 512" enable-background="new 0 0 512 512" xml:space="preserve">
<g>
	<path id="XMLID_339_" fill="#333333" d="M298.7,325.4c-12.2-12-27.4-12-39.5,0c-9.2,9.2-18.5,18.3-27.6,27.7
		c-2.5,2.5-4.6,3.1-7.6,1.4c-6-3.2-12.3-5.9-18.1-9.5c-26.8-16.8-49.2-38.5-69.1-62.9c-9.9-12.1-18.7-25.1-24.7-39.6
		c-1.2-3-1-4.9,1.4-7.3c9.2-8.9,18.3-18.1,27.3-27.2c12.6-12.7,12.6-27.6-0.1-40.5c-7.2-7.3-14.5-14.5-21.7-21.7
		c-7.5-7.5-14.8-15-22.4-22.3c-12.2-12-27.4-12-39.5,0c-9.3,9.1-18.3,18.6-27.7,27.5c-8.8,8.4-13.2,18.5-14.1,30.4
		c-1.4,19.3,3.3,37.5,9.9,55.4C39,273.5,59.8,306.1,85,336.1c34,40.5,74.7,72.6,122.3,95.7c21.4,10.4,43.7,18.4,67.8,19.7
		c16.6,0.9,31.1-3.3,42.6-16.2c7.9-8.9,16.8-16.9,25.2-25.4c12.4-12.5,12.5-27.8,0.2-40.2C328.3,354.9,313.6,340.1,298.7,325.4z"/>
	<path id="XMLID_615_" fill="#E2574C" d="M394.4,60.4h-80.8c-56.3,0-102.4,46.1-102.4,102.4c0,22,7.1,42.4,19,59.2
		c-4.8,11-13.6,25.5-28,32.6c-4.5,2.2-3.4,8.9,1.5,9.6c15.1,2.4,36.8,1.7,56.8-13.9c15.5,9.5,33.7,14.9,53.1,14.9h80.8
		c56.3,0,102.4-46.1,102.4-102.4C496.9,106.5,450.8,60.4,394.4,60.4z M289.8,184.2c-3.7,0-7.1-0.9-10.1-2.6
		c-5.9-3.2-10.1-9.2-11-16.2v-5.1c0.8-7,5-13,11-16.2c3-1.6,6.5-2.6,10.1-2.6c11.7,0,21.3,9.5,21.3,21.3
		C311.1,174.6,301.6,184.2,289.8,184.2z M355.2,185.6c-11.7,0-21.3-9.5-21.3-21.3c0-11.7,9.5-21.3,21.3-21.3
		c11.7,0,21.3,9.5,21.3,21.3C376.5,176,367,185.6,355.2,185.6z M420.7,186.9c-1.5,0-2.9-0.1-4.3-0.4c-1.4-0.3-2.7-0.7-4-1.2
		c-7.6-3.2-13-10.8-13-19.6c0-8.8,5.4-16.4,13-19.6c1.3-0.5,2.6-1,4-1.2c1.4-0.3,2.8-0.4,4.3-0.4c11.7,0,21.3,9.5,21.3,21.3
		C441.9,177.4,432.4,186.9,420.7,186.9z"/>
</g>
</svg>
