<?xml version="1.0" encoding="utf-8"?>
<!-- Generator: Adobe Illustrator 18.0.0, SVG Export Plug-In . SVG Version: 6.00 Build 0)  -->
<!DOCTYPE svg PUBLIC "-//W3C//DTD SVG 1.1//EN" "http://www.w3.org/Graphics/SVG/1.1/DTD/svg11.dtd">
<svg version="1.1" id="Layer_1" xmlns="http://www.w3.org/2000/svg" xmlns:xlink="http://www.w3.org/1999/xlink" x="0px" y="0px"
	 viewBox="0 0 512 512" enable-background="new 0 0 512 512" xml:space="preserve">
<g>
	<path fill="#333333" d="M492.2,335.6c-23.4-19.2-48.6-32-53.8-34.5c-0.6-0.3-0.9-0.9-0.9-1.5v-36.4c4.6-3.1,7.6-8.3,7.6-14.2v-37.8
		c0-18.8-15.2-34-34-34H407H403c-18.8,0-34,15.2-34,34V249c0,5.9,3,11.1,7.6,14.2v36.4c0,0.6-0.4,1.2-0.9,1.5
		c-1.8,0.9-5.9,2.9-11.5,6v68.5H395l7.9-36.1c-15.9-22.2,1.2-23.3,4.2-23.3h0h0c3,0,20.1,1.1,4.2,23.3l7.9,36.1h79.8v-25.9
		C498.9,344.3,496.4,339.1,492.2,335.6z"/>
	<path fill="#333333" d="M19.8,335.6c23.4-19.2,48.6-32,53.8-34.5c0.6-0.3,0.9-0.9,0.9-1.5v-36.4c-4.6-3.1-7.6-8.3-7.6-14.2v-37.8
		c0-18.8,15.2-34,34-34h4.1h4.1c18.8,0,34,15.2,34,34V249c0,5.9-3,11.1-7.6,14.2v36.4c0,0.6,0.4,1.2,0.9,1.5c1.8,0.9,5.9,2.9,11.5,6
		v68.5H117l-7.9-36.1c15.9-22.2-1.2-23.3-4.2-23.3h0h0c-3,0-20.1,1.1-4.2,23.3l-7.9,36.1H13.1v-25.9
		C13.1,344.3,15.6,339.1,19.8,335.6z"/>
	<g>
		<g>
			<path fill="#E2574C" d="M294.2,188.3v-37.9c0-18.9-15.3-34.1-34.1-34.1h0H256h-4.1h0c-18.9,0-34.1,15.3-34.1,34.1v37.9
				c0,5.9,3,11.2,7.6,14.2v32.4c9.2,4.7,19.6,7.5,30.6,7.5c11,0,21.4-2.7,30.6-7.5v-32.4C291.2,199.5,294.2,194.2,294.2,188.3z"/>
			<path fill="#E2574C" d="M220.9,286.7c-14.2-4.5-27.2-11.8-38.5-21c-3.9,2.8-7.8,5.8-11.7,9c-1.7,1.4-3.2,3.2-4.3,5.1
				c-1.8,2.9-2.7,6.2-2.7,9.6v86.3h57.1V286.7z"/>
			<path fill="#E2574C" d="M341.2,274.7c-3.9-3.2-7.8-6.2-11.7-9c-11.2,9.2-24.2,16.5-38.5,21v89h57.1v-86.3c0-3.4-1-6.8-2.7-9.7
				C344.3,277.8,342.9,276.1,341.2,274.7z"/>
		</g>
	</g>
	<g>
		<path fill="#333333" d="M357.3,175.7c0-56-45.4-101.3-101.3-101.3c-56,0-101.3,45.4-101.3,101.3c0,51,37.6,93.1,86.6,100.3v8.2
			H236v133.5c0,11,9,20,20,20c11,0,20-9,20-20V284.1h-5.3V276C319.7,268.8,357.3,226.7,357.3,175.7z M256,257.5
			c-45.3,0-82-36.7-82-82s36.7-82,82-82s82,36.7,82,82S301.3,257.5,256,257.5z"/>
	</g>
</g>
</svg>
