<?xml version="1.0" encoding="utf-8"?>
<!-- Generator: Adobe Illustrator 18.0.0, SVG Export Plug-In . SVG Version: 6.00 Build 0)  -->
<!DOCTYPE svg PUBLIC "-//W3C//DTD SVG 1.1//EN" "http://www.w3.org/Graphics/SVG/1.1/DTD/svg11.dtd">
<svg version="1.1" id="Layer_1" xmlns="http://www.w3.org/2000/svg" xmlns:xlink="http://www.w3.org/1999/xlink" x="0px" y="0px"
	 viewBox="0 0 512 512" enable-background="new 0 0 512 512" xml:space="preserve">
<g>
	<g>
		<g>
			<g>
				<path fill="#333333" d="M431.9,357.5L359.4,430h80.8v-55.1c0-4.1-0.7-8.2-1.9-12.1C435.3,360.9,433.2,358.8,431.9,357.5z"/>
			</g>
			<g>
				<path fill="#333333" d="M139.9,386.5l3-3c6.8-6.8,15.8-10.5,25.4-10.5c9.6,0,18.6,3.7,25.4,10.5l3,3l11.1,11.1l14.8,14.8
					l12.9-59.2c-33.9-47.3,2.5-49.6,8.9-49.7h0h0c6.4,0,42.8,2.3,8.9,49.7l13.5,61.7l6.1-6.1l11.1-11.1l4.5-4.5l85.8-85.8
					c-30.5-19.8-55.8-32.5-63-36c-1.2-0.6-2-1.9-2-3.2v-77.6c9.8-6.5,16.2-17.6,16.2-30.2V79.8c0-40-32.5-72.5-72.5-72.5h-8.7h-8.7
					c-40,0-72.5,32.5-72.5,72.5v80.5c0,12.6,6.4,23.7,16.2,30.2V268c0,1.4-0.8,2.6-2,3.2c-10.9,5.4-64.7,32.5-114.5,73.5
					c-9,7.4-14.2,18.5-14.2,30.1V430h47.5L139.9,386.5z"/>
			</g>
		</g>
		<g id="XMLID_502_">
			<path fill="#E2574C" d="M455.9,273.1c-0.3,0-0.6,0-0.8,0c-18.4,0.8-36.8,1.7-55.2,2.6c-2.9,0.1-5.7,0.3-7.2,3.7
				c-1.6,3.4,0.2,5.4,2.2,7.3c5.6,5.7,11.2,11.4,17,16.9l-6.3,6.3l-100,100l-4.5,4.5l-11.1,11.1L246,469.4l-2.6-2.6l-52.4-52.4
				l-11.1-11.1l-3-3c-2.4-2.4-5.5-3.6-8.6-3.6c-3.1,0-6.2,1.2-8.6,3.6l-3,3l-63.5,63.5c-4.7,4.7-4.7,12.4,0,17.2l3,3
				c2.4,2.4,5.5,3.6,8.6,3.6c3.1,0,6.2-1.2,8.6-3.6l55-55l2.6,2.6l52.4,52.4l11.1,11.1l3,3c2.4,2.4,5.5,3.6,8.6,3.6
				c3.1,0,6.2-1.2,8.6-3.6l3-3l52.4-52.4l11.1-11.1l4.5-4.5l100-100l6.2-6.2l1.8,1.8c0.6,0.6,1.2,1.1,1.8,1.7c4.4,4.3,8.7,8.7,13,13
				c1.6,1.6,3.1,3.2,5.2,3.2c0.8,0,1.7-0.2,2.7-0.8c3.3-1.8,4-4.7,4.2-8c0.8-17.9,1.7-35.9,2.5-53.8
				C463.4,275.6,461.2,273.1,455.9,273.1z"/>
		</g>
	</g>
	<g id="XMLID_70_">
		<path fill="#333333" d="M411,218.7c7.2-2,13.4-5.8,18.1-11.6c13.1-15.9,8.1-39.3-10.5-49.6c-5.8-3.2-12-5.7-18.2-8.2
			c-3.6-1.5-7-3.2-10-5.6c-5.9-4.7-4.8-12.4,2.2-15.4c1.9-0.9,4-1.1,6.1-1.3c8-0.4,15.7,1,23,4.6c3.6,1.8,4.8,1.2,6-2.6
			c1.3-4,2.4-8,3.5-12.1c0.8-2.7-0.2-4.5-2.7-5.6c-4.7-2.1-9.5-3.5-14.5-4.3c-6.6-1-6.6-1.1-6.6-7.7c0-9.3,0-9.3-9.4-9.3
			c-1.4,0-2.7,0-4.1,0c-4.4,0.1-5.1,0.9-5.2,5.3c0,2,0,3.9,0,5.9c0,5.8-0.1,5.8-5.6,7.8c-13.5,4.9-21.9,14.1-22.8,28.9
			c-0.8,13,6,21.9,16.7,28.3c6.6,4,13.9,6.3,20.9,9.4c2.7,1.2,5.3,2.6,7.6,4.5c6.7,5.5,5.5,14.8-2.5,18.3c-4.3,1.9-8.8,2.3-13.4,1.8
			c-7.2-0.9-14-2.8-20.4-6.1c-3.8-2-4.9-1.5-6.2,2.6c-1.1,3.5-2.1,7.1-3.1,10.7c-1.3,4.8-0.8,5.9,3.7,8.2c5.8,2.8,12.1,4.3,18.4,5.3
			c5,0.8,5.1,1,5.2,6.2c0,2.3,0,4.7,0.1,7c0,3,1.5,4.7,4.5,4.7c3.4,0.1,6.9,0.1,10.4,0c2.8-0.1,4.3-1.6,4.3-4.5c0-3.2,0.2-6.4,0-9.6
			C406.5,221.2,407.9,219.6,411,218.7z"/>
	</g>
</g>
</svg>
