<?xml version="1.0" encoding="utf-8"?>
<!-- Generator: Adobe Illustrator 18.0.0, SVG Export Plug-In . SVG Version: 6.00 Build 0)  -->
<!DOCTYPE svg PUBLIC "-//W3C//DTD SVG 1.1//EN" "http://www.w3.org/Graphics/SVG/1.1/DTD/svg11.dtd">
<svg version="1.1" id="Layer_1" xmlns="http://www.w3.org/2000/svg" xmlns:xlink="http://www.w3.org/1999/xlink" x="0px" y="0px"
	 viewBox="0 0 512 512" enable-background="new 0 0 512 512" xml:space="preserve">
<g>
	<path fill="#333333" d="M245.7,347.7c-8.7,0-16.1,5.4-19.1,13.1h-43.7c-1-5.6-3.2-10.7-6.3-15.2l29.7-29.7
		c-1.9-1.4-3.7-2.9-5.4-4.6c-1.9-1.9-3.5-3.9-5-6l-29.8,29.8c-4.5-3.1-9.6-5.3-15.2-6.3v-43.7c7.7-3,13.1-10.4,13.1-19.1
		c0-11.3-9.2-20.5-20.5-20.5S123,254.7,123,266c0,8.7,5.4,16.1,13.1,19.1v43.7c-5.6,1-10.7,3.2-15.2,6.3L90,304.2
		c3.3-7.5,1.9-16.6-4.2-22.8c-8-8-21-8-29,0c-8,8-8,21,0,29c6.2,6.2,15.3,7.6,22.8,4.2l30.9,30.9c-3.1,4.5-5.3,9.6-6.3,15.2H60.4
		c-3-7.7-10.4-13.1-19.1-13.1c-11.3,0-20.5,9.2-20.5,20.5c0,11.3,9.2,20.5,20.5,20.5c8.7,0,16.1-5.4,19.1-13.1h43.7
		c1,5.6,3.2,10.7,6.3,15.2l-30.9,30.9c-7.5-3.3-16.6-1.9-22.8,4.2c-8,8-8,21,0,29c8,8,21,8,29,0c6.2-6.2,7.6-15.3,4.2-22.8
		l30.9-30.9c4.5,3.1,9.6,5.3,15.2,6.3v43.7c-7.7,3-13.1,10.4-13.1,19.1c0,11.3,9.2,20.5,20.5,20.5s20.5-9.2,20.5-20.5
		c0-8.7-5.4-16.1-13.1-19.1v-43.7c5.6-1,10.7-3.2,15.2-6.3l30.9,30.9c-3.3,7.5-1.9,16.6,4.2,22.8c8,8,21,8,29,0c8-8,8-21,0-29
		c-6.2-6.2-15.3-7.6-22.8-4.2l-30.9-30.9c3.1-4.5,5.3-9.6,6.3-15.2h43.7c3,7.7,10.4,13.1,19.1,13.1c11.3,0,20.5-9.2,20.5-20.5
		C266.3,356.9,257.1,347.7,245.7,347.7z M143.5,389.1c-11.5,0-20.9-9.4-20.9-20.9c0-11.5,9.4-20.9,20.9-20.9
		c11.5,0,20.9,9.4,20.9,20.9C164.4,379.8,155,389.1,143.5,389.1z"/>
	<path fill="#E2574C" d="M192,211.6c11.6,0,21.5-7.2,25.4-17.4h58.1c1.4,7.4,4.3,14.2,8.4,20.2l-41.1,41.1
		c-10-4.4-22.1-2.5-30.3,5.7c-10.7,10.7-10.7,27.9,0,38.6c10.7,10.7,27.9,10.7,38.6,0c8.2-8.2,10.1-20.3,5.7-30.3l41.1-41.1
		c6,4.1,12.8,7,20.2,8.4v58.1c-10.2,4-17.4,13.8-17.4,25.4c0,15.1,12.2,27.3,27.3,27.3c15.1,0,27.3-12.2,27.3-27.3
		c0-11.6-7.2-21.5-17.4-25.4v-58.1c7.4-1.4,14.2-4.3,20.2-8.4l41.1,41.1c-4.4,10-2.5,22.1,5.7,30.3c10.7,10.7,27.9,10.7,38.6,0
		c10.7-10.7,10.7-27.9,0-38.6c-8.2-8.2-20.3-10.1-30.3-5.7L372,214.3c4.1-6,7-12.8,8.4-20.2h58.1c4,10.2,13.8,17.4,25.4,17.4
		c15.1,0,27.3-12.2,27.3-27.3c0-15.1-12.2-27.3-27.3-27.3c-11.6,0-21.5,7.2-25.4,17.4h-58.1c-1.4-7.4-4.3-14.2-8.4-20.2l41.1-41.1
		c10,4.4,22.1,2.5,30.3-5.7c10.7-10.7,10.7-27.9,0-38.6c-10.7-10.7-27.9-10.7-38.6,0c-8.2,8.2-10.1,20.3-5.7,30.3l-41.1,41.1
		c-6-4.1-12.8-7-20.2-8.4V73.8c10.2-4,17.4-13.8,17.4-25.4c0-15.1-12.2-27.3-27.3-27.3c-15.1,0-27.3,12.2-27.3,27.3
		c0,11.6,7.2,21.5,17.4,25.4v58.1c-7.4,1.4-14.2,4.3-20.2,8.4l-41.1-41.1c4.4-10,2.5-22.1-5.7-30.3c-10.7-10.7-27.9-10.7-38.6,0
		c-10.7,10.7-10.7,27.9,0,38.6c8.2,8.2,20.3,10.1,30.3,5.7l41.1,41.1c-4.1,6-7,12.8-8.4,20.2h-58.1c-4-10.2-13.8-17.4-25.4-17.4
		c-15.1,0-27.3,12.2-27.3,27.3C164.7,199.3,177,211.6,192,211.6z M328,156.5c15.3,0,27.8,12.5,27.8,27.8c0,15.3-12.5,27.8-27.8,27.8
		c-15.3,0-27.8-12.5-27.8-27.8C300.2,168.9,312.7,156.5,328,156.5z"/>
</g>
</svg>
