<?xml version="1.0" encoding="utf-8"?>
<!-- Generator: Adobe Illustrator 18.0.0, SVG Export Plug-In . SVG Version: 6.00 Build 0)  -->
<!DOCTYPE svg PUBLIC "-//W3C//DTD SVG 1.1//EN" "http://www.w3.org/Graphics/SVG/1.1/DTD/svg11.dtd">
<svg version="1.1" id="Layer_1" xmlns="http://www.w3.org/2000/svg" xmlns:xlink="http://www.w3.org/1999/xlink" x="0px" y="0px"
	 viewBox="0 0 512 512" enable-background="new 0 0 512 512" xml:space="preserve">
<g id="XMLID_597_">
	<path id="XMLID_609_" fill="#333333" d="M249.8,56.2c12.2,0,12.2,0,12.3,12.2c0,8.6,0,8.7,8.6,10c6.6,1,12.9,3,19,5.7
		c3.4,1.5,4.6,3.8,3.6,7.4c-1.5,5.3-3,10.6-4.7,15.8c-1.6,4.9-3.2,5.7-7.9,3.4c-9.5-4.6-19.5-6.5-30.1-6c-2.8,0.2-5.5,0.5-8,1.6
		c-9.1,4-10.6,14-2.8,20.2c3.9,3.1,8.4,5.4,13.1,7.3c8.1,3.3,16.2,6.5,23.8,10.8c24.4,13.5,31,44.1,13.8,65
		c-6.2,7.5-14.3,12.6-23.7,15.2c-4.1,1.1-5.9,3.3-5.8,7.6c0.2,4.2,0,8.4,0,12.6c0,3.8-1.9,5.8-5.6,5.8c-4.5,0.1-9,0.1-13.6,0
		c-4-0.1-5.8-2.3-5.9-6.2c0-3.1-0.1-6.1-0.1-9.2c-0.1-6.8-0.3-7.1-6.8-8.1c-8.3-1.3-16.5-3.2-24.1-6.9c-6-2.9-6.6-4.4-4.9-10.7
		c1.3-4.7,2.6-9.4,4-14c1.7-5.4,3.1-6,8.1-3.5c8.4,4.4,17.4,6.9,26.8,8c6.1,0.8,12,0.1,17.6-2.3c10.5-4.6,12.1-16.7,3.3-24
		c-3-2.5-6.4-4.3-10-5.9c-9.2-4-18.7-7.1-27.4-12.3c-14-8.4-23-20-21.9-37.1c1.2-19.3,12.1-31.4,29.8-37.8c7.3-2.7,7.3-2.6,7.4-10.2
		c0-2.6,0-5.2,0-7.8c0.1-5.8,1.1-6.7,6.8-6.9C246.2,56.2,248,56.2,249.8,56.2z"/>
	<path id="XMLID_608_" fill="#E2574C" d="M481.4,108.6c-0.4,0-0.8,0-1.2,0c-26.8,1.2-53.5,2.5-80.3,3.8c-4.2,0.2-8.3,0.4-10.5,5.4
		c-2.3,5,0.3,7.8,3.2,10.6c8.2,8.2,16.3,16.6,24.7,24.6l-9.1,9.1l-74,74l-6.6,6.6L311.3,259l-63.7,63.7l-3.7-3.7l-76.2-76.2
		l-16.2-16.2l-4.4-4.4c-3.4-3.4-8-5.2-12.5-5.2c-4.5,0-9,1.7-12.5,5.2l-4.4,4.4L25.2,319c-6.9,6.9-6.9,18.1,0,25l4.4,4.4
		c3.4,3.4,8,5.2,12.5,5.2c4.5,0,9-1.7,12.5-5.2l80-80l3.7,3.7l76.2,76.2l16.2,16.2l4.4,4.4c3.4,3.4,8,5.2,12.5,5.2
		c4.5,0,9-1.7,12.5-5.2l4.4-4.4l76.2-76.2l16.2-16.2l6.6-6.6l74-74l9-9l2.7,2.7c0.9,0.8,1.8,1.6,2.6,2.4
		c6.3,6.3,12.6,12.6,18.9,18.9c2.3,2.3,4.5,4.7,7.6,4.7c1.2,0,2.5-0.3,4-1.2c4.8-2.6,5.9-6.8,6.1-11.7c1.2-26.1,2.4-52.2,3.7-78.3
		C492.3,112.2,489.1,108.6,481.4,108.6z"/>
	<path id="XMLID_607_" fill="#333333" d="M68.3,362.2c-4.2,4.2-9.2,7.3-14.7,9.1v84.6h68.3V314.1v-5.5L68.3,362.2z"/>
	<g id="XMLID_601_">
		<polygon id="XMLID_606_" fill="#333333" points="200.6,362.2 138.4,300 138.4,315.6 138.4,455.8 206.7,455.8 206.7,368.2 		"/>
		<path id="XMLID_605_" fill="#333333" d="M278.2,378.4l-4.4,4.4c-7,7-16.4,10.9-26.3,10.9c-9,0-17.5-3.2-24.2-9v71.1h68.3V365
			L278.2,378.4z"/>
		<polygon id="XMLID_604_" fill="#333333" points="370.6,285.9 354.4,302.2 308.2,348.4 308.2,455.8 376.4,455.8 376.4,280.2 		"/>
		<path id="XMLID_602_" fill="#333333" d="M457.2,220.7l-0.4-0.4c-1.8-1.8-3.5-3.6-5.3-5.3c-1.6-1.6-3.3-3.3-4.9-5L393,263.6v192.2
			h68.3V224.5C459.6,223.1,458.2,221.7,457.2,220.7z"/>
	</g>
</g>
</svg>
