<?xml version="1.0" encoding="utf-8"?>
<!-- Generator: Adobe Illustrator 18.0.0, SVG Export Plug-In . SVG Version: 6.00 Build 0)  -->
<!DOCTYPE svg PUBLIC "-//W3C//DTD SVG 1.1//EN" "http://www.w3.org/Graphics/SVG/1.1/DTD/svg11.dtd">
<svg version="1.1" id="Layer_1" xmlns="http://www.w3.org/2000/svg" xmlns:xlink="http://www.w3.org/1999/xlink" x="0px" y="0px"
	 viewBox="0 0 512 512" enable-background="new 0 0 512 512" xml:space="preserve">
<g>
	<path fill="#333333" d="M484.6,72.8H192.5c-5.7,0-10.4,4.7-10.4,10.4c0,5.7,4.7,10.4,10.4,10.4h19.2v94.9l4.6,7.3l16.2,4.6V93.6
		l0,0h212.1v179.7H232.5v-30.2l28.2,5.5c7.2,1.4,13.9-4.1,13.9-11.4v0c0-5.2-3.5-9.8-8.5-11.2l-59.7-17l-28.3-44.5l0,0
		c-0.3-0.5-0.6-0.9-0.9-1.2c-3-3-4.5-4.4-7.8-6.9c-12.7-9.4-28.4-15.7-28.4-15.7l-11.9,37.7l-7-19.7c12.5-17.4-1.5-17.9-3.3-17.9
		c-1.9,0-15.8,0.5-3.3,17.9l-7,19.7l-11.9-37.7c0,0-13.6,5.5-25.8,13.9c-1.6,1.1-3.1,2.4-4.5,3.9l-44.2,47.7
		c-7.8,9.2-6.7,23,2.3,30.9l53.1,45.4L68.9,444c-0.3,5.9,3.9,11.1,9.7,12.1h0c6.2,1,12.1-3.2,13.2-9.4l23.5-126l12.4,124.9
		c0.5,5.9,5.3,10.5,11.3,10.6c6.3,0.1,11.5-4.8,11.7-11l7.3-178.5l6-58.6c0.1-1.1,1.5-1.4,2.1-0.6l14.6,20.9
		c2.4,3.5,6.1,5.8,10.2,6.6l20.8,4.1v35.6c0,10.7,8.7,19.4,19.4,19.4h97V343l-93.8,93.8c-4.1,4.1-4.1,10.7,0,14.7c2,2,4.7,3,7.4,3
		c2.7,0,5.3-1,7.4-3l79.1-79.1v71.8c0,5.7,4.7,10.4,10.4,10.4c5.7,0,10.4-4.7,10.4-10.4v-71.8l79.1,79.1c2,2,4.7,3,7.4,3
		c2.7,0,5.3-1,7.4-3c4.1-4.1,4.1-10.7,0-14.7L349,343v-48.9h97c10.7,0,19.4-8.7,19.4-19.4V93.6h19.2c5.7,0,10.4-4.7,10.4-10.4
		C495,77.5,490.4,72.8,484.6,72.8z M51,222.8l22.1-20l4.9,47.3L51,222.8z"/>
	<path fill="#E2574C" d="M268.2,204c3.6,2.5,8.6,1.7,11.1-1.9l21.1-30c1.2,0.2,2.3,0.4,3.6,0.4c2.5,0,4.8-0.5,6.9-1.4l34,33.3
		c-0.2,1-0.3,2.1-0.3,3.2c0,9,7.3,16.2,16.2,16.2c9,0,16.2-7.3,16.2-16.2c0-2.7-0.7-5.2-1.8-7.5l31-48.4c0.4,0,0.7,0.1,1.1,0.1
		c9,0,16.2-7.3,16.2-16.2c0-9-7.3-16.2-16.2-16.2c-9,0-16.2,7.3-16.2,16.2c0,2.6,0.6,5.1,1.8,7.3l-31,48.5c-0.3,0-0.6,0-0.9,0
		c-1.9,0-3.7,0.3-5.4,0.9l-34-33.3c0.4-1.4,0.6-2.9,0.6-4.4c0-9.9-8-18-18-18c-9.9,0-18,8-18,18c0,2.8,0.6,5.4,1.8,7.7l-21.6,30.7
		C263.8,196.5,264.6,201.5,268.2,204z"/>
	<path fill="#333333" d="M118.6,132.3L118.6,132.3c0.1,0,0.1,0,0.2,0c0.1,0,0.1,0,0.2,0v0c34.3-0.4,29.4-46.2,29.4-46.2
		c-1.4-30.6-27-30.4-29.6-30.3c-2.5-0.1-28.1-0.4-29.6,30.3C89.3,86.1,84.3,131.9,118.6,132.3z"/>
</g>
</svg>
