<?xml version="1.0" encoding="utf-8"?>
<!-- Generator: Adobe Illustrator 18.0.0, SVG Export Plug-In . SVG Version: 6.00 Build 0)  -->
<!DOCTYPE svg PUBLIC "-//W3C//DTD SVG 1.1//EN" "http://www.w3.org/Graphics/SVG/1.1/DTD/svg11.dtd">
<svg version="1.1" id="Layer_1" xmlns="http://www.w3.org/2000/svg" xmlns:xlink="http://www.w3.org/1999/xlink" x="0px" y="0px"
	 viewBox="0 0 512 512" enable-background="new 0 0 512 512" xml:space="preserve">
<g>
	<path fill="#333333" d="M289.7,466.4v-87.8c0-11,9-20,20-20h41.4c1.7,0,3.4,0.3,4.9,0.7V347c-31.4-20.4-57.5-33.6-64.9-37.2
		c-1.3-0.6-2.1-1.9-2.1-3.3v-79.5c10-6.7,16.6-18,16.6-30.9v-82.4c0-41-33.2-74.2-74.2-74.2h-8.9h-8.9c-41,0-74.2,33.2-74.2,74.2
		v82.4c0,12.9,6.6,24.3,16.6,30.9v79.5c0,1.4-0.8,2.7-2.1,3.3c-11.2,5.5-66.3,33.3-117.3,75.3c-9.2,7.6-14.5,18.9-14.5,30.9v56.5
		h174.1l17.2-78.8c-34.7-48.5,2.6-50.8,9.1-50.9h0h0c6.5,0.1,43.8,2.4,9.1,50.9l17.2,78.8h41.8C290.1,470.6,289.7,468.6,289.7,466.4
		z"/>
	<g>
		<g>
			<path fill="#333333" d="M489.8,466.4V346.9c0-3.3-2.7-6-6.1-6h-41.4c-3.3,0-6,2.7-6,6v119.5c0,3.3,2.7,6.1,6,6.1h41.4
				C487.1,472.5,489.8,469.8,489.8,466.4z M477.7,460.4h-29.3V353h29.3V460.4z"/>
		</g>
	</g>
	<g>
		<g>
			<path fill="#333333" d="M309.7,372.6c-3.3,0-6,2.7-6,6v87.8c0,3.3,2.7,6.1,6,6.1h41.4c3.3,0,6-2.7,6-6.1v-87.8c0-3.3-2.7-6-6-6
				H309.7z M315.8,460.4V451l9.4,9.4H315.8z M334.8,460.4l-19-19v-9.6l28.6,28.6H334.8z M345,451.5l-29.3-29.3v-9.6L345,442V451.5z
				 M345,432.4l-29.3-29.3v-9.6l29.3,29.3V432.4z M345,413.2l-28.5-28.5h9.6l19,19V413.2z M345,394.1l-9.4-9.4h9.4V394.1z"/>
		</g>
	</g>
	<g>
		<path fill="#E2574C" d="M423.5,466.4V298.4c0-3.3-2.7-6-6.1-6h-41.4c-3.3,0-6,2.7-6,6v168.1c0,3.3,2.7,6.1,6,6.1h41.4
			C420.8,472.5,423.5,469.8,423.5,466.4z"/>
	</g>
</g>
</svg>
