<?xml version="1.0" encoding="utf-8"?>
<!-- Generator: Adobe Illustrator 18.0.0, SVG Export Plug-In . SVG Version: 6.00 Build 0)  -->
<!DOCTYPE svg PUBLIC "-//W3C//DTD SVG 1.1//EN" "http://www.w3.org/Graphics/SVG/1.1/DTD/svg11.dtd">
<svg version="1.1" id="Layer_1" xmlns="http://www.w3.org/2000/svg" xmlns:xlink="http://www.w3.org/1999/xlink" x="0px" y="0px"
	 viewBox="0 0 512 512" enable-background="new 0 0 512 512" xml:space="preserve">
<g id="XMLID_830_">
	<g id="XMLID_3071_">
		<g>
			<path fill="#333333" d="M467.6,447V175.4c0-7.6-6.2-13.8-13.8-13.8h-94.1c-7.6,0-13.8,6.2-13.8,13.8V447
				c0,7.6,6.2,13.8,13.8,13.8h94.1C461.4,460.8,467.6,454.6,467.6,447z M440.1,433.3h-66.5V189.1h66.5V433.3z"/>
		</g>
	</g>
	<g id="XMLID_3074_">
		<g>
			<path fill="#333333" d="M152.2,460.8c7.6,0,13.8-6.2,13.8-13.8V247.5c0-7.6-6.2-13.8-13.8-13.8H58.2c-7.6,0-13.8,6.2-13.8,13.8
				V447c0,7.6,6.2,13.8,13.8,13.8H152.2z M138.5,261.2v21.4l-21.4-21.4H138.5z M95.4,261.2l43.1,43.1v21.8l-64.9-64.9H95.4z
				 M71.9,281.3l66.5,66.5v21.8L71.9,303V281.3z M71.9,324.8l66.5,66.5v21.8l-66.5-66.5V324.8z M71.9,368.3l64.9,64.9h-21.8
				l-43.2-43.2V368.3z M71.9,411.8l21.4,21.4H71.9V411.8z"/>
		</g>
	</g>
	<g id="XMLID_3082_">
		<path fill="#E2574C" d="M209,460.8H303c7.6,0,13.8-6.2,13.8-13.8V65c0-7.6-6.2-13.8-13.8-13.8H209c-7.6,0-13.8,6.2-13.8,13.8v382
			C195.2,454.6,201.4,460.8,209,460.8z"/>
	</g>
</g>
</svg>
