<?xml version="1.0" encoding="utf-8"?>
<!-- Generator: Adobe Illustrator 18.0.0, SVG Export Plug-In . SVG Version: 6.00 Build 0)  -->
<!DOCTYPE svg PUBLIC "-//W3C//DTD SVG 1.1//EN" "http://www.w3.org/Graphics/SVG/1.1/DTD/svg11.dtd">
<svg version="1.1" id="Layer_1" xmlns="http://www.w3.org/2000/svg" xmlns:xlink="http://www.w3.org/1999/xlink" x="0px" y="0px"
	 viewBox="0 0 512 512" enable-background="new 0 0 512 512" xml:space="preserve">
<g>
	<path fill="#333333" d="M474.5,405.5C474.5,405.5,474.5,405.5,474.5,405.5l-82-82l-7.1-7.1l-2.4-2.4l0,0L381,312l-5.5,5.5
		l-11.9-11.9c47.1-55.5,44.4-138.8-8-191.2c-27.6-27.6-63.8-41.4-99.9-41.4c-36.2,0-72.3,13.8-99.9,41.4
		c-55.2,55.2-55.2,144.7,0,199.9c27.6,27.6,63.8,41.4,99.9,41.4c32.5,0,65-11.1,91.3-33.4l11.9,11.9l-5.5,5.5l0,0l0,0l4.4,4.4
		l7.1,7.1l82,82c3.8,3.8,8.8,5.7,13.8,5.7c5,0,10-1.9,13.8-5.7C482.1,425.6,482.1,413.2,474.5,405.5z M339,297.7
		c-23,23-53.1,34.5-83.3,34.5c-30.1,0-60.3-11.5-83.3-34.5c-46-46-46-120.6,0-166.6c23-23,53.1-34.5,83.3-34.5
		c30.1,0,60.3,11.5,83.3,34.5C385,177.1,385,251.7,339,297.7z"/>
	<g>
		<path fill="#333333" d="M510.1,339.5V371h-40.8l-62.1-62.1l-7.1-7.1l-2.4-2.4l-2.1-2.1c-0.2-0.2-0.3-0.3-0.5-0.5
			c15.8-26.6,23.7-57.4,22.4-88.9c-1.1-28.2-9.5-55.3-24.1-78.9h4.6h5c22.9,0,41.5,18.6,41.5,41.5v46c0,7.2-3.7,13.6-9.3,17.3v44.4
			c0,0.8,0.4,1.5,1.2,1.8c6.3,3.1,37,18.6,65.5,42C507.1,326.5,510.1,332.8,510.1,339.5z"/>
	</g>
	<g>
		<path fill="#333333" d="M140.1,327.8c-6.9,4.9-13.9,10.1-20.7,15.8c-8.5,7-14.2,16.7-16.2,27.4H1.9v-31.5c0-6.7,3-13,8.1-17.2
			c28.5-23.4,59.3-39,65.5-42c0.7-0.3,1.2-1.1,1.2-1.8V234c-5.6-3.7-9.3-10.1-9.3-17.3v-46c0-22.9,18.6-41.5,41.5-41.5h5h4.1
			C79.6,191.2,86.9,273.7,140.1,327.8z"/>
	</g>
	<g>
		<path fill="#E2574C" d="M389.4,405.1v12.4H256H122.6v-37.6c0-7.9,3.5-15.5,9.7-20.6c7.8-6.4,15.7-12.3,23.3-17.6
			c28.4,22.5,63.3,34.7,100.1,34.7c29.2,0,57.7-7.9,82.5-22.6c0.2,0.2,0.3,0.3,0.5,0.5l4.5,4.5l7.1,7.1L389.4,405.1z"/>
		<path fill="#E2574C" d="M300.3,254.1v46.6c-13.6,7.1-28.8,10.8-44.6,10.8c-15.6,0-30.5-3.7-44-10.6v-46.9c-6.7-4.4-11-12-11-20.6
			v-54.9c0-27.3,22.1-49.4,49.4-49.4h5.9h5.9c27.3,0,49.4,22.1,49.4,49.4v54.9C311.3,242.1,307,249.7,300.3,254.1z"/>
	</g>
</g>
</svg>
