<?xml version="1.0" encoding="utf-8"?>
<!-- Generator: Adobe Illustrator 18.0.0, SVG Export Plug-In . SVG Version: 6.00 Build 0)  -->
<!DOCTYPE svg PUBLIC "-//W3C//DTD SVG 1.1//EN" "http://www.w3.org/Graphics/SVG/1.1/DTD/svg11.dtd">
<svg version="1.1" id="Layer_1" xmlns="http://www.w3.org/2000/svg" xmlns:xlink="http://www.w3.org/1999/xlink" x="0px" y="0px"
	 viewBox="0 0 512 512" enable-background="new 0 0 512 512" xml:space="preserve">
<g>
	<path fill="#333333" d="M277,17.3c-27.6,0-54.3,6-77.9,17.6C136.8,64,93.6,126.8,93.6,199.7v24.1v6l-37.2,71.3
		c-9.5,18.1-0.5,32.7,19.6,32.7h17.6v0.5V365v36.2c0,21.1,17.1,38.2,38.2,38.2l52.8-8V484v0.5c0,6.5,6,11.1,13.1,10L387,460.9
		c7-1.5,13.1-8,13.1-15.6v-8.5v-6.5v-96.5c36.2-33.2,59.3-80.9,59.3-134.2C458.9,99.2,377.5,17.3,277,17.3z M277.1,332.4
		c-73.8,0-133.9-60.1-133.9-133.9c0-73.8,60.1-133.9,133.9-133.9c73.8,0,133.9,60.1,133.9,133.9
		C410.9,272.4,350.9,332.4,277.1,332.4z"/>
	<path fill="#E2574C" d="M377.6,170.4l-5-14c-1.7-4.6-6.7-7-11.3-5.3l-12.9,4.6c-5.5-9.2-12.9-17.4-21.8-24l5.8-12.4
		c2.1-4.4,0.2-9.7-4.2-11.8l-13.5-6.3c-4.4-2.1-9.7-0.2-11.8,4.2l-5.8,12.4c-10.8-2.7-21.8-3.1-32.4-1.5l-4.6-12.9
		c-1.7-4.6-6.7-7-11.3-5.3l-14,5c-4.6,1.7-7,6.7-5.3,11.3l4.6,12.9c-9.2,5.5-17.4,12.9-24,21.8l-12.4-5.8c-4.4-2.1-9.7-0.2-11.8,4.2
		l-6.3,13.5c-2.1,4.4-0.2,9.7,4.2,11.8l12.4,5.8c-2.7,10.8-3.1,21.8-1.5,32.4l-12.9,4.6c-4.6,1.7-7,6.7-5.3,11.3l5,14
		c1.7,4.6,6.7,7,11.3,5.3l12.9-4.6c5.5,9.2,12.9,17.4,21.8,24l-5.8,12.4c-2.1,4.4-0.2,9.7,4.2,11.8l13.5,6.3
		c4.4,2.1,9.7,0.2,11.8-4.2l5.8-12.4c10.8,2.7,21.8,3.1,32.4,1.5l4.6,12.9c1.7,4.6,6.7,7,11.3,5.3l14-5c4.6-1.7,7-6.7,5.3-11.3
		l-4.6-12.9c9.2-5.5,17.4-12.9,24-21.8l12.4,5.8c4.4,2.1,9.7,0.2,11.8-4.2l6.3-13.5c2.1-4.4,0.2-9.7-4.2-11.8l-12.4-5.8
		c2.7-10.8,3.1-21.8,1.5-32.4l12.9-4.6C376.9,180,379.3,175,377.6,170.4z M312.9,215.5c-9.3,19.8-33,28.3-52.8,18.9
		c-19.8-9.3-28.3-33-18.9-52.8c9.3-19.8,33-28.3,52.8-18.9C313.8,172,322.3,195.7,312.9,215.5z"/>
</g>
</svg>
