<?xml version="1.0" encoding="utf-8"?>
<!-- Generator: Adobe Illustrator 18.0.0, SVG Export Plug-In . SVG Version: 6.00 Build 0)  -->
<!DOCTYPE svg PUBLIC "-//W3C//DTD SVG 1.1//EN" "http://www.w3.org/Graphics/SVG/1.1/DTD/svg11.dtd">
<svg version="1.1" id="Layer_1" xmlns="http://www.w3.org/2000/svg" xmlns:xlink="http://www.w3.org/1999/xlink" x="0px" y="0px"
	 viewBox="0 0 512 512" enable-background="new 0 0 512 512" xml:space="preserve">
<g id="XMLID_2385_">
	<g id="XMLID_2368_">
		<g id="XMLID_2379_">
			<g id="XMLID_2388_">
				<path fill="#333333" d="M500.3,315.8c-28.1-23.1-58.3-38.3-64.5-41.4c-0.7-0.3-1.1-1-1.1-1.8V229c5.5-3.7,9.1-9.9,9.1-17v-45.3
					c0-22.5-18.3-40.8-40.8-40.8h-4.9h-4.9c-22.5,0-40.8,18.3-40.8,40.8V212c0,7.1,3.6,13.3,9.1,17v43.7c0,0.3-0.1,0.5-0.1,0.8
					c8.6,5.9,17.6,12.5,26.3,19.7c10.3,8.4,16.1,20.9,16.1,34.2v36.5h104.4v-31C508.3,326.2,505.4,320,500.3,315.8z"/>
			</g>
		</g>
		<g id="XMLID_23_">
			<path fill="#333333" d="M11.7,315.8c28.1-23.1,58.3-38.3,64.5-41.4c0.7-0.3,1.1-1,1.1-1.8V229c-5.5-3.7-9.1-9.9-9.1-17v-45.3
				c0-22.5,18.3-40.8,40.8-40.8h4.9h4.9c22.5,0,40.8,18.3,40.8,40.8V212c0,7.1-3.6,13.3-9.1,17v43.7c0,0.3,0.1,0.5,0.1,0.8
				c-8.6,5.9-17.6,12.5-26.3,19.7c-10.3,8.4-16.1,20.9-16.1,34.2v36.5H3.7v-31C3.7,326.2,6.6,320,11.7,315.8z"/>
		</g>
	</g>
	<g id="XMLID_1_">
		<g id="XMLID_2396_">
			<g id="XMLID_2397_">
				<path fill="#333333" d="M376,307.4c-33-27.1-68.5-45.1-75.8-48.6c-0.8-0.4-1.3-1.2-1.3-2.1v-51.3c6.5-4.3,10.7-11.6,10.7-20
					v-53.2c0-26.5-21.5-47.9-47.9-47.9H256h-5.7c-26.5,0-47.9,21.5-47.9,47.9v53.2c0,8.3,4.3,15.7,10.7,20v51.3
					c0,0.9-0.5,1.7-1.3,2.1c-7.2,3.5-42.8,21.5-75.8,48.6c-6,4.9-9.4,12.2-9.4,19.9v36.5h48.8l0-4.1c0-10.6,7.5-19.5,17.5-21.6
					c0.1-0.2,0.2-0.4,0.3-0.7c-2.4-3.6-3.6-7.7-3.6-12.1c0-5.9,2.3-11.4,6.4-15.5l5.9-5.9c4.2-4.2,9.7-6.5,15.6-6.5
					c4.4,0,8.6,1.3,12.2,3.7c0.2-0.1,0.3-0.1,0.5-0.2c2-10.1,10.9-17.7,21.5-17.7l8.4,0h0h0c10.7,0,19.6,7.7,21.6,17.8
					c0.1,0.1,0.3,0.1,0.4,0.2c3.6-2.5,7.9-3.8,12.4-3.8c5.9,0,11.4,2.3,15.5,6.4l5.9,5.9c7.6,7.6,8.5,19.3,2.7,27.9
					c0.1,0.1,0.1,0.3,0.2,0.4c10.1,1.9,17.8,10.9,17.9,21.6l0,4.3h48.8v-36.5C385.4,319.6,382,312.3,376,307.4z"/>
			</g>
		</g>
		<g id="XMLID_2393_">
			<g>
				<path fill="#E2574C" d="M314.6,373.3c3,0,5.4-2.4,5.4-5.4l0-8.4c0-3-2.4-5.4-5.4-5.4l-8.2,0c-1.3-6.8-4-13.3-8-19.2l5.8-5.9
					c2.1-2.1,2.1-5.5,0-7.6l-5.9-5.9c-2.1-2.1-5.5-2.1-7.6,0l-5.8,5.9c-5.9-4-12.5-6.7-19.2-8l0-8.2c0-3-2.4-5.4-5.4-5.4l-8.4,0
					c-3,0-5.4,2.4-5.4,5.4l0,8.2c-6.8,1.3-13.4,3.9-19.3,8l-5.8-5.7c-2.1-2.1-5.5-2.1-7.6,0l-5.9,5.9c-2.1,2.1-2.1,5.5,0,7.6
					l5.7,5.7c-4.1,5.9-6.8,12.6-8.1,19.4l-8,0c-3,0-5.4,2.4-5.4,5.4l0,8.4c0,3,2.4,5.4,5.4,5.4l8,0c1.3,6.9,4,13.5,8.1,19.5
					l-5.6,5.6c-2.1,2.1-2.1,5.5,0,7.6l5.9,5.9c2.1,2.1,5.5,2.1,7.6,0l5.6-5.6c6,4.1,12.6,6.7,19.5,8l0,8c0,3,2.4,5.4,5.4,5.4l8.4,0
					c3,0,5.4-2.4,5.4-5.4l0-8c6.8-1.3,13.4-4,19.4-8.1l5.7,5.7c2.1,2.1,5.5,2.1,7.6,0l5.9-5.9c2.1-2.1,2.1-5.5,0-7.6l-5.8-5.7
					c4-5.9,6.7-12.5,7.9-19.3L314.6,373.3z M275.7,383.5c-10.9,10.9-28.5,10.9-39.4,0c-10.9-10.9-10.9-28.5,0-39.4
					c10.9-10.9,28.5-10.9,39.4,0C286.6,354.9,286.6,372.6,275.7,383.5z"/>
			</g>
		</g>
	</g>
</g>
</svg>
