<?xml version="1.0" encoding="utf-8"?>
<!-- Generator: Adobe Illustrator 18.0.0, SVG Export Plug-In . SVG Version: 6.00 Build 0)  -->
<!DOCTYPE svg PUBLIC "-//W3C//DTD SVG 1.1//EN" "http://www.w3.org/Graphics/SVG/1.1/DTD/svg11.dtd">
<svg version="1.1" id="Layer_1" xmlns="http://www.w3.org/2000/svg" xmlns:xlink="http://www.w3.org/1999/xlink" x="0px" y="0px"
	 viewBox="0 0 512 512" enable-background="new 0 0 512 512" xml:space="preserve">
<g id="XMLID_3466_">
	<path id="XMLID_3474_" fill="#333333" d="M444,382.3c-3.3-4-5.1-9.1-5.1-14.3v-23.6v-15.1v-43.7c-12.7,4.2-26.2,6.4-40,6.4v37.3
		v15.1v25.9H76.1v-30.4v-10.6V164.4c0,0,0-0.1,0.1-0.1h195.1c0-13.5,2.1-27.1,6.4-40H76.2c-22.2,0-40.1,18-40.1,40.1v164.8v8.8v29.5
		c0,5.2-1.8,10.3-5.1,14.3l-20.7,25.4c-1.6,1.9-2.4,4.3-2.4,6.8v11.6c0,15,12.2,27.2,27.2,27.2h404.5c15,0,27.2-12.2,27.2-27.2
		v-11.6c0-2.5-0.9-4.9-2.4-6.8L444,382.3z M281,413.2c0,7.6-6.2,13.8-13.8,13.8h-59.3c-7.6,0-13.8-6.2-13.8-13.8v-3h87V413.2z"/>
	<path id="XMLID_3467_" fill="#E2574C" d="M473.3,89.9c-41.1-41.1-107.7-41.1-148.8,0c-39.6,39.6-41,102.8-4.4,144.1l1.1,0.9
		c-4,8.6-10.8,19.2-21.7,24.5c-3.6,1.8-2.8,7.1,1.2,7.7c11.9,1.9,28.9-0.2,44.7-12.2l0.2,0.2c40.3,23.7,93.1,18.3,127.7-16.4
		C514.4,197.6,514.4,131,473.3,89.9z M403.3,99.3c9.5,0,17,7.8,16.9,17.4c-0.1,9.5-7.8,17.2-17,17.2c-9.6-0.1-17.3-7.9-17.2-17.4
		C386.1,106.9,393.8,99.3,403.3,99.3z M427.7,215c-0.4,1.5-1.3,3-2.4,4.1c-6.2,6.3-13.7,10.1-22.7,10.2c-4.2,0.1-8.4-0.1-12.5-0.7
		c-6.9-1-15.6-9.5-14.3-18.5c0.9-6.2,1.8-12.4,2.8-18.5c1.8-10.7,3.7-21.4,5.6-32.1c0.1-0.7,0.2-1.4,0.2-2.1c0-4.5-1.4-6.1-5.8-6.7
		c-1.9-0.3-3.9-0.4-5.6-1.1c-2.2-0.8-3.2-2.5-3-4.3c0.2-1.9,1.4-3.1,3.8-3.5c1.3-0.2,2.6-0.3,3.9-0.3c5.3,0,10.5,0,15.8,0
		c5.6,0,11.1,0,16.7,0c4,0,6.4,1.9,6.5,5.9c0.1,3.3-0.5,6.7-1.1,10c-2.2,12.2-4.5,24.5-6.7,36.7c-0.7,4.1-1.6,8.1-2,12.2
		c-0.2,1.9,0,4,0.5,5.9c0.7,2.6,2.6,4,5.2,3.7c2.2-0.2,4.3-1,6.4-1.8c1.7-0.6,3.2-1.8,4.8-2.5C426.3,210.7,428.3,212.4,427.7,215z"
		/>
</g>
</svg>
