<?xml version="1.0" encoding="utf-8"?>
<!-- Generator: Adobe Illustrator 18.0.0, SVG Export Plug-In . SVG Version: 6.00 Build 0)  -->
<!DOCTYPE svg PUBLIC "-//W3C//DTD SVG 1.1//EN" "http://www.w3.org/Graphics/SVG/1.1/DTD/svg11.dtd">
<svg version="1.1" id="Layer_1" xmlns="http://www.w3.org/2000/svg" xmlns:xlink="http://www.w3.org/1999/xlink" x="0px" y="0px"
	 viewBox="0 0 512 512" enable-background="new 0 0 512 512" xml:space="preserve">
<g id="XMLID_5793_">
	<path id="XMLID_5797_" fill="#E2574C" d="M498.3,352.1c-38-31.2-79-51.9-87.3-56c-0.9-0.5-1.5-1.4-1.5-2.5v-59.2
		c7.4-5,12.3-13.4,12.3-23v-61.3c0-30.5-24.7-55.3-55.3-55.3h-6.6h-6.6c-30.5,0-55.3,24.7-55.3,55.3v61.3c0,9.6,4.9,18.1,12.3,23
		v59.2c0,1-0.6,2-1.5,2.5c-4.3,2.1-17.5,8.7-34.5,19c9.4,6.5,19.2,13.7,28.7,21.6c11.5,9.5,18.1,23.5,18.1,38.4v42l0,0h38.7h149.2
		v-42C509.1,366.2,505.2,357.8,498.3,352.1z"/>
	<g id="XMLID_5794_">
		<path fill="#333333" d="M201.6,293.6v-59.2c7.4-5,12.3-13.4,12.3-23v-61.3c0-30.5-24.7-55.3-55.3-55.3h-6.6h-6.6
			c-30.5,0-55.3,24.7-55.3,55.3v61.3c0,9.6,4.9,18.1,12.3,23v59.2c0,1-0.6,2-1.5,2.5c-8.3,4.1-49.3,24.8-87.3,56
			c-6.9,5.6-10.8,14.1-10.8,23l0,42h149.2h149.2v-42c0-8.9-3.9-17.3-10.8-23c-38-31.2-79-51.9-87.3-56
			C202.2,295.7,201.6,294.7,201.6,293.6z"/>
	</g>
</g>
</svg>
