<?xml version="1.0" encoding="utf-8"?>
<!-- Generator: Adobe Illustrator 18.0.0, SVG Export Plug-In . SVG Version: 6.00 Build 0)  -->
<!DOCTYPE svg PUBLIC "-//W3C//DTD SVG 1.1//EN" "http://www.w3.org/Graphics/SVG/1.1/DTD/svg11.dtd">
<svg version="1.1" id="Layer_1" xmlns="http://www.w3.org/2000/svg" xmlns:xlink="http://www.w3.org/1999/xlink" x="0px" y="0px"
	 viewBox="0 0 512 512" enable-background="new 0 0 512 512" xml:space="preserve">
<g>
	<path fill="#333333" d="M306.6,422v13.1c0,10.4-7.7,19-17.6,20.4l-3.2,11.8c-1.8,6.3-7.7,10.9-14,10.9h-31.7
		c-6.8,0-12.7-4.5-14-10.9l-3.2-11.8c-9.9-1.4-17.6-9.9-17.6-20.4V422c0-6.8,5.4-12.7,12.7-12.7h76.4
		C301.2,409.8,306.6,415.2,306.6,422z"/>
	<path fill="#E2574C" d="M256,101.8c6.8,0,12.2-5.4,12.2-12.2V46.2c0-6.8-5.4-12.2-12.2-12.2c-6.8,0-12.2,5.4-12.2,12.2v43.4
		C243.8,96.4,249.2,101.8,256,101.8z"/>
	<path fill="#E2574C" d="M110.8,247c0-6.8-5.4-12.2-12.2-12.2H55.2c-6.8,0-12.2,5.4-12.2,12.2c0,6.8,5.4,12.2,12.2,12.2h43.4
		C104.9,259.2,110.8,253.7,110.8,247z"/>
	<path fill="#E2574C" d="M456.8,234.7h-43.4c-6.8,0-12.2,5.4-12.2,12.2c0,6.8,5.4,12.2,12.2,12.2h43.4c6.8,0,12.2-5.4,12.2-12.2
		C469.4,240.2,464,234.7,456.8,234.7z"/>
	<path fill="#E2574C" d="M135.7,349.6l-30.8,30.8c-5,5-5,12.7,0,17.6c2.3,2.3,5.4,3.6,8.6,3.6c3.2,0,6.3-1.4,8.6-3.6l30.8-30.8
		c5-5,5-12.7,0-17.6C148.4,345.1,140.7,345.1,135.7,349.6z"/>
	<path fill="#E2574C" d="M367.7,147.9c3.2,0,6.3-1.4,8.6-3.6l30.8-30.8c5-5,5-12.7,0-17.6s-12.7-5-17.6,0l-30.8,30.8
		c-5,5-5,12.7,0,17.6C361.4,146.6,364.5,147.9,367.7,147.9z"/>
	<path fill="#E2574C" d="M135.7,144.3c2.3,2.3,5.4,3.6,8.6,3.6c3.2,0,6.3-1.4,8.6-3.6c5-5,5-12.7,0-17.6l-30.8-30.8
		c-5-5-12.7-5-17.6,0c-5,5-5,12.7,0,17.6L135.7,144.3z"/>
	<path fill="#E2574C" d="M376.3,349.6c-5-5-12.7-5-17.6,0c-5,5-5,12.7,0,17.6l30.8,30.8c2.3,2.3,5.4,3.6,8.6,3.6
		c3.2,0,6.3-1.4,8.6-3.6c5-5,5-12.7,0-17.6L376.3,349.6z"/>
	<path fill="#333333" d="M254.2,137.5c-60.6,0.5-109,49.7-108.5,110.8c0.5,28.9,12.2,55.2,30.8,74.6c14.5,14.9,24,34.4,27.1,54.7
		c1.4,9,9,15.4,18.1,15.4h25.8v-81.9l-35.6-35.6c-3.4-3.4-3.4-8.8,0-12.2c3.4-3.4,8.8-3.4,12.2,0l31.8,31.8L289,262
		c3.4-3.4,8.8-3.4,12.2,0c3.4,3.4,3.4,8.8,0,12.2l-36.5,36.5V393h24.8c9,0,16.7-6.8,18.1-15.4c3.2-20.8,12.7-39.8,27.1-54.7
		c19-19.4,30.8-46.6,30.8-76C365.4,186.4,316.1,137.1,254.2,137.5z"/>
</g>
</svg>
