<?xml version="1.0" encoding="utf-8"?>
<!-- Generator: Adobe Illustrator 18.0.0, SVG Export Plug-In . SVG Version: 6.00 Build 0)  -->
<!DOCTYPE svg PUBLIC "-//W3C//DTD SVG 1.1//EN" "http://www.w3.org/Graphics/SVG/1.1/DTD/svg11.dtd">
<svg version="1.1" id="Layer_1" xmlns="http://www.w3.org/2000/svg" xmlns:xlink="http://www.w3.org/1999/xlink" x="0px" y="0px"
	 viewBox="0 0 512 512" enable-background="new 0 0 512 512" xml:space="preserve">
<g>
	<path fill="#333333" d="M318.1,26.5c-4.5-1-9.5-2-14.6-2H177.9H52.3c-5,0-10,1-14.6,3C24.7,33,15.1,46.1,15.1,61.7v56.8v280.4v30.6
		v17.1v1c0,19.6,16.1,35.7,35.7,35.7h81.4h44.7h60.8h64.8c11.1,0,21.1-5,28.1-13.1c-5.5-2-9.5-3-10.6-3.5
		c-14.6-2.5-25.6-7.5-36.2-15.1c-2.5-2-6.5-4.5-10.6-6.5c-3.5-2-7-4-9.5-6c-8-5-15.6-9.5-23.6-13.6H133.7h-0.5H52.8
		c-7.5,0-13.6-6-13.6-13.6v-2.5c0-3.5,0-7,0-11.1c0-78.9,0-280.4,0-280.4V85.8c0-4,2-8,5.5-10c2-1,4-2,6.5-2h254.2c0.5,0,1,0,1,0
		c1.5,0,3.5,0.5,4.5,1.5c3.5,2,6,6,6,10v32.2v140.7l10,12.6c4-1,8.5-2,13.6-3.5V117.5V60.7C340.7,45.6,331.2,32,318.1,26.5z
		 M151.8,449.6c1.5-3,5-5,8.5-5H196c2.5,0,5,1,7,3c0.5,0.5,1,1,1.5,1.5c1,1.5,1.5,3,1.5,5c-0.5,5-5,9.5-10,9.5h-35.7
		c-3.5,0-7-2-8.5-5c-0.5-1.5-1-3-1-4.5C150.8,452.6,151.3,451.1,151.8,449.6z"/>
	<g>
		<g>
			<path fill="#E2574C" d="M212.7,214c0.8-1.7,2.5-3.3,3.5-4.9c2.6-3.9,6-7.4,10.1-10.4l0.8-0.6c1.4-0.9,2.8-1.7,4.2-2.4
				c-8.2-21.3-28.8-36.6-53-36.6c-31.4,0-56.9,25.5-56.9,56.9v19.8h-1.3c-8.3,0-15,6.7-15,15v82.7c0,8.3,6.7,15,15,15h105.3
				c5.5-1.6,11.3-2.6,17.5-2.6c0.3,0,0.7,0,1,0c4-2.7,6.7-7.3,6.7-12.5v-20.1c-7.8-13.9-15.6-27.7-23.3-41.3l-11.9-21
				c-2.9-4.9-4.7-10.1-5.4-15.3h-63.7V216c0-17.6,14.3-32,32-32c17.6,0,32,14.3,32,32v1.2 M186.8,295.9c-1.1,0.8-1.5,1.7-1.5,3
				c0,6.1,0,12.1,0,18.2v0c0.1,2.5-1.2,5-3.4,6.1c-5.3,2.7-10.6-1.1-10.6-6.1c0,0,0,0,0,0c0-6.1,0-12.2,0-18.3
				c0-1.2-0.3-2.1-1.4-2.9c-5.5-4.1-7.3-11-4.6-17.1c2.7-5.9,9.2-9.4,15.4-8.2c6.8,1.4,11.6,6.9,11.7,13.8
				C192.6,289.2,190.6,293.1,186.8,295.9z"/>
		</g>
	</g>
	<path fill="#333333" d="M495,413.4c3.5,6,2,13.6-3,18.1l-60.8,49.7c-10,8-24.6,8.5-35.2,0.5c-32.2-24.6-71.8-32.7-71.8-32.7l0,0
		c-10-2-19.1-5-28.1-11.6c-6-4.5-15.1-9-21.1-13.1c-16.1-10.6-33.2-19.6-51.2-25.6c-8-2.5-10-7.5-7-15.6c1.5-4,6-9,10-11.1
		c9-4.5,18.6-4,27.6-2.5c5.5,0.5,29.6,12.6,40.7,16.6c9.5,3.5,11.1-5,10-15.1c-0.5-5-2.5-9.5-4.5-14.1
		c-21.1-39.2-43.2-77.9-65.3-117.1c-5-8.5-3-17.6,4.5-23.1c7.5-5,17.6-3.5,23.6,4c8.5,10.6,16.6,21.1,25.1,32.2
		c7.5,10,15.6,19.6,23.1,29.6l9.5,12.1c0,0,56.3-21.6,120.1-6.5c3.5,1,6.5,3,8,6.5c7,13.1,25.6,49.2,30.6,84.4c2.5,9,6,16.6,8,21.6
		L495,413.4z"/>
</g>
</svg>
