<?xml version="1.0" encoding="utf-8"?>
<!-- Generator: Adobe Illustrator 18.0.0, SVG Export Plug-In . SVG Version: 6.00 Build 0)  -->
<!DOCTYPE svg PUBLIC "-//W3C//DTD SVG 1.1//EN" "http://www.w3.org/Graphics/SVG/1.1/DTD/svg11.dtd">
<svg version="1.1" id="Layer_1" xmlns="http://www.w3.org/2000/svg" xmlns:xlink="http://www.w3.org/1999/xlink" x="0px" y="0px"
	 viewBox="0 0 512 512" enable-background="new 0 0 512 512" xml:space="preserve">
<g id="XMLID_1057_">
	<path id="XMLID_1061_" fill="#E2574C" d="M470.5,50.4C427.2,7.1,357,7.1,313.7,50.4c-41.7,41.7-43.2,108.3-4.7,151.8l1.1,0.9
		c-4.2,9-11.4,20.2-22.8,25.8c-3.8,1.9-2.9,7.5,1.2,8.1c12.5,2,30.4-0.2,47.1-12.9l0.2,0.2c42.5,25,98.1,19.2,134.6-17.2
		C513.8,163.9,513.8,93.7,470.5,50.4z M421.7,169.4c-4.5,5.5-10.3,9.1-17.2,11c-3,0.8-4.3,2.4-4.2,5.5c0.1,3,0,6.1,0,9.1
		c0,2.7-1.4,4.2-4.1,4.2c-3.3,0.1-6.5,0.1-9.8,0c-2.9-0.1-4.2-1.7-4.3-4.5c0-2.2,0-4.4-0.1-6.7c0-4.9-0.2-5.1-4.9-5.8
		c-6-1-11.9-2.3-17.5-5c-4.3-2.1-4.8-3.2-3.5-7.7c0.9-3.4,1.9-6.8,2.9-10.1c1.2-3.9,2.3-4.4,5.8-2.5c6.1,3.2,12.6,5,19.4,5.8
		c4.4,0.5,8.7,0.1,12.7-1.7c7.6-3.3,8.8-12.1,2.4-17.3c-2.2-1.8-4.6-3.1-7.2-4.2c-6.6-2.9-13.6-5.1-19.8-8.9
		c-10.2-6.1-16.6-14.4-15.9-26.8c0.9-14,8.8-22.7,21.6-27.4c5.3-1.9,5.3-1.8,5.3-7.4c0-1.9,0-3.7,0-5.6c0.1-4.2,0.8-4.9,5-5
		c1.3,0,2.6,0,3.9,0c8.8,0,8.8,0,8.9,8.8c0,6.3,0,6.3,6.3,7.3c4.8,0.7,9.3,2.2,13.7,4.1c2.4,1.1,3.4,2.8,2.6,5.3
		c-1.1,3.8-2.1,7.7-3.4,11.4c-1.2,3.6-2.3,4.1-5.7,2.4c-6.9-3.3-14.1-4.7-21.8-4.3c-2,0.1-4,0.4-5.8,1.2c-6.6,2.9-7.7,10.2-2.1,14.6
		c2.8,2.3,6.1,3.9,9.4,5.3c5.8,2.4,11.7,4.7,17.2,7.8C429.4,132.1,434.1,154.3,421.7,169.4z"/>
	<path id="XMLID_1058_" fill="#333333" d="M156.3,180.5c-18.3,0-35.6,4.1-51.2,11.5c-40.9,19-69.2,60.4-69.2,108.4c0,0,0,0,0,0v16
		v3.9l-24.4,46.6c-6.2,11.8-0.3,21.4,12.9,21.4h11.5v0.2v20.3v23.7c0,13.8,11.3,25.2,25.2,25.2l34.5-5.1l0,34.5v0v0v0.3l0,0
		c0.2,4.4,3.9,7.4,8.5,6.5l124.5-22c4.7-0.8,8.5-5.4,8.5-10.2v-5.5v-4.4v-40.4c-0.1-43.3,35.9-58.1,38.8-111.2
		C279.7,234.3,222.4,180.5,156.3,180.5z M70.4,333.2c-6,0-10.8-4.8-10.8-10.8c0-6,4.8-10.8,10.8-10.8c6,0,10.8,4.8,10.8,10.8
		C81.2,328.3,76.4,333.2,70.4,333.2z"/>
</g>
</svg>
