<?xml version="1.0" encoding="utf-8"?>
<!-- Generator: Adobe Illustrator 18.0.0, SVG Export Plug-In . SVG Version: 6.00 Build 0)  -->
<!DOCTYPE svg PUBLIC "-//W3C//DTD SVG 1.1//EN" "http://www.w3.org/Graphics/SVG/1.1/DTD/svg11.dtd">
<svg version="1.1" id="Layer_1" xmlns="http://www.w3.org/2000/svg" xmlns:xlink="http://www.w3.org/1999/xlink" x="0px" y="0px"
	 viewBox="0 0 512 512" enable-background="new 0 0 512 512" xml:space="preserve">
<g>
	<path fill="#333333" d="M255.8,182.8L255.8,182.8c0.1,0,0.1,0,0.2,0c0.1,0,0.1,0,0.2,0v0c33.5-0.4,28.6-45.1,28.6-45.1
		c-1.4-29.9-26.4-29.7-28.8-29.6c-2.5-0.1-27.5-0.3-28.8,29.6C227.2,137.7,222.3,182.5,255.8,182.8z"/>
	<path fill="#E2574C" d="M381.1,171.6l-16.6-6.4c2.6-14.6,2.4-29.8-1.1-44.8l16.3-7.2c5.9-2.6,8.5-9.5,5.9-15.4l-7.3-16.4
		c-2.6-5.9-9.5-8.5-15.4-5.9l-16.3,7.2c-8.7-12.7-19.8-23.1-32.4-30.9l6.4-16.6c2.3-6-0.7-12.7-6.7-15l-16.8-6.5
		c-6-2.3-12.7,0.7-15,6.7l-6.4,16.5c-14.6-2.7-29.9-2.5-44.9,1l-7.1-16c-2.6-5.9-9.5-8.5-15.4-5.9L192,23.2
		c-5.9,2.6-8.5,9.5-5.9,15.4l7,15.9c-12.8,8.8-23.3,19.9-31.2,32.6l-16.1-6.2c-6-2.3-12.7,0.7-15,6.7l-6.5,16.8
		c-2.3,6,0.7,12.7,6.7,15l16,6.2c-2.7,14.7-2.5,30.2,1,45.3l-15.6,6.9c-5.9,2.6-8.5,9.5-5.9,15.4l7.3,16.4c2.6,5.9,9.5,8.5,15.4,5.9
		l15.6-6.9c2.3,3.3,4.8,6.5,7.4,9.6l19.9-21.5c1.6-1.7,3.3-3.2,5-4.5c-3.8-4.8-7.2-10.2-9.8-16.1c-16.9-38,0.3-82.5,38.3-99.4
		c38-16.9,82.5,0.3,99.4,38.3c11.7,26.4,7,55.9-9.7,77.1c1.7,1.3,3.4,2.8,4.9,4.5l19.4,21c3.8-4.4,7.3-9,10.3-13.8l16.5,6.4
		c6,2.3,12.7-0.7,15-6.7l6.5-16.8C390.1,180.7,387.1,174,381.1,171.6z"/>
	<path fill="#333333" d="M350.3,255.1l-43.1-46.6c-1.2-1.3-2.6-2.6-4.1-3.6c-12-8.3-25.5-13.7-25.5-13.7l-11.6,36.8l-6.8-19.3
		c12.2-17-1.4-17.5-3.3-17.5h0l0,0c-1.8,0-15.5,0.5-3.3,17.5l-6.8,19.3l-11.6-36.8c0,0-13.5,5.4-25.5,13.7c-1.5,1-2.8,2.3-4.1,3.6
		l-43.1,46.6c-7.6,9-6.6,22.4,2.3,30.2l51.8,44.3l-8.6,157.5c-0.3,5.8,3.8,10.9,9.5,11.8c6.1,1,11.8-3.1,12.9-9.2l22.3-119.6
		c0.4-2,2.1-3.4,4.1-3.4c2,0,3.7,1.4,4.1,3.4l22.3,119.6c1.1,6.1,6.8,10.2,12.9,9.2c5.7-0.9,9.8-6,9.5-11.8l-8.6-157.5l51.8-44.3
		C356.9,277.5,357.9,264.1,350.3,255.1z M189.8,271.2l21.6-19.5l4.8,46.1L189.8,271.2z M295.9,297.9l4.8-46.1l21.6,19.5L295.9,297.9
		z"/>
</g>
</svg>
