<?xml version="1.0" encoding="utf-8"?>
<!-- Generator: Adobe Illustrator 18.0.0, SVG Export Plug-In . SVG Version: 6.00 Build 0)  -->
<!DOCTYPE svg PUBLIC "-//W3C//DTD SVG 1.1//EN" "http://www.w3.org/Graphics/SVG/1.1/DTD/svg11.dtd">
<svg version="1.1" id="Layer_1" xmlns="http://www.w3.org/2000/svg" xmlns:xlink="http://www.w3.org/1999/xlink" x="0px" y="0px"
	 viewBox="0 0 512 512" enable-background="new 0 0 512 512" xml:space="preserve">
<g>
	<g id="XMLID_426_">
		<path fill="#E2574C" d="M296.8,269l-35.4-23v-42.2c0-2.9-2.3-5.2-5.2-5.2c-2.9,0-5.2,2.3-5.2,5.2V246l-35.4,23
			c-2.4,1.6-3.1,4.8-1.5,7.2c1,1.5,2.7,2.4,4.4,2.4c1,0,2-0.3,2.8-0.8l35-22.7l35,22.7c0.9,0.6,1.9,0.8,2.8,0.8
			c1.7,0,3.4-0.8,4.4-2.4C299.9,273.8,299.2,270.6,296.8,269z"/>
	</g>
	<g id="XMLID_424_">
		<path fill="#E2574C" d="M394,414.1l-35.4-23v-42.2c0-2.9-2.3-5.2-5.2-5.2c-2.9,0-5.2,2.3-5.2,5.2v42.2l-35.4,23
			c-2.4,1.6-3.1,4.8-1.5,7.2c1,1.5,2.7,2.4,4.4,2.4c1,0,2-0.3,2.8-0.8l35-22.7l35,22.7c0.9,0.6,1.9,0.8,2.8,0.8
			c1.7,0,3.4-0.8,4.4-2.4C397.1,418.9,396.4,415.7,394,414.1z"/>
	</g>
	<g id="XMLID_415_">
		<path fill="#E2574C" d="M199.6,414.1l-35.4-23v-42.2c0-2.9-2.3-5.2-5.2-5.2c-2.9,0-5.2,2.3-5.2,5.2v42.2l-35.4,23
			c-2.4,1.6-3.1,4.8-1.5,7.2c1,1.5,2.7,2.4,4.4,2.4c1,0,2-0.3,2.8-0.8l35-22.7l35,22.7c0.9,0.6,1.9,0.8,2.8,0.8
			c1.7,0,3.4-0.8,4.4-2.4C202.7,418.9,202,415.7,199.6,414.1z"/>
	</g>
	<path fill="#333333" d="M276.1,129.6c0-4,0-23.9,0-23.9c3-2,5-5.4,5-9.3V74.3c0-13.8-11.2-25-25-25h0h0c-13.8,0-25,11.2-25,25v22.1
		c0,3.9,2,7.3,5,9.3l0,23.9c0,0.4-0.2,0.8-0.6,1c-3.4,1.7-20,10-35.4,22.7c-2.8,2.3-4.3,5.7-4.3,9.2v17h52.4l5.2-23.7
		c-10.5-14.6,0.8-15.3,2.7-15.3h0h0c2,0,13.2,0.7,2.7,15.3l5.2,23.7h52.4v-17c0-3.6-1.6-7-4.3-9.2c-15.4-12.7-32-21.1-35.4-22.7
		C276.4,130.5,276.1,130.1,276.1,129.6z"/>
	<path fill="#333333" d="M370.5,281.5c0-3.5,0-20.7,0-20.7c2.6-1.7,4.3-4.7,4.3-8.1v-19.2c0-12-9.7-21.6-21.6-21.6h0h0
		c-12,0-21.6,9.7-21.6,21.6v19.2c0,3.4,1.7,6.3,4.3,8.1l0,20.7c0,0.4-0.2,0.7-0.5,0.9c-2.9,1.4-17.3,8.7-30.6,19.6
		c-2.4,2-3.7,4.9-3.7,8v14.7h45.3l4.5-20.5c-9-12.6,0.7-13.2,2.4-13.2h0h0c1.7,0,11.4,0.6,2.4,13.2l4.5,20.5h45.3V310
		c0-3.1-1.4-6-3.7-8c-13.3-10.9-27.7-18.2-30.6-19.6C370.7,282.2,370.5,281.8,370.5,281.5z"/>
	<path fill="#333333" d="M176.2,281.5c0-3.5,0-20.7,0-20.7c2.6-1.7,4.3-4.7,4.3-8.1v-19.2c0-12-9.7-21.6-21.6-21.6h0h0
		c-12,0-21.6,9.7-21.6,21.6v19.2c0,3.4,1.7,6.3,4.3,8.1l0,20.7c0,0.4-0.2,0.7-0.5,0.9c-2.9,1.4-17.3,8.7-30.6,19.6
		c-2.4,2-3.7,4.9-3.7,8l0,14.7H152l4.5-20.5c-9-12.6,0.7-13.2,2.4-13.2h0h0c1.7,0,11.4,0.6,2.4,13.2l4.5,20.5h45.3l0-14.7
		c0-3.1-1.4-6-3.7-8c-13.3-10.9-27.7-18.2-30.6-19.6C176.4,282.2,176.2,281.8,176.2,281.5z"/>
	<path fill="#333333" d="M465.6,424.9c0-3,0-18.1,0-18.1c2.3-1.5,3.8-4.1,3.8-7.1V383c0-10.5-8.5-19-19-19h0h0c-10.5,0-19,8.5-19,19
		v16.8c0,2.9,1.5,5.5,3.8,7.1l0,18.1c0,0.3-0.2,0.6-0.5,0.8c-2.6,1.3-15.1,7.6-26.8,17.2c-2.1,1.7-3.3,4.3-3.3,7v12.9h39.7l3.9-18
		c-7.9-11.1,0.6-11.6,2.1-11.6h0h0c1.5,0,10,0.5,2.1,11.6l3.9,18h39.7v-12.9c0-2.7-1.2-5.3-3.3-7c-11.7-9.6-24.2-16-26.8-17.2
		C465.8,425.5,465.6,425.2,465.6,424.9z"/>
	<path fill="#333333" d="M271.3,424.9c0-3,0-18.1,0-18.1c2.3-1.5,3.8-4.1,3.8-7.1V383c0-10.5-8.5-19-19-19h0h0c-10.5,0-19,8.5-19,19
		v16.8c0,2.9,1.5,5.5,3.8,7.1l0,18.1c0,0.3-0.2,0.6-0.5,0.8c-2.6,1.3-15.1,7.6-26.8,17.2c-2.1,1.7-3.3,4.3-3.3,7v12.9h39.7l3.9-18
		c-7.9-11.1,0.6-11.6,2.1-11.6h0h0c1.5,0,10,0.5,2.1,11.6l3.9,18h39.7v-12.9c0-2.7-1.2-5.3-3.3-7c-11.7-9.6-24.2-16-26.8-17.2
		C271.5,425.5,271.3,425.2,271.3,424.9z"/>
	<path fill="#333333" d="M76.8,424.9c0-3,0-18.1,0-18.1c2.3-1.5,3.8-4.1,3.8-7.1V383c0-10.5-8.5-19-19-19h0h0c-10.5,0-19,8.5-19,19
		v16.8c0,2.9,1.5,5.5,3.8,7.1l0,18.1c0,0.3-0.2,0.6-0.5,0.8c-2.6,1.3-15.1,7.6-26.8,17.2c-2.1,1.7-3.3,4.3-3.3,7l0,12.9h39.7l3.9-18
		c-7.9-11.1,0.6-11.6,2.1-11.6h0h0c1.5,0,10,0.5,2.1,11.6l3.9,18h39.7v-12.9c0-2.7-1.2-5.3-3.3-7c-11.7-9.6-24.2-16-26.8-17.2
		C77,425.5,76.8,425.2,76.8,424.9z"/>
</g>
</svg>
