<?xml version="1.0" encoding="utf-8"?>
<!-- Generator: Adobe Illustrator 18.0.0, SVG Export Plug-In . SVG Version: 6.00 Build 0)  -->
<!DOCTYPE svg PUBLIC "-//W3C//DTD SVG 1.1//EN" "http://www.w3.org/Graphics/SVG/1.1/DTD/svg11.dtd">
<svg version="1.1" id="Layer_1" xmlns="http://www.w3.org/2000/svg" xmlns:xlink="http://www.w3.org/1999/xlink" x="0px" y="0px"
	 viewBox="0 0 512 512" enable-background="new 0 0 512 512" xml:space="preserve">
<g>
	<path fill="#E2574C" d="M199.9,241.7c-38.1,0-69.1,30.9-69.1,69.1c0,38.1,30.9,69.1,69.1,69.1c38.1,0,69.1-30.9,69.1-69.1
		C268.9,272.6,238,241.7,199.9,241.7z M219.7,338c-3,3.7-6.9,6.1-11.5,7.4c-2,0.5-2.9,1.6-2.8,3.7c0.1,2,0,4.1,0,6.1
		c0,1.8-0.9,2.8-2.7,2.8c-2.2,0.1-4.4,0.1-6.6,0c-1.9,0-2.8-1.1-2.9-3c0-1.5,0-3,0-4.5c0-3.3-0.1-3.4-3.3-3.9c-4-0.6-8-1.6-11.7-3.4
		c-2.9-1.4-3.2-2.1-2.4-5.2c0.6-2.3,1.2-4.5,2-6.8c0.8-2.6,1.5-2.9,3.9-1.7c4.1,2.1,8.5,3.3,13,3.9c2.9,0.4,5.8,0.1,8.5-1.1
		c5.1-2.2,5.9-8.1,1.6-11.6c-1.5-1.2-3.1-2.1-4.9-2.9c-4.4-2-9.1-3.5-13.3-6c-6.8-4.1-11.1-9.7-10.6-18c0.6-9.4,5.9-15.2,14.5-18.4
		c3.5-1.3,3.6-1.2,3.6-5c0-1.3,0-2.5,0-3.8c0.1-2.8,0.5-3.3,3.3-3.4c0.9,0,1.7,0,2.6,0c5.9,0,5.9,0,6,5.9c0,4.2,0,4.2,4.2,4.9
		c3.2,0.5,6.3,1.4,9.2,2.8c1.6,0.7,2.2,1.9,1.7,3.6c-0.7,2.6-1.4,5.1-2.3,7.7c-0.8,2.4-1.5,2.8-3.8,1.6c-4.6-2.2-9.5-3.2-14.6-2.9
		c-1.3,0.1-2.7,0.3-3.9,0.8c-4.4,1.9-5.1,6.8-1.4,9.8c1.9,1.5,4.1,2.6,6.3,3.6c3.9,1.6,7.9,3.2,11.6,5.2
		C224.9,313,228,327.9,219.7,338z"/>
	<circle fill="#333333" cx="99.4" cy="314.3" r="19.1"/>
	<circle fill="#333333" cx="300.4" cy="314.3" r="19.1"/>
	<path fill="#333333" d="M352.4,198.2H51.7c-17.4,0-31.5,14.1-31.5,31.5v162.2c0,17.4,14.1,31.5,31.5,31.5h300.8
		c17.4,0,31.5-14.1,31.5-31.5V229.7C383.9,212.3,369.8,198.2,352.4,198.2z M357,359.2c-1.8-0.3-3.7-0.5-5.6-0.5
		c-17.6,0-31.9,14.3-31.9,31.9c0,2,0.2,4,0.5,5.9H86.6c0.2-1.3,0.2-2.6,0.2-4c0-17.6-14.3-31.9-31.9-31.9c-2.7,0-5.4,0.3-7.9,1
		v-97.9c2.5,0.6,5.2,1,7.9,1c17.6,0,31.9-14.3,31.9-31.9c0-2.7-0.3-5.3-1-7.8h234.2c-0.4,1.9-0.5,3.9-0.5,5.9
		c0,17.6,14.3,31.9,31.9,31.9c1.9,0,3.8-0.2,5.6-0.5V359.2z"/>
	<path fill="#333333" d="M406.5,143.5H105.3c-15.8,0-28.8,11.7-31,26.9h26.6h9.5h286.1c8,0,14.4,6.4,14.4,14.4v147.2v10v26.4
		c15.2-2.2,26.9-15.2,26.9-31V174.8C437.8,157.5,423.8,143.5,406.5,143.5z"/>
	<path fill="#333333" d="M460.5,88.6H159.4c-15.8,0-28.8,11.7-31,26.9H155h9.5h286.1c8,0,14.4,6.4,14.4,14.4v147.2v10v26.4
		c15.2-2.2,26.9-15.2,26.9-31V119.9C491.9,102.6,477.8,88.6,460.5,88.6z"/>
</g>
</svg>
