<?xml version="1.0" encoding="utf-8"?>
<!-- Generator: Adobe Illustrator 18.0.0, SVG Export Plug-In . SVG Version: 6.00 Build 0)  -->
<!DOCTYPE svg PUBLIC "-//W3C//DTD SVG 1.1//EN" "http://www.w3.org/Graphics/SVG/1.1/DTD/svg11.dtd">
<svg version="1.1" id="Layer_1" xmlns="http://www.w3.org/2000/svg" xmlns:xlink="http://www.w3.org/1999/xlink" x="0px" y="0px"
	 viewBox="0 0 512 512" enable-background="new 0 0 512 512" xml:space="preserve">
<g>
	<path fill="#333333" d="M466.7,257c-5.9-4.6-64.2-69.2-85-84.5V87.1v-2.8V46.7c0-19.7-16-35.7-35.7-35.7H174.3
		c-19.7,0-35.7,16-35.7,35.7v37.5v2.8V330c0,19.7,16,35.7,35.7,35.7h65.2h17.4l-3.2-27.5h-14.2h-1.4V87.1v-2.8V38.5H346
		c4.5,0,8.2,3.7,8.2,8.2v37.5v2.8V330c0,3.3-2,6.2-4.8,7.5c-11.9-9-24.9-36-24.9-36s-6.6-72.9-43.4-72.9c-1,0-1.9,0-2.9,0.2
		c0,0-28,2.4-4.8,82.4l10.3,88.8c0,0,11.6,48.2,43.4,81.5v9.9c0,5.3,4.3,9.6,9.6,9.6h103.9c4.9,0,9-3.7,9.6-8.6
		c3.9-36.5,19.7-177.3,27.9-184.9C477.9,307.5,488.3,273.8,466.7,257z M192.5,84.2v2.8v251.2h-18.2c-4.5,0-8.2-3.7-8.2-8.2V87.1
		v-2.8V46.7c0-4.5,3.7-8.2,8.2-8.2h18.2V84.2z"/>
	<path fill="#E2574C" d="M112.2,260.4H90.7V52.5c0-5.2-4.2-9.5-9.5-9.5H65.4c-5.2,0-9.5,4.2-9.5,9.5v207.9H34.4
		c-2.1,0-3.5,2.3-2.4,4.2l39.3,68.1c0.9,1.6,3.1,1.6,4,0l39.3-68.1C115.7,262.7,114.4,260.4,112.2,260.4z"/>
</g>
</svg>
