<?xml version="1.0" encoding="utf-8"?>
<!-- Generator: Adobe Illustrator 18.0.0, SVG Export Plug-In . SVG Version: 6.00 Build 0)  -->
<!DOCTYPE svg PUBLIC "-//W3C//DTD SVG 1.1//EN" "http://www.w3.org/Graphics/SVG/1.1/DTD/svg11.dtd">
<svg version="1.1" id="Layer_1" xmlns="http://www.w3.org/2000/svg" xmlns:xlink="http://www.w3.org/1999/xlink" x="0px" y="0px"
	 viewBox="0 0 512 512" enable-background="new 0 0 512 512" xml:space="preserve">
<g id="XMLID_2587_">
	<path id="XMLID_2595_" fill="#E2574C" d="M230.9,178l-12.1,0c-1.9-9.9-5.8-19.6-11.6-28.2l8.6-8.6c3.1-3.1,3.1-8.1,0-11.2l-8.6-8.7
		c-3.1-3.1-8.1-3.1-11.2,0l-8.6,8.6c-8.6-5.9-18.3-9.9-28.2-11.8l0-12.1c0-4.4-3.5-7.9-7.9-8l-12.3,0c-4.4,0-7.9,3.5-8,7.9l0,12
		c-10,1.8-19.7,5.7-28.4,11.6l-8.4-8.5c-3.1-3.1-8.1-3.1-11.2,0l-8.7,8.6c-3.1,3.1-3.1,8.1,0,11.2l8.3,8.4c-6,8.7-10,18.4-11.9,28.4
		l-11.7,0c-4.4,0-7.9,3.5-8,7.9l0,12.3c0,4.4,3.5,7.9,7.9,8l11.7,0c1.8,10.1,5.8,19.8,11.7,28.6l-8.2,8.2c-3.1,3.1-3.1,8.1,0,11.2
		l8.6,8.7c3.1,3.1,8.1,3.1,11.2,0l8.2-8.2c8.7,6,18.5,10,28.5,11.9l0,11.7c0,4.4,3.5,7.9,7.9,8l12.3,0c4.4,0,7.9-3.5,8-7.9l0-11.7
		c10-1.9,19.7-5.8,28.5-11.8l8.3,8.4c3.1,3.1,8.1,3.1,11.2,0l8.7-8.6c3.1-3.1,3.1-8.1,0-11.2l-8.4-8.5c5.9-8.7,9.8-18.4,11.7-28.3
		l12,0c4.4,0,7.9-3.5,8-7.9l0-12.3C238.9,181.6,235.3,178,230.9,178z M173.8,220.8c-16,15.9-41.9,15.9-57.8-0.2
		c-15.9-16-15.9-41.9,0.2-57.8c16-15.9,41.9-15.9,57.8,0.2S189.8,204.9,173.8,220.8z"/>
	<path id="XMLID_2592_" fill="#E2574C" d="M453.1,178l-12.1,0c-1.9-9.9-5.8-19.6-11.6-28.2l8.6-8.6c3.1-3.1,3.1-8.1,0-11.2l-8.6-8.7
		c-3.1-3.1-8.1-3.1-11.2,0l-8.6,8.6c-8.6-5.9-18.3-9.9-28.2-11.8l0-12.1c0-4.4-3.5-7.9-7.9-8l-12.3,0c-4.4,0-7.9,3.5-8,7.9l0,12
		c-10,1.8-19.7,5.7-28.4,11.6l-8.4-8.5c-3.1-3.1-8.1-3.1-11.2,0l-8.7,8.6c-3.1,3.1-3.1,8.1,0,11.2l8.3,8.4c-6,8.7-10,18.4-11.9,28.4
		l-11.7,0c-4.4,0-7.9,3.5-8,7.9l0,12.3c0,4.4,3.5,7.9,7.9,8l11.7,0c1.8,10.1,5.8,19.8,11.7,28.6l-8.2,8.2c-3.1,3.1-3.1,8.1,0,11.2
		l8.6,8.7c3.1,3.1,8.1,3.1,11.2,0l8.2-8.2c8.7,6,18.5,10,28.5,11.9l0,11.7c0,4.4,3.5,7.9,7.9,8l12.3,0c4.4,0,7.9-3.5,8-7.9l0-11.7
		c10-1.9,19.7-5.8,28.5-11.8l8.3,8.4c3.1,3.1,8.1,3.1,11.2,0l8.7-8.6c3.1-3.1,3.1-8.1,0-11.2l-8.4-8.5c5.9-8.7,9.8-18.4,11.7-28.3
		l12,0c4.4,0,7.9-3.5,8-7.9l0-12.3C461,181.6,457.5,178,453.1,178z M395.9,220.8c-16,15.9-41.9,15.9-57.8-0.2
		c-15.9-16-15.9-41.9,0.2-57.8c16-15.9,41.9-15.9,57.8,0.2S411.9,204.9,395.9,220.8z"/>
	<path id="XMLID_2591_" fill="#333333" d="M469.9,312.2C436,299.2,415.7,286,415.7,286l-26.1,82.6l-3.6,11.2l-11.7-33.2
		c26.9-37.5-2-39.3-7-39.3v0c0,0-0.1,0-0.1,0c0,0-0.1,0-0.1,0c0,0-0.1,0-0.1,0c0,0-0.1,0-0.1,0v0c-5,0-33.9,1.8-7,39.3l-11.7,33.2
		l-3.6-11.2L318.5,286c0,0-15,9.8-40.6,20.7c9.3,7.9,15.8,18.2,19.7,31c5.3,17.6,5.5,38.6,5.8,65.2c0,3.5,0.1,7.2,0.1,10.9
		c0,0.1,0,0.2,0,0.3h63.5h0.3h138.4C504.9,356.5,507.2,325.8,469.9,312.2z"/>
	<g id="XMLID_2588_">
		<path fill="#333333" d="M145.1,414.1h138.4c-0.7-57.6,1.6-88.3-35.8-101.9c-33.9-12.9-54.2-26.2-54.2-26.2l-26.1,82.6l-3.6,11.2
			l-11.7-33.2c26.9-37.5-2-39.3-7-39.3v0c0,0-0.1,0-0.1,0c0,0-0.1,0-0.1,0c0,0-0.1,0-0.1,0c0,0-0.1,0-0.1,0v0c-5,0-33.9,1.8-7,39.3
			L126,379.8l-3.6-11.2L96.3,286c0,0-20.3,13.3-54.2,26.2c-37.3,13.6-35,44.3-35.8,101.9h138.4H145.1z"/>
	</g>
</g>
</svg>
