<?xml version="1.0" encoding="utf-8"?>
<!-- Generator: Adobe Illustrator 18.0.0, SVG Export Plug-In . SVG Version: 6.00 Build 0)  -->
<!DOCTYPE svg PUBLIC "-//W3C//DTD SVG 1.1//EN" "http://www.w3.org/Graphics/SVG/1.1/DTD/svg11.dtd">
<svg version="1.1" id="Layer_1" xmlns="http://www.w3.org/2000/svg" xmlns:xlink="http://www.w3.org/1999/xlink" x="0px" y="0px"
	 viewBox="0 0 512 512" enable-background="new 0 0 512 512" xml:space="preserve">
<g>
	<path fill="#E2574C" d="M188.4,274.1c-38.2,0-69.2,31-69.2,69.2c0,38.2,31,69.2,69.2,69.2c38.2,0,69.2-31,69.2-69.2
		C257.6,305.1,226.6,274.1,188.4,274.1z M208.3,370.6c-3,3.7-6.9,6.1-11.5,7.4c-2,0.5-2.9,1.6-2.8,3.7c0.1,2,0,4.1,0,6.1
		c0,1.8-0.9,2.8-2.7,2.8c-2.2,0.1-4.4,0.1-6.6,0c-1.9,0-2.8-1.1-2.9-3c0-1.5,0-3,0-4.5c0-3.3-0.1-3.4-3.3-3.9
		c-4.1-0.6-8-1.6-11.7-3.4c-2.9-1.4-3.2-2.1-2.4-5.2c0.6-2.3,1.2-4.5,2-6.8c0.8-2.6,1.5-2.9,3.9-1.7c4.1,2.1,8.5,3.3,13,3.9
		c2.9,0.4,5.8,0.1,8.5-1.1c5.1-2.2,5.9-8.1,1.6-11.7c-1.5-1.2-3.1-2.1-4.9-2.9c-4.5-2-9.1-3.5-13.3-6c-6.8-4.1-11.2-9.7-10.7-18
		c0.6-9.4,5.9-15.3,14.5-18.4c3.6-1.3,3.6-1.2,3.6-5c0-1.3,0-2.5,0-3.8c0.1-2.8,0.5-3.3,3.3-3.4c0.9,0,1.7,0,2.6,0
		c5.9,0,5.9,0,6,5.9c0,4.2,0,4.2,4.2,4.9c3.2,0.5,6.3,1.4,9.2,2.8c1.6,0.7,2.3,1.9,1.8,3.6c-0.7,2.6-1.4,5.1-2.3,7.7
		c-0.8,2.4-1.5,2.8-3.9,1.6c-4.6-2.2-9.5-3.2-14.6-2.9c-1.3,0.1-2.7,0.3-3.9,0.8c-4.4,1.9-5.1,6.8-1.4,9.8c1.9,1.5,4.1,2.6,6.4,3.6
		c3.9,1.6,7.9,3.2,11.6,5.2C213.5,345.5,216.7,360.4,208.3,370.6z"/>
	<circle fill="#333333" cx="87.8" cy="346.8" r="19.2"/>
	<circle fill="#333333" cx="289.1" cy="346.8" r="19.2"/>
	<g>
		<path fill="#333333" d="M493.9,276.9L282.6,65.6c-13-13-34-13-46.9,0l-113,113c-7.5,7.5-10.7,17.8-9.4,27.6h26.5
			c-1.9-3-1.6-7,1-9.6l71-71l80.6,80.6h49c4.3,0,8.5,0.5,12.6,1.5L241.7,95.6l12-12c3-3,7.8-3,10.8,0L475.8,295c3,3,3,7.8,0,10.8
			l-12,12l-68.3-68.3c0.9,4,1.5,8.2,1.5,12.6v49l36.8,36.8l-36.8,36.8v36.2l96.8-96.8C506.9,310.9,506.9,289.9,493.9,276.9z"/>
	</g>
	<g>
		<path fill="#333333" d="M341.2,230.5H40c-17.4,0-31.6,14.2-31.6,31.6v162.5c0,17.4,14.2,31.6,31.6,31.6h301.3
			c17.4,0,31.6-14.2,31.6-31.6V262.1C372.8,244.6,358.7,230.5,341.2,230.5z M345.9,391.8c-1.8-0.3-3.7-0.5-5.6-0.5
			c-17.7,0-32,14.3-32,32c0,2,0.2,4,0.5,5.9H75c0.2-1.3,0.2-2.6,0.2-4c0-17.7-14.3-32-32-32c-2.7,0-5.4,0.3-7.9,1v-98
			c2.5,0.6,5.2,1,7.9,1c17.7,0,32-14.3,32-32c0-2.7-0.3-5.3-1-7.8h234.6c-0.4,1.9-0.5,3.9-0.5,5.9c0,17.7,14.3,32,32,32
			c1.9,0,3.8-0.2,5.6-0.5V391.8z"/>
	</g>
</g>
</svg>
