<?xml version="1.0" encoding="utf-8"?>
<!-- Generator: Adobe Illustrator 18.0.0, SVG Export Plug-In . SVG Version: 6.00 Build 0)  -->
<!DOCTYPE svg PUBLIC "-//W3C//DTD SVG 1.1//EN" "http://www.w3.org/Graphics/SVG/1.1/DTD/svg11.dtd">
<svg version="1.1" id="Layer_1" xmlns="http://www.w3.org/2000/svg" xmlns:xlink="http://www.w3.org/1999/xlink" x="0px" y="0px"
	 viewBox="0 0 512 512" enable-background="new 0 0 512 512" xml:space="preserve">
<g id="XMLID_4483_">
	<path id="XMLID_4492_" fill="#E2574C" d="M402.4,93.9l-8.4,8.4l-67.8,67.8l-6,6l-14.9,14.9L249,247.3l-2,2l-3.4-3.4l-48.4-48.4
		c-8.2,11.4-13.2,25.1-13.8,40l35.3,35.3l14.9,14.9l4,4c3.2,3.2,7.3,4.7,11.4,4.7c0.7,0,1.4-0.1,2-0.1c3.4-0.4,6.8-2,9.4-4.6l4-4
		l69.8-69.8l14.9-14.9l6-6l67.8-67.8l8.2-8.2l2.4,2.4c0.8,0.7,1.6,1.5,2.4,2.2c5.8,5.7,11.6,11.5,17.3,17.3c2.1,2.1,4.1,4.3,7,4.3
		c1.1,0,2.3-0.3,3.7-1.1c4.4-2.4,5.4-6.3,5.6-10.7c1.1-23.9,2.2-47.8,3.4-71.7c0.3-7.2-2.7-10.5-9.7-10.5c-0.4,0-0.7,0-1.1,0
		c-24.5,1.1-49,2.3-73.5,3.5c-3.8,0.2-7.6,0.4-9.7,4.9c-2.1,4.6,0.3,7.1,2.9,9.7C387.3,78.9,394.8,86.5,402.4,93.9z"/>
	<path id="XMLID_4491_" fill="#E2574C" d="M43.3,245.9c-6.3,6.3-6.3,16.6,0,22.9l4,4c3.2,3.2,7.3,4.7,11.4,4.7
		c4.1,0,8.3-1.6,11.4-4.7l30.7-30.7c0-0.6,0-1.2,0-1.8c0-24.3,5.7-47.3,15.8-67.8L43.3,245.9z"/>
	<path id="XMLID_4490_" fill="#333333" d="M465.7,413.4l-91.9-91.9l-5,5l-6.9-6.9c16.4-22.1,26.1-49.5,26.1-79.2
		c0-14.7-2.4-28.9-6.8-42.2l-33.3,33.3c0.3,2.9,0.4,5.9,0.4,8.9c0,51.7-41.9,93.6-93.6,93.6s-93.6-41.9-93.6-93.6
		c0-51.7,41.9-93.6,93.6-93.6c18.7,0,36.1,5.5,50.7,14.9l28.5-28.5c-22.1-16.4-49.5-26.1-79.2-26.1c-73.6,0-133.2,59.6-133.2,133.2
		c0,73.6,59.6,133.2,133.2,133.2c29.8,0,57.3-9.8,79.5-26.3l6.9,6.9l-5,5L428,451c10.4,10.4,27.3,10.4,37.7,0
		C476.1,440.6,476.1,423.8,465.7,413.4z"/>
</g>
</svg>
