<?xml version="1.0" encoding="utf-8"?>
<!-- Generator: Adobe Illustrator 18.0.0, SVG Export Plug-In . SVG Version: 6.00 Build 0)  -->
<!DOCTYPE svg PUBLIC "-//W3C//DTD SVG 1.1//EN" "http://www.w3.org/Graphics/SVG/1.1/DTD/svg11.dtd">
<svg version="1.1" id="Layer_1" xmlns="http://www.w3.org/2000/svg" xmlns:xlink="http://www.w3.org/1999/xlink" x="0px" y="0px"
	 viewBox="0 0 512 512" enable-background="new 0 0 512 512" xml:space="preserve">
<g>
	<g>
		<path fill="#333333" d="M268.6,224.1h83.1v-27c0-5.7-2.5-11.1-6.9-14.7c-24.4-20-50.7-33.3-56-35.9c-0.6-0.3-1-0.9-1-1.6v-38
			c4.8-3.2,7.9-8.6,7.9-14.8V52.8c0-19.6-15.9-35.5-35.5-35.5H256h-4.2c-19.6,0-35.5,15.9-35.5,35.5v39.4c0,6.2,3.2,11.6,7.9,14.8
			v38c0,0.7-0.4,1.3-1,1.6c-5.4,2.6-31.6,15.9-56,35.9c-4.4,3.6-6.9,9-6.9,14.7v27h83.1H268.6z"/>
		<path fill="#333333" d="M418.8,494.7H502v-27c0-5.7-2.5-11.1-6.9-14.7c-24.4-20-50.7-33.3-56-35.9c-0.6-0.3-1-0.9-1-1.6v-38
			c4.8-3.2,7.9-8.6,7.9-14.8v-39.4c0-19.6-15.9-35.5-35.5-35.5h-4.2H402c-19.6,0-35.5,15.9-35.5,35.5v39.4c0,6.2,3.2,11.6,7.9,14.8
			v38c0,0.7-0.4,1.3-1,1.6c-5.4,2.6-31.6,15.9-56,35.9c-4.4,3.6-6.9,9-6.9,14.7v27h83.1H418.8z"/>
		<path fill="#333333" d="M118.3,494.7h83.1v-27c0-5.7-2.5-11.1-6.9-14.7c-24.4-20-50.7-33.3-56-35.9c-0.6-0.3-1-0.9-1-1.6v-38
			c4.8-3.2,7.9-8.6,7.9-14.8v-39.4c0-19.6-15.9-35.5-35.5-35.5h-4.2h-4.2c-19.6,0-35.5,15.9-35.5,35.5v39.4c0,6.2,3.2,11.6,7.9,14.8
			v38c0,0.7-0.4,1.3-1,1.6c-5.4,2.6-31.6,15.9-56,35.9c-4.4,3.6-6.9,9-6.9,14.7v27h83.1H118.3z"/>
	</g>
	<path fill="#E2574C" d="M202.7,280.5c-28.3,28.3-29.4,73.6-3.2,103.2l0.8,0.6c-2.8,6.1-7.7,13.7-15.5,17.5c-2.6,1.3-2,5.1,0.8,5.5
		c8.5,1.3,20.7-0.2,32-8.8l0.2,0.1c28.9,17,66.7,13.1,91.5-11.7c29.4-29.4,29.4-77.2,0-106.6C279.9,251.1,232.1,251.1,202.7,280.5z
		 M273.5,357.9c-2.7,3.2-6.1,5.4-10.2,6.5c-1.8,0.5-2.6,1.4-2.5,3.2c0.1,1.8,0,3.6,0,5.4c0,1.6-0.8,2.5-2.4,2.5c-1.9,0-3.9,0-5.8,0
		c-1.7,0-2.5-1-2.5-2.7c0-1.3,0-2.6,0-3.9c0-2.9-0.1-3-2.9-3.5c-3.6-0.6-7.1-1.4-10.4-3c-2.6-1.2-2.8-1.9-2.1-4.6c0.5-2,1.1-4,1.7-6
		c0.7-2.3,1.3-2.6,3.5-1.5c3.6,1.9,7.5,2.9,11.5,3.4c2.6,0.3,5.1,0.1,7.5-1c4.5-2,5.2-7.2,1.4-10.3c-1.3-1.1-2.8-1.8-4.3-2.5
		c-3.9-1.7-8-3-11.7-5.3c-6-3.6-9.8-8.6-9.4-15.9c0.5-8.3,5.2-13.5,12.8-16.2c3.1-1.1,3.2-1.1,3.2-4.4c0-1.1,0-2.2,0-3.3
		c0.1-2.5,0.5-2.9,2.9-3c0.8,0,1.5,0,2.3,0c5.2,0,5.2,0,5.3,5.2c0,3.7,0,3.7,3.7,4.3c2.8,0.4,5.5,1.3,8.1,2.4c1.4,0.6,2,1.6,1.5,3.2
		c-0.7,2.3-1.3,4.5-2,6.8c-0.7,2.1-1.4,2.4-3.4,1.4c-4.1-2-8.4-2.8-12.9-2.6c-1.2,0.1-2.3,0.2-3.4,0.7c-3.9,1.7-4.5,6-1.2,8.7
		c1.7,1.3,3.6,2.3,5.6,3.1c3.5,1.4,6.9,2.8,10.2,4.6C278.1,335.8,280.9,348.9,273.5,357.9z"/>
</g>
</svg>
