<?xml version="1.0" encoding="utf-8"?>
<!-- Generator: Adobe Illustrator 18.0.0, SVG Export Plug-In . SVG Version: 6.00 Build 0)  -->
<!DOCTYPE svg PUBLIC "-//W3C//DTD SVG 1.1//EN" "http://www.w3.org/Graphics/SVG/1.1/DTD/svg11.dtd">
<svg version="1.1" id="Layer_1" xmlns="http://www.w3.org/2000/svg" xmlns:xlink="http://www.w3.org/1999/xlink" x="0px" y="0px"
	 viewBox="0 0 512 512" enable-background="new 0 0 512 512" xml:space="preserve">
<g>
	<g id="XMLID_447_">
		<g>
			<path fill="#E2574C" d="M305.3,298.6H305v-16.9c0-26.8-21.8-48.6-48.6-48.6c-26.8,0-48.6,21.8-48.6,48.6v16.9h-1.1
				c-7.1,0-12.8,5.7-12.8,12.8V382c0,7.1,5.7,12.8,12.8,12.8h98.6c7.1,0,12.8-5.7,12.8-12.8v-70.7
				C318.1,304.3,312.4,298.6,305.3,298.6z M229.1,281.7c0-15.1,12.3-27.3,27.3-27.3c15.1,0,27.3,12.3,27.3,27.3v16.9h-54.6V281.7z
				 M263.6,349.8c-1,0.7-1.3,1.4-1.2,2.6c0,5.2,0,10.4,0,15.5v0c0.1,2.2-1,4.3-2.9,5.2c-4.5,2.3-9.1-0.9-9.1-5.2c0,0,0,0,0,0
				c0-5.2,0-10.4,0-15.6c0-1.1-0.2-1.8-1.2-2.4c-4.7-3.5-6.2-9.4-3.9-14.6c2.3-5.1,7.9-8,13.1-7c5.8,1.2,9.9,5.9,10,11.7
				C268.5,344.2,266.9,347.5,263.6,349.8z"/>
		</g>
	</g>
	<g>
		<g>
			<path fill="#333333" d="M246.2,478.9c0-5.4,4.4-9.7,9.7-9.7l0,0c5.4,0,9.7,4.4,9.7,9.7l0,0c0,5.4-4.4,9.7-9.7,9.7l0,0
				c0,0-0.1,0-0.2,0l0,0C250.4,488.5,246.2,484.2,246.2,478.9z M182.6,473c-4.9-2.2-7.1-7.9-4.9-12.8l0,0c2.2-4.9,8-7.1,12.8-4.9
				l0,0c4.9,2.2,7.1,8,4.9,12.8l0,0c-1.6,3.7-5.3,5.8-9.1,5.8l0,0C185.1,473.8,183.8,473.6,182.6,473z M316.4,468.2
				c-2.2-4.9,0-10.7,4.9-12.8l0,0c4.9-2.2,10.6,0,12.8,4.9l0,0c2.2,4.9,0,10.7-4.9,12.8l0,0c-1.4,0.6-2.7,0.9-4.1,0.9l0,0
				C321.5,473.9,318,471.7,316.4,468.2z M85.3,300.1c-5.3-0.6-9.2-5.3-8.6-10.7l0,0c0,0,0-0.1,0-0.1l0,0c0-0.1,0-0.1,0-0.2l0,0
				c0,0,0,0,0,0l0,0c0.6-5.4,5.4-9.2,10.7-8.6l0,0c5.3,0.6,9.2,5.3,8.6,10.7l0,0c0,0.1,0,0.1,0,0.2l0,0c0,0,0,0.1,0,0.1l0,0
				c-0.5,5.1-4.9,8.8-9.8,8.7l0,0C86,300.1,85.7,300.1,85.3,300.1z M416,291.6c-0.6-5.3,3.3-10.1,8.7-10.7l0,0
				c5.4-0.6,10.1,3.3,10.7,8.7l0,0c0.5,5.4-3.4,10.1-8.7,10.7l0,0c-0.4,0.1-0.8,0.1-1.2,0.1l0,0C420.7,300.3,416.6,296.6,416,291.6z
				 M103.5,231.1c-4.6-2.7-6.2-8.7-3.5-13.3l0,0c2.7-4.6,8.6-6.2,13.3-3.5l0,0c4.6,2.7,6.2,8.6,3.5,13.3l0,0
				c-1.8,3.1-5.2,4.9-8.6,4.8l0,0C106.6,232.4,105,232,103.5,231.1z M395.4,228.1L395.4,228.1c-2.7-4.7-1.1-10.6,3.6-13.3l0,0
				c4.7-2.7,10.6-1.1,13.3,3.6l0,0c2.7,4.7,1.1,10.6-3.6,13.3l0,0c-1.6,0.9-3.3,1.3-5,1.3l0,0C400.4,232.9,397.2,231.1,395.4,228.1z
				 M148.1,175.8c-3.1-4.4-2.2-10.4,2.2-13.6l0,0c4.4-3.1,10.4-2.2,13.6,2.2l0,0c3.1,4.3,2.2,10.4-2.2,13.6l0,0
				c-1.8,1.3-3.8,1.9-5.8,1.8l0,0C152.9,179.8,150,178.4,148.1,175.8z M350.8,178.3c-4.3-3.2-5.3-9.3-2.1-13.6l0,0
				c3.2-4.3,9.3-5.3,13.6-2.1l0,0c4.4,3.2,5.3,9.3,2.1,13.6l0,0c-1.9,2.7-5,4-8,4l0,0C354.4,180.1,352.4,179.5,350.8,178.3z"/>
		</g>
		<path fill="#333333" d="M265.1,173.9h60.5v-19.6c0-4.1-1.8-8.1-5-10.7c-17.7-14.6-36.9-24.3-40.8-26.2c-0.4-0.2-0.7-0.7-0.7-1.1
			V88.6c3.5-2.3,5.8-6.3,5.8-10.7V49.2c0-14.3-11.6-25.8-25.8-25.8H256h-3.1c-14.3,0-25.8,11.6-25.8,25.8v28.6
			c0,4.5,2.3,8.4,5.8,10.7v27.6c0,0.5-0.3,0.9-0.7,1.1c-3.9,1.9-23,11.6-40.8,26.2c-3.2,2.6-5,6.6-5,10.7v19.6h60.5H265.1z"/>
		<path fill="#333333" d="M435.2,471.6h60.5v-19.6c0-4.1-1.8-8.1-5-10.7c-17.7-14.6-36.9-24.3-40.8-26.2c-0.4-0.2-0.7-0.7-0.7-1.1
			v-27.6c3.5-2.3,5.8-6.3,5.8-10.7v-28.6c0-14.3-11.6-25.8-25.8-25.8h-3.1H423c-14.3,0-25.8,11.6-25.8,25.8v28.6
			c0,4.5,2.3,8.4,5.8,10.7v27.6c0,0.5-0.3,0.9-0.7,1.1c-3.9,1.9-23,11.6-40.8,26.2c-3.2,2.6-5,6.6-5,10.7v19.6H417H435.2z"/>
		<path fill="#333333" d="M95,471.6h60.5v-19.6c0-4.1-1.8-8.1-5-10.7c-17.7-14.6-36.9-24.3-40.8-26.2c-0.4-0.2-0.7-0.7-0.7-1.1
			v-27.6c3.5-2.3,5.8-6.3,5.8-10.7v-28.6c0-14.3-11.6-25.8-25.8-25.8h-3.1h-3.1c-14.3,0-25.8,11.6-25.8,25.8v28.6
			c0,4.5,2.3,8.4,5.8,10.7v27.6c0,0.5-0.3,0.9-0.7,1.1c-3.9,1.9-23,11.6-40.8,26.2c-3.2,2.6-5,6.6-5,10.7v19.6h60.5H95z"/>
	</g>
</g>
</svg>
