<?xml version="1.0" encoding="utf-8"?>
<!-- Generator: Adobe Illustrator 18.0.0, SVG Export Plug-In . SVG Version: 6.00 Build 0)  -->
<!DOCTYPE svg PUBLIC "-//W3C//DTD SVG 1.1//EN" "http://www.w3.org/Graphics/SVG/1.1/DTD/svg11.dtd">
<svg version="1.1" id="Layer_1" xmlns="http://www.w3.org/2000/svg" xmlns:xlink="http://www.w3.org/1999/xlink" x="0px" y="0px"
	 viewBox="0 0 512 512" enable-background="new 0 0 512 512" xml:space="preserve">
<g>
	<g>
		<path fill="#333333" d="M193.4,107.1L193.4,107.1c0.1,0,0.2,0,0.2,0c0.1,0,0.2,0,0.2,0v0c41.3-0.4,35.3-55.6,35.3-55.6
			c-1.7-36.9-32.5-36.6-35.6-36.4c-3-0.1-33.9-0.4-35.6,36.4C158.1,51.5,152.1,106.7,193.4,107.1z"/>
		<path fill="#333333" d="M371,220l-71.9-20.4L265,146l0,0c-0.3-0.6-0.7-1.1-1.1-1.5c-3.6-3.6-5.4-5.3-9.4-8.3
			c-15.3-11.3-34.1-18.9-34.1-18.9L206,162.7l-8.4-23.8c15-21-1.8-21.6-4-21.6c-2.2,0-19.1,0.6-4,21.6l-8.4,23.8l-14.3-45.3
			c0,0-16.4,6.6-31,16.7c-2,1.4-3.8,2.9-5.4,4.7l-53.1,57.4c-9.4,11.1-8.1,27.7,2.8,37.2l63.9,54.6l-10.6,194.2
			c-0.4,7.1,4.7,13.4,11.7,14.5h0c7.5,1.2,14.6-3.9,15.9-11.4l28.3-151.6l15,150.3c0.5,7.1,6.4,12.7,13.6,12.8
			c7.5,0.1,13.8-5.8,14.1-13.3l8.8-214.8l7.2-70.5c0.1-1.3,1.8-1.7,2.6-0.7l17.5,25.1c2.9,4.2,7.3,7,12.3,8l84.1,16.5
			c8.7,1.7,16.7-4.9,16.7-13.7v0C381.1,227.2,377,221.7,371,220z M138.6,192.1l5.9,56.9L112,216.1L138.6,192.1z"/>
	</g>
	<path fill="#E2574C" d="M426.9,115.1l-5.8-5.8c-1.9-1.9-5-1.9-6.9,0l-5.3,5.3c-4.9-3.3-10.5-5.6-16.4-6.7l0-7.5
		c0-2.7-2.2-4.8-4.9-4.8l-8.2,0c-2.7,0-4.8,2.2-4.8,4.9l0,7.5c-6,1.2-11.5,3.6-16.4,6.9l-5.3-5.3c-1.9-1.9-5-1.9-6.9,0l-5.8,5.8
		c-1.9,1.9-1.9,5,0,6.9l5.3,5.3c-3.3,4.9-5.6,10.5-6.7,16.4l-7.5,0c-2.7,0-4.8,2.2-4.8,4.9l0,8.2c0,2.7,2.2,4.8,4.9,4.8l7.5,0
		c1.2,6,3.6,11.5,6.9,16.4l-5.3,5.3c-1.9,1.9-1.9,5,0,6.9l5.8,5.8c1.9,1.9,5,1.9,6.9,0l5.3-5.3c4.9,3.3,10.5,5.6,16.4,6.7l0,7.5
		c0,2.7,2.2,4.8,4.9,4.8l8.2,0c2.7,0,4.8-2.2,4.8-4.9l0-7.5c6-1.2,11.5-3.6,16.4-6.9l5.3,5.3c1.9,1.9,5,1.9,6.9,0l5.8-5.8
		c1.9-1.9,1.9-5,0-6.9l-5.3-5.3c3.3-4.9,5.6-10.5,6.7-16.4l7.5,0c2.7,0,4.8-2.2,4.8-4.9l0-8.2c0-2.7-2.2-4.8-4.9-4.8l-7.5,0
		c-1.2-6-3.6-11.5-6.9-16.4l5.3-5.3C428.8,120.1,428.8,117,426.9,115.1z M405.5,152.7c0,12-9.7,21.8-21.7,21.8
		c-12,0-21.8-9.7-21.8-21.7c0-12,9.7-21.8,21.7-21.8C395.7,131,405.5,140.7,405.5,152.7z"/>
</g>
</svg>
