<?xml version="1.0" encoding="utf-8"?>
<!-- Generator: Adobe Illustrator 18.0.0, SVG Export Plug-In . SVG Version: 6.00 Build 0)  -->
<!DOCTYPE svg PUBLIC "-//W3C//DTD SVG 1.1//EN" "http://www.w3.org/Graphics/SVG/1.1/DTD/svg11.dtd">
<svg version="1.1" id="Layer_1" xmlns="http://www.w3.org/2000/svg" xmlns:xlink="http://www.w3.org/1999/xlink" x="0px" y="0px"
	 viewBox="0 0 512 512" enable-background="new 0 0 512 512" xml:space="preserve">
<g>
	<g>
		<g>
			<path fill="#E2574C" d="M497.9,127l-23.6-5.1c-2-9.3-5.1-18.1-9.5-26.2l14.9-19.1c2.8-3.5,2.5-8.5-0.4-11.8l-8-8.8l-8-8.8
				c-3-3.3-7.9-3.9-11.7-1.5l-20.4,13.1c-7.9-5.2-16.5-9.3-25.9-12l-2.9-23.8c-0.6-4.5-4.2-7.9-8.7-8.1l-12-0.5l-12-0.5
				c-4.4-0.2-8.4,2.9-9.4,7.2L355.1,45c-9.3,2-18.1,5.3-26.1,9.6l-18.8-15c-3.5-2.8-8.5-2.5-11.8,0.4l-8.8,8l-8.8,8
				c-3.3,3-3.9,7.9-1.5,11.7l13.2,20.5c-5,7.8-8.9,16.2-11.6,25.3l-23.8,2.9c-4.5,0.6-7.9,4.2-8.1,8.7l-0.5,12l-0.5,12
				c-0.2,4.4,2.9,8.4,7.2,9.4l23.9,5.2c2,9.3,5.3,18.1,9.6,26.1l-14.8,18.9c-2.8,3.5-2.5,8.5,0.4,11.8l8,8.8l8,8.8
				c3,3.3,7.9,3.9,11.7,1.5l20.5-13.2c7.6,4.9,15.9,8.8,24.6,11.5l2.9,24c0.6,4.5,4.2,7.9,8.7,8.1l12,0.5l12,0.5
				c4.4,0.2,8.4-2.9,9.4-7.2l5.1-23.6c9.3-2,18.1-5.1,26.2-9.5l19.1,14.9c3.5,2.8,8.5,2.5,11.8-0.4l8.8-8l8.8-8
				c3.3-3,3.9-7.9,1.5-11.7L460.3,197c5.1-7.8,9.1-16.2,11.8-25.3l24-2.9c4.5-0.6,7.9-4.2,8.1-8.7l0.5-12l0.5-12
				C505.2,131.9,502.2,128,497.9,127z M325,140.2c1.3-29,25.9-51.4,54.8-50.1c29,1.3,51.4,25.9,50.1,54.8
				c-1.3,29-25.9,51.4-54.8,50.1C346.1,193.7,323.7,169.1,325,140.2z"/>
		</g>
	</g>
	<path fill="#333333" d="M383.1,293.4c-0.5,0-1,0-1.4,0l-12-0.5l-12-0.5c-15.4-0.7-27.9-12.3-29.8-27.6c0,0,0,0,0-0.1l-1.3-10.6
		c-1.1-0.5-2.2-1-3.3-1.6l-9.2,5.9c0,0-0.1,0-0.1,0c-5.1,3.3-11,5-17,5c-8.8,0-17.3-3.7-23.2-10.2l-8-8.8l-8-8.8
		c-10.3-11.3-11-28.3-1.6-40.5c0,0,0-0.1,0.1-0.1l6.4-8.2c-0.5-1.4-1-2.7-1.5-4.1l-10.8-2.3c-15-3.3-25.5-16.8-24.8-32.2l0.5-12
		l0.5-12c0.1-1.4,0.2-2.8,0.5-4.1c-2.5-3.8-6.7-6.2-11.5-6.2h-18h-18c-6.6,0-12.5,4.9-13.6,11.5l-6.1,36.1
		c-13.7,3.6-26.7,9.2-38.5,16.2l-29.1-21.2c-5.5-3.9-12.9-3.2-17.6,1.5l-12.6,12.6l-12.6,12.6c-4.7,4.7-5.3,12.1-1.5,17.6l21.2,29.8
		c-7,12-12.3,24.9-15.7,38.7l-35.4,6c-6.6,1.1-11.5,6.8-11.5,13.6v18v18c0,6.6,4.9,12.5,11.5,13.6l36.1,6.1
		c3.6,13.7,9.2,26.7,16.2,38.5l-20.9,29.3c-3.9,5.5-3.2,12.9,1.5,17.6l12.6,12.6L76.3,455c4.7,4.7,12.1,5.3,17.6,1.5l29.8-21.2
		c11.6,6.8,24.4,12.1,37.7,15.5l6,35.7c1.1,6.6,6.8,11.5,13.6,11.5h18h18c6.6,0,12.5-4.9,13.6-11.5l6-35.7
		c13.7-3.6,26.7-8.9,38.7-16l29.6,21c5.5,3.9,12.9,3.2,17.6-1.5l12.6-12.6l12.6-12.6c4.7-4.7,5.3-12.1,1.5-17.6l-21-29.6
		c7.1-12,12.5-24.9,16-38.7l35.7-6c6.6-1.1,11.5-6.8,11.5-13.6v-18v-13.5C388.6,293,385.9,293.4,383.1,293.4z M200.3,384.7
		c-43.5,0-78.7-35.2-78.7-78.7c0-43.5,35.2-78.7,78.7-78.7c43.5,0,78.7,35.2,78.7,78.7C279,349.5,243.7,384.7,200.3,384.7z"/>
</g>
</svg>
