<?xml version="1.0" encoding="utf-8"?>
<!-- Generator: Adobe Illustrator 18.0.0, SVG Export Plug-In . SVG Version: 6.00 Build 0)  -->
<!DOCTYPE svg PUBLIC "-//W3C//DTD SVG 1.1//EN" "http://www.w3.org/Graphics/SVG/1.1/DTD/svg11.dtd">
<svg version="1.1" id="Layer_1" xmlns="http://www.w3.org/2000/svg" xmlns:xlink="http://www.w3.org/1999/xlink" x="0px" y="0px"
	 viewBox="0 0 512 512" enable-background="new 0 0 512 512" xml:space="preserve">
<g>
	<g>
		<g>
			<path fill="#333333" d="M476.2,305.9c-9.1-0.7-27.9,9.6-33.1,12.1c-18.4,9.2-43.8,23.7-60.6,35.3c-1.2,0.8-2.7,1.8-3.9,2.6
				c-7.5,4.9-15.5,8.1-24.3,10c-48.7,10.4-119.6,11.5-119.6,11.5l-4.1,0.2c-3.1,0.2-5.9-2-6.3-5c-0.5-3.3,2-6.4,5.4-6.7l105.5-10
				c11.6-1.3,20.9-12.1,19.6-24.4c-1.3-12.2-12.5-21.1-24.1-19.9l-93.8-1.2c-6.4-0.1-16.6-1.7-22.7-3.5
				c-60.5-17.7-94.5-1.1-112.7,6.6c-4-6.7-11.7-11-20.3-10.5l-40.5,2.7c-13.5,0.9-23.6,12.1-22.7,25.1l6.5,89.8
				c0.9,13,12.6,22.8,26,21.9l40.5-2.7c8.5-0.6,15.5-5.8,18.5-13l177.7,7.7c19.8,2.1,38.4-0.3,55.8-9.4l5.1-2.7l134.3-78.6
				c6.6-3.9,11.3-10.5,11.5-18C494.3,316.8,489,306.8,476.2,305.9z M65.4,421.2c-7.6,0-13.8-5.9-13.8-13.3c0-7.3,6.2-13.3,13.8-13.3
				c7.6,0,13.8,5.9,13.8,13.3C79.2,415.3,73,421.2,65.4,421.2z"/>
			<path fill="#333333" d="M374.3,320.2c1,2.9,1.7,6,2,9.1c0.3,2.5,0.2,5,0.1,7.5c1.4-1,2.8-2,4.2-2.9c13.7-9.6,41.7-24.8,57.6-32.8
				c4.8-2.4,9.8-4.8,15.3-6.7c-6.9-4.6-14.3-4.8-21.9-1.8c-15.1,6-42.9,19.4-57,27.1C374.4,319.8,374.3,320,374.3,320.2z"/>
			<path fill="#333333" d="M366.3,306.3c0.6-0.4,1.2-0.9,1.8-1.2l6.8-3.7c9.9-5.5,31.1-12.9,42-17.8c-6.9-4.5-14.2-4.7-21.7-1.7
				c-9.3,3.7-30.2,10.4-39.4,15.4C359.7,299.7,363.3,302.7,366.3,306.3z"/>
		</g>
	</g>
	<g id="XMLID_204_">
		<g>
			<path fill="#E2574C" d="M330.6,146.1h-0.4v-19.8c0-31.4-25.5-56.9-56.9-56.9c-31.4,0-56.9,25.5-56.9,56.9v19.8h-1.3
				c-8.3,0-15,6.7-15,15v82.7c0,8.3,6.7,15,15,15h115.5c8.3,0,15-6.7,15-15v-82.7C345.6,152.8,338.9,146.1,330.6,146.1z
				 M241.4,126.3c0-17.6,14.3-32,32-32s32,14.3,32,32v19.8h-64V126.3z M281.8,206.1c-1.1,0.8-1.5,1.7-1.5,3c0,6.1,0,12.1,0,18.2v0
				c0.1,2.5-1.2,5-3.4,6.1c-5.3,2.7-10.6-1.1-10.6-6.1c0,0,0,0,0,0c0-6.1,0-12.2,0-18.3c0-1.2-0.3-2.1-1.4-2.9
				c-5.5-4.1-7.3-11-4.6-17.1c2.7-5.9,9.2-9.4,15.4-8.2c6.8,1.4,11.6,6.9,11.7,13.8C287.6,199.5,285.6,203.4,281.8,206.1z"/>
		</g>
	</g>
</g>
</svg>
