<?xml version="1.0" encoding="utf-8"?>
<!-- Generator: Adobe Illustrator 18.0.0, SVG Export Plug-In . SVG Version: 6.00 Build 0)  -->
<!DOCTYPE svg PUBLIC "-//W3C//DTD SVG 1.1//EN" "http://www.w3.org/Graphics/SVG/1.1/DTD/svg11.dtd">
<svg version="1.1" id="Layer_1" xmlns="http://www.w3.org/2000/svg" xmlns:xlink="http://www.w3.org/1999/xlink" x="0px" y="0px"
	 viewBox="0 0 512 512" enable-background="new 0 0 512 512" xml:space="preserve">
<g>
	<path fill="#333333" d="M142.5,157.7v-37.8c4.8-3.2,7.9-8.6,7.9-14.7V66c0-19.5-15.8-35.3-35.3-35.3h-4.2h-4.2
		c-19.5,0-35.3,15.8-35.3,35.3v39.2c0,6.1,3.1,11.5,7.9,14.7v37.8c0,0.7-0.4,1.3-1,1.6c-5.3,2.6-31.5,15.8-55.8,35.8
		c-4.4,3.6-6.9,9-6.9,14.7v26.9h82.8l8.2-37.4c-16.5-23,1.2-24.2,4.3-24.2h0h0c3.1,0,20.8,1.1,4.3,24.2l8.2,37.4h82.8v-26.9
		c0-5.7-2.5-11.1-6.9-14.7c-24.3-19.9-50.4-33.2-55.8-35.8C142.8,158.9,142.5,158.3,142.5,157.7z"/>
	<path fill="#333333" d="M432.8,402.4v-37.8c4.8-3.2,7.9-8.6,7.9-14.7v-39.2c0-19.5-15.8-35.3-35.3-35.3h-4.2h-4.2
		c-19.5,0-35.3,15.8-35.3,35.3v39.2c0,6.1,3.1,11.5,7.9,14.7v37.8c0,0.7-0.4,1.3-1,1.6c-5.3,2.6-31.5,15.8-55.8,35.8
		c-4.4,3.6-6.9,9-6.9,14.7v26.9h82.8l8.2-37.4c-16.5-23,1.2-24.2,4.3-24.2h0h0c3.1,0,20.8,1.1,4.3,24.2l8.2,37.4h82.8v-26.9
		c0-5.7-2.5-11.1-6.9-14.7c-24.3-19.9-50.4-33.2-55.8-35.8C433.2,403.7,432.8,403.1,432.8,402.4z"/>
	<path fill="#E2574C" d="M333.8,121.8H228.3l18.2-18.2l-16.7-16.7l-30,30l-16.7,16.7l16.7,16.7l30,30l16.7-16.7l-18.2-18.2h105.6
		c30.6,0,55.5,24.9,55.5,55.5v35.2H413v-35.2C413,157.3,377.5,121.8,333.8,121.8z"/>
	<path fill="#E2574C" d="M178.2,378.4h105.6l-18.2,18.2l16.7,16.7l30-30l16.7-16.7l-16.7-16.7l-30-30l-16.7,16.7l18.2,18.2H178.2
		c-30.6,0-55.5-24.9-55.5-55.5V264H99v35.2C99,342.9,134.5,378.4,178.2,378.4z"/>
</g>
</svg>
