<?xml version="1.0" encoding="utf-8"?>
<!-- Generator: Adobe Illustrator 18.0.0, SVG Export Plug-In . SVG Version: 6.00 Build 0)  -->
<!DOCTYPE svg PUBLIC "-//W3C//DTD SVG 1.1//EN" "http://www.w3.org/Graphics/SVG/1.1/DTD/svg11.dtd">
<svg version="1.1" id="Layer_1" xmlns="http://www.w3.org/2000/svg" xmlns:xlink="http://www.w3.org/1999/xlink" x="0px" y="0px"
	 viewBox="0 0 512 512" enable-background="new 0 0 512 512" xml:space="preserve">
<g>
	<g id="XMLID_416_">
		<path fill="#333333" d="M296.8,269l-35.4-23v-42.2c0-2.9-2.3-5.2-5.2-5.2c-2.9,0-5.2,2.3-5.2,5.2V246l-35.4,23
			c-2.4,1.6-3.1,4.8-1.5,7.2c1,1.5,2.7,2.4,4.4,2.4c1,0,2-0.3,2.8-0.8l35-22.7l35,22.7c0.9,0.6,1.9,0.8,2.8,0.8
			c1.7,0,3.4-0.8,4.4-2.4C299.9,273.8,299.2,270.6,296.8,269z"/>
	</g>
	<g id="XMLID_431_">
		<path fill="#333333" d="M394,414.1l-35.4-23v-42.2c0-2.9-2.3-5.2-5.2-5.2c-2.9,0-5.2,2.3-5.2,5.2v42.2l-35.4,23
			c-2.4,1.6-3.1,4.8-1.5,7.2c1,1.5,2.7,2.4,4.4,2.4c1,0,2-0.3,2.8-0.8l35-22.7l35,22.7c0.9,0.6,1.9,0.8,2.8,0.8
			c1.7,0,3.4-0.8,4.4-2.4C397.1,418.9,396.4,415.7,394,414.1z"/>
	</g>
	<g id="XMLID_433_">
		<path fill="#333333" d="M199.6,414.1l-35.4-23v-42.2c0-2.9-2.3-5.2-5.2-5.2c-2.9,0-5.2,2.3-5.2,5.2v42.2l-35.4,23
			c-2.4,1.6-3.1,4.8-1.5,7.2c1,1.5,2.7,2.4,4.4,2.4c1,0,2-0.3,2.8-0.8l35-22.7l35,22.7c0.9,0.6,1.9,0.8,2.8,0.8
			c1.7,0,3.4-0.8,4.4-2.4C202.7,418.9,202,415.7,199.6,414.1z"/>
	</g>
	<path fill="#E2574C" d="M264,179.6h52.4v-17c0-3.6-1.6-7-4.4-9.3c-15.4-12.6-31.9-21-35.3-22.7c-0.4-0.2-0.6-0.6-0.6-1v-23.9
		c3-2,5-5.4,5-9.3V71.6c0-12.3-10-22.4-22.4-22.4h-2.7h-2.7c-12.3,0-22.4,10-22.4,22.4v24.8c0,3.9,2,7.3,5,9.3v23.9
		c0,0.4-0.2,0.8-0.6,1c-3.4,1.7-19.9,10-35.3,22.7c-2.8,2.3-4.4,5.7-4.4,9.3v17h52.4H264z"/>
	<path fill="#333333" d="M360.1,324.7h45.3V310c0-3.1-1.4-6.1-3.8-8c-13.3-10.9-27.6-18.2-30.5-19.6c-0.3-0.2-0.5-0.5-0.5-0.9v-20.7
		c2.6-1.7,4.3-4.7,4.3-8.1v-21.5c0-10.7-8.7-19.3-19.3-19.3h-2.3h-2.3c-10.7,0-19.3,8.7-19.3,19.3v21.5c0,3.4,1.7,6.3,4.3,8.1v20.7
		c0,0.4-0.2,0.7-0.5,0.9c-2.9,1.4-17.2,8.7-30.5,19.6c-2.4,2-3.8,4.9-3.8,8v14.7h45.3H360.1z"/>
	<path fill="#333333" d="M165.7,324.7h45.3V310c0-3.1-1.4-6.1-3.8-8c-13.3-10.9-27.6-18.2-30.5-19.6c-0.3-0.2-0.5-0.5-0.5-0.9v-20.7
		c2.6-1.7,4.3-4.7,4.3-8.1v-21.5c0-10.7-8.7-19.3-19.3-19.3h-2.3h-2.3c-10.7,0-19.3,8.7-19.3,19.3v21.5c0,3.4,1.7,6.3,4.3,8.1v20.7
		c0,0.4-0.2,0.7-0.5,0.9c-2.9,1.4-17.2,8.7-30.5,19.6c-2.4,2-3.8,4.9-3.8,8v14.7H152H165.7z"/>
	<path fill="#333333" d="M67.6,462.8h39.7v-12.9c0-2.7-1.2-5.3-3.3-7c-11.6-9.6-24.2-15.9-26.8-17.2c-0.3-0.1-0.5-0.4-0.5-0.8v-18.1
		c2.3-1.5,3.8-4.1,3.8-7.1v-18.8c0-9.4-7.6-16.9-16.9-16.9h-2h-2c-9.4,0-16.9,7.6-16.9,16.9v18.8c0,2.9,1.5,5.5,3.8,7.1v18.1
		c0,0.3-0.2,0.6-0.5,0.8c-2.6,1.3-15.1,7.6-26.8,17.2c-2.1,1.7-3.3,4.3-3.3,7v12.9h39.7H67.6z"/>
	<path fill="#333333" d="M262.1,462.8h39.7v-12.9c0-2.7-1.2-5.3-3.3-7c-11.6-9.6-24.2-15.9-26.8-17.2c-0.3-0.1-0.5-0.4-0.5-0.8
		v-18.1c2.3-1.5,3.8-4.1,3.8-7.1v-18.8c0-9.4-7.6-16.9-16.9-16.9h-2h-2c-9.4,0-16.9,7.6-16.9,16.9v18.8c0,2.9,1.5,5.5,3.8,7.1v18.1
		c0,0.3-0.2,0.6-0.5,0.8c-2.6,1.3-15.1,7.6-26.8,17.2c-2.1,1.7-3.3,4.3-3.3,7v12.9h39.7H262.1z"/>
	<path fill="#333333" d="M456.4,462.8h39.7v-12.9c0-2.7-1.2-5.3-3.3-7c-11.6-9.6-24.2-15.9-26.8-17.2c-0.3-0.1-0.5-0.4-0.5-0.8
		v-18.1c2.3-1.5,3.8-4.1,3.8-7.1v-18.8c0-9.4-7.6-16.9-16.9-16.9h-2h-2c-9.4,0-16.9,7.6-16.9,16.9v18.8c0,2.9,1.5,5.5,3.8,7.1v18.1
		c0,0.3-0.2,0.6-0.5,0.8c-2.6,1.3-15.1,7.6-26.8,17.2c-2.1,1.7-3.3,4.3-3.3,7v12.9h39.7H456.4z"/>
</g>
</svg>
