<?xml version="1.0" encoding="utf-8"?>
<!-- Generator: Adobe Illustrator 18.0.0, SVG Export Plug-In . SVG Version: 6.00 Build 0)  -->
<!DOCTYPE svg PUBLIC "-//W3C//DTD SVG 1.1//EN" "http://www.w3.org/Graphics/SVG/1.1/DTD/svg11.dtd">
<svg version="1.1" id="Layer_1" xmlns="http://www.w3.org/2000/svg" xmlns:xlink="http://www.w3.org/1999/xlink" x="0px" y="0px"
	 viewBox="0 0 512 512" enable-background="new 0 0 512 512" xml:space="preserve">
<g>
	<g>
		<path fill="#333333" d="M340.8,377c-42.6-35-88.5-58.3-97.9-62.8c-1-0.5-1.7-1.6-1.7-2.7v-10.6c-10.2,6.5-21.6,11.4-33.9,14
			c-4.6,7.3-12.6,12-21.6,12c-14,0-25.4-11.4-25.4-25.4c0-14,11.4-25.4,25.4-25.4c6.9,0,13.3,2.7,18,7.4c15.1-4,28.2-12.9,37.6-24.7
			v-13.5c8.3-5.5,13.8-15,13.8-25.8v-61.3c0-38.2-31-69.2-69.2-69.2h0c-38.2,0-69.2,31-69.2,69.2v61.3c0,10.8,5.5,20.2,13.8,25.8
			l0,66.2c0,1.2-0.7,2.2-1.7,2.7c-9.3,4.6-55.3,27.8-97.9,62.8c-7.6,6.3-12,15.7-12,25.6v47.1h145l14.3-65.6
			c-28.9-40.4,2.2-42.3,7.6-42.4h0h0c5.4,0,36.5,2,7.6,42.4l14.3,65.6h145v-47.1C352.8,392.8,348.4,383.3,340.8,377z"/>
		<path fill="#333333" d="M279.2,165.4h-1.1v-7.6c0-50.9-41.4-92.4-92.4-92.4c-50.9,0-92.4,41.4-92.4,92.4v7.6h-1.1
			c-8.9,0-16,7.2-16,16v24.5c0,8.9,7.2,16,16,16h13.3v-47.2h0.1v-15.8c0-44,34.9-80.7,78.9-81.4c44.8-0.7,81.4,35.5,81.4,80.2v17
			h0.1v43.5c-1.4,38.1-29.6,69.5-66.2,75.9c-2.6-5.1-7.9-8.5-14-8.5c-8.7,0-15.8,7.1-15.8,15.8c0,8.7,7.1,15.8,15.8,15.8
			c7,0,13-4.6,15-10.9c41.7-6.8,74.2-41.6,77.3-84.5h1.2c8.9,0,16-7.2,16-16v-24.5C295.3,172.5,288.1,165.4,279.2,165.4z"/>
	</g>
	<path fill="#E2574C" d="M401.7,62.3c-50.5,0-91.4,40.9-91.4,91.4c0,23.8,9.1,45.5,24.1,61.8c-3.5,7.1-9.2,15.5-18.1,19.9
		c-3.1,1.5-2.4,6.1,1,6.6c10,1.6,24.2-0.1,37.5-9.8c13.7,8.2,29.8,12.9,46.9,12.9c50.5,0,91.4-40.9,91.4-91.4
		C493.1,103.3,452.2,62.3,401.7,62.3z M405.3,101.9c7.5,0,13.6,6.2,13.5,13.9c-0.1,7.6-6.2,13.7-13.6,13.7
		c-7.6-0.1-13.8-6.3-13.7-13.9C391.5,108,397.7,101.9,405.3,101.9z M424.7,194.2c-0.3,1.2-1,2.4-1.9,3.3c-5,5-10.9,8-18.1,8.1
		c-3.3,0-6.7-0.1-10-0.5c-5.5-0.8-12.4-7.6-11.4-14.8c0.7-4.9,1.4-9.9,2.3-14.8c1.4-8.6,3-17.1,4.5-25.6c0.1-0.5,0.1-1.1,0.1-1.6
		c0-3.6-1.1-4.8-4.7-5.3c-1.5-0.2-3.1-0.3-4.5-0.8c-1.8-0.6-2.6-2-2.4-3.4c0.2-1.5,1.1-2.4,3.1-2.8c1-0.2,2.1-0.2,3.1-0.2
		c4.2,0,8.4,0,12.6,0c4.4,0,8.9,0,13.3,0c3.2,0,5.1,1.5,5.2,4.7c0.1,2.6-0.4,5.3-0.9,8c-1.7,9.8-3.6,19.5-5.3,29.3
		c-0.6,3.2-1.3,6.5-1.6,9.7c-0.2,1.5,0,3.2,0.4,4.7c0.5,2,2,3.2,4.1,2.9c1.7-0.2,3.4-0.8,5.1-1.4c1.3-0.5,2.5-1.4,3.8-2
		C423.6,190.7,425.2,192.1,424.7,194.2z"/>
</g>
</svg>
