<?xml version="1.0" encoding="utf-8"?>
<!-- Generator: Adobe Illustrator 18.0.0, SVG Export Plug-In . SVG Version: 6.00 Build 0)  -->
<!DOCTYPE svg PUBLIC "-//W3C//DTD SVG 1.1//EN" "http://www.w3.org/Graphics/SVG/1.1/DTD/svg11.dtd">
<svg version="1.1" id="Layer_1" xmlns="http://www.w3.org/2000/svg" xmlns:xlink="http://www.w3.org/1999/xlink" x="0px" y="0px"
	 viewBox="0 0 512 512" enable-background="new 0 0 512 512" xml:space="preserve">
<g id="XMLID_2361_">
	<g id="XMLID_2369_">
		<path id="XMLID_2371_" fill="#333333" d="M481,115.6c0-31.6-22.6-54.5-54.2-54.6c-56.8,0-113.5,0-170.3,0c0,0,0,0,0,0
			c-57.2,0-114.5,0-171.7,0c-30.6,0-53.7,22.8-53.7,53.2C31,208.7,31,303.1,31.1,397.5c0,5.4,0.8,11,2.3,16.1
			c6.6,22.2,26.4,37,49.7,37.2c25.3,0.2,50.7,0.1,76,0.1c89,0,177.9,0,266.9,0c8.7,0,17.2-1.2,25-5.2c19.8-10.2,29.9-26.6,29.9-48.7
			C481.1,303.2,481,209.4,481,115.6z M421.3,88.2c9.6,0,17.3,7.8,17.3,17.3c0,9.6-7.8,17.3-17.3,17.3c-9.6,0-17.3-7.8-17.3-17.3
			C403.9,96,411.7,88.2,421.3,88.2z M361.5,88.2c9.6,0,17.3,7.8,17.3,17.3c0,9.6-7.8,17.3-17.3,17.3c-9.6,0-17.3-7.8-17.3-17.3
			C344.2,96,352,88.2,361.5,88.2z M301.8,88.2c9.6,0,17.3,7.8,17.3,17.3c0,9.6-7.8,17.3-17.3,17.3s-17.3-7.8-17.3-17.3
			C284.5,96,292.2,88.2,301.8,88.2z M451.4,156c0,80.3,0,160.7,0,241c0,14.8-9.5,24.3-24.3,24.3c-114,0-227.9,0-341.9,0
			c-15.3,0-24.5-9.2-24.5-24.5c0-80.5,0-161,0-241.5c0-1.4,0.1-2.7,0.2-4.5c130.3,0,260,0,390.5,0
			C451.4,152.7,451.4,154.3,451.4,156z"/>
	</g>
	<g id="XMLID_2362_">
		<g>
			<path fill="#E2574C" d="M360.6,309.2c-4.6-7.1-9.2-14.3-14-21.3c-1.1-1.6-1-2.7,0-4.2c4.6-6.9,9.1-13.9,13.6-20.9
				c5.3-8.2,2.5-16.4-6.6-19.7c-7.8-2.9-15.5-5.9-23.3-8.8c-1.6-0.6-2.3-1.5-2.3-3.3c-0.4-8.5-0.9-16.9-1.3-25.4
				c-0.5-9-7.5-14.1-16.3-11.8c-8.2,2.2-16.4,4.4-24.6,6.7c-1.9,0.5-2.9,0.1-4-1.3c-5.2-6.6-10.6-13.1-15.9-19.6
				c-5.8-7.1-14.5-7.2-20.3,0c-5.2,6.5-10.5,12.9-15.6,19.5c-1.4,1.8-2.7,2.1-4.8,1.5c-8-2.3-16-4.4-21.8-5.9
				c-11.2-2.7-17.7,1.9-18.4,11c-0.6,8.6-1,17.1-1.3,25.7c-0.1,1.8-0.7,2.6-2.3,3.3c-8,3-16.1,6.1-24,9.2c-8.3,3.3-10.9,11.4-6,19
				c4.6,7.1,9.2,14.3,14,21.3c1.1,1.6,1,2.7,0,4.3c-4.8,7.2-9.5,14.5-14.1,21.9c-4.5,7.1-1.7,15.3,6.1,18.3
				c8.1,3.1,16.2,6.3,24.3,9.2c1.7,0.6,2.3,1.5,2.4,3.3c0.4,8.2,1.3,16.4,1.2,24.6c-0.1,8.4,7.2,15.7,17.2,12.5
				c7.9-2.5,16-4.4,24-6.6c1.6-0.5,2.6-0.2,3.6,1.2c5.3,6.7,10.7,13.2,16.1,19.8c5.9,7.2,14.4,7.2,20.3,0
				c5.3-6.6,10.7-13.2,15.9-19.9c1-1.3,1.9-1.7,3.6-1.2c8.3,2.3,16.6,4.5,24.9,6.7c8.5,2.3,15.7-2.9,16.1-11.7
				c0.4-8.6,1-17.1,1.3-25.7c0.1-2,0.9-2.7,2.6-3.4c7.9-3,15.7-6,23.5-9.1C362.8,325,365.5,316.8,360.6,309.2z M280.9,320.3
				c-3.8,4.6-8.7,7.7-14.5,9.3c-2.5,0.7-3.6,2-3.5,4.6c0.1,2.6,0,5.1,0,7.7c0,2.3-1.2,3.5-3.4,3.6c-2.8,0.1-5.5,0.1-8.3,0
				c-2.4,0-3.6-1.4-3.6-3.8c0-1.9,0-3.7-0.1-5.6c0-4.1-0.2-4.3-4.1-4.9c-5.1-0.8-10.1-2-14.7-4.2c-3.7-1.8-4-2.7-3-6.5
				c0.8-2.9,1.6-5.7,2.4-8.5c1-3.3,1.9-3.7,4.9-2.1c5.1,2.7,10.6,4.2,16.3,4.9c3.7,0.5,7.3,0.1,10.7-1.4c6.4-2.8,7.4-10.2,2-14.6
				c-1.8-1.5-3.9-2.6-6.1-3.6c-5.6-2.5-11.4-4.3-16.7-7.5c-8.6-5.1-14-12.2-13.4-22.6c0.7-11.8,7.4-19.1,18.2-23.1
				c4.5-1.6,4.5-1.6,4.5-6.2c0-1.6,0-3.2,0-4.7c0.1-3.5,0.7-4.1,4.2-4.2c1.1,0,2.2,0,3.3,0c7.5,0,7.5,0,7.5,7.4c0,5.3,0,5.3,5.3,6.1
				c4,0.6,7.9,1.8,11.6,3.5c2.1,0.9,2.8,2.3,2.2,4.5c-0.9,3.2-1.8,6.5-2.8,9.6c-1,3-1.9,3.5-4.8,2.1c-5.8-2.8-11.9-4-18.3-3.6
				c-1.7,0.1-3.3,0.3-4.9,1c-5.6,2.4-6.5,8.6-1.7,12.3c2.4,1.9,5.1,3.3,8,4.5c4.9,2,9.9,4,14.5,6.6
				C287.4,288.9,291.4,307.6,280.9,320.3z"/>
		</g>
	</g>
</g>
</svg>
