<?xml version="1.0" encoding="utf-8"?>
<!-- Generator: Adobe Illustrator 18.0.0, SVG Export Plug-In . SVG Version: 6.00 Build 0)  -->
<!DOCTYPE svg PUBLIC "-//W3C//DTD SVG 1.1//EN" "http://www.w3.org/Graphics/SVG/1.1/DTD/svg11.dtd">
<svg version="1.1" id="Layer_1" xmlns="http://www.w3.org/2000/svg" xmlns:xlink="http://www.w3.org/1999/xlink" x="0px" y="0px"
	 viewBox="0 0 512 512" enable-background="new 0 0 512 512" xml:space="preserve">
<g id="XMLID_264_">
	<path id="XMLID_312_" fill="#333333" d="M110.2,308.3l-84.9,84.9c-1.1-0.2-2.3-0.3-3.5-0.3c-11.6,0-20.9,9.4-20.9,20.9
		c0,11.6,9.4,20.9,20.9,20.9s20.9-9.4,20.9-20.9c0-1.2-0.1-2.4-0.3-3.5l80-80C117.7,323.4,113.7,316,110.2,308.3z"/>
	<path id="XMLID_311_" fill="#E2574C" d="M340.9,203.6L299.5,245c-7.6-3.1-16.2-3.1-23.8,0l-22.1-22.1c4.6-11.3,2.4-24.9-6.9-34.1
		c-12.3-12.3-32.1-12.3-44.4,0c-9.2,9.2-11.5,22.7-6.9,34.1l-32.2,32.2c1.3,9.1,3.8,18,7.8,26.5l41.6-41.6c7.6,3.1,16.2,3.1,23.8,0
		l22.1,22.1c-4.6,11.3-2.4,24.9,6.9,34.1c12.3,12.3,32.1,12.3,44.4,0c9.2-9.2,11.5-22.7,6.9-34.1l31.8-31.8
		C347.3,221.2,344.8,212.2,340.9,203.6z"/>
	<path id="XMLID_309_" fill="#333333" d="M469.7,429.1L389.6,349l-6.9-6.9l-2.3-2.3l0,0l-2-2l-5.4,5.4l-11.6-11.6
		c46-54.3,43.4-135.7-7.8-186.9c-27-27-62.3-40.5-97.7-40.5c-35.4,0-70.7,13.5-97.7,40.5c-54,54-54,141.4,0,195.4
		c27,27,62.3,40.5,97.7,40.5c31.8,0,63.5-10.9,89.2-32.7l11.6,11.6l-5.4,5.4l0,0l0,0l4.3,4.3l6.9,6.9l80.1,80.1
		c3.7,3.7,8.6,5.6,13.5,5.6c4.9,0,9.8-1.9,13.5-5.6C477.2,448.7,477.2,436.6,469.7,429.1C469.8,429.1,469.8,429.1,469.7,429.1z
		 M337.3,323.7c-22.5,22.5-52,33.7-81.4,33.7c-29.5,0-59-11.2-81.4-33.7c-45-45-45-117.9,0-162.9c22.5-22.5,52-33.7,81.4-33.7
		c29.5,0,59,11.2,81.4,33.7C382.3,205.8,382.3,278.7,337.3,323.7z"/>
	<path id="XMLID_308_" fill="#333333" d="M490.3,50.2c-11.6,0-20.9,9.4-20.9,20.9c0,1.3,0.1,2.5,0.3,3.7l-79.9,79.9
		c4.6,7.1,8.7,14.5,12.1,22.2L487,91.8c1.1,0.2,2.1,0.3,3.3,0.3c11.6,0,20.9-9.4,20.9-20.9C511.2,59.6,501.8,50.2,490.3,50.2z"/>
</g>
</svg>
