<?xml version="1.0" encoding="utf-8"?>
<!-- Generator: Adobe Illustrator 18.0.0, SVG Export Plug-In . SVG Version: 6.00 Build 0)  -->
<!DOCTYPE svg PUBLIC "-//W3C//DTD SVG 1.1//EN" "http://www.w3.org/Graphics/SVG/1.1/DTD/svg11.dtd">
<svg version="1.1" id="Layer_1" xmlns="http://www.w3.org/2000/svg" xmlns:xlink="http://www.w3.org/1999/xlink" x="0px" y="0px"
	 viewBox="0 0 512 512" enable-background="new 0 0 512 512" xml:space="preserve">
<g>
	<g>
		<g id="XMLID_355_">
			<path fill="#333333" d="M177.6,164.1c21.5-17.7,44.7-29.4,49.5-31.7c0.5-0.3,0.9-0.8,0.9-1.4V97.4c-4.2-2.8-7-7.6-7-13V49.6
				c0-17.3,14-31.3,31.3-31.3h3.7h3.7c17.3,0,31.3,14,31.3,31.3v34.8c0,5.4-2.8,10.2-7,13v33.5c0,0.6,0.3,1.1,0.9,1.4
				c4.7,2.3,27.9,14,49.5,31.7c3.9,3.2,6.1,8,6.1,13v23.8h-73.4l-7.3-33.2c14.7-20.4-1.1-21.4-3.8-21.4h0h0c-2.7,0-18.5,1-3.8,21.4
				l-7.3,33.2h-73.4v-23.8C171.5,172,173.7,167.3,177.6,164.1z"/>
		</g>
		<g id="XMLID_353_">
			<path fill="#333333" d="M338.4,456.9c21.5-17.7,44.7-29.4,49.5-31.7c0.5-0.3,0.9-0.8,0.9-1.4v-33.5c-4.2-2.8-7-7.6-7-13v-34.8
				c0-17.3,14-31.3,31.3-31.3h3.7h3.7c17.3,0,31.3,14,31.3,31.3v34.8c0,5.4-2.8,10.2-7,13v33.5c0,0.6,0.3,1.1,0.9,1.4
				c4.7,2.3,27.9,14,49.5,31.7c3.9,3.2,6.1,8,6.1,13v23.8h-73.4l-7.3-33.2c14.7-20.4-1.1-21.4-3.8-21.4h0h0c-2.7,0-18.5,1-3.8,21.4
				l-7.3,33.2h-73.4v-23.8C332.3,464.8,334.5,460.1,338.4,456.9z"/>
		</g>
		<g id="XMLID_258_">
			<path fill="#333333" d="M16.8,456.9c21.5-17.7,44.7-29.4,49.5-31.7c0.5-0.3,0.9-0.8,0.9-1.4v-33.5c-4.2-2.8-7-7.6-7-13v-34.8
				c0-17.3,14-31.3,31.3-31.3h3.7h3.7c17.3,0,31.3,14,31.3,31.3v34.8c0,5.4-2.8,10.2-7,13v33.5c0,0.6,0.3,1.1,0.9,1.4
				c4.7,2.3,27.9,14,49.5,31.7c3.9,3.2,6.1,8,6.1,13v23.8h-73.4L99,460.5c14.7-20.4-1.1-21.4-3.8-21.4h0h0c-2.7,0-18.5,1-3.8,21.4
				l-7.3,33.2H10.7v-23.8C10.7,464.8,12.9,460.1,16.8,456.9z"/>
		</g>
	</g>
	<g>
		<g>
			<path id="XMLID_239_" fill="#E2574C" d="M256,260.4c-6.2,0-11.3,5-11.3,11.3c0,6.2,5.1,11.3,11.3,11.3c6.2,0,11.3-5.1,11.3-11.3
				C267.3,265.5,262.2,260.4,256,260.4z"/>
			<circle id="XMLID_238_" fill="#E2574C" cx="256" cy="304.7" r="11.3"/>
			<circle id="XMLID_237_" fill="#E2574C" cx="256" cy="337.7" r="11.3"/>
			<path id="XMLID_236_" fill="#E2574C" d="M256,227.4c-3,0-5.9,1.2-8,3.3c-2.1,2.1-3.3,5-3.3,8c0,3,1.2,5.9,3.3,8
				c2.1,2.1,5,3.3,8,3.3c3,0,5.9-1.2,8-3.3c2.1-2.1,3.3-5,3.3-8c0-3-1.2-5.9-3.3-8C261.9,228.6,259,227.4,256,227.4z"/>
			<path id="XMLID_235_" fill="#E2574C" d="M289.8,346.1c-5.2-3.4-12.2-1.9-15.6,3.4c-3.4,5.2-1.9,12.2,3.4,15.6
				c5.2,3.4,12.2,1.9,15.6-3.4C296.6,356.4,295.1,349.5,289.8,346.1z"/>
			<circle id="XMLID_234_" fill="#E2574C" cx="311.5" cy="373.4" r="11.3"/>
			<circle id="XMLID_233_" fill="#E2574C" cx="339.2" cy="391.3" r="11.3"/>
			<path id="XMLID_232_" fill="#E2574C" d="M222.2,346.1c-5.2,3.4-6.8,10.4-3.4,15.6c3.4,5.2,10.4,6.7,15.6,3.4
				c5.2-3.4,6.7-10.4,3.4-15.6C234.4,344.2,227.4,342.7,222.2,346.1z"/>
			<circle id="XMLID_231_" fill="#E2574C" cx="200.6" cy="373.4" r="11.3"/>
			<circle id="XMLID_230_" fill="#E2574C" cx="172.8" cy="391.3" r="11.3"/>
		</g>
	</g>
</g>
</svg>
