<?xml version="1.0" encoding="utf-8"?>
<!-- Generator: Adobe Illustrator 18.0.0, SVG Export Plug-In . SVG Version: 6.00 Build 0)  -->
<!DOCTYPE svg PUBLIC "-//W3C//DTD SVG 1.1//EN" "http://www.w3.org/Graphics/SVG/1.1/DTD/svg11.dtd">
<svg version="1.1" id="Layer_1" xmlns="http://www.w3.org/2000/svg" xmlns:xlink="http://www.w3.org/1999/xlink" x="0px" y="0px"
	 viewBox="0 0 512 512" enable-background="new 0 0 512 512" xml:space="preserve">
<g>
	<path fill="#333333" d="M305.1,372.8c0-9.8,0-58.7,0-58.7c7.4-4.9,12.3-13.3,12.3-22.8v-54.3c0-33.9-27.5-61.4-61.4-61.4h0h0
		c-33.9,0-61.4,27.5-61.4,61.4v54.3c0,9.5,4.9,17.9,12.3,22.8l0,58.7c0,1-0.6,2-1.5,2.4c-8.3,4-49,24.7-86.8,55.7
		c-6.8,5.6-10.6,13.9-10.6,22.7v41.7h128.6l12.7-58.2c-25.7-35.8,1.9-37.5,6.7-37.6h0h0c4.8,0,32.4,1.8,6.7,37.6l12.7,58.2h128.6
		v-41.7c0-8.8-3.8-17.1-10.6-22.7c-37.8-31.1-78.5-51.7-86.8-55.7C305.7,374.7,305.1,373.8,305.1,372.8z"/>
	<g>
		<g>
			<path fill="#E2574C" d="M231.9,59.6h12.7v84.8c0,1.9,1.6,3.5,3.5,3.5h15.8c1.9,0,3.5-1.6,3.5-3.5V59.6h12.7
				c2.6,0,4.2-2.9,2.8-5.1l-21.8-35c-2.4-3.8-7.9-3.8-10.3,0l-21.8,35C227.7,56.7,229.3,59.6,231.9,59.6z"/>
			<path fill="#E2574C" d="M157.1,254.7c1.9,0,3.5-1.6,3.5-3.5v-15.8c0-1.9-1.6-3.5-3.5-3.5H72.3v-12.7c0-2.6-2.9-4.2-5.1-2.8
				l-35,21.8c-3.8,2.4-3.8,7.9,0,10.3l35,21.8c2.2,1.4,5.1-0.2,5.1-2.8v-12.7H157.1z"/>
			<path fill="#E2574C" d="M479.8,238.1l-35-21.8c-2.2-1.4-5.1,0.2-5.1,2.8v12.7h-84.8c-1.9,0-3.5,1.6-3.5,3.5v15.8
				c0,1.9,1.6,3.5,3.5,3.5h84.8v12.7c0,2.6,2.9,4.2,5.1,2.8l35-21.8C483.6,246.1,483.6,240.5,479.8,238.1z"/>
			<path fill="#E2574C" d="M103.5,128.8c0.6,2.6,3.8,3.5,5.6,1.6l9-9l60,60c1.4,1.4,3.6,1.4,4.9,0l11.2-11.2c1.4-1.4,1.4-3.6,0-4.9
				l-60-60l9-9c1.9-1.9,1-5-1.6-5.6l-40.1-9.3c-4.4-1-8.3,2.9-7.3,7.3L103.5,128.8z"/>
			<path fill="#E2574C" d="M329.1,181.4c1.4,1.4,3.6,1.4,4.9,0l60-60l9,9c1.9,1.9,5,1,5.6-1.6l9.3-40.1c1-4.4-2.9-8.3-7.3-7.3
				l-40.1,9.3c-2.6,0.6-3.5,3.8-1.6,5.6l9,9l-60,60c-1.4,1.4-1.4,3.6,0,4.9L329.1,181.4z"/>
		</g>
	</g>
</g>
</svg>
