<?xml version="1.0" encoding="utf-8"?>
<!-- Generator: Adobe Illustrator 18.0.0, SVG Export Plug-In . SVG Version: 6.00 Build 0)  -->
<!DOCTYPE svg PUBLIC "-//W3C//DTD SVG 1.1//EN" "http://www.w3.org/Graphics/SVG/1.1/DTD/svg11.dtd">
<svg version="1.1" id="Layer_1" xmlns="http://www.w3.org/2000/svg" xmlns:xlink="http://www.w3.org/1999/xlink" x="0px" y="0px"
	 viewBox="0 0 512 512" enable-background="new 0 0 512 512" xml:space="preserve">
<g id="XMLID_1067_">
	<path id="XMLID_1071_" fill="#333333" d="M507.6,387.5L485,359.8c-3.7-4.5-5.6-10.1-5.6-15.9v-26.1V301v-48.4l0,0V118.4
		c0-24.6-19.9-44.5-44.5-44.5H268.5h0H77.4c-24.6,0-44.5,19.9-44.5,44.5V301v9.8v32.7c0,5.8-2,11.4-5.6,15.8L4.4,387.5
		c-1.7,2.1-2.7,4.8-2.7,7.5v12.9c0,16.7,13.5,30.2,30.2,30.2h448.3c16.7,0,30.2-13.5,30.2-30.2v-12.9
		C510.3,392.3,509.4,389.7,507.6,387.5z M304.3,394.1c0,8.5-6.9,15.3-15.3,15.3h-65.7c-8.5,0-15.3-6.9-15.3-15.3v-3.3h96.4V394.1z
		 M435,346.5H77.3v-33.7V301V118.3c0,0,0.1-0.1,0.1-0.1h211.2h0h146.3c0.1,0,0.1,0.1,0.1,0.1V301v11.8v3h0v2V346.5z"/>
	<path id="XMLID_1068_" fill="#E2574C" d="M271.6,297.1c8.6-2.3,15.9-7,21.5-13.8c15.6-19,9.6-46.8-12.5-59
		c-7-3.9-14.3-6.8-21.7-9.8c-4.2-1.8-8.3-3.8-11.9-6.7c-7-5.6-5.7-14.8,2.6-18.4c2.3-1,4.8-1.4,7.3-1.5c9.6-0.5,18.7,1.2,27.3,5.4
		c4.3,2.1,5.7,1.4,7.2-3.1c1.5-4.7,2.8-9.6,4.2-14.4c0.9-3.2-0.2-5.4-3.3-6.7c-5.5-2.4-11.3-4.2-17.2-5.1c-7.8-1.2-7.8-1.3-7.9-9.1
		c0-11.1,0-11.1-11.1-11.1c-1.6,0-3.2,0-4.8,0c-5.2,0.2-6.1,1-6.2,6.3c-0.1,2.3,0,4.7,0,7c0,6.9-0.1,6.8-6.7,9.3
		c-16.1,5.9-26,16.8-27.1,34.4c-0.9,15.5,7.1,26,19.9,33.7c7.9,4.7,16.6,7.5,24.9,11.2c3.2,1.4,6.3,3.1,9.1,5.3
		c8,6.6,6.5,17.6-3,21.8c-5.1,2.2-10.5,2.8-16,2.1c-8.5-1.1-16.7-3.3-24.3-7.3c-4.5-2.3-5.8-1.7-7.3,3.2c-1.3,4.2-2.5,8.4-3.6,12.7
		c-1.6,5.7-1,7.1,4.4,9.7c6.9,3.4,14.4,5.1,21.9,6.3c5.9,0.9,6.1,1.2,6.2,7.3c0,2.8,0,5.6,0.1,8.4c0,3.5,1.7,5.6,5.3,5.6
		c4.1,0.1,8.2,0.1,12.3,0c3.4-0.1,5.1-1.9,5.1-5.3c0-3.8,0.2-7.6,0-11.4C266.2,300.1,267.8,298.2,271.6,297.1z"/>
</g>
</svg>
