<?xml version="1.0" encoding="utf-8"?>
<!-- Generator: Adobe Illustrator 18.0.0, SVG Export Plug-In . SVG Version: 6.00 Build 0)  -->
<!DOCTYPE svg PUBLIC "-//W3C//DTD SVG 1.1//EN" "http://www.w3.org/Graphics/SVG/1.1/DTD/svg11.dtd">
<svg version="1.1" id="Layer_1" xmlns="http://www.w3.org/2000/svg" xmlns:xlink="http://www.w3.org/1999/xlink" x="0px" y="0px"
	 viewBox="0 0 512 512" enable-background="new 0 0 512 512" xml:space="preserve">
<g>
	<path fill="#E2574C" d="M266.4,142C320,149.4,362.6,192,370,245.6l1.5,10.7h114.6l-1.1-13.5c-4.6-55.5-28.9-107.8-68.5-147.4
		S324.6,31.6,269.1,27l-13.5-1.1v114.6L266.4,142z M280.6,53.3C373,66.9,445.1,139,458.6,231.4h-65.8
		c-12.1-55.9-56.3-100.1-112.2-112.2V53.3z"/>
	<path fill="#333333" d="M231,129.6V39.4C118.2,48.7,28.9,142,25.9,256.4h89.7C118.5,191.5,167.7,138.4,231,129.6z"/>
	<path fill="#333333" d="M255.2,396.4v89.7c114.6-2.9,208.1-92.2,217.4-205.1h-90.2C373.6,344.4,320.3,393.7,255.2,396.4z"/>
	<path fill="#333333" d="M116.7,281.1H26.5c9,108.5,95.6,195.2,204,204.4v-90.3C171.6,386.8,125,340,116.7,281.1z"/>
</g>
</svg>
