<?xml version="1.0" encoding="utf-8"?>
<!-- Generator: Adobe Illustrator 18.0.0, SVG Export Plug-In . SVG Version: 6.00 Build 0)  -->
<!DOCTYPE svg PUBLIC "-//W3C//DTD SVG 1.1//EN" "http://www.w3.org/Graphics/SVG/1.1/DTD/svg11.dtd">
<svg version="1.1" id="Layer_1" xmlns="http://www.w3.org/2000/svg" xmlns:xlink="http://www.w3.org/1999/xlink" x="0px" y="0px"
	 viewBox="0 0 512 512" enable-background="new 0 0 512 512" xml:space="preserve">
<g>
	<path fill="#333333" d="M256,395.7c-27.3,0-49.4,22.1-49.4,49.4s22.1,49.4,49.4,49.4c27.3,0,49.4-22.1,49.4-49.4
		S283.3,395.7,256,395.7z M270.2,464.5c-2.2,2.6-5,4.4-8.2,5.3c-1.4,0.4-2.1,1.1-2,2.6c0.1,1.5,0,2.9,0,4.4c0,1.3-0.7,2-1.9,2
		c-1.6,0-3.1,0-4.7,0c-1.4,0-2-0.8-2-2.1c0-1.1,0-2.1,0-3.2c0-2.3-0.1-2.4-2.4-2.8c-2.9-0.5-5.7-1.1-8.4-2.4c-2.1-1-2.3-1.5-1.7-3.7
		c0.4-1.6,0.9-3.2,1.4-4.9c0.6-1.9,1.1-2.1,2.8-1.2c2.9,1.5,6,2.4,9.3,2.8c2.1,0.3,4.2,0,6.1-0.8c3.6-1.6,4.2-5.8,1.1-8.3
		c-1-0.9-2.2-1.5-3.5-2c-3.2-1.4-6.5-2.5-9.5-4.3c-4.9-2.9-8-6.9-7.6-12.9c0.4-6.7,4.2-10.9,10.4-13.1c2.5-0.9,2.6-0.9,2.6-3.5
		c0-0.9,0-1.8,0-2.7c0.1-2,0.4-2.3,2.4-2.4c0.6,0,1.2,0,1.9,0c4.2,0,4.2,0,4.3,4.2c0,3,0,3,3,3.5c2.3,0.4,4.5,1,6.6,2
		c1.2,0.5,1.6,1.3,1.2,2.6c-0.5,1.8-1,3.7-1.6,5.5c-0.6,1.7-1.1,2-2.8,1.2c-3.3-1.6-6.8-2.3-10.4-2.1c-1,0.1-1.9,0.2-2.8,0.6
		c-3.2,1.4-3.7,4.9-1,7c1.4,1.1,2.9,1.9,4.5,2.5c2.8,1.2,5.6,2.3,8.3,3.7C273.9,446.6,276.1,457.3,270.2,464.5z"/>
	<path fill="#333333" d="M222.6,125.6c-1.1,4.6-3.1,8.9-5.7,12.6c8.6-0.6,17.5-1.1,26.5-1.3c0-0.2,0-0.4,0-0.5c0-4,0.6-7.9,1.8-11.5
		C237.4,125,229.9,125.2,222.6,125.6z"/>
	<path fill="#333333" d="M415.2,163.1c0-15.7-39.1-29.2-95.1-35.1c0.6,2.7,0.9,5.5,0.9,8.4c0,1.5-0.1,2.9-0.3,4.4
		c38.7,4.9,67.1,13.6,67.1,22.5c0,13.4-59,24.2-131.9,24.2c-72.8,0-131.9-10.8-131.9-24.2c0-6.4,15.2-12.8,38.2-17.7
		c-3.9-3.2-7.1-7.2-9.4-11.7c-34.3,7-56.1,17.5-56.1,29.3c0,2,0.6,4,1.9,5.9c37.2,88,125.4,133.2,125.4,133.2l4,82.7
		c8.5-4,17.9-6.2,27.9-6.2c9.9,0,19.4,2.2,27.8,6.1l4-82.7c0,0,89.1-45.6,126.1-134.2c0.4-0.7,0.6-1.3,0.8-2c0,0,0,0,0-0.1h0
		C415,165,415.2,164.1,415.2,163.1z"/>
	<circle fill="#E2574C" cx="136.8" cy="68.2" r="16.8"/>
	<circle fill="#E2574C" cx="228.1" cy="38.5" r="20.9"/>
	<circle fill="#E2574C" cx="360.7" cy="93" r="20.9"/>
	<circle fill="#E2574C" cx="298.9" cy="63.8" r="14.1"/>
	<circle fill="#E2574C" cx="281" cy="136.7" r="22"/>
	<circle fill="#E2574C" cx="186.6" cy="117.6" r="20.6"/>
</g>
</svg>
