<?xml version="1.0" encoding="utf-8"?>
<!-- Generator: Adobe Illustrator 18.0.0, SVG Export Plug-In . SVG Version: 6.00 Build 0)  -->
<!DOCTYPE svg PUBLIC "-//W3C//DTD SVG 1.1//EN" "http://www.w3.org/Graphics/SVG/1.1/DTD/svg11.dtd">
<svg version="1.1" id="Layer_1" xmlns="http://www.w3.org/2000/svg" xmlns:xlink="http://www.w3.org/1999/xlink" x="0px" y="0px"
	 viewBox="0 0 512 512" enable-background="new 0 0 512 512" xml:space="preserve">
<g>
	<path fill="#E2574C" d="M327.2,82.4v-6.8c0-12.5-10.1-22.6-22.6-22.6H227v-7.7h-0.2c0.6-3.6,0.1-7.6-5.6-12.4
		c-1.9-1.6-4.2-2.8-6.7-2.9c-7.5-0.4-13.7,5.6-13.7,13.1c0,0.8,0.1,1.5,0.2,2.2h-0.2v319.3H227V174.2h54.6v0h46.8l-38.6,9.7
		c-4.8,1.2-8.2,5.5-8.2,10.5v9.2h126.6c3.3,0,5-4,2.7-6.4L358.1,143l52.8-54.2c2.3-2.4,0.6-6.4-2.7-6.4H327.2z"/>
	<path fill="#333333" d="M327.7,472.8c-0.8-5.7-1.7-11.5-2.5-17.2c-0.5-3.7-2.5-6.2-6.1-7.3c-15.2-4.5-20.2-25.8-5.5-36.8
		c3-2.3,4.3-5.1,3.8-8.8c-0.6-4.7-1.1-9.4-2-14c-0.9-4.8-3.3-6.9-8.4-7c-5.9-0.2-11.9-0.1-17.8-0.1c-55.1,0-110.2,0-165.3,0
		c-9.5,0-11,1.3-12.5,10.9c-0.2,1.2-0.2,2.4-0.5,3.6c-2,7.2-0.6,12.7,5.5,18.1c11,9.8,7.2,27.7-6.5,33.3c-5,2-7.6,5.1-8.1,10.4
		c-0.5,4.8-1.5,9.6-2,14.4c-0.6,6.7,2,9.5,8.8,9.6c17.2,0.1,34.5,0.1,51.7,0.1c17.8,0,35.6,0,53.4,0c0,0,0,0,0,0
		c34.5,0,69,0,103.5,0c2.6,0,5.2,0.2,7.4-1.5C327.3,478.4,328.1,475.8,327.7,472.8z M259.9,444.3H168v-25h91.9V444.3z"/>
</g>
</svg>
