<?xml version="1.0" encoding="utf-8"?>
<!-- Generator: Adobe Illustrator 18.0.0, SVG Export Plug-In . SVG Version: 6.00 Build 0)  -->
<!DOCTYPE svg PUBLIC "-//W3C//DTD SVG 1.1//EN" "http://www.w3.org/Graphics/SVG/1.1/DTD/svg11.dtd">
<svg version="1.1" id="Layer_1" xmlns="http://www.w3.org/2000/svg" xmlns:xlink="http://www.w3.org/1999/xlink" x="0px" y="0px"
	 viewBox="0 0 512 512" enable-background="new 0 0 512 512" xml:space="preserve">
<g>
	<path fill="#333333" d="M456,262.9h-14.9c0,0,0,0,0,0c-9.9-30.3-29.3-57.2-55-78c0-1-0.2-2-0.5-3c-5.4-19,1.3-36.4,9.1-48.8
		c5.5-8.7-1.6-19.8-11.8-18.6c-31.5,3.9-49.6,18.5-59.8,31.7c-5.7,82.8-74.6,148.1-158.8,148.1c-36.2,0-69.6-12.1-96.3-32.4
		c-5.1,15.2-7.8,31.3-7.8,47.9c0,12.1,1.5,23.9,4.2,35.3l0,0c0,0,0,0.2,0.1,0.5c2.9,11.8,7.2,23.2,12.7,34
		c7.3,15.8,18,34.3,32.6,49.3c21.2,21.8,24.8,48.8,25.3,60.5v5c0,0.2,0,0.4,0,0.6c0,0.1,0,0.1,0,0.1l0,0c0.4,5.7,5.2,10.3,11,10.3
		h67.3c6.1,0,11-4.9,11-11v-16.6c9.7,1.3,19.7,2,29.9,2c7.9,0,15.8-0.4,23.5-1.2v15.9c0,6.1,4.9,11,11,11h67.3c6.1,0,11-4.9,11-11
		v-16.6c0.1-5.5,2-27.5,22.7-46.3c0.9-0.8,1.8-1.5,2.6-2.3c0.1-0.1,0.2-0.2,0.3-0.3l0,0c23.1-20.6,40.3-46.3,49.1-75H456
		c11.3,0,20.4-9.1,20.4-20.4v-50.3C476.4,272,467.3,262.9,456,262.9z"/>
	<path fill="#E2574C" d="M164.2,6.6c-71,0-128.5,57.6-128.5,128.5c0,71,57.6,128.5,128.5,128.5s128.5-57.6,128.5-128.5
		C292.7,64.1,235.2,6.6,164.2,6.6z M203.5,189.1c-6,7.3-13.7,12.1-22.8,14.6c-4,1.1-5.7,3.2-5.5,7.3c0.2,4,0,8.1,0,12.1
		c0,3.6-1.8,5.5-5.4,5.6c-4.3,0.1-8.7,0.1-13.1,0c-3.8-0.1-5.6-2.2-5.7-6c0-3-0.1-5.9-0.1-8.9c-0.1-6.5-0.3-6.8-6.5-7.8
		c-8-1.3-15.9-3.1-23.2-6.7c-5.8-2.8-6.4-4.2-4.7-10.3c1.2-4.5,2.5-9,3.9-13.4c1.6-5.2,3-5.8,7.8-3.3c8.1,4.2,16.7,6.6,25.8,7.7
		c5.8,0.7,11.5,0.1,16.9-2.2c10.1-4.4,11.6-16.1,3.1-23.1c-2.9-2.4-6.2-4.1-9.6-5.6c-8.8-3.9-18-6.8-26.4-11.8
		c-13.5-8.1-22.1-19.2-21.1-35.7c1.1-18.6,11.6-30.2,28.7-36.4c7-2.6,7.1-2.5,7.1-9.8c0-2.5,0-5,0-7.5c0.1-5.5,1.1-6.5,6.6-6.7
		c1.7-0.1,3.4,0,5.1,0c11.8,0,11.8,0,11.8,11.8c0,8.3,0,8.4,8.3,9.6c6.3,1,12.4,2.9,18.3,5.5c3.2,1.4,4.5,3.7,3.5,7.1
		c-1.5,5.1-2.9,10.2-4.5,15.2c-1.5,4.8-3.1,5.4-7.6,3.2c-9.2-4.4-18.8-6.3-29-5.7c-2.7,0.1-5.3,0.5-7.7,1.6
		c-8.8,3.8-10.2,13.5-2.7,19.5c3.8,3,8.1,5.2,12.6,7.1c7.8,3.2,15.6,6.3,22.9,10.4C213.7,139.5,220,169,203.5,189.1z"/>
</g>
</svg>
