<?xml version="1.0" encoding="utf-8"?>
<!-- Generator: Adobe Illustrator 18.0.0, SVG Export Plug-In . SVG Version: 6.00 Build 0)  -->
<!DOCTYPE svg PUBLIC "-//W3C//DTD SVG 1.1//EN" "http://www.w3.org/Graphics/SVG/1.1/DTD/svg11.dtd">
<svg version="1.1" id="Layer_1" xmlns="http://www.w3.org/2000/svg" xmlns:xlink="http://www.w3.org/1999/xlink" x="0px" y="0px"
	 viewBox="0 0 512 512" enable-background="new 0 0 512 512" xml:space="preserve">
<g id="XMLID_1100_">
	<path id="XMLID_1126_" fill="#333333" d="M424.1,386.5c-3.1-3.8-4.8-8.6-4.8-13.6v-22.4v-14.3v-27.8c-0.7-0.2-1.3-0.3-2-0.5
		c-3.8,4.7-7.7,9.6-12.1,15c-6.4,7.9-14.8,12.5-23.9,13.4v10v2.6h0v1.7v24.5h-306v-28.8v-10.1V179.9c0,0,0-0.1,0.1-0.1H246
		c-1.8-2.8-3.6-5.6-5.4-8.4c-5.9-9.1-7.5-19.9-4.4-29.5c0,0,0-0.1,0-0.1H75.4c-21,0-38.1,17-38.1,38.1v156.3v8.3v28
		c0,4.9-1.7,9.7-4.8,13.6l-19.6,24.1c-1.5,1.8-2.3,4.1-2.3,6.4v11c0,14.3,11.6,25.8,25.8,25.8h383.5c14.3,0,25.8-11.6,25.8-25.8v-11
		c0-2.3-0.8-4.6-2.3-6.4L424.1,386.5z M269.5,415.9c0,7.2-5.9,13.1-13.1,13.1h-56.2c-7.2,0-13.1-5.9-13.1-13.1V413h82.5V415.9z"/>
	<g id="XMLID_1101_">
		<g>
			<g id="XMLID_191_">
				<circle fill="#E2574C" cx="343.7" cy="167" r="10.7"/>
			</g>
			<g id="XMLID_190_">
				<circle fill="#E2574C" cx="412" cy="210.5" r="10.7"/>
			</g>
			<g id="XMLID_185_">
				<g>
					<path fill="#E2574C" d="M498.6,214.4c-5.3-8.2-10.7-16.5-16.1-24.6c-1.3-1.9-1.2-3.1,0-4.9c5.3-8,10.5-16,15.7-24.1
						c6.1-9.5,2.9-18.9-7.7-22.8c-9-3.3-17.9-6.8-26.9-10.1c-1.9-0.7-2.6-1.8-2.7-3.8c-0.4-9.8-1-19.6-1.5-29.3
						c-0.5-10.4-8.7-16.3-18.8-13.6c-9.5,2.5-18.9,5-28.3,7.8c-2.2,0.6-3.3,0.1-4.6-1.5c-6-7.6-12.2-15.1-18.3-22.6
						c-6.7-8.2-16.7-8.3-23.4,0c-6,7.4-12.1,14.9-18,22.5c-1.6,2.1-3.1,2.4-5.5,1.8c-9.2-2.6-18.5-5-25.2-6.8
						c-12.9-3.1-20.5,2.2-21.2,12.7c-0.7,9.9-1.1,19.8-1.5,29.7c-0.1,2.1-0.8,3-2.7,3.8c-9.3,3.5-18.5,7-27.8,10.7
						c-9.6,3.8-12.6,13.2-7,21.9c5.3,8.2,10.7,16.5,16.1,24.6c1.2,1.8,1.2,3.1,0,4.9c-5.5,8.3-11,16.8-16.3,25.2
						c-5.1,8.2-1.9,17.7,7.1,21.1c9.3,3.6,18.7,7.2,28.1,10.7c2,0.7,2.6,1.7,2.7,3.8c0.4,9.5,1.5,18.9,1.4,28.4
						c-0.1,9.7,8.4,18.1,19.8,14.5c9.1-2.9,18.5-5.1,27.7-7.7c1.9-0.5,2.9-0.2,4.2,1.3c6.1,7.7,12.3,15.3,18.5,22.9
						c6.8,8.3,16.6,8.3,23.4,0c6.2-7.6,12.3-15.2,18.4-22.9c1.2-1.5,2.2-2,4.1-1.4c9.6,2.7,19.1,5.2,28.7,7.7
						c9.9,2.6,18.1-3.4,18.6-13.5c0.5-9.9,1.1-19.8,1.5-29.7c0.1-2.3,1.1-3.2,3-3.9c9.1-3.4,18.1-6.9,27.1-10.4
						C501.1,232.6,504.2,223.1,498.6,214.4z M317.9,167c0-14.3,11.6-25.9,25.9-25.9s25.9,11.6,25.9,25.9c0,14.3-11.6,25.9-25.9,25.9
						S317.9,181.3,317.9,167z M348.7,233.7c-2.2,2.6-6.2,3.1-8.9,0.8c-2.6-2.2-3.1-6.2-0.8-8.9l67.9-81.8c2.2-2.6,6.2-3.1,8.9-0.8
						c2.6,2.2,3.1,6.2,0.8,8.9L348.7,233.7z M412,236.4c-14.3,0-25.9-11.6-25.9-25.9c0-14.3,11.6-25.9,25.9-25.9
						c14.3,0,25.9,11.6,25.9,25.9C437.8,224.8,426.2,236.4,412,236.4z"/>
				</g>
			</g>
		</g>
	</g>
</g>
</svg>
