<?xml version="1.0" encoding="utf-8"?>
<!-- Generator: Adobe Illustrator 18.0.0, SVG Export Plug-In . SVG Version: 6.00 Build 0)  -->
<!DOCTYPE svg PUBLIC "-//W3C//DTD SVG 1.1//EN" "http://www.w3.org/Graphics/SVG/1.1/DTD/svg11.dtd">
<svg version="1.1" id="Layer_1" xmlns="http://www.w3.org/2000/svg" xmlns:xlink="http://www.w3.org/1999/xlink" x="0px" y="0px"
	 viewBox="0 0 512 512" enable-background="new 0 0 512 512" xml:space="preserve">
<g>
	<g>
		<g>
			<path fill="#333333" d="M279.1,116.2c0-4.6,0-27.6,0-27.6c3.5-2.3,5.8-6.3,5.8-10.7V52.3c0-16-12.9-28.9-28.9-28.9h0h0
				c-16,0-28.9,12.9-28.9,28.9v25.6c0,4.5,2.3,8.4,5.8,10.7l0,27.6c0,0.5-0.3,0.9-0.7,1.1c-3.9,1.9-23.1,11.6-40.8,26.2
				c-3.2,2.6-5,6.6-5,10.7v19.6h60.5l6-27.4c-12.1-16.8,0.9-17.7,3.2-17.7h0h0c2.3,0,15.2,0.8,3.2,17.7l6,27.4h60.5v-19.6
				c0-4.1-1.8-8.1-5-10.7c-17.8-14.6-36.9-24.3-40.8-26.2C279.4,117.2,279.1,116.7,279.1,116.2z"/>
			<path fill="#333333" d="M449.2,413.9c0-4.6,0-27.6,0-27.6c3.5-2.3,5.8-6.3,5.8-10.7V350c0-16-12.9-28.9-28.9-28.9h0h0
				c-16,0-28.9,12.9-28.9,28.9v25.6c0,4.5,2.3,8.4,5.8,10.7l0,27.6c0,0.5-0.3,0.9-0.7,1.1c-3.9,1.9-23.1,11.6-40.8,26.2
				c-3.2,2.6-5,6.6-5,10.7v19.6H417l6-27.4c-12.1-16.8,0.9-17.7,3.2-17.7h0h0c2.3,0,15.2,0.8,3.2,17.7l6,27.4h60.5v-19.6
				c0-4.1-1.8-8.1-5-10.7c-17.8-14.6-36.9-24.3-40.8-26.2C449.5,414.8,449.2,414.4,449.2,413.9z"/>
			<g>
				<path fill="#333333" d="M246.2,478.9c0-5.4,4.4-9.7,9.7-9.7l0,0c5.4,0,9.7,4.4,9.7,9.7l0,0c0,5.4-4.4,9.7-9.7,9.7l0,0
					c0,0-0.1,0-0.2,0l0,0C250.4,488.5,246.2,484.2,246.2,478.9z M182.6,473c-4.9-2.2-7.1-7.9-4.9-12.8l0,0c2.2-4.9,8-7.1,12.8-4.9
					l0,0c4.9,2.2,7.1,8,4.9,12.8l0,0c-1.6,3.7-5.3,5.8-9.1,5.8l0,0C185.1,473.8,183.8,473.6,182.6,473z M316.4,468.2
					c-2.2-4.9,0-10.7,4.9-12.8l0,0c4.9-2.2,10.6,0,12.8,4.9l0,0c2.2,4.9,0,10.7-4.9,12.8l0,0c-1.4,0.6-2.7,0.9-4.1,0.9l0,0
					C321.5,473.9,318,471.7,316.4,468.2z M85.3,300.1c-5.3-0.6-9.2-5.3-8.6-10.7l0,0c0,0,0-0.1,0-0.1l0,0c0-0.1,0-0.1,0-0.2l0,0
					c0,0,0,0,0,0l0,0c0.6-5.4,5.4-9.2,10.7-8.6l0,0c5.3,0.6,9.2,5.3,8.6,10.7l0,0c0,0.1,0,0.1,0,0.2l0,0c0,0,0,0.1,0,0.1l0,0
					c-0.5,5.1-4.9,8.8-9.8,8.7l0,0C86,300.1,85.7,300.1,85.3,300.1z M416,291.6c-0.6-5.3,3.3-10.1,8.7-10.7l0,0
					c5.4-0.6,10.1,3.3,10.7,8.7l0,0c0.5,5.4-3.4,10.1-8.7,10.7l0,0c-0.4,0.1-0.8,0.1-1.2,0.1l0,0C420.7,300.3,416.6,296.6,416,291.6
					z M103.5,231.1c-4.6-2.7-6.2-8.7-3.5-13.3l0,0c2.7-4.6,8.6-6.2,13.3-3.5l0,0c4.6,2.7,6.2,8.6,3.5,13.3l0,0
					c-1.8,3.1-5.2,4.9-8.6,4.8l0,0C106.6,232.4,105,232,103.5,231.1z M395.4,228.1L395.4,228.1c-2.7-4.7-1.1-10.6,3.6-13.3l0,0
					c4.7-2.7,10.6-1.1,13.3,3.6l0,0c2.7,4.7,1.1,10.6-3.6,13.3l0,0c-1.6,0.9-3.3,1.3-5,1.3l0,0C400.4,232.9,397.2,231.1,395.4,228.1
					z M148.1,175.8c-3.1-4.4-2.2-10.4,2.2-13.6l0,0c4.4-3.1,10.4-2.2,13.6,2.2l0,0c3.1,4.3,2.2,10.4-2.2,13.6l0,0
					c-1.8,1.3-3.8,1.9-5.8,1.8l0,0C152.9,179.8,150,178.4,148.1,175.8z M350.8,178.3c-4.3-3.2-5.3-9.3-2.1-13.6l0,0
					c3.2-4.3,9.3-5.3,13.6-2.1l0,0c4.4,3.2,5.3,9.3,2.1,13.6l0,0c-1.9,2.7-5,4-8,4l0,0C354.4,180.1,352.4,179.5,350.8,178.3z"/>
			</g>
			<path fill="#333333" d="M62.8,413.9c0-4.6,0-27.6,0-27.6C59.3,384,57,380,57,375.5V350c0-16,12.9-28.9,28.9-28.9h0h0
				c16,0,28.9,12.9,28.9,28.9v25.6c0,4.5-2.3,8.4-5.8,10.7l0,27.6c0,0.5,0.3,0.9,0.7,1.1c3.9,1.9,23.1,11.6,40.8,26.2
				c3.2,2.6,5,6.6,5,10.7v19.6H95l-6-27.4c12.1-16.8-0.9-17.7-3.2-17.7h0h0c-2.3,0-15.2,0.8-3.2,17.7l-6,27.4H16.2l0-19.6
				c0-4.1,1.8-8.1,5-10.7C39,426.6,58.2,416.9,62.1,415C62.5,414.8,62.8,414.4,62.8,413.9z"/>
		</g>
	</g>
	<path fill="#E2574C" d="M321.6,277.9l-1.1-0.1l-9.2,9.2c3.8,8,6,16.9,6,26.4c0,16.9-6.9,32.2-18,43.3c-11.1,11.1-26.4,18-43.3,18
		c-33.9,0-61.3-27.4-61.3-61.3c0-16.9,6.9-32.3,18-43.4c11.1-11.1,26.4-18,43.4-18c14.1,0,27,4.8,37.4,12.7l-10.6,10.6
		c-7.6-5.3-16.8-8.5-26.8-8.5c-12.8,0-24.5,5.2-32.9,13.6c-8.4,8.4-13.6,20-13.6,32.9c0,25.7,20.8,46.5,46.5,46.5
		c12.8,0,24.4-5.2,32.9-13.6c8.4-8.4,13.6-20,13.6-32.9c0-5.3-0.9-10.3-2.5-15l-13.2,13.2c0,0.6,0.1,1.2,0.1,1.8
		c0,8.5-3.5,16.2-9.1,21.8c-5.6,5.6-13.3,9.1-21.8,9.1c-17,0-30.9-13.8-30.9-30.9c0-8.5,3.5-16.2,9-21.8c5.6-5.6,13.3-9,21.8-9
		c5.6,0,10.9,1.5,15.5,4.2l-11.2,11.2c-1.4-0.4-2.8-0.6-4.3-0.6c-8.9,0-16,7.2-16,16c0,8.9,7.2,16,16,16c8.9,0,16-7.2,16-16
		c0-1.5-0.2-2.9-0.6-4.3l44.7-44.7l7.2,1l22.6-22.6l-17.1-2.3l-2.3-17.1L303.9,246l0.8,6c-13.4-10.6-30.3-17-48.7-17
		c-21.6,0-41.2,8.8-55.4,23c-14.2,14.2-23,33.8-23,55.4c0,43.3,35.1,78.4,78.4,78.4c21.6,0,41.2-8.8,55.4-23
		c14.2-14.2,23-33.8,23-55.4c0-12.8-3.1-24.9-8.6-35.6C324.4,278,323,278.1,321.6,277.9z"/>
</g>
</svg>
