<?xml version="1.0" encoding="utf-8"?>
<!-- Generator: Adobe Illustrator 18.0.0, SVG Export Plug-In . SVG Version: 6.00 Build 0)  -->
<!DOCTYPE svg PUBLIC "-//W3C//DTD SVG 1.1//EN" "http://www.w3.org/Graphics/SVG/1.1/DTD/svg11.dtd">
<svg version="1.1" id="Layer_1" xmlns="http://www.w3.org/2000/svg" xmlns:xlink="http://www.w3.org/1999/xlink" x="0px" y="0px"
	 viewBox="0 0 512 512" enable-background="new 0 0 512 512" xml:space="preserve">
<g>
	<path fill="#333333" d="M314.4,382.9V405c0,6.9-5.6,12.6-12.6,12.6H113.3c-6.9,0-12.6-5.6-12.6-12.6V107.2
		c0-6.9,5.6-12.6,12.6-12.6h188.5c6.9,0,12.6,5.6,12.6,12.6v2.2h-0.1v9.4c4.3-0.4,8.7-0.6,13.1-0.6c4.3,0,8.7,0.2,12.9,0.6v-42
		c0-27-22.1-49.1-49.1-49.1H123.7c-27,0-49.1,22.1-49.1,49.1v358.3c0,27,22.1,49.1,49.1,49.1h167.6c27,0,49.1-22.1,49.1-49.1v-52.2
		c-4.3,0.4-8.6,0.6-12.9,0.6C323.1,383.5,318.7,383.3,314.4,382.9z M228.7,463.6h-47.3c-7,0-12.7-5.7-12.7-12.7
		c0-7,5.7-12.7,12.7-12.7h47.3c7,0,12.7,5.7,12.7,12.7C241.4,457.9,235.7,463.6,228.7,463.6z"/>
	<g>
		<path fill="#E2574C" d="M249.8,173.2c-41.3,41.3-42.8,107.3-4.6,150.4l1.1,0.9c-4.2,9-11.3,20-22.6,25.6c-3.7,1.8-2.9,7.4,1.2,8.1
			c12.4,1.9,30.2-0.2,46.7-12.8l0.2,0.2c42.1,24.8,97.2,19.1,133.3-17.1c42.9-42.9,42.9-112.5,0-155.4
			C362.3,130.3,292.7,130.3,249.8,173.2z M406.9,256c0,3.7-3,6.7-6.7,6.7l-10.2,0c-1.6,8.4-4.8,16.6-9.8,24l7.1,7.1
			c2.6,2.6,2.6,6.9,0,9.5l-7.3,7.3c-2.6,2.6-6.9,2.6-9.5,0l-7.1-7.1c-7.4,5.1-15.6,8.4-24,10.1l0,9.9c0,3.7-3,6.7-6.7,6.7l-10.4,0
			c-3.7,0-6.7-3-6.7-6.7l0-9.9c-8.5-1.6-16.7-4.9-24.2-9.9l-6.9,7c-2.6,2.6-6.9,2.6-9.5,0l-7.3-7.3c-2.6-2.6-2.6-6.9,0-9.5l6.9-7
			c-5.1-7.4-8.4-15.6-10-24.1l-9.9,0c-3.7,0-6.7-3-6.7-6.7l0-10.4c0-3.7,3-6.7,6.7-6.7l9.9,0c1.6-8.5,4.9-16.7,10-24l-7.1-7.1
			c-2.6-2.6-2.6-6.9,0-9.5l7.3-7.3c2.6-2.6,6.9-2.6,9.5,0l7.1,7.1c7.4-5,15.5-8.3,24-9.9l0-10.2c0-3.7,3-6.7,6.7-6.7l10.4,0
			c3.7,0,6.7,3,6.7,6.7l0,10.2c8.4,1.6,16.5,4.9,23.9,9.9l7.2-7.3c2.6-2.6,6.9-2.6,9.5,0l7.3,7.3c2.6,2.6,2.6,6.9,0,9.5l-7.2,7.3
			c5,7.3,8.3,15.4,9.9,23.8l10.2,0c3.7,0,6.7,3,6.7,6.7L406.9,256z"/>
		<circle fill="#E2574C" cx="327.5" cy="250.9" r="34.6"/>
	</g>
</g>
</svg>
