<?xml version="1.0" encoding="utf-8"?>
<!-- Generator: Adobe Illustrator 18.0.0, SVG Export Plug-In . SVG Version: 6.00 Build 0)  -->
<!DOCTYPE svg PUBLIC "-//W3C//DTD SVG 1.1//EN" "http://www.w3.org/Graphics/SVG/1.1/DTD/svg11.dtd">
<svg version="1.1" id="Layer_1" xmlns="http://www.w3.org/2000/svg" xmlns:xlink="http://www.w3.org/1999/xlink" x="0px" y="0px"
	 viewBox="0 0 512 512" enable-background="new 0 0 512 512" xml:space="preserve">
<g>
	<g id="XMLID_554_">
		<g id="XMLID_556_">
			<g id="XMLID_557_">
				<path fill="#333333" d="M489.6,444.5c-35.8-29.4-74.4-48.9-82.3-52.8c-0.9-0.4-1.4-1.3-1.4-2.3v-55.7c7-4.7,11.6-12.6,11.6-21.7
					v-57.8c0-28.8-23.3-52.1-52.1-52.1h-6.2h-6.2c-28.8,0-52.1,23.3-52.1,52.1V312c0,9.1,4.6,17,11.6,21.7v55.7c0,0.3-0.1,0.7-0.2,1
					c11,7.5,22.4,15.9,33.6,25.1c13.1,10.8,20.6,26.7,20.6,43.7v46.5h133.2v-39.6C499.8,457.8,496.1,449.9,489.6,444.5z"/>
			</g>
		</g>
		<g id="XMLID_555_">
			<path fill="#333333" d="M331.5,434.1c-42.2-34.7-87.7-57.7-97-62.2c-1-0.5-1.7-1.6-1.7-2.7v-65.7c8.3-5.5,13.7-14.9,13.7-25.6
				v-68.1c0-33.9-27.5-61.4-61.4-61.4h-7.3h-7.3c-33.9,0-61.4,27.5-61.4,61.4v68.1c0,10.7,5.5,20.1,13.7,25.6v65.7
				c0,1.2-0.7,2.2-1.7,2.7c-9.3,4.5-54.8,27.5-97,62.2c-7.6,6.3-12,15.6-12,25.5v46.7h143.9l14.2-65.1c-28.7-40.1,2.1-42,7.5-42
				c0,0,0,0,0,0h0c5.4,0,36.2,2,7.5,42l14.2,65.1h143.9v-46.7C343.5,449.8,339.1,440.4,331.5,434.1z"/>
		</g>
	</g>
	<g id="XMLID_549_">
		<g>
			<path fill="#E2574C" d="M402.7,30.1c-32.6-32.6-85.5-32.6-118.2,0c-31.4,31.4-32.6,81.6-3.5,114.4l0.9,0.7
				c-3.2,6.8-8.6,15.2-17.2,19.5c-2.8,1.4-2.2,5.6,0.9,6.1c9.4,1.5,22.9-0.2,35.5-9.7l0.2,0.1c32,18.8,73.9,14.5,101.4-13
				C435.4,115.7,435.4,62.8,402.7,30.1z M306.1,99.3c-5.5,0-10-4.5-10-10c0-5.5,4.5-10,10-10s10,4.5,10,10
				C316.1,94.8,311.6,99.3,306.1,99.3z M343.6,99.3c-5.5,0-10-4.5-10-10c0-5.5,4.5-10,10-10s10,4.5,10,10
				C353.7,94.8,349.2,99.3,343.6,99.3z M381.2,99.3c-5.5,0-10-4.5-10-10c0-5.5,4.5-10,10-10s10,4.5,10,10
				C391.2,94.8,386.7,99.3,381.2,99.3z"/>
		</g>
	</g>
</g>
</svg>
