<?xml version="1.0" encoding="utf-8"?>
<!-- Generator: Adobe Illustrator 18.0.0, SVG Export Plug-In . SVG Version: 6.00 Build 0)  -->
<!DOCTYPE svg PUBLIC "-//W3C//DTD SVG 1.1//EN" "http://www.w3.org/Graphics/SVG/1.1/DTD/svg11.dtd">
<svg version="1.1" id="Layer_1" xmlns="http://www.w3.org/2000/svg" xmlns:xlink="http://www.w3.org/1999/xlink" x="0px" y="0px"
	 viewBox="0 0 512 512" enable-background="new 0 0 512 512" xml:space="preserve">
<g>
	<g>
		<g id="XMLID_506_">
			<path fill="#333333" d="M481.7,446.4L377.3,342.1l-9-9l-3-3l0,0l-2.7-2.7l-7,7l-15.1-15.1c60-70.7,56.6-176.8-10.2-243.5
				C295.1,40.6,249.1,23,203,23c-46.1,0-92.1,17.6-127.3,52.7C5.4,146,5.4,260,75.7,330.3C110.9,365.4,156.9,383,203,383
				c41.4,0,82.8-14.2,116.3-42.6l15.1,15.1l-7,7l0,0l0,0l5.7,5.7l9,9l104.4,104.4c4.9,4.9,11.2,7.3,17.6,7.3
				c6.4,0,12.7-2.4,17.6-7.3C491.4,472,491.4,456.2,481.7,446.4C481.7,446.5,481.7,446.5,481.7,446.4z M309.1,309.1
				c-29.3,29.3-67.7,43.9-106.1,43.9c-38.4,0-76.8-14.6-106.1-43.9c-58.6-58.6-58.6-153.6,0-212.2C126.2,67.6,164.6,53,203,53
				c38.4,0,76.8,14.6,106.1,43.9C367.7,155.5,367.7,250.5,309.1,309.1z"/>
		</g>
	</g>
	<path id="XMLID_503_" fill="#E2574C" d="M203,78.4c-68.8,0-124.6,55.8-124.6,124.6S134.2,327.7,203,327.7
		c68.8,0,124.6-55.8,124.6-124.6S271.8,78.4,203,78.4z M238.8,252.2c-5.4,6.6-12.5,11.1-20.8,13.3c-3.6,1-5.2,2.9-5,6.6
		c0.2,3.7,0,7.4,0,11c0,3.3-1.7,5-4.9,5.1c-4,0.1-7.9,0.1-11.9,0c-3.5-0.1-5.1-2-5.1-5.4c0-2.7,0-5.4-0.1-8.1
		c-0.1-5.9-0.2-6.2-6-7.1c-7.3-1.2-14.5-2.8-21.2-6.1c-5.3-2.5-5.8-3.9-4.3-9.4c1.1-4.1,2.2-8.2,3.5-12.2c1.5-4.7,2.7-5.3,7.1-3
		c7.4,3.8,15.3,6,23.5,7c5.3,0.7,10.5,0.1,15.4-2c9.2-4,10.6-14.6,2.9-21c-2.6-2.2-5.6-3.8-8.8-5.1c-8-3.5-16.4-6.2-24-10.8
		c-12.3-7.4-20.1-17.5-19.2-32.5c1-16.9,10.6-27.5,26.1-33.2c6.4-2.3,6.4-2.2,6.5-8.9c0-2.3,0-4.5,0-6.8c0.1-5.1,1-5.9,6-6.1
		c1.6,0,3.1,0,4.7,0c10.7,0,10.7,0,10.8,10.7c0,7.6,0,7.6,7.6,8.8c5.8,0.9,11.3,2.6,16.6,5c2.9,1.3,4.1,3.4,3.2,6.5
		c-1.3,4.6-2.6,9.3-4.1,13.9c-1.4,4.3-2.8,5-6.9,2.9c-8.4-4-17.1-5.7-26.4-5.2c-2.4,0.1-4.8,0.5-7,1.4c-8,3.5-9.3,12.3-2.5,17.7
		c3.4,2.8,7.4,4.7,11.4,6.4c7.1,2.9,14.2,5.7,20.9,9.4C248.1,207,253.9,233.9,238.8,252.2z"/>
</g>
</svg>
