<?xml version="1.0" encoding="utf-8"?>
<!-- Generator: Adobe Illustrator 18.0.0, SVG Export Plug-In . SVG Version: 6.00 Build 0)  -->
<!DOCTYPE svg PUBLIC "-//W3C//DTD SVG 1.1//EN" "http://www.w3.org/Graphics/SVG/1.1/DTD/svg11.dtd">
<svg version="1.1" id="Layer_1" xmlns="http://www.w3.org/2000/svg" xmlns:xlink="http://www.w3.org/1999/xlink" x="0px" y="0px"
	 viewBox="0 0 512 512" enable-background="new 0 0 512 512" xml:space="preserve">
<g>
	<g>
		<circle fill="#333333" cx="224.1" cy="248.9" r="52.6"/>
		<path fill="#333333" d="M224,93.5c-23.7,0-46.5,5.2-66.8,15.1c-53.4,25-90.4,78.8-90.4,141.3v20.7v5.2L35,336.8
			c-8.2,15.5-0.4,28,16.8,28h15.1v0.4v26.3v31c0,18.1,14.6,32.7,32.7,32.7l45.2-6.9v45.2v0.4c0,5.6,5.2,9.5,11.2,8.6l162.4-28.9
			c6-1.3,11.2-6.9,11.2-13.3v-7.3v-5.6v-82.7c31-28.4,50.8-69.3,50.8-115C379.9,163.7,310.2,93.5,224,93.5z M334.7,266.9l-15.5,0
			c-2.4,12.8-7.4,25.3-14.9,36.5l10.9,10.8c4,4,4,10.4,0,14.4L304,339.8c-4,4-10.4,4-14.4,0l-10.8-10.8
			c-11.2,7.7-23.7,12.8-36.6,15.3l0,15.1c0,5.6-4.6,10.2-10.2,10.2l-15.8,0c-5.6,0-10.2-4.6-10.2-10.2l0-15
			c-12.9-2.4-25.5-7.4-36.8-15.1L158.7,340c-4,4-10.4,4-14.4,0l-11.2-11.1c-4-4-4-10.4,0-14.4l10.6-10.6
			c-7.7-11.3-12.8-23.8-15.2-36.7l-15,0c-5.6,0-10.2-4.6-10.2-10.2l0-15.8c0-5.6,4.6-10.2,10.2-10.2l15.1,0
			c2.5-12.9,7.5-25.4,15.2-36.6L133,183.5c-4-4-4-10.4,0-14.4l11.1-11.2c4-4,10.5-4,14.4,0l10.9,10.8c11.2-7.6,23.6-12.6,36.5-15
			l0-15.5c0-5.6,4.6-10.2,10.2-10.2l15.8,0c5.6,0,10.2,4.6,10.2,10.2l0,15.6c12.8,2.4,25.2,7.5,36.3,15l11-11.1c4-4,10.4-4,14.4,0
			l11.2,11.1c4,4,4,10.4,0,14.4l-11,11.1c7.6,11.1,12.7,23.5,15.1,36.3l15.6,0c5.6,0,10.2,4.6,10.2,10.2l0,15.8
			C344.9,262.3,340.4,266.9,334.7,266.9z"/>
	</g>
	<path fill="#E2574C" d="M443.6,22.2c1.4-3.4-0.2-7.2-3.6-8.6l-9.4-3.8c-3.4-1.4-7.2,0.2-8.6,3.6l-3.8,9.2c-8.2-1.7-16.9-1.8-25.4,0
		l-3.8-9.1c-1.4-3.3-5.3-4.9-8.6-3.5l-9.4,3.9c-3.4,1.4-4.9,5.3-3.5,8.6l3.8,9c-7.3,4.8-13.4,11-18,18.1l-9-3.7
		c-3.4-1.4-7.2,0.2-8.6,3.6l-3.8,9.4c-1.4,3.4,0.2,7.2,3.6,8.6l9,3.7c-1.7,8.3-1.8,17,0.1,25.6l-8.9,3.7c-3.3,1.4-4.9,5.3-3.5,8.6
		l3.9,9.4c1.4,3.3,5.3,4.9,8.6,3.5l8.9-3.7c4.8,7.3,11.1,13.4,18.2,18l-3.7,9c-1.4,3.4,0.2,7.2,3.6,8.6l9.4,3.8
		c3.4,1.4,7.2-0.2,8.6-3.6l3.7-9c8.3,1.7,17,1.7,25.5-0.2l3.8,9c1.4,3.3,5.3,4.9,8.6,3.5l9.4-3.9c3.3-1.4,4.9-5.3,3.5-8.6l-3.8-9.1
		c7.3-4.8,13.3-11,17.8-18.1l9.2,3.8c3.4,1.4,7.2-0.2,8.6-3.6l3.8-9.4c1.4-3.4-0.2-7.2-3.6-8.6l-9.3-3.8c1.7-8.2,1.7-16.8-0.1-25.3
		l9.3-3.9c3.3-1.4,4.9-5.3,3.5-8.6l-3.9-9.4c-1.4-3.3-5.3-4.9-8.6-3.5l-9.3,3.9c-4.8-7.3-10.9-13.3-18-17.8L443.6,22.2z M418.9,115
		c-17.3,7.2-37.1-0.9-44.4-18.1c-7.2-17.3,0.9-37.1,18.1-44.4c17.3-7.2,37.1,0.9,44.4,18.1C444.3,87.9,436.2,107.7,418.9,115z"/>
</g>
</svg>
