<?xml version="1.0" encoding="utf-8"?>
<!-- Generator: Adobe Illustrator 18.0.0, SVG Export Plug-In . SVG Version: 6.00 Build 0)  -->
<!DOCTYPE svg PUBLIC "-//W3C//DTD SVG 1.1//EN" "http://www.w3.org/Graphics/SVG/1.1/DTD/svg11.dtd">
<svg version="1.1" id="Layer_1" xmlns="http://www.w3.org/2000/svg" xmlns:xlink="http://www.w3.org/1999/xlink" x="0px" y="0px"
	 viewBox="0 0 512 512" enable-background="new 0 0 512 512" xml:space="preserve">
<g>
	<g>
		<g>
			<path fill="#333333" d="M486.3,325c-9.5-0.7-29.2,10-34.6,12.7c-19.2,9.7-45.8,24.8-63.4,36.9c-1.2,0.8-2.8,1.9-4.1,2.7
				c-7.9,5.1-16.2,8.5-25.4,10.4c-50.9,10.8-125.1,12-125.1,12l-4.3,0.2c-3.3,0.2-6.2-2.1-6.6-5.2c-0.5-3.5,2.1-6.7,5.7-7
				l110.3-10.5c12.1-1.3,21.8-12.7,20.5-25.5c-1.3-12.8-13.1-22.1-25.2-20.8l-98.1-1.2c-6.7-0.1-17.4-1.7-23.8-3.6
				c-63.2-18.5-98.9-1.2-117.8,6.9c-4.2-7-12.2-11.5-21.2-11l-42.3,2.8c-14.1,0.9-24.7,12.7-23.7,26.3l6.8,93.9
				c1,13.6,13.2,23.8,27.2,22.9l42.3-2.8c8.9-0.6,16.2-6.1,19.4-13.6l185.8,8c20.7,2.2,40.1-0.3,58.3-9.9l5.3-2.8l140.5-82.2
				c6.9-4,11.8-11,12.1-18.8C505.2,336.5,499.7,326,486.3,325z M56.7,445.7c-8,0-14.4-6.2-14.4-13.9s6.5-13.9,14.4-13.9
				c8,0,14.4,6.2,14.4,13.9S64.6,445.7,56.7,445.7z"/>
			<path fill="#333333" d="M379.7,340c1,3.1,1.8,6.2,2.1,9.6c0.3,2.7,0.3,5.3,0.1,7.8c1.5-1,2.9-2.1,4.4-3.1
				c14.3-10,43.7-25.9,60.3-34.3c5-2.5,10.3-5,16-7c-7.3-4.8-15-5.1-22.9-1.9c-15.8,6.2-44.9,20.3-59.7,28.3
				C379.8,339.6,379.8,339.8,379.7,340z"/>
			<path fill="#333333" d="M371.4,325.4c0.6-0.4,1.2-0.9,1.9-1.3l7.1-3.9c10.4-5.7,32.5-13.5,43.9-18.6c-7.2-4.7-14.8-4.9-22.7-1.8
				c-9.8,3.9-31.5,10.9-41.2,16.1C364.5,318.5,368.2,321.7,371.4,325.4z"/>
		</g>
	</g>
	<path id="XMLID_616_" fill="#E2574C" d="M409.7,154.2H393c-2.7-14.2-8.3-27.4-16.1-39l11.8-11.8c4.3-4.3,4.3-11.2,0-15.5l-12-12
		c-4.3-4.3-11.2-4.3-15.5,0l-11.7,11.7c-11.5-7.9-24.8-13.6-39-16.3V55c0-6-4.9-11-11-11h-16.9c-6,0-11,4.9-11,11v16.3
		c-14.4,2.7-27.7,8.3-39.3,16.2L220.9,76c-4.3-4.3-11.2-4.3-15.5,0l-12,12c-4.3,4.3-4.3,11.2,0,15.5l11.4,11.4
		c-8,11.6-13.7,25-16.4,39.4h-16c-6,0-11,4.9-11,11v16.9c0,6,4.9,11,11,11h16c2.7,14.4,8.4,27.7,16.4,39.4l-11.4,11.4
		c-4.3,4.3-4.3,11.2,0,15.5l12,12c4.3,4.3,11.2,4.3,15.5,0l11.5-11.5c11.6,7.9,25,13.5,39.3,16.2v16.3c0,6,4.9,11,11,11h16.9
		c6,0,11-4.9,11-11v-16.5c14.3-2.7,27.5-8.4,39-16.3l11.7,11.7c4.3,4.3,11.2,4.3,15.5,0l12-12c4.3-4.3,4.3-11.2,0-15.5L376.9,232
		c7.8-11.5,13.4-24.7,16.1-39h16.7c6,0,11-4.9,11-11v-16.9C420.7,159.2,415.8,154.2,409.7,154.2z M291.1,103.7
		c7.6,0,15,1.2,21.8,3.5l-10.7,18.6c-4-1-8.1-1.6-12.4-1.6c-22.7,0-41.8,15.4-47.5,36.3h-20C228.5,128.2,256.9,103.7,291.1,103.7z
		 M313.4,173.5c0,13-10.5,23.6-23.6,23.6s-23.6-10.5-23.6-23.6c0-13,10.5-23.6,23.6-23.6S313.4,160.4,313.4,173.5z M291.1,243.6
		c-34.3,0-62.8-24.7-68.8-57.2h20.1c5.7,20.9,24.8,36.3,47.5,36.3c4.4,0,8.6-0.6,12.7-1.7l11,18.9
		C306.4,242.3,298.9,243.6,291.1,243.6z M336,227.3L324.8,208c8.8-8.9,14.2-21.1,14.2-34.5c0-13.5-5.5-25.8-14.4-34.7l10.9-19
		c15.5,12.8,25.5,32.2,25.5,54C361,195.2,351.3,214.4,336,227.3z"/>
</g>
</svg>
