<?xml version="1.0" encoding="utf-8"?>
<!-- Generator: Adobe Illustrator 18.0.0, SVG Export Plug-In . SVG Version: 6.00 Build 0)  -->
<!DOCTYPE svg PUBLIC "-//W3C//DTD SVG 1.1//EN" "http://www.w3.org/Graphics/SVG/1.1/DTD/svg11.dtd">
<svg version="1.1" id="Layer_1" xmlns="http://www.w3.org/2000/svg" xmlns:xlink="http://www.w3.org/1999/xlink" x="0px" y="0px"
	 viewBox="0 0 512 512" enable-background="new 0 0 512 512" xml:space="preserve">
<g>
	<g>
		<g>
			<path fill="#E2574C" d="M341,311.9V202.8c0-3.1-2.5-5.5-5.5-5.5h-37.8c-3.1,0-5.5,2.5-5.5,5.5v109.1c0,3.1,2.5,5.5,5.5,5.5h37.8
				C338.5,317.5,341,315,341,311.9z M330,306.4h-26.7v-98.1H330V306.4z"/>
			<path fill="#E2574C" d="M176.5,226.2c-3.1,0-5.5,2.5-5.5,5.5v80.2c0,3.1,2.5,5.5,5.5,5.5h37.8c3.1,0,5.5-2.5,5.5-5.5v-80.2
				c0-3.1-2.5-5.5-5.5-5.5H176.5z M182,306.4v-8.6l8.6,8.6H182z M199.4,306.4L182,289.1v-8.7l26.1,26.1H199.4z M208.8,298.3
				L182,271.6v-8.7l26.7,26.7V298.3z M208.8,280.8L182,254.1v-8.7l26.7,26.7V280.8z M208.8,263.4l-26.1-26.1h8.7l17.3,17.3V263.4z
				 M208.8,245.9l-8.6-8.6h8.6V245.9z"/>
			<path fill="#E2574C" d="M280.4,311.9V158.5c0-3.1-2.5-5.5-5.5-5.5h-37.8c-3.1,0-5.5,2.5-5.5,5.5v153.5c0,3.1,2.5,5.5,5.5,5.5
				h37.8C277.9,317.5,280.4,315,280.4,311.9z"/>
		</g>
	</g>
	<path id="XMLID_1549_" fill="#333333" d="M497.2,382.1l-21.7-26.6c-3.5-4.3-5.4-9.7-5.4-15.2v-25.1v-16.1v-46.4l0,0V124.1
		c0-23.5-19.1-42.6-42.6-42.6H268h0H84.8c-23.5,0-42.6,19.1-42.6,42.6v175.1v9.4v31.4c0,5.5-1.9,10.9-5.4,15.2l-22,27
		c-1.7,2-2.6,4.6-2.6,7.2v12.3c0,16,12.9,28.9,28.9,28.9h429.7c16,0,28.9-12.9,28.9-28.9v-12.3C499.8,386.7,498.9,384.1,497.2,382.1
		z M302.3,388.4c0,8.1-6.6,14.7-14.7,14.7h-63c-8.1,0-14.7-6.6-14.7-14.7v-3.2h92.4V388.4z M427.6,342.7H84.7v-32.3v-11.3V124
		c0,0,0.1-0.1,0.1-0.1h202.5h0h140.2c0.1,0,0.1,0.1,0.1,0.1v175.1v11.3v2.9h0v1.9V342.7z"/>
</g>
</svg>
