<?xml version="1.0" encoding="utf-8"?>
<!-- Generator: Adobe Illustrator 18.0.0, SVG Export Plug-In . SVG Version: 6.00 Build 0)  -->
<!DOCTYPE svg PUBLIC "-//W3C//DTD SVG 1.1//EN" "http://www.w3.org/Graphics/SVG/1.1/DTD/svg11.dtd">
<svg version="1.1" id="Layer_1" xmlns="http://www.w3.org/2000/svg" xmlns:xlink="http://www.w3.org/1999/xlink" x="0px" y="0px"
	 viewBox="0 0 512 512" enable-background="new 0 0 512 512" xml:space="preserve">
<g id="XMLID_1384_">
	<path id="XMLID_1390_" fill="#E2574C" d="M485.6,456.6c-15.4-7.6-25.1-22.6-30.7-34.8l1.5-1.3c51.9-58.6,49.8-148.3-6.3-204.5
		c-27.9-27.9-64-42.4-100.5-43.6c0.6,5.9,0.9,11.8,0.9,17.8c0,48.9-19,94.8-53.6,129.4c-26,26-58.4,43.2-93.7,50.1
		c7.1,21,19,40.7,35.8,57.4c49.1,49.1,124,56.9,181.2,23.2l0.3-0.3c22.5,17,46.6,20,63.5,17.3C489.5,466.7,490.7,459.1,485.6,456.6z
		"/>
	<g id="XMLID_1385_">
		<path fill="#333333" d="M273.1,84.7c-58.3-58.3-152.8-58.3-211.2,0C5.8,140.9,3.7,230.6,55.6,289.2l1.5,1.3
			c-5.6,12.2-15.3,27.2-30.7,34.8c-5.1,2.5-3.9,10.1,1.7,10.9c16.8,2.6,41-0.3,63.5-17.3l0.3,0.3c57.2,33.7,132.1,25.9,181.2-23.2
			C331.4,237.6,331.4,143,273.1,84.7z M100.4,208.3c-9.9,0-17.9-8-17.9-17.9c0-9.9,8-17.9,17.9-17.9s17.9,8,17.9,17.9
			C118.4,200.2,110.3,208.3,100.4,208.3z M167.5,208.3c-9.9,0-17.9-8-17.9-17.9c0-9.9,8-17.9,17.9-17.9s17.9,8,17.9,17.9
			C185.4,200.2,177.4,208.3,167.5,208.3z M234.6,208.3c-9.9,0-17.9-8-17.9-17.9c0-9.9,8-17.9,17.9-17.9c9.9,0,17.9,8,17.9,17.9
			C252.5,200.2,244.5,208.3,234.6,208.3z"/>
	</g>
</g>
</svg>
