<?xml version="1.0" encoding="utf-8"?>
<!-- Generator: Adobe Illustrator 18.0.0, SVG Export Plug-In . SVG Version: 6.00 Build 0)  -->
<!DOCTYPE svg PUBLIC "-//W3C//DTD SVG 1.1//EN" "http://www.w3.org/Graphics/SVG/1.1/DTD/svg11.dtd">
<svg version="1.1" id="Layer_1" xmlns="http://www.w3.org/2000/svg" xmlns:xlink="http://www.w3.org/1999/xlink" x="0px" y="0px"
	 viewBox="0 0 512 512" enable-background="new 0 0 512 512" xml:space="preserve">
<g>
	<g>
		<path fill="#333333" d="M396.4,219.2L396.4,219.2c0.1,0,0.1,0,0.2,0c0.1,0,0.1,0,0.2,0v0c30.2-0.3,25.8-40.6,25.8-40.6
			c-1.2-26.9-23.7-26.7-26-26.6c-2.2-0.1-24.7-0.3-26,26.6C370.6,178.6,366.3,218.9,396.4,219.2z"/>
	</g>
	<path fill="#333333" d="M481.5,284.2l-38.8-41.9c-1.1-1.2-2.3-2.3-3.7-3.2c-10.8-7.4-22.9-12.3-22.9-12.3l-10.5,33.1l-6.1-17.3
		c11-15.3-1.3-15.8-2.9-15.7h0c-1.6,0-13.9,0.4-2.9,15.7l-6.1,17.3l-10.5-33.1c0,0-9.1,3.7-18.5,9.5l6.7,7.3
		c13.6,16.1,11.8,40.6-4.1,54.4l-2.8,2.4l2.3,22.4l-13.1-13.2l-18,15.4l30.8,26.3L352.7,493c-0.3,5.2,3.4,9.8,8.5,10.6
		c5.5,0.9,10.6-2.8,11.6-8.3l20.1-107.6c0.3-1.8,1.9-3.1,3.7-3.1c1.8,0,3.4,1.3,3.7,3.1l20.1,107.6c0.9,5.5,6.1,9.2,11.6,8.3
		c5.1-0.8,8.8-5.4,8.5-10.6l-7.7-141.7l46.6-39.9C487.4,304.4,488.3,292.3,481.5,284.2z M432.5,322.7l4.3-41.5l19.4,17.5
		L432.5,322.7z"/>
	<g>
		<path fill="#333333" d="M255.6,179.2c-8-0.1-14.4-2.8-19-8c-11.2-12.7-8.8-36.2-8.8-36.4C229,108,249,105.9,255,105.9
			c0.3,0,0.5,0,0.7,0h0.1c0.1,0,0.4,0,0.7,0c6.1,0,26,2.1,27.2,28.8c0,0.3,2.4,23.9-8.8,36.5c-4.6,5.2-11,7.9-19,8l-0.1,0
			L255.6,179.2z"/>
		<path fill="#FF927A" d="M255,107.4c0.3,0,0.5,0,0.6,0l0.1,0l0.1,0c0.1,0,0.3,0,0.6,0c1.8,0,8.3,0.3,14.1,3.9
			c7.2,4.5,11.1,12.3,11.6,23.4l0,0.1l0,0.1c0,0.2,2.3,23.1-8.4,35.3c-4.3,4.9-10.3,7.4-17.8,7.5l-0.4,0c-7.5-0.1-13.5-2.6-17.9-7.5
			c-10.8-12.1-8.5-35-8.4-35.3l0-0.1l0-0.1c0.5-11.1,4.4-19,11.6-23.4C246.8,107.7,253.2,107.4,255,107.4 M256.5,104.4
			c-0.3,0-0.6,0-0.7,0c-0.2,0-0.4,0-0.7,0c-4.9,0-27.4,1.6-28.7,30.2c0,0-5,45.7,29.3,46.1v0c0.1,0,0.1,0,0.2,0c0.1,0,0.1,0,0.2,0v0
			c34.2-0.4,29.3-46.1,29.3-46.1C283.9,106,261.4,104.4,256.5,104.4L256.5,104.4z"/>
	</g>
	<path fill="#333333" d="M481.5,284.2l-38.8-41.9c-1.1-1.2-2.3-2.3-3.7-3.2c-10.8-7.4-22.9-12.3-22.9-12.3l-10.5,33.1l-6.1-17.3
		c11-15.3-1.3-15.8-2.9-15.7h0c-1.6,0-13.9,0.4-2.9,15.7l-6.1,17.3l-10.5-33.1c0,0-9.1,3.7-18.5,9.5l6.7,7.3
		c13.6,16.1,11.8,40.6-4.1,54.4l-2.8,2.4l2.3,22.4l-13.1-13.2l-18,15.4l30.8,26.3L352.7,493c-0.3,5.2,3.4,9.8,8.5,10.6
		c5.5,0.9,10.6-2.8,11.6-8.3l20.1-107.6c0.3-1.8,1.9-3.1,3.7-3.1c1.8,0,3.4,1.3,3.7,3.1l20.1,107.6c0.9,5.5,6.1,9.2,11.6,8.3
		c5.1-0.8,8.8-5.4,8.5-10.6l-7.7-141.7l46.6-39.9C487.4,304.4,488.3,292.3,481.5,284.2z M432.5,322.7l4.3-41.5l19.4,17.5
		L432.5,322.7z"/>
	<path fill="#333333" d="M32.6,311.4l46.6,39.9L71.5,493c-0.3,5.2,3.4,9.8,8.5,10.6c5.5,0.9,10.6-2.8,11.6-8.3l20.1-107.6
		c0.3-1.8,1.9-3.1,3.7-3.1c1.8,0,3.4,1.3,3.7,3.1l20.1,107.6c0.9,5.5,6.1,9.2,11.6,8.3c5.1-0.8,8.8-5.4,8.5-10.6l-7.7-141.7
		l30.8-26.3l-18-15.4l-13.1,13.2l2.3-22.4l-2.8-2.4c-15.9-13.9-17.8-38.3-4.1-54.4l6.7-7.3c-9.4-5.8-18.5-9.5-18.5-9.5l-10.5,33.1
		l-6.1-17.3c11-15.3-1.3-15.8-2.9-15.7h0c-1.6,0-13.9,0.4-2.9,15.7l-6.1,17.3l-10.5-33.1c0,0-12.1,4.9-22.9,12.3
		c-1.3,0.9-2.6,2-3.7,3.2l-38.8,41.9C23.7,292.3,24.6,304.4,32.6,311.4z M55.8,298.7l19.4-17.5l4.3,41.5L55.8,298.7z"/>
	<path fill="#333333" d="M255.6,180.7L255.6,180.7c0.1,0,0.1,0,0.2,0c0.1,0,0.1,0,0.2,0v0c34.2-0.4,29.3-46.1,29.3-46.1
		c-1.4-30.5-26.9-30.3-29.5-30.2c-2.5-0.1-28.1-0.4-29.5,30.2C226.3,134.6,221.3,180.3,255.6,180.7z"/>
	<path fill="#333333" d="M352.1,254.5l-44-47.6c-1.3-1.4-2.6-2.6-4.2-3.7c-12.2-8.5-26-14-26-14L266,226.8l-6.9-19.7
		c12.5-17.4-1.5-17.9-3.3-17.9h0l0,0c-1.9,0-15.8,0.5-3.3,17.9l-6.9,19.7l-11.9-37.6c0,0-13.8,5.6-26,14c-1.5,1.1-2.9,2.3-4.2,3.7
		l-44,47.6c-7.8,9.2-6.7,22.9,2.3,30.8l52.9,45.3l-8.8,160.9c-0.3,5.9,3.9,11.1,9.7,12c6.2,1,12.1-3.2,13.2-9.4L251.6,372
		c0.4-2,2.1-3.5,4.2-3.5c2,0,3.8,1.5,4.2,3.5l22.8,122.1c1.1,6.2,6.9,10.4,13.2,9.4c5.8-0.9,10-6.1,9.7-12l-8.8-160.9l52.9-45.3
		C358.8,277.4,359.9,263.7,352.1,254.5z M188.1,271l22-19.9l4.9,47.1L188.1,271z M296.5,298.2l4.9-47.1l22,19.9L296.5,298.2z"/>
	<path fill="#E2574C" d="M364.1,81.6C345.7,37.1,302.7,8.3,254.6,8.3c-15.6,0-30.8,3-45.3,9c-51.1,21.2-79.6,74.1-72,126.5
		c9.8,6.1,17.3,17.1,18.1,33.7c0.2,1.9,0.5,7.3-0.1,14c5.6,8.6,12.1,16.3,19.6,23.1l16.5-17.8c-5.7-5.1-10.8-10.9-15.1-17.3h16.2
		c1.4,4.1,3,8.1,4.6,12c0.5-0.4,1.1-0.9,1.6-1.3c7.7-5.3,15.9-9.6,21.6-12.3c-4.8-7.1-7.3-15.1-8.6-22.4h-1.1
		c-2.1-9.5-3.4-19.3-3.4-28.8c0-9.8,1-19.4,2.8-28.5h17.3c8-6.4,18-9.5,27.8-9.5c0.5,0,0.9,0,1.4,0c9.8,0,19.8,3.1,27.8,9.5h17.3
		c1.7,9.2,2.8,18.8,2.8,28.5c0,9.5-1.3,19.3-3.4,28.8h-1.1c-1.3,7.4-3.9,15.4-8.6,22.4c5.7,2.7,13.9,7,21.6,12.3
		c0.6,0.4,1.1,0.9,1.6,1.3c1.7-3.9,3.2-7.9,4.6-12h14c-4,6-8.7,11.3-13.9,16.2c0.1,0.2,0.3,0.3,0.4,0.4l15.9,17.2
		c8.1-7.6,15.2-16.3,20.9-25.9c-0.2-4.8,0-8.5,0.2-10c0.8-14.7,6.8-25.1,15-31.5C375.2,124.5,372.7,102.3,364.1,81.6z M164.6,155.6
		c-6.1-19.2-5.8-39.2,0-57.4h20.9c-1.6,9.4-2.4,19-2.4,28.5c0,9,1,18.8,2.9,28.8H164.6z M191.2,74.2h-15
		c6.8-10.1,15.5-18.9,25.9-25.9C197.8,56.2,194.2,64.9,191.2,74.2z M243.7,74.2h-27.1c6.7-17.7,16.4-31.5,27.1-37.6V74.2z
		 M267.8,74.2V36.5c10.7,6.1,20.4,19.9,27.1,37.6H267.8z M310.8,50.9c8.6,6.4,16.1,14.2,22.2,23.3h-12.7
		C317.7,65.9,314.5,58.1,310.8,50.9z M344.6,155.6h-19.1c1.9-10,2.9-19.8,2.9-28.8c0-9.5-0.8-19.1-2.4-28.5h18.6
		C350.6,117,350.6,136.8,344.6,155.6z"/>
	<path fill="#333333" d="M115.6,219.2L115.6,219.2c-0.1,0-0.1,0-0.2,0c-0.1,0-0.1,0-0.2,0v0c-30.2-0.3-25.8-40.6-25.8-40.6
		c1.2-26.9,23.7-26.7,26-26.6c2.2-0.1,24.7-0.3,26,26.6C141.4,178.6,145.7,218.9,115.6,219.2z"/>
</g>
</svg>
