<?xml version="1.0" encoding="utf-8"?>
<!-- Generator: Adobe Illustrator 18.0.0, SVG Export Plug-In . SVG Version: 6.00 Build 0)  -->
<!DOCTYPE svg PUBLIC "-//W3C//DTD SVG 1.1//EN" "http://www.w3.org/Graphics/SVG/1.1/DTD/svg11.dtd">
<svg version="1.1" id="Layer_1" xmlns="http://www.w3.org/2000/svg" xmlns:xlink="http://www.w3.org/1999/xlink" x="0px" y="0px"
	 viewBox="0 0 512 512" enable-background="new 0 0 512 512" xml:space="preserve">
<g>
	<g>
		<g>
			<g>
				<path fill="#333333" d="M480.6,310.7c-9.3-0.7-28.5,10.1-33.7,12.8c-18.7,9.8-44.7,25.1-61.8,37.3c-1.2,0.8-2.8,1.9-4,2.7
					c-7.7,5.1-15.8,8.6-24.8,10.5c-49.6,11-121.9,12.1-121.9,12.1l-4.2,0.2c-3.2,0.2-6-2.1-6.5-5.3c-0.5-3.5,2-6.8,5.5-7.1
					l107.5-10.6c11.8-1.3,21.3-12.8,20-25.8c-1.3-12.9-12.8-22.4-24.6-21l-95.7-1.2c-6.5-0.1-16.9-1.8-23.2-3.7
					c-61.6-18.7-96.4-1.2-114.9,7c-4.1-7.1-11.9-11.7-20.7-11.1l-41.2,2.9c-13.7,1-24.1,12.8-23.1,26.6l6.6,95
					c1,13.7,12.8,24.1,26.6,23.1l41.2-2.9c8.7-0.6,15.8-6.2,18.9-13.7l181.1,8.1c20.2,2.2,39.1-0.3,56.9-10l5.2-2.8l136.9-83.1
					c6.7-4.1,11.5-11.1,11.8-19C498.9,322.3,493.6,311.7,480.6,310.7z M61.6,432.8c-7.8,0-14.1-6.3-14.1-14.1
					c0-7.8,6.3-14.1,14.1-14.1c7.8,0,14.1,6.3,14.1,14.1C75.7,426.5,69.4,432.8,61.6,432.8z"/>
				<path fill="#333333" d="M376.6,325.9c1,3.1,1.8,6.3,2.1,9.7c0.3,2.7,0.2,5.3,0.1,7.9c1.4-1,2.9-2.1,4.3-3.1
					c14-10.2,42.6-26.2,58.8-34.7c4.9-2.6,10-5.1,15.6-7.1c-7.1-4.9-14.6-5.1-22.4-1.9c-15.4,6.3-43.7,20.5-58.2,28.7
					C376.7,325.5,376.7,325.7,376.6,325.9z"/>
				<path fill="#333333" d="M368.5,311.1c0.6-0.4,1.2-0.9,1.9-1.3l6.9-3.9c10.1-5.8,31.7-13.7,42.8-18.8c-7-4.7-14.5-4.9-22.1-1.8
					c-9.5,3.9-30.8,11.1-40.2,16.2C361.8,304.2,365.4,307.4,368.5,311.1z"/>
			</g>
		</g>
	</g>
	<path fill="#E2574C" d="M283.4,56.7c16.5,0.1,29.6,13.6,29.5,30.3c-0.1,16.5-13.5,30-29.7,29.9c-16.7-0.1-30.1-13.7-30-30.4
		C253.4,69.9,266.8,56.6,283.4,56.7z"/>
	<path fill="#E2574C" d="M325.9,258.3c-0.6,2.6-2.3,5.2-4.2,7.2c-10.8,11-23.8,17.6-39.5,17.8c-7.3,0.1-14.6-0.2-21.8-1.2
		c-11.9-1.7-27.1-16.5-25-32.3c1.5-10.8,3.1-21.5,4.9-32.3c3.2-18.7,6.5-37.4,9.8-56c0.2-1.2,0.3-2.4,0.3-3.6
		c0-7.8-2.5-10.6-10.2-11.6c-3.3-0.5-6.7-0.7-9.8-1.8c-3.9-1.4-5.6-4.4-5.2-7.4c0.4-3.3,2.4-5.3,6.7-6.1c2.2-0.4,4.5-0.5,6.8-0.5
		c9.2-0.1,18.3,0,27.5,0c9.7,0,19.4,0,29.1,0c7,0,11.2,3.3,11.3,10.3c0.1,5.8-0.9,11.7-1.9,17.4c-3.8,21.3-7.8,42.7-11.7,64
		c-1.3,7.1-2.7,14.1-3.6,21.2c-0.4,3.4,0.1,7,0.9,10.3c1.1,4.5,4.5,6.9,9,6.4c3.8-0.4,7.5-1.8,11.1-3.1c2.9-1.1,5.5-3.2,8.4-4.3
		C323.4,250.8,327,253.7,325.9,258.3z"/>
</g>
</svg>
