<?xml version="1.0" encoding="utf-8"?>
<!-- Generator: Adobe Illustrator 18.0.0, SVG Export Plug-In . SVG Version: 6.00 Build 0)  -->
<!DOCTYPE svg PUBLIC "-//W3C//DTD SVG 1.1//EN" "http://www.w3.org/Graphics/SVG/1.1/DTD/svg11.dtd">
<svg version="1.1" id="Layer_1" xmlns="http://www.w3.org/2000/svg" xmlns:xlink="http://www.w3.org/1999/xlink" x="0px" y="0px"
	 viewBox="0 0 512 512" enable-background="new 0 0 512 512" xml:space="preserve">
<g>
	<g id="XMLID_6353_">
		<path fill="#333333" d="M3.9,234.8c17.4,1.5,33.8,3,50.2,4.4c9-128.7,151.1-227.3,287.4-166c7-14.9,13.9-29.9,21.3-45.7
			C281.6-6.6,202.5-4.9,126.9,40.1C53.8,83.6,14.1,149.7,3.9,234.8z"/>
	</g>
	<g id="XMLID_6350_">
		<path fill="#333333" d="M273.4,458.3c1.4,16.6,2.8,32.8,4.3,49c122.6-4.3,254-127.4,226.8-294.2c-16.3,2.8-32.6,5.7-49.4,8.6
			c8.8,58.9-3.4,111.9-39.4,158.4C379.9,426.4,332,451.8,273.4,458.3z"/>
	</g>
	<g id="XMLID_6347_">
		<path fill="#333333" d="M233.9,508.1c1.5-16.7,2.9-32.9,4.3-48.7C132.5,441.7,71.2,380.4,53.4,274.6c-15.6,1.3-31.8,2.7-48.1,4.2
			C9.1,381.5,98.7,497.1,233.9,508.1z"/>
	</g>
	<g id="XMLID_6344_">
		<path fill="#333333" d="M415.9,133.6c12.6,16.3,22.3,34.3,29.9,54.1c15.7-5.7,31.2-11.3,47.4-17.3C474.5,120.7,444,81,400.7,50
			c-9.6,13.7-19.1,27.2-28.9,41.3C388.5,103.5,403.3,117.4,415.9,133.6z"/>
	</g>
	<path fill="#E2574C" d="M379.3,364.9c-33.4-25.5-66.5-42.2-73.8-45.8c-0.9-0.4-1.5-1.4-1.5-2.4v-57.2c7.2-4.8,11.9-13,11.9-22.3
		v-59.4c0-29.5-23.9-53.5-53.5-53.5h-6.4h-6.4c-29.5,0-53.5,23.9-53.5,53.5v59.4c0,9.3,4.8,17.5,11.9,22.3v57.2c0,1-0.6,1.9-1.5,2.4
		c-7.3,3.6-40.4,20.3-73.8,45.8c27,30.5,65,50.8,107.9,54.8l8.8-40.2c-25-34.9,1.9-36.6,6.6-36.6h0h0c4.7,0,31.6,1.7,6.6,36.6
		l8.8,40.2C314.3,415.7,352.3,395.3,379.3,364.9z"/>
</g>
</svg>
