<?xml version="1.0" encoding="utf-8"?>
<!-- Generator: Adobe Illustrator 18.0.0, SVG Export Plug-In . SVG Version: 6.00 Build 0)  -->
<!DOCTYPE svg PUBLIC "-//W3C//DTD SVG 1.1//EN" "http://www.w3.org/Graphics/SVG/1.1/DTD/svg11.dtd">
<svg version="1.1" id="Layer_1" xmlns="http://www.w3.org/2000/svg" xmlns:xlink="http://www.w3.org/1999/xlink" x="0px" y="0px"
	 viewBox="0 0 512 512" enable-background="new 0 0 512 512" xml:space="preserve">
<g id="XMLID_4639_">
	<path id="XMLID_4641_" fill="#333333" d="M455.5,213.9c-19,0-35.1,12.6-40.3,30h-36.7c-2.3-24.1-11.5-46.1-25.7-64.2l26.7-26.7
		c15.5,7.2,34.5,4.4,47.3-8.4c16.4-16.4,16.4-43,0-59.4s-43-16.4-59.4,0c-12.8,12.8-15.6,31.8-8.4,47.3L337.5,154l0,0l-5.2,5.2
		c-17.4-13.8-38.6-23-61.8-25.7V96c16.1-5.9,27.6-21.4,27.6-39.5c0-23.2-18.8-42.1-42.1-42.1c-23.2,0-42.1,18.8-42.1,42.1
		c0,18.1,11.5,33.6,27.6,39.5v37.5c-23.2,2.7-44.4,11.9-61.8,25.7l-26.6-26.6c2.5-5.4,3.9-11.3,3.9-17.7c0-23.2-18.8-42.1-42.1-42.1
		c-23.2,0-42.1,18.8-42.1,42.1S91.7,157,114.9,157c6.3,0,12.3-1.4,17.7-3.9l26.6,26.6c-14.2,18-23.4,40.1-25.7,64.2H96
		c-5.9-16.1-21.4-27.5-39.5-27.5c-23.2,0-42.1,18.8-42.1,42.1s18.8,42.1,42.1,42.1c18.1,0,33.6-11.5,39.5-27.6h38.2
		c3.1,22.1,12.1,42.3,25.4,59l-26.9,26.9c-5.4-2.5-11.3-3.9-17.7-3.9c-23.2,0-42.1,18.8-42.1,42.1s18.8,42.1,42.1,42.1
		c23.2,0,42.1-18.8,42.1-42.1c0-6.3-1.4-12.3-3.9-17.7l27-27c17.3,13.6,38.4,22.7,61.4,25.4v8.8V416c-16.1,5.9-27.6,21.4-27.6,39.5
		c0,23.2,18.8,42.1,42.1,42.1c23.2,0,42.1-18.8,42.1-42.1c0-18.1-11.5-33.6-27.6-39.5v-29.3v-8.8c23-2.7,44.1-11.8,61.4-25.4l27,27
		c-2.5,5.4-3.9,11.3-3.9,17.7c0,23.2,18.8,42.1,42.1,42.1s42.1-18.8,42.1-42.1c0-23.2-18.8-42.1-42.1-42.1c-6.3,0-12.3,1.4-17.7,3.9
		L352.5,332c13.2-16.7,22.2-36.9,25.4-59H417c6.5,14.8,21.3,25.1,38.5,25.1c23.2,0,42.1-18.8,42.1-42.1S478.7,213.9,455.5,213.9z
		 M256,353.2c-53.8,0-97.6-43.8-97.6-97.6c0-53.8,43.8-97.6,97.6-97.6s97.6,43.8,97.6,97.6C353.6,309.5,309.8,353.2,256,353.2z"/>
	<path id="XMLID_4640_" fill="#E2574C" d="M277,248.8c-5.9-3.3-12.2-5.8-18.5-8.4c-3.6-1.5-7.1-3.3-10.1-5.7
		c-6-4.8-4.9-12.6,2.2-15.7c2-0.9,4.1-1.2,6.2-1.3c8.2-0.4,15.9,1,23.3,4.6c3.7,1.8,4.9,1.2,6.1-2.6c1.3-4.1,2.4-8.2,3.6-12.3
		c0.8-2.7-0.2-4.6-2.8-5.7c-4.7-2.1-9.6-3.6-14.7-4.4c-6.7-1-6.7-1.1-6.7-7.8c0-9.5,0-9.5-9.5-9.5c-1.4,0-2.8,0-4.1,0
		c-4.4,0.1-5.2,0.9-5.3,5.4c-0.1,2,0,4,0,6c0,5.9-0.1,5.8-5.7,7.9c-13.7,5-22.2,14.3-23.1,29.3c-0.8,13.3,6.1,22.2,17,28.7
		c6.7,4,14.1,6.4,21.2,9.5c2.8,1.2,5.4,2.6,7.8,4.6c6.9,5.6,5.6,15-2.5,18.6c-4.3,1.9-8.9,2.4-13.6,1.8c-7.3-0.9-14.2-2.8-20.8-6.2
		c-3.8-2-5-1.5-6.3,2.7c-1.1,3.6-2.1,7.2-3.1,10.8c-1.3,4.9-0.9,6,3.8,8.3c5.9,2.9,12.3,4.3,18.7,5.4c5.1,0.8,5.2,1,5.3,6.3
		c0,2.4,0,4.8,0.1,7.1c0,3,1.5,4.7,4.6,4.8c3.5,0.1,7,0.1,10.5,0c2.9-0.1,4.3-1.6,4.4-4.5c0-3.3,0.2-6.5,0-9.8
		c-0.1-3.3,1.3-5,4.5-5.9c7.3-2,13.6-5.9,18.4-11.8C301,283,295.9,259.2,277,248.8z"/>
</g>
</svg>
