<?xml version="1.0" encoding="utf-8"?>
<!-- Generator: Adobe Illustrator 18.0.0, SVG Export Plug-In . SVG Version: 6.00 Build 0)  -->
<!DOCTYPE svg PUBLIC "-//W3C//DTD SVG 1.1//EN" "http://www.w3.org/Graphics/SVG/1.1/DTD/svg11.dtd">
<svg version="1.1" id="Layer_1" xmlns="http://www.w3.org/2000/svg" xmlns:xlink="http://www.w3.org/1999/xlink" x="0px" y="0px"
	 viewBox="0 0 512 512" enable-background="new 0 0 512 512" xml:space="preserve">
<g>
	<path id="XMLID_29_" fill="#E2574C" d="M235.1,291.6c7.4-2,13.8-6,18.7-12c13.5-16.4,8.3-40.5-10.8-51.1c-6-3.3-12.4-5.9-18.7-8.5
		c-3.7-1.5-7.2-3.3-10.3-5.8c-6.1-4.9-4.9-12.8,2.2-15.9c2-0.9,4.1-1.2,6.3-1.3c8.3-0.4,16.2,1.1,23.7,4.7c3.7,1.8,5,1.2,6.2-2.6
		c1.3-4.1,2.5-8.3,3.7-12.4c0.8-2.8-0.2-4.6-2.8-5.8c-4.8-2.1-9.7-3.6-14.9-4.5c-6.8-1.1-6.8-1.1-6.8-7.9c0-9.6,0-9.6-9.7-9.6
		c-1.4,0-2.8,0-4.2,0c-4.5,0.1-5.3,0.9-5.4,5.4c-0.1,2,0,4.1,0,6.1c0,6-0.1,5.9-5.8,8c-13.9,5.1-22.5,14.6-23.5,29.8
		c-0.8,13.5,6.2,22.5,17.2,29.1c6.8,4.1,14.3,6.5,21.5,9.7c2.8,1.2,5.5,2.7,7.9,4.6c6.9,5.7,5.7,15.3-2.6,18.9
		c-4.4,1.9-9.1,2.4-13.8,1.8c-7.4-0.9-14.4-2.9-21.1-6.3c-3.9-2-5-1.5-6.4,2.7c-1.1,3.6-2.2,7.3-3.2,11c-1.4,4.9-0.9,6.1,3.8,8.4
		c6,2.9,12.4,4.4,19,5.4c5.1,0.8,5.3,1,5.3,6.4c0,2.4,0,4.8,0.1,7.2c0,3,1.5,4.8,4.6,4.9c3.6,0.1,7.1,0.1,10.7,0
		c2.9-0.1,4.4-1.6,4.4-4.6c0-3.3,0.2-6.6,0-9.9C230.4,294.2,231.8,292.5,235.1,291.6z"/>
	<path fill="#333333" d="M419.9,345.9c-3.2-3.9-4.9-8.7-4.9-13.7v-22.6V295v-31.9l-38.4,36.5v5.5v2.6h0v1.7v24.8H66.9v-29.2V295
		V136.8c0,0,0-0.1,0.1-0.1h182.9l0,0h126.6c0.1,0,0.1,0,0.1,0.1V190l38.4-36.5v-16.6c0-21.3-17.2-38.5-38.5-38.5H232.4l0,0H67
		c-21.3,0-38.5,17.2-38.5,38.5V295v8.5v28.4c0,5-1.7,9.8-4.9,13.7L3.7,369.9c-1.5,1.8-2.3,4.1-2.3,6.5v11.1
		c0,14.4,11.7,26.1,26.1,26.1h388.1c14.4,0,26.1-11.7,26.1-26.1v-11.1c0-2.4-0.8-4.7-2.3-6.5L419.9,345.9z M263.4,375.6
		c0,7.3-5.9,13.3-13.3,13.3h-56.9c-7.3,0-13.3-5.9-13.3-13.3v-2.8h83.4V375.6z"/>
	<g>
		<g>
			<path fill="#333333" d="M466.3,160l-124,117.9c-0.1-0.1-0.2-0.2-0.2-0.3c-2.9-3.1-6.3-5.6-9.8-7.7l125.3-119.1l-8.7-9.2
				L319.7,264.4c-0.7,0.7-1.2,1.5-1.5,2.5l-12.3,43.8c-0.2,0.9,0.5,1.7,1.4,1.5l44.3-10.1c1-0.2,1.8-0.7,2.5-1.4l129.2-122.8
				L466.3,160z"/>
		</g>
		<g>
			<path fill="#333333" d="M478,131.4c2.5-2.4,6.6-2.3,9,0.2c2.4,2.5,2.3,6.6-0.2,9l-8.8,8.4l17,17.8l7.9-7.6
				c10-9.5,10.4-25.4,0.9-35.4c-9.5-10-25.4-10.4-35.4-0.9l-7.9,7.6l8.8,9.2L478,131.4z"/>
		</g>
	</g>
</g>
</svg>
