<?xml version="1.0" encoding="utf-8"?>
<!-- Generator: Adobe Illustrator 18.0.0, SVG Export Plug-In . SVG Version: 6.00 Build 0)  -->
<!DOCTYPE svg PUBLIC "-//W3C//DTD SVG 1.1//EN" "http://www.w3.org/Graphics/SVG/1.1/DTD/svg11.dtd">
<svg version="1.1" id="Layer_1" xmlns="http://www.w3.org/2000/svg" xmlns:xlink="http://www.w3.org/1999/xlink" x="0px" y="0px"
	 viewBox="0 0 512 512" enable-background="new 0 0 512 512" xml:space="preserve">
<g>
	<g>
		<path fill="#E2574C" d="M312,146.2c5.2,4.2,9.8,9,13.9,14.3l19.6-19.6c17.2,10.8,40.2,8.7,55.1-6.2c17.4-17.4,17.4-45.6,0-63
			c-17.4-17.4-45.6-17.4-62.9,0c-14.9,14.9-17,37.9-6.2,55.1L312,146.2z M354.7,88.6c8-8,21.1-8,29.1,0c8,8,8,21.1,0,29.1
			c-8,8-21.1,8-29.1,0C346.6,109.7,346.6,96.6,354.7,88.6z"/>
		<path fill="#E2574C" d="M246,99.6v27.1c3.3-0.4,6.6-0.6,10-0.6c3.4,0,6.7,0.2,10,0.6V99.6c19.8-4.5,34.5-22.3,34.5-43.4
			c0-24.5-20-44.5-44.5-44.5c-24.5,0-44.5,20-44.5,44.5C211.5,77.4,226.3,95.1,246,99.6z M256,35.7c11.4,0,20.6,9.2,20.6,20.6
			c0,11.4-9.2,20.6-20.6,20.6c-11.4,0-20.6-9.2-20.6-20.6C235.4,44.9,244.6,35.7,256,35.7z"/>
		<path fill="#E2574C" d="M416.1,171.9c-21.1,0-38.8,14.8-43.4,34.5h-28.6c0.3,2.7,0.4,5.5,0.4,8.3v11.6h28.2
			c4.5,19.8,22.3,34.5,43.4,34.5c24.5,0,44.5-20,44.5-44.5S440.7,171.9,416.1,171.9z M416.1,237c-11.4,0-20.6-9.2-20.6-20.6
			c0-11.4,9.2-20.6,20.6-20.6s20.6,9.2,20.6,20.6C436.7,227.7,427.5,237,416.1,237z"/>
		<path fill="#E2574C" d="M166.4,140.9l19.6,19.6c4.1-5.3,8.8-10.1,13.9-14.3l-19.5-19.5c10.8-17.2,8.7-40.2-6.2-55.1
			c-17.4-17.4-45.6-17.4-62.9,0c-17.4,17.4-17.4,45.6,0,63C126.2,149.6,149.2,151.6,166.4,140.9z M128.2,88.6c8-8,21.1-8,29.1,0
			c8,8,8,21.1,0,29.1c-8,8-21.1,8-29.1,0C120.2,109.7,120.2,96.6,128.2,88.6z"/>
		<path fill="#E2574C" d="M139.3,226.3h28.2v-11.6c0-2.8,0.1-5.6,0.4-8.3h-28.6c-4.5-19.8-22.3-34.5-43.4-34.5
			c-24.5,0-44.5,20-44.5,44.5s20,44.5,44.5,44.5C117,260.9,134.7,246.1,139.3,226.3z M75.3,216.4c0-11.4,9.2-20.6,20.6-20.6
			c11.4,0,20.6,9.2,20.6,20.6c0,11.4-9.2,20.6-20.6,20.6C84.5,237,75.3,227.7,75.3,216.4z"/>
	</g>
	<g>
		<path fill="#333333" d="M310.3,364.9c0-10.8,0-64.9,0-64.9c8.2-5.4,13.5-14.7,13.5-25.2v-60c0-37.5-30.4-67.8-67.8-67.8h0h0
			c-37.5,0-67.8,30.4-67.8,67.8v60c0,10.5,5.4,19.8,13.5,25.2l0,64.9c0,1.1-0.6,2.2-1.7,2.7c-9.1,4.5-54.2,27.2-95.9,61.5
			c-7.5,6.1-11.7,15.4-11.7,25.1l0,46.1h142.1l14-64.3c-28.4-39.6,2.1-41.5,7.4-41.5h0h0c5.3,0,35.8,1.9,7.4,41.5l14,64.3h142.1
			v-46.1c0-9.7-4.2-18.9-11.7-25.1c-41.7-34.3-86.7-57.1-95.9-61.5C310.9,367.1,310.3,366,310.3,364.9z"/>
	</g>
</g>
</svg>
