<?xml version="1.0" encoding="utf-8"?>
<!-- Generator: Adobe Illustrator 18.0.0, SVG Export Plug-In . SVG Version: 6.00 Build 0)  -->
<!DOCTYPE svg PUBLIC "-//W3C//DTD SVG 1.1//EN" "http://www.w3.org/Graphics/SVG/1.1/DTD/svg11.dtd">
<svg version="1.1" id="Layer_1" xmlns="http://www.w3.org/2000/svg" xmlns:xlink="http://www.w3.org/1999/xlink" x="0px" y="0px"
	 viewBox="0 0 512 512" enable-background="new 0 0 512 512" xml:space="preserve">
<g id="XMLID_4661_">
	<g id="XMLID_4670_">
		<path id="XMLID_4676_" fill="#E2574C" d="M337.3,315.9c33.1,0,59.9-26.8,59.9-59.9c0-33.1-26.8-59.9-59.9-59.9
			c-33.1,0-59.9,26.8-59.9,59.9C277.4,289.1,304.2,315.9,337.3,315.9z M316.4,279.7c0.5-2,1.1-3.9,1.7-5.9c0.7-2.3,1.3-2.5,3.4-1.5
			c3.5,1.8,7.3,2.9,11.3,3.4c2.5,0.3,5,0.1,7.4-1c4.4-1.9,5.1-7,1.4-10.1c-1.3-1-2.7-1.8-4.2-2.5c-3.9-1.7-7.9-3-11.5-5.2
			c-5.9-3.5-9.7-8.4-9.2-15.6c0.5-8.1,5.1-13.2,12.6-15.9c3.1-1.1,3.1-1.1,3.1-4.3c0-1.1,0-2.2,0-3.3c0.1-2.4,0.5-2.8,2.9-2.9
			c0.7,0,1.5,0,2.2,0c5.1,0,5.1,0,5.2,5.1c0,3.6,0,3.7,3.6,4.2c2.8,0.4,5.4,1.3,8,2.4c1.4,0.6,1.9,1.6,1.5,3.1
			c-0.6,2.2-1.2,4.5-2,6.7c-0.7,2.1-1.3,2.4-3.3,1.4c-4-1.9-8.2-2.8-12.7-2.5c-1.2,0.1-2.3,0.2-3.4,0.7c-3.8,1.7-4.5,5.9-1.2,8.5
			c1.6,1.3,3.5,2.3,5.5,3.1c3.4,1.4,6.8,2.8,10,4.5c10.3,5.7,13,18.6,5.8,27.3c-2.6,3.2-6,5.3-10,6.4c-1.7,0.5-2.5,1.4-2.4,3.2
			c0.1,1.8,0,3.5,0,5.3c0,1.6-0.8,2.4-2.4,2.5c-1.9,0-3.8,0-5.7,0c-1.7,0-2.5-1-2.5-2.6c0-1.3,0-2.6,0-3.9c0-2.8-0.1-3-2.9-3.4
			c-3.5-0.6-6.9-1.4-10.2-2.9C315.9,282.9,315.7,282.3,316.4,279.7z"/>
		<circle id="XMLID_4675_" fill="#E2574C" cx="250.2" cy="259" r="16.6"/>
		<circle id="XMLID_4674_" fill="#E2574C" cx="424.4" cy="259" r="16.6"/>
		<path id="XMLID_4671_" fill="#333333" d="M469.5,158.4H208.8c-15.1,0-27.3,12.3-27.3,27.3v140.6c0,15.1,12.3,27.3,27.3,27.3h260.6
			c15.1,0,27.3-12.3,27.3-27.3V185.7C496.8,170.7,484.5,158.4,469.5,158.4z M473.5,298c-1.6-0.3-3.2-0.4-4.9-0.4
			c-15.3,0-27.7,12.4-27.7,27.7c0,1.7,0.2,3.4,0.5,5.1H239.1c0.1-1.1,0.2-2.3,0.2-3.4c0-15.3-12.4-27.7-27.7-27.7
			c-2.4,0-4.7,0.3-6.8,0.9v-84.8c2.2,0.6,4.5,0.9,6.8,0.9c15.3,0,27.7-12.4,27.7-27.7c0-2.3-0.3-4.6-0.8-6.7h202.9
			c-0.3,1.6-0.5,3.3-0.5,5.1c0,15.3,12.4,27.7,27.7,27.7c1.7,0,3.3-0.2,4.9-0.4V298z"/>
	</g>
	<path id="XMLID_4666_" fill="#333333" d="M15.2,399.8v46.5c0,9.7,7.9,17.6,17.6,17.6h81.7c9.7,0,17.6-7.9,17.6-17.6v-46.5
		c0-8.4-5.9-15.4-13.8-17.2c0.2-1.5,0.3-3,0.3-4.6v-24.4c0-20.9-17-37.8-37.8-37.8H66.7c-20.9,0-37.8,17-37.8,37.8v24.4
		c0,1.5,0.1,3.1,0.3,4.5C21.2,384.3,15.2,391.4,15.2,399.8z M79.5,424.8c-0.8,0.6-1,1.2-1,2.1c0,4.2,0,8.3,0,12.5c0,0,0,0,0,0
		c0,2.7-2.2,4.8-4.8,4.8c-2.7,0-4.8-2.2-4.8-4.8c0,0,0,0,0,0c0-4.2,0-8.3,0-12.5c0-0.8-0.2-1.4-0.9-2c-3.8-2.8-5-7.5-3.1-11.7
		c1.6-3.5,5.1-5.8,8.8-5.8c0.6,0,1.2,0.1,1.7,0.2c4.7,0.9,8,4.7,8,9.4C83.5,420.2,82.1,422.9,79.5,424.8z M48.1,353.7
		c0-10.3,8.3-18.6,18.6-18.6h14.1c10.3,0,18.6,8.3,18.6,18.6v24.4c0,1.4-0.2,2.8-0.5,4.2H48.6c-0.3-1.3-0.5-2.7-0.5-4.2V353.7z"/>
	<path id="XMLID_4665_" fill="#333333" d="M305,48.1H152.3c-24.6,0-44.7,20.1-44.7,44.7v209.6c10,5.2,18.2,13.2,23.7,23v-205
		c0-6.3,5.2-11.5,11.5-11.5h171.8c6.3,0,11.5,5.2,11.5,11.5v2v8.6v4h23.7v-4V92.8C349.7,68.2,329.6,48.1,305,48.1z"/>
	<path id="XMLID_4662_" fill="#333333" d="M326,391.6c0,6.3-5.2,11.5-11.5,11.5H152.2v43.3c0,6.3-1.5,12.2-4.3,17.4
		c1.4,0.1,2.9,0.2,4.4,0.2H305c24.6,0,44.7-20.1,44.7-44.7v-42.3H326V391.6z M247.9,445.1h-43.1c-6.4,0-11.6-5.2-11.6-11.6
		s5.2-11.6,11.6-11.6h43.1c6.4,0,11.6,5.2,11.6,11.6S254.3,445.1,247.9,445.1z"/>
</g>
</svg>
