<?xml version="1.0" encoding="utf-8"?>
<!-- Generator: Adobe Illustrator 18.0.0, SVG Export Plug-In . SVG Version: 6.00 Build 0)  -->
<!DOCTYPE svg PUBLIC "-//W3C//DTD SVG 1.1//EN" "http://www.w3.org/Graphics/SVG/1.1/DTD/svg11.dtd">
<svg version="1.1" id="Layer_1" xmlns="http://www.w3.org/2000/svg" xmlns:xlink="http://www.w3.org/1999/xlink" x="0px" y="0px"
	 viewBox="0 0 512 512" enable-background="new 0 0 512 512" xml:space="preserve">
<g id="XMLID_610_">
	<g id="XMLID_638_">
		<path fill="#333333" d="M487.8,430.8c-26.6-21.9-55.3-36.4-61.1-39.2c-0.7-0.3-1.1-1-1.1-1.7v-41.4c5.2-3.5,8.6-9.4,8.6-16.1v-43
			c0-21.4-17.3-38.7-38.7-38.7h-4.6h-4.6c-21.4,0-38.7,17.3-38.7,38.7v43c0,6.7,3.4,12.6,8.6,16.1v41.4c0,0.3-0.1,0.5-0.1,0.7
			c8.2,5.6,16.7,11.8,25,18.7c9.7,8,15.3,19.8,15.3,32.5v34.6h99v-29.4C495.4,440.7,492.6,434.8,487.8,430.8z"/>
	</g>
	<g id="XMLID_632_">
		<path fill="#333333" d="M296.8,374.7V326c6.1-4.1,10.2-11,10.2-18.9v-50.5c0-25.1-20.4-45.5-45.5-45.5H256h-5.4
			c-25.1,0-45.5,20.4-45.5,45.5v50.5c0,7.9,4,14.9,10.2,18.9v48.7c0,0.9-0.5,1.6-1.3,2c-6.9,3.4-40.6,20.4-71.9,46.1
			c-5.7,4.6-8.9,11.6-8.9,18.9v34.6H256h122.8v-34.6c0-7.3-3.2-14.3-8.9-18.9c-31.3-25.7-65-42.8-71.9-46.1
			C297.2,376.4,296.8,375.6,296.8,374.7z"/>
	</g>
	<g id="XMLID_614_">
		<path fill="#333333" d="M24.2,430.8c26.6-21.9,55.3-36.4,61.1-39.2c0.7-0.3,1.1-1,1.1-1.7v-41.4c-5.2-3.5-8.6-9.4-8.6-16.1v-43
			c0-21.4,17.3-38.7,38.7-38.7h4.6h4.6c21.4,0,38.7,17.3,38.7,38.7v43c0,6.7-3.4,12.6-8.6,16.1v41.4c0,0.3,0.1,0.5,0.1,0.7
			c-8.2,5.6-16.7,11.8-25,18.7c-9.7,8-15.3,19.8-15.3,32.5v34.6h-99v-29.4C16.6,440.7,19.4,434.8,24.2,430.8z"/>
	</g>
	<g id="XMLID_611_">
		<g>
			<path fill="#E2574C" d="M341.3,183.7c-3.4,7.2-9.1,16.1-18.2,20.6c-3,1.5-2.3,6,1,6.5c10,1.6,24.3-0.2,37.7-10.3l0.2,0.2
				c34,20,78.4,15.4,107.5-13.8c34.6-34.6,34.6-90.7,0-125.3c-34.6-34.6-90.7-34.6-125.3,0c-33.3,33.3-34.6,86.5-3.7,121.3
				L341.3,183.7z M378.1,156.8c0.7-2.7,1.5-5.4,2.3-8.1c1-3.1,1.8-3.5,4.7-2c4.9,2.5,10.1,4,15.5,4.6c3.5,0.4,6.9,0.1,10.2-1.3
				c6-2.6,7-9.7,1.9-13.9c-1.7-1.4-3.7-2.5-5.8-3.4c-5.3-2.3-10.8-4.1-15.8-7.1c-8.1-4.9-13.3-11.5-12.7-21.4
				c0.7-11.2,7-18.1,17.2-21.9c4.2-1.5,4.2-1.5,4.3-5.9c0-1.5,0-3,0-4.5c0.1-3.3,0.7-3.9,4-4c1,0,2.1,0,3.1,0c7.1,0,7.1,0,7.1,7.1
				c0,5,0,5,5,5.8c3.8,0.6,7.5,1.7,11,3.3c1.9,0.9,2.7,2.2,2.1,4.3c-0.9,3.1-1.7,6.1-2.7,9.1c-0.9,2.9-1.8,3.3-4.6,1.9
				c-5.5-2.7-11.3-3.8-17.4-3.5c-1.6,0.1-3.2,0.3-4.6,0.9c-5.3,2.3-6.1,8.1-1.6,11.7c2.3,1.8,4.9,3.1,7.6,4.2
				c4.7,1.9,9.4,3.8,13.8,6.2c14.1,7.8,17.9,25.5,8,37.6c-3.6,4.4-8.3,7.3-13.7,8.8c-2.4,0.7-3.4,1.9-3.3,4.4c0.1,2.4,0,4.9,0,7.3
				c0,2.2-1.1,3.3-3.2,3.4c-2.6,0.1-5.2,0.1-7.8,0c-2.3,0-3.4-1.3-3.4-3.6c0-1.8,0-3.6,0-5.3c0-3.9-0.2-4.1-3.9-4.7
				c-4.8-0.8-9.5-1.9-14-4C377.4,161.3,377.1,160.4,378.1,156.8z"/>
		</g>
	</g>
</g>
</svg>
