<?xml version="1.0" encoding="utf-8"?>
<!-- Generator: Adobe Illustrator 18.0.0, SVG Export Plug-In . SVG Version: 6.00 Build 0)  -->
<!DOCTYPE svg PUBLIC "-//W3C//DTD SVG 1.1//EN" "http://www.w3.org/Graphics/SVG/1.1/DTD/svg11.dtd">
<svg version="1.1" id="Layer_1" xmlns="http://www.w3.org/2000/svg" xmlns:xlink="http://www.w3.org/1999/xlink" x="0px" y="0px"
	 viewBox="0 0 512 512" enable-background="new 0 0 512 512" xml:space="preserve">
<g>
	<path fill="#333333" d="M206.3,338.1h-46.8c-5.6,0-10.1,4.5-10.1,10.1v19.5v85.5v19.5c0,5.6,4.5,10.1,10.1,10.1h46.8
		c5.6,0,10.1-4.5,10.1-10.1v-19.5v-85.5v-19.5C216.4,342.6,211.9,338.1,206.3,338.1z"/>
	<path fill="#333333" d="M301,282.1h-46.8c-5.6,0-10.1,4.5-10.1,10.1v75.5v29.5v75.5c0,5.6,4.5,10.1,10.1,10.1H301
		c5.6,0,10.1-4.5,10.1-10.1v-75.5v-29.5v-75.5C311.1,286.6,306.5,282.1,301,282.1z"/>
	<path fill="#333333" d="M111.7,384.1H64.9c-5.6,0-10.1,4.5-10.1,10.1v59v19.5c0,5.6,4.5,10.1,10.1,10.1h46.8
		c5.6,0,10.1-4.5,10.1-10.1v-19.5v-59C121.8,388.6,117.3,384.1,111.7,384.1z"/>
	<path fill="#333333" d="M134.3,108.3L134.3,108.3c0.1,0,0.1,0,0.2,0.1c0.1,0,0.1,0,0.2,0l0,0c28.7,7,34.3-32.3,34.3-32.3
		c5.4-25.8-16.1-31.1-18.2-31.5c-2.1-0.6-23.4-6.3-31.1,19C119.6,63.5,105.7,100.6,134.3,108.3z"/>
	<path fill="#333333" d="M91.2,247.3l-3.9,33.4c-0.6,5.4-2.5,10.5-5.6,14.9l-24.7,36c-3.3,4.3-3.4,10.3-0.2,14.7
		c4.6,6.2,13.6,6.7,18.9,1l36.4-41.4c4.4-5.1,7.6-11.1,9.1-17.7l6.7-29.2l-9.2-3C109.8,253.1,100.6,250.2,91.2,247.3z"/>
	<path fill="#333333" d="M203.6,236.7c-2-4.6-5.7-8.3-10.3-10.2l-28-11.7l-17.4-6.2L157,168l12.4,11.1c2.9,2.6,6.7,4,10.5,3.8
		l65.5-2.3c7-0.3,12-7.1,9.8-13.9c-1.4-4.4-5.7-7.3-10.3-7.5l-56.5-2.7l-2.6-2.6c-8.6-8.1-16.5-20.2-25-28.4
		c-3.5-3.4-7.6-5.8-12.1-7.6l-9.7,20.8l-2.4-9.8c10.8-12.2,0.7-13.9-1.1-14.1c0,0,0,0,0,0c0,0,0,0,0,0c0,0,0,0,0,0c0,0,0,0,0,0
		c-1.8-0.2-12-0.6-3.9,13.6l-2.7,6.9l-8.3-23.2c-1.5-2.9-4.2-5-7.3-5.8c-4.4-1.1-8.9-1.9-13.5-1.9c-2.6,0-5.2-0.1-7.8,0.8L78.5,110
		l-21.6,9c-3.6,1.5-6.4,4.3-8,7.9l-21.8,51.8c-2.7,6.2,0.9,13.3,7.5,14.7c4.7,1,9.5-1.2,11.7-5.4l22.8-42l16.7-6.1l-1.1,6L76,194.2
		c-5.1,27.7,14.1,37.3,17.7,38.5c13.1,3.9,26.1,8.3,39.1,12.4l44.6,16.3l25.7,45.4c2.9,5.5,9.1,8.3,15.2,7
		c8.5-1.9,13.2-11.1,9.8-19.1L203.6,236.7z"/>
	<path fill="#333333" d="M395.6,237.7h-46.8c-5.6,0-10.1,4.5-10.1,10.1v44.3v31.1v29.5v14.8v29.5v31.1v44.3
		c0,5.6,4.5,10.1,10.1,10.1h46.8c5.6,0,10.1-4.5,10.1-10.1v-44.3v-31.1v-29.5v-14.8v-29.5v-31.1v-44.3
		C405.7,242.3,401.2,237.7,395.6,237.7z"/>
	<path fill="#E2574C" d="M455.1,93.5l30.1-30.9c1.3-1.3,0.4-3.6-1.5-3.6h-46.1v-3.8c0-7.1-5.8-12.9-12.9-12.9h-44.2V38h-0.1
		c0.3-2,0.1-4.3-3.2-7.1c-1.1-0.9-2.4-1.6-3.8-1.6c-4.3-0.2-7.8,3.2-7.8,7.4c0,0.4,0,0.8,0.1,1.3h-0.1v181.7h14.9V111.3h31.1v0h26.6
		l-22,5.5c-2.7,0.7-4.7,3.2-4.7,6v5.2h72c1.9,0,2.8-2.3,1.5-3.6L455.1,93.5z"/>
</g>
</svg>
