<?xml version="1.0" encoding="utf-8"?>
<!-- Generator: Adobe Illustrator 18.0.0, SVG Export Plug-In . SVG Version: 6.00 Build 0)  -->
<!DOCTYPE svg PUBLIC "-//W3C//DTD SVG 1.1//EN" "http://www.w3.org/Graphics/SVG/1.1/DTD/svg11.dtd">
<svg version="1.1" id="Layer_1" xmlns="http://www.w3.org/2000/svg" xmlns:xlink="http://www.w3.org/1999/xlink" x="0px" y="0px"
	 viewBox="0 0 512 512" enable-background="new 0 0 512 512" xml:space="preserve">
<g>
	<polygon fill="#E2574C" points="336.9,377.3 267.9,337.7 267.9,257.9 244.1,257.9 244.1,337.1 175.1,377.3 187.1,397.9 255.5,358 
		324.9,397.9 	"/>
	<path fill="#333333" d="M268.6,224.1h83.1v-27c0-5.7-2.5-11.1-6.9-14.7c-24.4-20-50.7-33.3-56-35.9c-0.6-0.3-1-0.9-1-1.6v-38
		c4.8-3.2,7.9-8.6,7.9-14.8V52.8c0-19.6-15.9-35.5-35.5-35.5H256h-4.2c-19.6,0-35.5,15.9-35.5,35.5v39.4c0,6.2,3.2,11.6,7.9,14.8v38
		c0,0.7-0.4,1.3-1,1.6c-5.4,2.6-31.6,15.9-56,35.9c-4.4,3.6-6.9,9-6.9,14.7v27h83.1H268.6z"/>
	<path fill="#333333" d="M418.8,494.7H502v-27c0-5.7-2.5-11.1-6.9-14.7c-24.4-20-50.7-33.3-56-35.9c-0.6-0.3-1-0.9-1-1.6v-38
		c4.8-3.2,7.9-8.6,7.9-14.8v-39.4c0-19.6-15.9-35.5-35.5-35.5h-4.2H402c-19.6,0-35.5,15.9-35.5,35.5v39.4c0,6.2,3.2,11.6,7.9,14.8
		v38c0,0.7-0.4,1.3-1,1.6c-5.4,2.6-31.6,15.9-56,35.9c-4.4,3.6-6.9,9-6.9,14.7v27h83.1H418.8z"/>
	<path fill="#333333" d="M118.3,494.7h83.1v-27c0-5.7-2.5-11.1-6.9-14.7c-24.4-20-50.7-33.3-56-35.9c-0.6-0.3-1-0.9-1-1.6v-38
		c4.8-3.2,7.9-8.6,7.9-14.8v-39.4c0-19.6-15.9-35.5-35.5-35.5h-4.2h-4.2c-19.6,0-35.5,15.9-35.5,35.5v39.4c0,6.2,3.2,11.6,7.9,14.8
		v38c0,0.7-0.4,1.3-1,1.6c-5.4,2.6-31.6,15.9-56,35.9c-4.4,3.6-6.9,9-6.9,14.7v27h83.1H118.3z"/>
</g>
</svg>
