<?xml version="1.0" encoding="utf-8"?>
<!-- Generator: Adobe Illustrator 18.0.0, SVG Export Plug-In . SVG Version: 6.00 Build 0)  -->
<!DOCTYPE svg PUBLIC "-//W3C//DTD SVG 1.1//EN" "http://www.w3.org/Graphics/SVG/1.1/DTD/svg11.dtd">
<svg version="1.1" id="Layer_1" xmlns="http://www.w3.org/2000/svg" xmlns:xlink="http://www.w3.org/1999/xlink" x="0px" y="0px"
	 viewBox="0 0 512 512" enable-background="new 0 0 512 512" xml:space="preserve">
<g id="XMLID_2293_">
	<path id="XMLID_2308_" fill="#333333" d="M444,382.3c-3.3-4-5.1-9.1-5.1-14.3v-23.6v-15.1v-43.7c-12.7,4.2-26.2,6.4-40,6.4v37.3
		v15.1v25.9H76.1v-30.4v-10.6V164.4c0,0,0-0.1,0.1-0.1h195.1c0-13.5,2.1-27.1,6.4-40H76.2c-22.2,0-40.1,18-40.1,40.1v164.8v8.8v29.5
		c0,5.2-1.8,10.3-5.1,14.3l-20.7,25.4c-1.6,1.9-2.4,4.3-2.4,6.8v11.6c0,15,12.2,27.2,27.2,27.2h404.5c15,0,27.2-12.2,27.2-27.2
		v-11.6c0-2.5-0.9-4.9-2.4-6.8L444,382.3z M281,413.2c0,7.6-6.2,13.8-13.8,13.8h-59.3c-7.6,0-13.8-6.2-13.8-13.8v-3h87V413.2z"/>
	<g id="XMLID_2294_">
		<g>
			<g id="XMLID_148_">
				<circle fill="#E2574C" cx="398.9" cy="164.3" r="34.1"/>
			</g>
			<g id="XMLID_145_">
				<g>
					<path fill="#E2574C" d="M473.3,89.9c-41.1-41.1-107.7-41.1-148.8,0c-39.6,39.6-41,102.8-4.4,144.1l1.1,0.9
						c-4,8.6-10.8,19.2-21.7,24.5c-3.6,1.8-2.8,7.1,1.2,7.7c11.9,1.9,28.9-0.2,44.7-12.2l0.2,0.2c40.3,23.7,93.1,18.3,127.7-16.4
						C514.4,197.6,514.4,131,473.3,89.9z M470.4,177.6l-10-0.2c-1.7,8.3-5.1,16.3-10.2,23.4l6.9,7.2c2.5,2.6,2.4,6.8-0.2,9.4
						l-7.4,7.1c-2.6,2.5-6.8,2.4-9.4-0.2l-6.8-7.1c-7.4,4.8-15.5,8-23.9,9.4l-0.2,9.8c-0.1,3.7-3.1,6.6-6.8,6.5l-10.2-0.2
						c-3.7-0.1-6.6-3.1-6.5-6.8l0.2-9.7c-8.4-1.7-16.4-5.2-23.6-10.3l-7,6.7c-2.6,2.5-6.8,2.4-9.4-0.2l-7.1-7.4
						c-2.5-2.6-2.4-6.8,0.2-9.4l7-6.7c-4.8-7.4-7.9-15.6-9.3-24l-9.7-0.2c-3.7-0.1-6.6-3.1-6.5-6.8l0.2-10.2
						c0.1-3.7,3.1-6.6,6.8-6.5l9.8,0.2c1.8-8.3,5.2-16.3,10.4-23.5l-6.8-7.1c-2.5-2.6-2.4-6.8,0.2-9.4l7.4-7.1
						c2.6-2.5,6.8-2.4,9.4,0.2l6.9,7.2c7.4-4.8,15.5-7.8,23.9-9.2l0.2-10c0.1-3.7,3.1-6.6,6.8-6.5l10.2,0.2c3.7,0.1,6.6,3.1,6.5,6.8
						l-0.2,10.1c8.2,1.8,16.2,5.2,23.3,10.3l7.3-7c2.6-2.5,6.8-2.4,9.4,0.2l7.1,7.4c2.5,2.6,2.4,6.8-0.2,9.4l-7.3,7
						c4.8,7.3,7.9,15.4,9.3,23.7l10.1,0.2c3.7,0.1,6.6,3.1,6.5,6.8l-0.2,10.2C477.1,174.8,474,177.7,470.4,177.6z"/>
				</g>
			</g>
		</g>
	</g>
</g>
</svg>
