<?xml version="1.0" encoding="utf-8"?>
<!-- Generator: Adobe Illustrator 18.0.0, SVG Export Plug-In . SVG Version: 6.00 Build 0)  -->
<!DOCTYPE svg PUBLIC "-//W3C//DTD SVG 1.1//EN" "http://www.w3.org/Graphics/SVG/1.1/DTD/svg11.dtd">
<svg version="1.1" id="Layer_1" xmlns="http://www.w3.org/2000/svg" xmlns:xlink="http://www.w3.org/1999/xlink" x="0px" y="0px"
	 viewBox="0 0 512 512" enable-background="new 0 0 512 512" xml:space="preserve">
<g>
	<path id="XMLID_697_" fill="#333333" d="M284.7,332.2c-8.7,0-16.6,3.9-21.9,10.1c-5.3-6.2-13.1-10.1-21.9-10.1
		c-15.9,0-28.8,12.9-28.8,28.8c0,15.9,12.9,28.8,28.8,28.8c8.7,0,16.6-3.9,21.9-10.1c5.3,6.2,13.1,10.1,21.9,10.1
		c15.9,0,28.8-12.9,28.8-28.8S300.6,332.2,284.7,332.2z"/>
	<path fill="#E2574C" d="M470.3,193.4L244.2,81.7c-22-10.9-48.7-1.8-59.6,20.2l-29.2,59.2h158.2c38.4,0,69.6,31.2,69.6,69.6v159.8
		c0,10.9-2.6,21.2-7.1,30.4c17.6,1.4,35.3-7.8,43.6-24.6L490.5,253C501.3,231,492.3,204.3,470.3,193.4z"/>
	<g id="XMLID_3652_">
		<path fill="#333333" d="M16.9,230.6v159.8c0,24.4,20.1,44.5,44.5,44.5h252.2c24.4,0,44.5-20.1,44.5-44.5V230.6
			c0-24.4-20.1-44.5-44.5-44.5H61.4C37,186.2,16.9,206.1,16.9,230.6z M40.9,278.5h289.3v112.4c0,8.8-7.3,16.1-16.1,16.1H57
			c-8.9,0-16.1-7.3-16.1-16.1V278.5z M40.9,230.1c0-8.9,7.3-16.1,16.1-16.1h257.1c8.9,0,16.1,7.3,16.1,16.1v6.1H40.9V230.1z"/>
	</g>
</g>
</svg>
