<?xml version="1.0" encoding="utf-8"?>
<!-- Generator: Adobe Illustrator 18.0.0, SVG Export Plug-In . SVG Version: 6.00 Build 0)  -->
<!DOCTYPE svg PUBLIC "-//W3C//DTD SVG 1.1//EN" "http://www.w3.org/Graphics/SVG/1.1/DTD/svg11.dtd">
<svg version="1.1" id="Layer_1" xmlns="http://www.w3.org/2000/svg" xmlns:xlink="http://www.w3.org/1999/xlink" x="0px" y="0px"
	 viewBox="0 0 512 512" enable-background="new 0 0 512 512" xml:space="preserve">
<g>
	<path fill="#333333" d="M403.5,434.3c-90,90-235.8,90-325.8,0s-90-235.8,0-325.8c79-79,201.2-88.6,290.7-28.8L332,116
		c-69.1-40.7-159.5-31.4-218.8,27.9c-70.4,70.4-70.4,184.5,0,254.9s184.5,70.4,254.9,0c59.3-59.3,68.7-149.8,27.9-218.8l36.4-36.4
		C492.2,233.1,482.5,355.3,403.5,434.3z"/>
	<path fill="#333333" d="M363.8,212.2l-35.6,35.6c8.1,30.3,0.3,64-23.4,87.7c-35.4,35.4-92.9,35.4-128.3,0s-35.4-92.9,0-128.3
		c23.8-23.8,57.4-31.6,87.7-23.4l35.6-35.6C249,123.8,186.2,132.6,144,174.8c-53.4,53.4-53.4,139.8,0,193.2s139.8,53.4,193.2,0
		C379.4,325.8,388.2,263,363.8,212.2z"/>
	<path fill="#E2574C" d="M456.6,55.4l-6-45.1l-59.7,59.7l3,22.6L258.6,227.8c-17.1-7-37.4-3.6-51.3,10.2
		c-18.4,18.4-18.4,48.3,0,66.7c18.4,18.4,48.3,18.4,66.7,0c13.9-13.9,17.3-34.2,10.2-51.3l135.3-135.3l22.6,3l59.7-59.7L456.6,55.4z
		"/>
	<rect x="335.5" y="150.4" fill="#333333" width="0" height="0"/>
</g>
</svg>
