<?xml version="1.0" encoding="utf-8"?>
<!-- Generator: Adobe Illustrator 18.0.0, SVG Export Plug-In . SVG Version: 6.00 Build 0)  -->
<!DOCTYPE svg PUBLIC "-//W3C//DTD SVG 1.1//EN" "http://www.w3.org/Graphics/SVG/1.1/DTD/svg11.dtd">
<svg version="1.1" id="Layer_1" xmlns="http://www.w3.org/2000/svg" xmlns:xlink="http://www.w3.org/1999/xlink" x="0px" y="0px"
	 viewBox="0 0 512 512" enable-background="new 0 0 512 512" xml:space="preserve">
<g>
	<g>
		<path fill="#333333" d="M420.9,181.3l-0.2,0.2l-19.9,19.9l-0.1-0.1L360.1,242c-1.9,1.9-3.4,3.4-3.8,3.8c0.1-0.1,0.2-0.2,0.3-0.3
			c-0.2,0.3-0.5,0.5-0.8,0.8l-0.4,0.4V419v16c0,5.1,4.1,9.2,9.2,9.2h47.5c5.1,0,9.2-4.1,9.2-9.2v-18.8c0-0.4,0-0.8-0.1-1.2
			L420.9,181.3z"/>
	</g>
	<g>
		<path fill="#333333" d="M420.9,181.3l-0.2,0.2l-19.9,19.9l-0.1-0.1L360.1,242c-1.9,1.9-3.4,3.4-3.8,3.8c0.1-0.1,0.2-0.2,0.3-0.3
			c-0.2,0.3-0.5,0.5-0.8,0.8l-0.4,0.4V419v16c0,5.1,4.1,9.2,9.2,9.2h47.5c5.1,0,9.2-4.1,9.2-9.2v-18.8c0-0.4,0-0.8-0.1-1.2
			L420.9,181.3z"/>
	</g>
	<path fill="#333333" d="M274.1,328c-1.4,1.4-2.8,2.6-4.4,3.7v84.6v0V435c0,5.1,4.1,9.2,9.2,9.2h47.5c5.1,0,9.2-4.1,9.2-9.2v-18.8v0
		V266.4L274.1,328z"/>
	<path fill="#333333" d="M226.4,328l-26.5-26.5l-15.8,15.8v98.9v0V435c0,5.1,4.1,9.2,9.2,9.2h47.5c5.1,0,9.2-4.1,9.2-9.2v-18.8v0
		v-78.4C241.1,337.8,232.7,334.3,226.4,328z"/>
	<g>
		<path fill="#333333" d="M117,384.3c-0.2,0.2-1.4,1.3-3.2,3.2l-15.3,15.3v13.4v0V435c0,5.1,4.1,9.2,9.2,9.2h47.5
			c5.1,0,9.2-4.1,9.2-9.2v-18.8v0v-79.2l-42.6,42.6c-1.2,1.2-2.2,2.2-3,3"/>
	</g>
	<path fill="#E2574C" d="M473.1,70.7c-1.9-2.4-5.2-2.9-7.5-2.9c-1.4,0-2.9,0.2-4.6,0.5l-87.9,19.1c-5.6,1.2-8.1,3.4-8.5,4.9
		c-0.4,1.5,0.5,4.7,4.5,8.7l21.1,21c-0.4,0.3-0.9,0.7-1.3,1.1l-35.5,35.5l-90.8,90.8L251,261l-41.6-41.6c-3.7-3.7-9.6-3.7-13.3,0
		l-3.6,3.6l-13.7,13.7L66.2,349.2l0,0l-26.5,26.5c-2.1,2.1-3,5.1-2.7,7.9c-0.3,1.7,0.2,3.6,1.5,4.9l15.7,15.7c0.6,0.6,1.2,1,1.9,1.2
		l0.8,0.8c3.7,3.7,9.6,3.7,13.3,0l126.3-126.3l0,0l6.2-6.2l22.7,22.7c0.3,0.3,0.6,0.5,0.9,0.8c0.2,0.3,0.5,0.6,0.8,0.9l17.2,17.2
		c3.7,3.7,9.6,3.7,13.3,0l35.5-35.5l90.8-90.8l29.6-29.6l0.1,0.1l7.1-7.1l21.1,21.1c4.3,4.3,7.2,4.6,8,4.6c2.8,0,4.8-4.6,5.7-8.6
		l19.1-87.8C475.5,77,475,73,473.1,70.7z"/>
</g>
</svg>
