<?xml version="1.0" encoding="utf-8"?>
<!-- Generator: Adobe Illustrator 18.0.0, SVG Export Plug-In . SVG Version: 6.00 Build 0)  -->
<!DOCTYPE svg PUBLIC "-//W3C//DTD SVG 1.1//EN" "http://www.w3.org/Graphics/SVG/1.1/DTD/svg11.dtd">
<svg version="1.1" id="Layer_1" xmlns="http://www.w3.org/2000/svg" xmlns:xlink="http://www.w3.org/1999/xlink" x="0px" y="0px"
	 viewBox="0 0 512 512" enable-background="new 0 0 512 512" xml:space="preserve">
<g id="XMLID_1945_">
	<path id="XMLID_2281_" fill="#E2574C" d="M175.9,337.9c-6.4-9.3-9.9-20.3-9.9-31.9v-16.3c-12-10.1-22.4-22.2-30.5-35.9H166v-6.9
		c0-9.7,1.7-19.1,4.8-27.8h-50c-3.2-11.9-4.8-24.1-4.8-36.5c0-12.5,1.6-24.8,4.9-36.8H172c-1.7,12.8-2.5,25.7-2.5,38.6
		c0,11.1,0.6,22.3,1.9,33.3c6.3-16.8,18-31.1,32.9-40.7c0.3-10.4,1.2-20.9,2.8-31.2h97.6c1.4,10.3,2.2,20.9,2.3,31.4
		c14.6,9.5,26.1,23.5,32.5,40c1.5-12.1,2.3-24.3,2.3-36.4c0-11.6-0.7-23.4-2.1-34.9h51.5c3.3,11.9,4.9,24.3,4.9,36.8
		c0,12.4-1.6,24.7-4.8,36.5h-51c3.1,8.7,4.8,18,4.8,27.8v6.9h31.5c-8.4,14.1-19.1,26.5-31.5,36.8V306c0,11.9-3.7,23.3-10.5,32.8
		c16.4-8.3,31.6-19.2,45-32.6c33-33,51.2-76.9,51.2-123.5c0-46.7-18.2-90.5-51.2-123.5C346.5,26,302.7,7.9,256,7.9
		S165.5,26,132.5,59c-33,33-51.2,76.9-51.2,123.5c0,46.7,18.2,90.5,51.2,123.5C145.4,319.1,160.1,329.7,175.9,337.9z M376.3,111.1
		h-43c-4.8-19.4-11.5-38.3-20.2-56.3C339.4,66.6,361.5,86.3,376.3,111.1z M246.7,42.9c6.6-0.4,13.3-0.4,20.2,0.1
		c13.5,21.1,23.7,44,30.5,68.1h-82.6C222,86.9,232.7,64,246.7,42.9z M200.1,54.2c-9.1,18.2-16.3,37.2-21.3,56.9h-43.1
		C150.7,85.8,173.3,66,200.1,54.2z"/>
	<g id="XMLID_2022_">
		<path fill="#333333" d="M303.2,385.2v-57c7.2-4.8,11.9-12.9,11.9-22.2v-59.1c0-29.4-23.8-53.2-53.2-53.2h-6.4h-6.4
			c-29.4,0-53.2,23.8-53.2,53.2V306c0,9.3,4.7,17.4,11.9,22.2v57c0,1-0.6,1.9-1.5,2.4c-8,3.9-47.5,23.9-84.1,54
			c-6.6,5.4-10.4,13.6-10.4,22.1v40.5h143.7h143.7v-40.5c0-8.6-3.8-16.7-10.4-22.1c-36.6-30.1-76.1-50-84.1-54
			C303.8,387.1,303.2,386.2,303.2,385.2z"/>
	</g>
</g>
</svg>
