<?xml version="1.0" encoding="utf-8"?>
<!-- Generator: Adobe Illustrator 18.0.0, SVG Export Plug-In . SVG Version: 6.00 Build 0)  -->
<!DOCTYPE svg PUBLIC "-//W3C//DTD SVG 1.1//EN" "http://www.w3.org/Graphics/SVG/1.1/DTD/svg11.dtd">
<svg version="1.1" id="Layer_1" xmlns="http://www.w3.org/2000/svg" xmlns:xlink="http://www.w3.org/1999/xlink" x="0px" y="0px"
	 viewBox="0 0 512 512" enable-background="new 0 0 512 512" xml:space="preserve">
<g>
	<path fill="#E2574C" d="M315.1,391.7l-12.5-0.1c-1.9-9.6-5.6-18.9-11.1-27.3l8.8-8.8c3.2-3.1,3.2-8.2,0.1-11.4l-9.5-9.6
		c-3.1-3.2-8.2-3.2-11.4-0.1l-8.8,8.8c-8.4-5.7-17.6-9.5-27.2-11.4l0.1-12.5c0-4.5-3.6-8.1-8-8.1l-13.6-0.1c-4.5,0-8.1,3.6-8.1,8
		l-0.1,12.5c-9.6,1.9-18.9,5.6-27.3,11.1l-8.8-8.9c-3.1-3.2-8.2-3.2-11.4-0.1l-9.6,9.5c-3.2,3.1-3.2,8.2-0.1,11.4l8.8,8.9
		c-5.7,8.4-9.5,17.6-11.4,27.2l-12.5-0.1c-4.5,0-8.1,3.6-8.1,8l-0.1,13.6c0,4.5,3.6,8.1,8,8.1l12.5,0.1c1.9,9.6,5.6,18.9,11.1,27.3
		l-8.8,8.8c-3.2,3.1-3.2,8.2-0.1,11.4l9.5,9.6c3.1,3.2,8.2,3.2,11.4,0.1l8.8-8.8c8.4,5.7,17.6,9.5,27.2,11.4l-0.1,12.5
		c0,4.5,3.6,8.1,8,8.1l13.6,0.1c4.5,0,8.1-3.6,8.1-8l0.1-12.5c9.6-1.9,18.9-5.6,27.3-11.1l8.8,8.8c3.1,3.2,8.2,3.2,11.4,0.1l9.6-9.5
		c3.2-3.1,3.2-8.2,0.1-11.4l-8.8-8.8c5.7-8.4,9.5-17.6,11.4-27.2l12.5,0.1c4.5,0,8.1-3.6,8.1-8l0.1-13.6
		C323.2,395.4,319.6,391.7,315.1,391.7z M253.6,431.7c-14.2,14-37,13.9-51.1-0.3c-14-14.2-13.9-37,0.3-51.1
		c14.2-14,37-13.9,51.1,0.3C267.9,394.9,267.8,417.7,253.6,431.7z"/>
	<path fill="#333333" d="M454.9,425l-7.9-3.6c1.6-6.8,1.8-13.8,0.7-20.5l8.1-3c2.9-1.1,4.4-4.3,3.3-7.2l-3.3-8.8
		c-1.1-2.9-4.3-4.4-7.2-3.3l-8.1,3c-3.6-5.8-8.3-10.9-14-15l3.6-7.9c1.3-2.8,0-6.1-2.8-7.4l-8.6-3.9c-2.8-1.3-6.1,0-7.4,2.8
		l-3.6,7.9c-6.8-1.6-13.8-1.8-20.5-0.7l-3-8.1c-1.1-2.9-4.3-4.4-7.2-3.3l-8.8,3.3c-2.9,1.1-4.4,4.3-3.3,7.2l3,8.1
		c-5.8,3.6-10.9,8.3-15,14l-7.9-3.6c-2.8-1.3-6.1,0-7.4,2.8l-3.9,8.6c-1.3,2.8,0,6.1,2.8,7.4l7.9,3.6c-1.6,6.8-1.8,13.8-0.7,20.5
		l-8.1,3c-2.9,1.1-4.4,4.3-3.3,7.2l3.3,8.8c1.1,2.9,4.3,4.4,7.2,3.3l8.1-3c3.6,5.8,8.3,10.9,14,15l-3.6,7.9c-1.3,2.8,0,6.1,2.8,7.4
		l8.6,3.9c2.8,1.3,6.1,0,7.4-2.8l3.6-7.9c6.8,1.6,13.8,1.8,20.5,0.7l3,8.1c1.1,2.9,4.3,4.4,7.2,3.3l8.8-3.3c2.9-1.1,4.4-4.3,3.3-7.2
		l-3-8.1c5.8-3.6,10.9-8.3,15-14l7.9,3.6c2.8,1.3,6.1,0,7.4-2.8l3.9-8.6C459,429.6,457.7,426.3,454.9,425z M418.5,419.8
		c-5.7,12.6-20.6,18.2-33.2,12.5s-18.2-20.6-12.5-33.2c5.7-12.6,20.6-18.2,33.2-12.5C418.7,392.3,424.3,407.2,418.5,419.8z"/>
	<path fill="#333333" d="M141.9,331.3l-2-8.4c6.2-2.8,11.9-6.9,16.6-12l7.4,4.5c2.6,1.6,6.1,0.8,7.7-1.8l5-8
		c1.6-2.6,0.8-6.1-1.8-7.7l-7.4-4.5c2.5-6.6,3.5-13.5,3.3-20.3l8.4-2c3-0.7,4.9-3.7,4.2-6.7l-2.2-9.2c-0.7-3-3.7-4.9-6.7-4.2l-8.4,2
		c-2.8-6.2-6.8-11.9-12-16.6l4.5-7.4c1.6-2.6,0.8-6.1-1.8-7.7l-8-5c-2.6-1.6-6.1-0.8-7.7,1.8l-4.5,7.4c-6.6-2.5-13.5-3.5-20.3-3.3
		l-2-8.4c-0.7-3-3.7-4.9-6.7-4.2l-9.2,2.2c-3,0.7-4.9,3.7-4.2,6.7l2,8.4c-6.2,2.8-11.9,6.9-16.6,12l-7.4-4.5
		c-2.6-1.6-6.1-0.8-7.7,1.8l-5,8c-1.6,2.6-0.8,6.1,1.8,7.7l7.4,4.5c-2.5,6.6-3.5,13.5-3.3,20.3l-8.4,2c-3,0.7-4.9,3.7-4.2,6.7
		l2.2,9.2c0.7,3,3.7,4.9,6.7,4.2l8.4-2c2.8,6.2,6.8,11.9,12,16.6l-4.5,7.4c-1.6,2.6-0.8,6.1,1.8,7.7l8,5c2.6,1.6,6.1,0.8,7.7-1.8
		l4.5-7.4c6.6,2.5,13.5,3.5,20.3,3.3l2,8.4c0.7,3,3.7,4.9,6.7,4.2l9.2-2.2C140.8,337.4,142.6,334.3,141.9,331.3z M104.8,296.3
		c-11.8-7.3-15.5-22.8-8.2-34.6c7.3-11.8,22.8-15.5,34.6-8.2c11.8,7.3,15.5,22.8,8.2,34.6C132.1,299.9,116.6,303.6,104.8,296.3z"/>
	<g>
		<path fill="#333333" d="M304.2,77.4L304.2,77.4c0.1,0,0.1,0,0.2,0c0.1,0,0.1,0,0.2,0l0,0c29.3-7.8,15-45.9,15-45.9
			c-7.9-25.9-29.7-20.1-31.9-19.4c-2.2,0.5-24.1,5.8-18.7,32.3C269,44.3,274.7,84.6,304.2,77.4z"/>
		<path fill="#333333" d="M358.3,269.4c-3.1-4.6-5.1-9.8-5.7-15.3l-3.9-34.2c-9.6,2.9-19.1,6-28.2,8.9l-9.5,3.1l6.9,30
			c1.5,6.7,4.7,13,9.3,18.1l37.3,42.5c5.3,5.8,14.6,5.3,19.3-1c3.3-4.5,3.2-10.7-0.2-15.1L358.3,269.4z"/>
		<path fill="#333333" d="M411.3,142.3L392,96.4c-1.6-3.6-4.5-6.5-8.2-8.1l-22.2-9.2l-13.8-4.9c-2.6-0.9-5.3-0.8-8-0.8
			c-4.7,0-9.3,0.9-13.8,2c-3.2,0.8-6,3-7.5,5.9l-8.5,23.7l-2.7-7c8.3-14.5-2.2-14.1-4-13.9c0,0,0,0,0,0c0,0,0,0,0,0c0,0,0,0,0,0
			c0,0,0,0,0,0l0,0c-1.8,0.2-12.2,1.9-1.1,14.4l-2.5,10.1l-9.9-21.4c-4.7,1.8-8.8,4.2-12.4,7.8c-8.7,8.4-16.8,20.9-25.6,29.2
			l-2.7,2.6l-57.9,2.8c-4.7,0.2-9.2,3.2-10.6,7.7c-2.2,7,2.9,14,10.1,14.2l67.1,2.4c4,0.2,7.8-1.2,10.8-3.9l12.7-11.4l9.4,41.6
			l-17.9,6.4l-28.7,12c-4.8,2-8.6,5.7-10.6,10.5l-25,59.5c-3.6,8.2,1.3,17.7,10,19.6c6.2,1.4,12.6-1.6,15.6-7.2l26.3-46.5l45.7-16.8
			c13.3-4.3,26.6-8.7,40.1-12.8c3.6-1.2,23.3-11.1,18.1-39.5l-9-49.5l-1.1-6.2l17.1,6.3l20.3,35.9c2.3,4.3,7.2,6.6,12,5.5
			C410.3,155.9,414,148.6,411.3,142.3z"/>
	</g>
</g>
</svg>
