<?xml version="1.0" encoding="utf-8"?>
<!-- Generator: Adobe Illustrator 18.0.0, SVG Export Plug-In . SVG Version: 6.00 Build 0)  -->
<!DOCTYPE svg PUBLIC "-//W3C//DTD SVG 1.1//EN" "http://www.w3.org/Graphics/SVG/1.1/DTD/svg11.dtd">
<svg version="1.1" id="Layer_1" xmlns="http://www.w3.org/2000/svg" xmlns:xlink="http://www.w3.org/1999/xlink" x="0px" y="0px"
	 viewBox="0 0 512 512" enable-background="new 0 0 512 512" xml:space="preserve">
<g>
	<path fill="#333333" d="M123.7,484.2h167.6c27,0,49.1-22.1,49.1-49.1v-52.2c-4.3,0.4-8.6,0.6-12.9,0.6c-4.4,0-8.8-0.2-13.1-0.7V405
		c0,6.9-5.6,12.6-12.6,12.6H113.3c-6.9,0-12.6-5.6-12.6-12.6V107.2c0-6.9,5.6-12.6,12.6-12.6h188.5c6.9,0,12.6,5.6,12.6,12.6v2.2
		h-0.1v9.4c4.3-0.4,8.7-0.6,13.1-0.6c4.3,0,8.7,0.2,12.9,0.6v-42c0-27-22.1-49.1-49.1-49.1H123.7c-27,0-49.1,22.1-49.1,49.1v358.3
		C74.7,462.1,96.8,484.2,123.7,484.2z M181.4,438.1h47.3c7,0,12.7,5.7,12.7,12.7c0,7-5.7,12.7-12.7,12.7h-47.3
		c-7,0-12.7-5.7-12.7-12.7C168.7,443.8,174.4,438.1,181.4,438.1z"/>
	<path fill="#333333" d="M249.9,173.2c-41.3,41.3-42.8,107.3-4.6,150.4l1.1,0.9c-4.2,9-11.3,20-22.6,25.6c-3.7,1.8-2.9,7.4,1.2,8.1
		c12.4,1.9,30.1-0.2,46.7-12.8l0.2,0.2c42.1,24.8,97.1,19.1,133.3-17.1c42.9-42.9,42.9-112.4,0-155.3
		C362.3,130.3,292.7,130.3,249.9,173.2z M327.5,334.8c-46.4,0-84-37.6-84-84s37.6-84,84-84c46.4,0,84,37.6,84,84
		S373.9,334.8,327.5,334.8z"/>
	<circle fill="#E2574C" cx="327.5" cy="250.9" r="11.9"/>
	<circle fill="#E2574C" cx="369.2" cy="250.9" r="11.9"/>
	<circle fill="#E2574C" cx="285.8" cy="250.9" r="11.9"/>
</g>
</svg>
