<?xml version="1.0" encoding="utf-8"?>
<!-- Generator: Adobe Illustrator 18.0.0, SVG Export Plug-In . SVG Version: 6.00 Build 0)  -->
<!DOCTYPE svg PUBLIC "-//W3C//DTD SVG 1.1//EN" "http://www.w3.org/Graphics/SVG/1.1/DTD/svg11.dtd">
<svg version="1.1" id="Layer_1" xmlns="http://www.w3.org/2000/svg" xmlns:xlink="http://www.w3.org/1999/xlink" x="0px" y="0px"
	 viewBox="0 0 512 512" enable-background="new 0 0 512 512" xml:space="preserve">
<g id="XMLID_1415_">
	<path id="XMLID_1428_" fill="#E2574C" d="M487.9,167.4l-24-0.1c-3.7-19.7-11.4-38.9-23.2-56.1l17.1-17c6.2-6.1,6.2-16.1,0.1-22.3
		l-17.2-17.3c-6.1-6.2-16.1-6.2-22.3-0.1l-17.1,17C384,59.8,365,52,345.2,48.1l0.1-24c0-8.7-7-15.8-15.7-15.8l-24.4-0.1
		c-8.7,0-15.8,7-15.8,15.7l-0.1,23.9c-19.8,3.6-39.1,11.3-56.4,23L216.1,54c-6.1-6.2-16.1-6.2-22.3-0.1l-17.3,17.2
		c-6.2,6.1-6.2,16.1-0.1,22.3l16.6,16.7c-10.9,15.8-18.5,33.2-22.6,51.3c22,1.2,43.4,6.2,63.7,14.8c1.1,0.5,2.2,1,3.3,1.5
		c3.2-14.8,10.6-28.9,22.1-40.3c31.8-31.7,83.3-31.5,115,0.3c31.7,31.8,31.5,83.3-0.3,115c-11.4,11.3-25.3,18.5-39.8,21.7
		c0.6,1.2,1.1,2.5,1.6,3.8c8.5,20.2,13.5,41.4,14.7,63.2c17.7-4.1,34.8-11.5,50.3-22.1l16.6,16.7c6.1,6.2,16.1,6.2,22.3,0.1
		l17.3-17.2c6.2-6.1,6.2-16.1,0.1-22.3l-16.7-16.8c11.8-17.3,19.5-36.5,23.3-56.3l23.9,0.1c8.7,0,15.8-7,15.8-15.7l0.1-24.4
		C503.6,174.5,496.6,167.5,487.9,167.4z"/>
	<path id="XMLID_1416_" fill="#333333" d="M159.6,201.5c-83.5,0-151.2,67.7-151.2,151.2c0,83.5,67.7,151.2,151.2,151.2
		c83.5,0,151.2-67.7,151.2-151.2C310.7,269.1,243.1,201.5,159.6,201.5z M212.3,429.2c-4.5,2.1-9.3,3.8-14.1,5.1
		c-18.4,5.1-36.9,5.3-55.2-0.7c-22.1-7.2-36.8-22.2-45.6-43.4c-1.7-4.1-2.8-8.4-4.1-12.7H76c-2.9,0-5.2-2.4-5.2-5.2v-11.7
		c0-2.9,2.4-5.2,5.2-5.2h14.4c0-3.2,0-6.3,0-9.5H76c-2.9,0-5.2-2.4-5.2-5.2v-11.7c0-2.9,2.4-5.2,5.2-5.2h18.3l0.6-1.8
		c4.9-15.6,13.4-29,26.4-39.1c10.3-8,22.3-12.4,35.1-14.5c18.2-2.9,35.9-0.4,53,6.3c1.1,0.4,2.2,0.9,3.2,1.5
		c4.1,2.4,5.2,5.5,3.4,9.9c-1.9,4.6-3.8,9.3-5.9,13.8c-1.8,3.9-4.3,5.2-8.5,4.2c-5.8-1.3-11.5-3.1-17.3-4.3
		c-12.2-2.5-24.4-2.6-36.2,2.1c-10.2,4-16.4,11.8-20.7,21.5c0,0.1-0.1,0.2-0.1,0.4h35.5c2.9,0,5.2,2.4,5.2,5.2v11.7
		c0,2.9-2.4,5.2-5.2,5.2h-40.6c0,3.1,0,6.2,0,9.5h40.6c2.9,0,5.2,2.4,5.2,5.2v11.7c0,2.9-2.4,5.2-5.2,5.2h-37.1
		c4.5,12.8,11.8,22.7,25.4,27c10.9,3.5,22,3.2,33.1,0.9c5.7-1.2,11.4-2.9,17.1-4.2c4.5-1,6.9,0.2,8.8,4.3c2.1,4.6,4.1,9.3,6,14
		C217.8,423.8,216.7,427.2,212.3,429.2z"/>
</g>
</svg>
