<?xml version="1.0" encoding="utf-8"?>
<!-- Generator: Adobe Illustrator 18.0.0, SVG Export Plug-In . SVG Version: 6.00 Build 0)  -->
<!DOCTYPE svg PUBLIC "-//W3C//DTD SVG 1.1//EN" "http://www.w3.org/Graphics/SVG/1.1/DTD/svg11.dtd">
<svg version="1.1" id="Layer_1" xmlns="http://www.w3.org/2000/svg" xmlns:xlink="http://www.w3.org/1999/xlink" x="0px" y="0px"
	 viewBox="0 0 512 512" enable-background="new 0 0 512 512" xml:space="preserve">
<g id="XMLID_3276_">
	<g id="XMLID_3278_">
		<path id="XMLID_3286_" fill="#E2574C" d="M256,131.1c-68.9,0-124.9,56-124.9,124.9s56,124.9,124.9,124.9s124.9-56,124.9-124.9
			S324.9,131.1,256,131.1z M345,239.5l-40.3,34l12.6,51.1c2.4,9.6-8.1,17.3-16.6,12L256,308.8l-44.7,27.8c-8.4,5.2-18.9-2.4-16.6-12
			l12.6-51.1l-40.3-34c-7.6-6.4-3.6-18.8,6.3-19.5l52.5-3.8l19.9-48.8c3.7-9.2,16.7-9.2,20.5,0l19.9,48.8l52.5,3.8
			C348.5,220.7,352.5,233.1,345,239.5z"/>
		<path id="XMLID_3279_" fill="#333333" d="M463.1,262.1c-2.1-3.8-2.1-8.4,0-12.1l21.3-37.5c3.1-5.5,1.5-12.6-3.7-16.2l-35.5-24.6
			c-3.6-2.5-5.6-6.6-5.3-10.9l2.9-43.1c0.4-6.4-4.1-12-10.4-13l-42.6-6.7c-4.3-0.7-7.9-3.6-9.5-7.6l-16.1-40.1
			c-2.4-5.9-8.9-9-15-7.2L308,55.5c-4.1,1.2-8.6,0.2-11.8-2.7l-31.9-29.1c-4.7-4.3-11.9-4.3-16.6,0l-31.9,29.1
			c-3.2,2.9-7.7,4-11.8,2.7l-41.3-12.4c-6.1-1.8-12.6,1.3-15,7.2l-16.1,40.1c-1.6,4-5.2,6.9-9.5,7.6l-42.6,6.7
			c-6.3,1-10.8,6.6-10.4,13l2.9,43.1c0.3,4.3-1.7,8.5-5.3,10.9l-35.5,24.6c-5.2,3.6-6.8,10.6-3.7,16.2l21.3,37.5
			c2.1,3.8,2.1,8.4,0,12.1l-21.3,37.5c-3.1,5.5-1.5,12.6,3.7,16.2l35.5,24.6c3.6,2.5,5.6,6.6,5.3,10.9l-2.9,43.1
			c-0.4,6.4,4.1,12,10.4,13l42.6,6.7c4.3,0.7,7.9,3.6,9.5,7.6l16.1,40.1c2.4,5.9,8.9,9,15,7.2l41.3-12.4c4.1-1.2,8.6-0.2,11.8,2.7
			l31.9,29.1c4.7,4.3,11.9,4.3,16.6,0l31.9-29.1c3.2-2.9,7.7-4,11.8-2.7l41.3,12.4c6.1,1.8,12.6-1.3,15-7.2l16.1-40.1
			c1.6-4,5.2-6.9,9.5-7.6l42.6-6.7c6.3-1,10.8-6.6,10.4-13l-2.9-43.1c-0.3-4.3,1.7-8.5,5.3-10.9l35.5-24.6
			c5.2-3.6,6.8-10.6,3.7-16.2L463.1,262.1z M256,408.8c-84.3,0-152.8-68.6-152.8-152.8S171.7,103.2,256,103.2
			c84.3,0,152.8,68.6,152.8,152.8S340.3,408.8,256,408.8z"/>
	</g>
</g>
</svg>
