<?xml version="1.0" encoding="utf-8"?>
<!-- Generator: Adobe Illustrator 18.0.0, SVG Export Plug-In . SVG Version: 6.00 Build 0)  -->
<!DOCTYPE svg PUBLIC "-//W3C//DTD SVG 1.1//EN" "http://www.w3.org/Graphics/SVG/1.1/DTD/svg11.dtd">
<svg version="1.1" id="Layer_1" xmlns="http://www.w3.org/2000/svg" xmlns:xlink="http://www.w3.org/1999/xlink" x="0px" y="0px"
	 viewBox="0 0 512 512" enable-background="new 0 0 512 512" xml:space="preserve">
<g id="XMLID_96_">
	<g id="XMLID_158_">
		<g id="XMLID_159_">
			<path fill="#333333" d="M215.1,452.2h157.8V401c0-10.8-4.8-21.1-13.2-28c-46.3-38-96.2-63.2-106.3-68.2c-1.1-0.6-1.9-1.7-1.9-3
				v-72c9.1-6,15-16.3,15-28v-74.7c0-37.2-30.1-67.3-67.3-67.3h-8h-8c-37.2,0-67.3,30.1-67.3,67.3v74.7c0,11.7,6,22,15,28v72
				c0,1.3-0.7,2.4-1.9,3c-10.2,5-60,30.2-106.3,68.2c-8.4,6.9-13.2,17.2-13.2,28v51.2h157.8"/>
		</g>
	</g>
	<path id="XMLID_144_" fill="#E2574C" d="M472.5,89.6c-39.8-39.8-104.3-39.8-144.1,0c-38.3,38.3-39.7,99.5-4.3,139.5l1,0.9
		c-3.9,8.3-10.5,18.6-21,23.7c-3.5,1.7-2.7,6.9,1.1,7.5c11.5,1.8,28-0.2,43.3-11.8l0.2,0.2c39.1,23,90.1,17.7,123.6-15.8
		C512.3,193.9,512.3,129.4,472.5,89.6z M404.8,98.8c9.2,0,16.5,7.5,16.4,16.8c-0.1,9.2-7.5,16.7-16.5,16.6
		c-9.3-0.1-16.7-7.6-16.6-16.9C388.1,106.1,395.6,98.7,404.8,98.8z M428.4,210.7c-0.4,1.4-1.3,2.9-2.3,4c-6,6.1-13.2,9.8-21.9,9.9
		c-4,0.1-8.1-0.1-12.1-0.7c-6.6-0.9-15.1-9.2-13.9-17.9c0.8-6,1.7-12,2.7-17.9c1.8-10.4,3.6-20.7,5.4-31.1c0.1-0.7,0.2-1.3,0.2-2
		c0-4.3-1.4-5.9-5.6-6.5c-1.8-0.3-3.7-0.4-5.5-1c-2.1-0.8-3.1-2.4-2.9-4.1c0.2-1.8,1.4-3,3.7-3.4c1.2-0.2,2.5-0.3,3.8-0.3
		c5.1,0,10.2,0,15.3,0c5.4,0,10.8,0,16.2,0c3.9,0,6.2,1.8,6.3,5.7c0.1,3.2-0.5,6.5-1,9.7c-2.1,11.9-4.3,23.7-6.5,35.5
		c-0.7,3.9-1.5,7.8-2,11.8c-0.2,1.9,0,3.9,0.5,5.7c0.6,2.5,2.5,3.8,5,3.6c2.1-0.2,4.2-1,6.2-1.7c1.6-0.6,3.1-1.8,4.7-2.4
		C427,206.6,429,208.2,428.4,210.7z"/>
</g>
</svg>
