<?xml version="1.0" encoding="utf-8"?>
<!-- Generator: Adobe Illustrator 18.0.0, SVG Export Plug-In . SVG Version: 6.00 Build 0)  -->
<!DOCTYPE svg PUBLIC "-//W3C//DTD SVG 1.1//EN" "http://www.w3.org/Graphics/SVG/1.1/DTD/svg11.dtd">
<svg version="1.1" id="Layer_1" xmlns="http://www.w3.org/2000/svg" xmlns:xlink="http://www.w3.org/1999/xlink" x="0px" y="0px"
	 viewBox="0 0 512 512" enable-background="new 0 0 512 512" xml:space="preserve">
<g>
	<g>
		<g>
			<path fill="#333333" d="M486.3,334.9c-9.5-0.7-29.2,10-34.6,12.7c-19.2,9.7-45.8,24.8-63.4,36.9c-1.2,0.8-2.8,1.9-4.1,2.7
				c-7.9,5.1-16.2,8.5-25.4,10.4c-50.9,10.8-125.1,12-125.1,12l-4.3,0.2c-3.3,0.2-6.2-2.1-6.6-5.2c-0.5-3.5,2.1-6.7,5.7-7
				l110.3-10.5c12.1-1.3,21.8-12.7,20.5-25.5c-1.3-12.8-13.1-22.1-25.2-20.8l-98.1-1.2c-6.7-0.1-17.4-1.7-23.8-3.6
				c-63.2-18.5-98.9-1.2-117.8,6.9c-4.2-7-12.2-11.5-21.2-11l-42.3,2.8C16.8,335.7,6.2,347.4,7.2,361l6.8,93.9
				c1,13.6,13.2,23.8,27.2,22.9l42.3-2.8c8.9-0.6,16.2-6.1,19.4-13.6l185.8,8c20.7,2.2,40.1-0.3,58.3-9.9l5.3-2.8l140.5-82.2
				c6.9-4,11.8-11,12.1-18.8C505.2,346.3,499.7,335.9,486.3,334.9z M56.7,455.5c-8,0-14.4-6.2-14.4-13.9s6.5-13.9,14.4-13.9
				c8,0,14.4,6.2,14.4,13.9S64.6,455.5,56.7,455.5z"/>
			<path fill="#333333" d="M379.7,349.9c1,3.1,1.8,6.2,2.1,9.6c0.3,2.7,0.3,5.3,0.1,7.8c1.5-1,2.9-2.1,4.4-3.1
				c14.3-10,43.7-25.9,60.3-34.3c5-2.5,10.3-5,16-7c-7.3-4.8-15-5.1-22.9-1.9c-15.8,6.2-44.9,20.3-59.7,28.3
				C379.8,349.5,379.8,349.7,379.7,349.9z"/>
			<path fill="#333333" d="M371.4,335.3c0.6-0.4,1.2-0.9,1.9-1.3l7.1-3.9c10.4-5.7,32.5-13.5,43.9-18.6c-7.2-4.7-14.8-4.9-22.7-1.8
				c-9.8,3.9-31.5,10.9-41.2,16.1C364.5,328.4,368.2,331.6,371.4,335.3z"/>
		</g>
	</g>
	<g id="XMLID_323_">
		<g id="XMLID_329_">
			<path id="XMLID_330_" fill="#333333" d="M276.1,312.7c-76.8,0-139.3-62.5-139.3-139.3S199.3,34.2,276.1,34.2
				s139.3,62.5,139.3,139.3S352.9,312.7,276.1,312.7z M276.1,63c-60.9,0-110.4,49.5-110.4,110.4s49.5,110.4,110.4,110.4
				s110.4-49.5,110.4-110.4S337,63,276.1,63z"/>
		</g>
		<path id="XMLID_324_" fill="#E2574C" d="M291.2,236c8.3-2.3,15.4-6.7,20.8-13.3c15.1-18.3,9.3-45.2-12.1-57
			c-6.7-3.7-13.8-6.5-20.9-9.5c-4.1-1.7-8-3.7-11.5-6.4c-6.8-5.4-5.5-14.3,2.5-17.8c2.2-1,4.6-1.3,7-1.4c9.3-0.5,18,1.2,26.4,5.2
			c4.2,2,5.6,1.4,7-3c1.5-4.6,2.7-9.2,4.1-13.9c0.9-3.1-0.2-5.2-3.2-6.5c-5.4-2.4-10.9-4.1-16.7-5c-7.6-1.2-7.6-1.2-7.6-8.8
			C287,88,287,88,276.3,88c-1.6,0-3.1,0-4.7,0c-5,0.1-5.9,1-6,6.1c-0.1,2.3,0,4.5,0,6.8c0,6.7-0.1,6.6-6.5,8.9
			c-15.6,5.7-25.1,16.2-26.2,33.2c-0.9,15,6.9,25.1,19.2,32.5c7.6,4.6,16,7.3,24,10.8c3.1,1.4,6.1,3,8.8,5.2c7.8,6.4,6.3,17-2.9,21
			c-4.9,2.2-10.1,2.7-15.4,2c-8.2-1-16.1-3.2-23.5-7c-4.3-2.3-5.6-1.7-7.1,3c-1.3,4.1-2.4,8.2-3.5,12.3c-1.5,5.5-1,6.8,4.3,9.4
			c6.7,3.2,13.9,4.9,21.2,6.1c5.7,0.9,5.9,1.2,6,7.1c0,2.7,0,5.4,0.1,8.1c0,3.4,1.7,5.4,5.2,5.4c4,0.1,7.9,0.1,11.9,0
			c3.2-0.1,4.9-1.8,4.9-5.1c0-3.7,0.2-7.4,0-11.1C285.9,238.9,287.6,237,291.2,236z"/>
	</g>
</g>
</svg>
