<?xml version="1.0" encoding="utf-8"?>
<!-- Generator: Adobe Illustrator 18.0.0, SVG Export Plug-In . SVG Version: 6.00 Build 0)  -->
<!DOCTYPE svg PUBLIC "-//W3C//DTD SVG 1.1//EN" "http://www.w3.org/Graphics/SVG/1.1/DTD/svg11.dtd">
<svg version="1.1" id="Layer_1" xmlns="http://www.w3.org/2000/svg" xmlns:xlink="http://www.w3.org/1999/xlink" x="0px" y="0px"
	 viewBox="0 0 512 512" enable-background="new 0 0 512 512" xml:space="preserve">
<g>
	<path id="XMLID_3267_" fill="#E2574C" d="M360.5,466.1c-0.5-3.5-2.3-5.9-5.7-6.9c-14.2-4.2-19-24.2-5.1-34.6c2.8-2.1,4-4.8,3.6-8.2
		c-0.5-4.4-1.1-8.8-1.9-13.1c-0.8-4.6-3.1-6.5-7.9-6.6c-5.6-0.2-11.1-0.1-16.7-0.1c-51.7,0-103.5,0-155.2,0
		c-8.9,0-10.4,1.3-11.7,10.2c-0.2,1.1-0.2,2.3-0.5,3.4c-1.9,6.8-0.5,11.9,5.2,17c10.3,9.2,6.8,26-6.1,31.2c-4.7,1.9-7.1,4.8-7.6,9.7
		c-0.4,4.5-1.5,9-1.8,13.5c-0.6,6.3,1.8,8.9,8.3,9c16.2,0.1,32.4,0.1,48.6,0.1c16.7,0,33.4,0,50.1,0c0,0,0,0,0,0
		c32.4,0,64.8,0,97.2,0c2.4,0,4.9,0.2,6.9-1.4c2.3-1.8,3.1-4.3,2.7-7.1C362.1,476.8,361.2,471.5,360.5,466.1z"/>
	<g>
		<path fill="#333333" d="M255.8,90.6L255.8,90.6c0.1,0,0.1,0,0.2,0c0.1,0,0.1,0,0.2,0v0c31.1-0.3,26.6-41.9,26.6-41.9
			c-1.3-27.8-24.5-27.5-26.8-27.4c-2.3-0.1-25.5-0.3-26.8,27.4C229.2,48.7,224.7,90.3,255.8,90.6z"/>
		<path fill="#333333" d="M343.6,157.7l-40-43.3c-1.1-1.2-2.4-2.4-3.8-3.3c-11.1-7.7-23.6-12.7-23.6-12.7l-10.8,34.2l-6.3-17.9
			c11.3-15.8-1.3-16.3-3-16.3h0l0,0c-1.7,0-14.4,0.4-3,16.3l-6.3,17.9l-10.8-34.2c0,0-12.5,5.1-23.6,12.7c-1.4,1-2.6,2.1-3.8,3.3
			l-40,43.3c-7.1,8.4-6.1,20.8,2.1,28l48.1,41.2l-8,146.3c-0.3,5.4,3.5,10.1,8.8,10.9c5.7,0.9,11-2.9,12-8.6l20.7-111.1
			c0.3-1.8,1.9-3.2,3.8-3.2c1.9,0,3.5,1.3,3.8,3.2l20.7,111.1c1,5.6,6.3,9.5,12,8.6c5.3-0.8,9.1-5.6,8.8-10.9l-8-146.3l48.1-41.2
			C349.7,178.6,350.7,166.1,343.6,157.7z M194.5,172.7l20-18.1l4.4,42.9L194.5,172.7z M293.1,197.5l4.4-42.9l20,18.1L293.1,197.5z"
			/>
	</g>
</g>
</svg>
