<?xml version="1.0" encoding="utf-8"?>
<!-- Generator: Adobe Illustrator 18.0.0, SVG Export Plug-In . SVG Version: 6.00 Build 0)  -->
<!DOCTYPE svg PUBLIC "-//W3C//DTD SVG 1.1//EN" "http://www.w3.org/Graphics/SVG/1.1/DTD/svg11.dtd">
<svg version="1.1" id="Layer_1" xmlns="http://www.w3.org/2000/svg" xmlns:xlink="http://www.w3.org/1999/xlink" x="0px" y="0px"
	 viewBox="0 0 512 512" enable-background="new 0 0 512 512" xml:space="preserve">
<g>
	<path fill="#333333" d="M314.4,382.9V405c0,6.9-5.6,12.6-12.6,12.6H113.3c-6.9,0-12.6-5.6-12.6-12.6V107.2
		c0-6.9,5.6-12.6,12.6-12.6h188.5c6.9,0,12.6,5.6,12.6,12.6v2.2h-0.1v9.4c4.3-0.4,8.7-0.6,13.1-0.6c4.3,0,8.7,0.2,12.9,0.6v-42
		c0-27-22.1-49.1-49.1-49.1H123.7c-27,0-49.1,22.1-49.1,49.1v358.3c0,27,22.1,49.1,49.1,49.1h167.6c27,0,49.1-22.1,49.1-49.1v-52.2
		c-4.3,0.4-8.6,0.6-12.9,0.6C323.1,383.5,318.7,383.3,314.4,382.9z M228.7,463.6h-47.3c-7,0-12.7-5.7-12.7-12.7
		c0-7,5.7-12.7,12.7-12.7h47.3c7,0,12.7,5.7,12.7,12.7C241.4,457.9,235.7,463.6,228.7,463.6z"/>
	<path fill="#E2574C" d="M249.8,173.2c-41.3,41.3-42.8,107.3-4.6,150.4l1.1,0.9c-4.2,9-11.3,20-22.6,25.6c-3.7,1.8-2.9,7.4,1.2,8.1
		c12.4,1.9,30.2-0.2,46.7-12.8l0.2,0.2c42.1,24.8,97.2,19.1,133.3-17.1c42.9-42.9,42.9-112.5,0-155.4
		C362.3,130.3,292.7,130.3,249.8,173.2z M353,286c-3.9,4.7-8.9,7.9-14.8,9.5c-2.6,0.7-3.7,2.1-3.6,4.7c0.1,2.6,0,5.3,0,7.9
		c0,2.3-1.2,3.6-3.5,3.7c-2.8,0.1-5.7,0.1-8.5,0c-2.5,0-3.6-1.4-3.7-3.9c0-1.9,0-3.8-0.1-5.8c0-4.2-0.2-4.4-4.3-5.1
		c-5.2-0.8-10.3-2-15.1-4.3c-3.7-1.8-4.1-2.8-3.1-6.7c0.8-2.9,1.6-5.8,2.5-8.7c1.1-3.4,2-3.8,5-2.2c5.3,2.7,10.9,4.3,16.7,5
		c3.8,0.5,7.5,0.1,11-1.4c6.5-2.9,7.6-10.4,2-15c-1.9-1.5-4-2.7-6.2-3.7c-5.7-2.5-11.7-4.4-17.1-7.7c-8.8-5.3-14.4-12.5-13.7-23.2
		c0.7-12.1,7.6-19.6,18.6-23.7c4.6-1.7,4.6-1.6,4.6-6.4c0-1.6,0-3.2,0-4.8c0.1-3.6,0.7-4.2,4.3-4.3c1.1,0,2.2,0,3.3,0
		c7.6,0,7.6,0,7.7,7.6c0,5.4,0,5.4,5.4,6.3c4.1,0.6,8.1,1.9,11.9,3.5c2.1,0.9,2.9,2.4,2.2,4.6c-1,3.3-1.9,6.6-2.9,9.9
		c-1,3.1-2,3.5-5,2.1c-6-2.9-12.2-4.1-18.8-3.7c-1.7,0.1-3.4,0.3-5,1c-5.7,2.5-6.6,8.8-1.8,12.7c2.5,2,5.3,3.4,8.2,4.6
		c5,2.1,10.1,4.1,14.9,6.7C359.7,253.8,363.8,272.9,353,286z"/>
</g>
</svg>
