<?xml version="1.0" encoding="utf-8"?>
<!-- Generator: Adobe Illustrator 18.0.0, SVG Export Plug-In . SVG Version: 6.00 Build 0)  -->
<!DOCTYPE svg PUBLIC "-//W3C//DTD SVG 1.1//EN" "http://www.w3.org/Graphics/SVG/1.1/DTD/svg11.dtd">
<svg version="1.1" id="Layer_1" xmlns="http://www.w3.org/2000/svg" xmlns:xlink="http://www.w3.org/1999/xlink" x="0px" y="0px"
	 viewBox="0 0 512 512" enable-background="new 0 0 512 512" xml:space="preserve">
<g>
	<path fill="#E2574C" d="M457.7,94.6H132.3c-20,0-36.1,16.2-36.1,36.1v16.7h27.8v-16.7c0-4.6,3.7-8.3,8.3-8.3h325.4
		c4.6,0,8.3,3.7,8.3,8.3v174c0,4.6-3.7,8.3-8.3,8.3h-18v27.8h18c20,0,36.1-16.2,36.1-36.1v-174C493.8,110.8,477.6,94.6,457.7,94.6z"
		/>
	<path fill="#333333" d="M379.7,171.2H54.3c-20,0-36.1,16.2-36.1,36.1v174c0,20,16.2,36.1,36.1,36.1h325.4c20,0,36.1-16.2,36.1-36.1
		v-174C415.9,187.4,399.7,171.2,379.7,171.2z M54.3,199h325.4c4.6,0,8.3,3.7,8.3,8.3v18.4H46v-18.4C46,202.7,49.7,199,54.3,199z
		 M379.7,389.6H54.3c-4.6,0-8.3-3.7-8.3-8.3V272h342v109.3C388.1,385.9,384.3,389.6,379.7,389.6z"/>
</g>
</svg>
