<?xml version="1.0" encoding="utf-8"?>
<!-- Generator: Adobe Illustrator 18.0.0, SVG Export Plug-In . SVG Version: 6.00 Build 0)  -->
<!DOCTYPE svg PUBLIC "-//W3C//DTD SVG 1.1//EN" "http://www.w3.org/Graphics/SVG/1.1/DTD/svg11.dtd">
<svg version="1.1" id="Layer_1" xmlns="http://www.w3.org/2000/svg" xmlns:xlink="http://www.w3.org/1999/xlink" x="0px" y="0px"
	 viewBox="0 0 512 512" enable-background="new 0 0 512 512" xml:space="preserve">
<g>
	<path fill="#333333" d="M446,402.6c-52.2-42.9-108.5-71.4-120-77c-1.3-0.6-2.1-1.9-2.1-3.4v-12.9c-12.5,8-26.5,14-41.6,17.2
		c-5.6,9-15.5,14.7-26.5,14.7c-17.2,0-31.2-14-31.2-31.2c0-17.2,14-31.2,31.2-31.2c8.4,0,16.3,3.4,22,9.1
		c18.6-4.9,34.6-15.8,46-30.3V241c10.2-6.8,16.9-18.4,16.9-31.6v-75.1c0-46.9-38-84.9-84.9-84.9h0c-46.9,0-84.9,38-84.9,84.9v75.1
		c0,13.2,6.7,24.8,16.9,31.6l0,81.2c0,1.4-0.8,2.7-2.1,3.4c-11.4,5.6-67.8,34.1-120,77c-9.4,7.7-14.7,19.3-14.7,31.4v57.7h177.8
		l17.6-80.4c-35.5-49.5,2.6-51.9,9.3-51.9h0h0c6.6,0.1,44.8,2.4,9.3,51.9l17.6,80.4h177.8v-57.7C460.7,421.8,455.4,410.2,446,402.6z
		"/>
	<path fill="#E2574C" d="M370.5,143h-1.4v-9.4c0-62.5-50.8-113.3-113.3-113.3c-62.5,0-113.3,50.8-113.3,113.3v9.4h-1.4
		c-10.9,0-19.7,8.8-19.7,19.7v30c0,10.9,8.8,19.7,19.7,19.7h16.3v-57.8h0.1v-19.4c0-53.9,42.8-98.9,96.8-99.8
		c54.9-0.8,99.8,43.6,99.8,98.3v20.9h0.1v53.3c-1.7,46.8-36.2,85.2-81.2,93.1c-3.2-6.2-9.7-10.4-17.2-10.4
		c-10.7,0-19.4,8.7-19.4,19.4c0,10.7,8.7,19.4,19.4,19.4c8.6,0,15.9-5.6,18.4-13.4c51.2-8.3,90.9-51,94.7-103.6h1.5
		c10.9,0,19.7-8.8,19.7-19.7v-30C390.2,151.8,381.4,143,370.5,143z"/>
</g>
</svg>
