<?xml version="1.0" encoding="utf-8"?>
<!-- Generator: Adobe Illustrator 18.0.0, SVG Export Plug-In . SVG Version: 6.00 Build 0)  -->
<!DOCTYPE svg PUBLIC "-//W3C//DTD SVG 1.1//EN" "http://www.w3.org/Graphics/SVG/1.1/DTD/svg11.dtd">
<svg version="1.1" id="Layer_1" xmlns="http://www.w3.org/2000/svg" xmlns:xlink="http://www.w3.org/1999/xlink" x="0px" y="0px"
	 viewBox="0 0 512 512" enable-background="new 0 0 512 512" xml:space="preserve">
<g id="XMLID_236_">
	<g id="XMLID_247_">
		<path id="XMLID_27_" fill="#E2574C" d="M223.9,97l66.4-66.4c14.6-14.6,38.3-14.6,52.9,0L409.5,97H223.9z"/>
		<path id="XMLID_26_" fill="#E2574C" d="M101.7,417.6l64.2,64.2c14.1,14.1,37,14.1,51.1,0l64.2-64.2H101.7z"/>
	</g>
	<g id="XMLID_237_">
		<path id="XMLID_244_" fill="#333333" d="M258.6,339.2c45.2,0,81.9-36.7,81.9-81.9c0-45.2-36.7-81.9-81.9-81.9
			c-45.2,0-81.9,36.7-81.9,81.9C176.6,302.5,213.3,339.2,258.6,339.2z M230,289.7c0.7-2.7,1.5-5.4,2.3-8c1-3.1,1.8-3.5,4.7-2
			c4.9,2.5,10,3.9,15.4,4.6c3.5,0.4,6.9,0.1,10.1-1.3c6-2.6,7-9.6,1.9-13.8c-1.7-1.4-3.7-2.5-5.8-3.4c-5.3-2.3-10.8-4.1-15.8-7.1
			c-8.1-4.8-13.2-11.5-12.6-21.3c0.7-11.1,7-18.1,17.2-21.8c4.2-1.5,4.2-1.5,4.3-5.9c0-1.5,0-3,0-4.5c0.1-3.3,0.7-3.9,3.9-4
			c1,0,2,0,3.1,0c7,0,7,0,7.1,7c0,5,0,5,5,5.8c3.8,0.6,7.4,1.7,10.9,3.3c1.9,0.9,2.7,2.2,2.1,4.2c-0.9,3-1.7,6.1-2.7,9.1
			c-0.9,2.8-1.8,3.3-4.6,1.9c-5.5-2.7-11.3-3.8-17.3-3.4c-1.6,0.1-3.1,0.3-4.6,0.9c-5.2,2.3-6.1,8.1-1.6,11.7
			c2.3,1.8,4.8,3.1,7.5,4.2c4.6,1.9,9.3,3.8,13.7,6.2c14,7.8,17.8,25.4,7.9,37.4c-3.6,4.3-8.2,7.3-13.7,8.8
			c-2.4,0.6-3.4,1.9-3.3,4.4c0.1,2.4,0,4.8,0,7.3c0,2.2-1.1,3.3-3.2,3.4c-2.6,0.1-5.2,0.1-7.8,0c-2.3,0-3.4-1.3-3.4-3.6
			c0-1.8,0-3.5,0-5.3c0-3.9-0.2-4.1-3.9-4.7c-4.8-0.8-9.5-1.9-13.9-4C229.3,294.2,229,293.3,230,289.7z"/>
		<circle id="XMLID_243_" fill="#333333" cx="377.7" cy="261.4" r="22.7"/>
		<circle id="XMLID_242_" fill="#333333" cx="139.4" cy="261.4" r="22.7"/>
		<path id="XMLID_239_" fill="#333333" d="M40.2,161.1v192.4c0,20.6,16.8,37.4,37.4,37.4h356.8c20.6,0,37.4-16.8,37.4-37.4V161.1
			c0-20.6-16.8-37.4-37.4-37.4H77.6C57,123.7,40.2,140.5,40.2,161.1z M72.1,199.8c2.2,0.4,4.4,0.6,6.7,0.6
			c20.9,0,37.9-16.9,37.9-37.9c0-2.4-0.2-4.7-0.7-7h277.8c-0.7,3-1.1,6-1.1,9.2c0,20.9,16.9,37.9,37.9,37.9c3.2,0,6.4-0.4,9.4-1.2
			v116.1c-3-0.8-6.1-1.2-9.4-1.2c-20.9,0-37.9,16.9-37.9,37.9c0,1.6,0.1,3.2,0.3,4.7H116c0.4-2.3,0.7-4.6,0.7-7
			c0-20.9-16.9-37.9-37.9-37.9c-2.3,0-4.5,0.2-6.7,0.6V199.8z"/>
	</g>
</g>
</svg>
