<?xml version="1.0" encoding="utf-8"?>
<!-- Generator: Adobe Illustrator 18.0.0, SVG Export Plug-In . SVG Version: 6.00 Build 0)  -->
<!DOCTYPE svg PUBLIC "-//W3C//DTD SVG 1.1//EN" "http://www.w3.org/Graphics/SVG/1.1/DTD/svg11.dtd">
<svg version="1.1" id="Layer_1" xmlns="http://www.w3.org/2000/svg" xmlns:xlink="http://www.w3.org/1999/xlink" x="0px" y="0px"
	 viewBox="0 0 512 512" enable-background="new 0 0 512 512" xml:space="preserve">
<g>
	<path fill="#333333" d="M238.7,297.9v-65.8c8.3-5.5,13.7-14.9,13.7-25.6v-68.2c0-33.9-27.5-61.5-61.5-61.5h-7.3h-7.3
		c-33.9,0-61.5,27.5-61.5,61.5v68.2c0,10.7,5.5,20.1,13.7,25.6v65.8c0,1.2-0.7,2.2-1.7,2.7c-9.3,4.5-54.8,27.6-97.1,62.3
		c-7.6,6.3-12,15.7-12,25.5v46.7h144.1l14.2-65.2c-28.8-40.1,2.1-42.1,7.5-42.1h0h0c5.4,0,36.3,2,7.5,42.1l14.2,65.2h144.1v-46.7
		c0-9.9-4.4-19.3-12-25.5c-42.3-34.7-87.8-57.8-97.1-62.3C239.3,300.1,238.7,299,238.7,297.9z"/>
	<g>
		<path fill="#333333" d="M313.3,280.3c-1.3,0-2.6-0.3-3.8-0.8c-3.8-1.6-6.2-5.2-6.2-9.3v-29.7h-14.7c-5.5,0-10-4.5-10-10V95.9
			c0-5.5,4.5-10,10-10h195.7c5.5,0,10,4.5,10,10v134.6c0,5.5-4.5,10-10,10H357.3l-36.8,36.8C318.5,279.2,315.9,280.3,313.3,280.3z
			 M298.6,220.4h14.7c5.5,0,10,4.5,10,10v15.5l22.6-22.6c1.9-1.9,4.4-2.9,7.1-2.9h121.1V105.9H298.6L298.6,220.4z"/>
	</g>
	<circle fill="#E2574C" cx="386.4" cy="164.5" r="11.6"/>
	<circle fill="#E2574C" cx="425" cy="164.5" r="11.6"/>
	<circle fill="#E2574C" cx="347.8" cy="164.5" r="11.6"/>
</g>
</svg>
