<?xml version="1.0" encoding="utf-8"?>
<!-- Generator: Adobe Illustrator 18.0.0, SVG Export Plug-In . SVG Version: 6.00 Build 0)  -->
<!DOCTYPE svg PUBLIC "-//W3C//DTD SVG 1.1//EN" "http://www.w3.org/Graphics/SVG/1.1/DTD/svg11.dtd">
<svg version="1.1" id="Layer_1" xmlns="http://www.w3.org/2000/svg" xmlns:xlink="http://www.w3.org/1999/xlink" x="0px" y="0px"
	 viewBox="0 0 512 512" enable-background="new 0 0 512 512" xml:space="preserve">
<g>
	<g id="XMLID_194_">
		<path id="XMLID_195_" fill="#E2574C" d="M386.7,289V169.2h9.8c24.3,0,48.1,8.3,67,23.5c18.6,14.9,31.9,35.8,37.4,58.9l2.3,9.5
			L386.7,289z M406.3,189.3v74.8l72.8-17.4C467.8,215.3,439.7,193,406.3,189.3z"/>
	</g>
	<g id="XMLID_190_">
		<g>
			<path id="XMLID_20_" fill="#333333" d="M370.2,309.8v-98.9c-54.6,0-98.9,44.3-98.9,98.9s44.3,98.9,98.9,98.9s98.9-44.3,98.9-98.9
				c0-7.9-0.9-15.6-2.7-23C453.8,289.8,427,296.2,370.2,309.8z"/>
		</g>
	</g>
	<path fill="#333333" d="M253.4,309.8c0-0.1,0-0.1,0-0.2H66v-25.5v-8.9V136.9c0,0,0-0.1,0.1-0.1H226h110.7c0,0,0.1,0,0.1,0.1v61
		c10.6-3.2,21.8-4.9,33.4-4.9c0,0,0.1,0,0.1,0V137c0-18.6-15.1-33.7-33.7-33.7h-126H66.1c-18.6,0-33.7,15.1-33.7,33.7v138.3v7.4
		v24.8c0,4.4-1.5,8.6-4.3,12l-17.4,21.3c-1.3,1.6-2,3.6-2,5.7v9.7C8.8,368.8,19,379,31.6,379h244.6
		C261.9,359.6,253.4,335.7,253.4,309.8z M237.8,345.7c0,6.4-5.2,11.6-11.6,11.6h-49.7c-6.4,0-11.6-5.2-11.6-11.6v-2.5h73V345.7z"/>
</g>
</svg>
