<?xml version="1.0" encoding="utf-8"?>
<!-- Generator: Adobe Illustrator 18.0.0, SVG Export Plug-In . SVG Version: 6.00 Build 0)  -->
<!DOCTYPE svg PUBLIC "-//W3C//DTD SVG 1.1//EN" "http://www.w3.org/Graphics/SVG/1.1/DTD/svg11.dtd">
<svg version="1.1" id="Layer_1" xmlns="http://www.w3.org/2000/svg" xmlns:xlink="http://www.w3.org/1999/xlink" x="0px" y="0px"
	 viewBox="0 0 512 512" enable-background="new 0 0 512 512" xml:space="preserve">
<g>
	<circle fill="#333333" cx="87.8" cy="346.8" r="19.2"/>
	<circle fill="#333333" cx="289.1" cy="346.8" r="19.2"/>
	<g>
		<path fill="#333333" d="M493.9,276.9L282.6,65.6c-13-13-34-13-46.9,0l-113,113c-7.5,7.5-10.7,17.8-9.4,27.6h26.5
			c-1.9-3-1.6-7,1-9.6l71-71l80.6,80.6h49c4.3,0,8.5,0.5,12.6,1.5L241.7,95.6l12-12c3-3,7.8-3,10.8,0L475.8,295c3,3,3,7.8,0,10.8
			l-12,12l-68.3-68.3c0.9,4,1.5,8.2,1.5,12.6v49l36.8,36.8l-36.8,36.8v36.2l96.8-96.8C506.9,310.9,506.9,289.9,493.9,276.9z"/>
	</g>
	<g>
		<path fill="#333333" d="M341.2,230.5H40c-17.4,0-31.6,14.2-31.6,31.6v162.5c0,17.4,14.2,31.6,31.6,31.6h301.3
			c17.4,0,31.6-14.2,31.6-31.6V262.1C372.8,244.6,358.7,230.5,341.2,230.5z M345.9,391.8c-1.8-0.3-3.7-0.5-5.6-0.5
			c-17.7,0-32,14.3-32,32c0,2,0.2,4,0.5,5.9H75c0.2-1.3,0.2-2.6,0.2-4c0-17.7-14.3-32-32-32c-2.7,0-5.4,0.3-7.9,1v-98
			c2.5,0.6,5.2,1,7.9,1c17.7,0,32-14.3,32-32c0-2.7-0.3-5.3-1-7.8h234.6c-0.4,1.9-0.5,3.9-0.5,5.9c0,17.7,14.3,32,32,32
			c1.9,0,3.8-0.2,5.6-0.5V391.8z"/>
	</g>
	<path id="XMLID_49_" fill="#E2574C" d="M188.4,274.4c-38,0-68.9,30.8-68.9,68.9c0,38,30.8,68.9,68.9,68.9c38,0,68.9-30.8,68.9-68.9
		C257.3,305.3,226.5,274.4,188.4,274.4z M212.4,378.2c-2.1,0.9-4.2,1.7-6.4,2.3c-8.4,2.3-16.8,2.4-25.1-0.3
		c-10.1-3.3-16.8-10.1-20.8-19.8c-0.8-1.9-1.3-3.8-1.9-5.8h-7.9c-1.3,0-2.4-1.1-2.4-2.4V347c0-1.3,1.1-2.4,2.4-2.4h6.6
		c0-1.5,0-2.9,0-4.3h-6.6c-1.3,0-2.4-1.1-2.4-2.4v-5.3c0-1.3,1.1-2.4,2.4-2.4h8.3l0.3-0.8c2.2-7.1,6.1-13.2,12-17.8
		c4.7-3.6,10.2-5.7,16-6.6c8.3-1.3,16.3-0.2,24.1,2.8c0.5,0.2,1,0.4,1.5,0.7c1.9,1.1,2.4,2.5,1.5,4.5c-0.9,2.1-1.8,4.2-2.7,6.3
		c-0.8,1.8-2,2.4-3.9,1.9c-2.6-0.6-5.2-1.4-7.9-1.9c-5.6-1.1-11.1-1.2-16.5,0.9c-4.6,1.8-7.5,5.4-9.4,9.8c0,0,0,0.1,0,0.2h16.2
		c1.3,0,2.4,1.1,2.4,2.4v5.3c0,1.3-1.1,2.4-2.4,2.4h-18.5c0,1.4,0,2.8,0,4.3h18.5c1.3,0,2.4,1.1,2.4,2.4v5.3c0,1.3-1.1,2.4-2.4,2.4
		H173c2,5.8,5.4,10.3,11.6,12.3c5,1.6,10,1.5,15.1,0.4c2.6-0.5,5.2-1.3,7.8-1.9c2-0.5,3.1,0.1,4,2c1,2.1,1.9,4.2,2.7,6.4
		C215,375.7,214.4,377.3,212.4,378.2z"/>
</g>
</svg>
