<?xml version="1.0" encoding="utf-8"?>
<!-- Generator: Adobe Illustrator 18.0.0, SVG Export Plug-In . SVG Version: 6.00 Build 0)  -->
<!DOCTYPE svg PUBLIC "-//W3C//DTD SVG 1.1//EN" "http://www.w3.org/Graphics/SVG/1.1/DTD/svg11.dtd">
<svg version="1.1" id="Layer_1" xmlns="http://www.w3.org/2000/svg" xmlns:xlink="http://www.w3.org/1999/xlink" x="0px" y="0px"
	 viewBox="0 0 512 512" enable-background="new 0 0 512 512" xml:space="preserve">
<g id="XMLID_60_">
	<g id="XMLID_1754_">
		<path fill="#333333" d="M340.5,183.8v23.8h-73.4l-7.3-33.2c14.7-20.4-1.1-21.4-3.8-21.4h0h0c-2.7,0-18.5,1-3.8,21.4l-7.3,33.2
			h-73.4v-23.8c0-5,2.2-9.8,6.1-13c21.5-17.7,44.7-29.4,49.5-31.7c0.5-0.3,0.9-0.8,0.9-1.4v-33.5c-4.2-2.8-7-7.6-7-13V56.3
			C221,39,235,25,252.3,25h3.7h3.7C277,25,291,39,291,56.3v34.8c0,5.4-2.8,10.2-7,13v33.5c0,0.6,0.3,1.1,0.9,1.4
			c4.7,2.3,27.9,14,49.5,31.7C338.3,174,340.5,178.7,340.5,183.8z"/>
	</g>
	<g id="XMLID_220_">
		<path fill="#333333" d="M501.3,463.2V487h-73.4l-7.3-33.2c14.7-20.4-1.1-21.4-3.8-21.4h0h0c-2.7,0-18.5,1-3.8,21.4l-7.3,33.2
			h-73.4v-23.8c0-5,2.2-9.8,6.1-13c21.5-17.7,44.7-29.4,49.5-31.7c0.5-0.3,0.9-0.8,0.9-1.4v-33.5c-4.2-2.8-7-7.6-7-13v-34.8
			c0-17.3,14-31.3,31.3-31.3h3.7h3.7c17.3,0,31.3,14,31.3,31.3v34.8c0,5.4-2.8,10.2-7,13V417c0,0.6,0.3,1.1,0.9,1.4
			c4.7,2.3,27.9,14,49.5,31.7C499.1,453.4,501.3,458.1,501.3,463.2z"/>
	</g>
	<g id="XMLID_61_">
		<path fill="#333333" d="M179.7,463.2V487h-73.4L99,453.8c14.7-20.4-1.1-21.4-3.8-21.4h0h0c-2.7,0-18.5,1-3.8,21.4L84.1,487H10.7
			v-23.8c0-5,2.2-9.8,6.1-13c21.5-17.7,44.7-29.4,49.5-31.7c0.5-0.3,0.9-0.8,0.9-1.4v-33.5c-4.2-2.8-7-7.6-7-13v-34.8
			c0-17.3,14-31.3,31.3-31.3h3.7h3.7c17.3,0,31.3,14,31.3,31.3v34.8c0,5.4-2.8,10.2-7,13V417c0,0.6,0.3,1.1,0.9,1.4
			c4.7,2.3,27.9,14,49.5,31.7C177.5,453.4,179.7,458.1,179.7,463.2z"/>
	</g>
	<path id="XMLID_1922_" fill="#E2574C" d="M256,252.9c-43.9,0-79.4,35.6-79.4,79.4s35.6,79.4,79.4,79.4c43.9,0,79.4-35.6,79.4-79.4
		S299.9,252.9,256,252.9z M278.8,363.6c-3.5,4.2-8,7-13.2,8.5c-2.3,0.6-3.3,1.8-3.2,4.2c0.1,2.3,0,4.7,0,7c0,2.1-1.1,3.2-3.1,3.3
		c-2.5,0.1-5.1,0.1-7.6,0c-2.2,0-3.3-1.3-3.3-3.5c0-1.7,0-3.4,0-5.1c0-3.8-0.2-3.9-3.8-4.5c-4.7-0.7-9.2-1.8-13.5-3.9
		c-3.3-1.6-3.7-2.5-2.7-6c0.7-2.6,1.4-5.2,2.2-7.8c0.9-3,1.7-3.4,4.5-1.9c4.7,2.5,9.7,3.8,15,4.5c3.4,0.4,6.7,0.1,9.8-1.3
		c5.8-2.5,6.8-9.3,1.8-13.4c-1.7-1.4-3.6-2.4-5.6-3.3c-5.1-2.2-10.5-4-15.3-6.9c-7.8-4.7-12.8-11.1-12.2-20.7
		c0.7-10.8,6.8-17.5,16.7-21.1c4.1-1.5,4.1-1.4,4.1-5.7c0-1.4,0-2.9,0-4.3c0.1-3.2,0.6-3.8,3.8-3.9c1,0,2,0,3,0c6.8,0,6.8,0,6.9,6.8
		c0,4.8,0,4.8,4.8,5.6c3.7,0.6,7.2,1.7,10.6,3.2c1.9,0.8,2.6,2.1,2,4.1c-0.9,2.9-1.7,5.9-2.6,8.8c-0.9,2.8-1.8,3.2-4.4,1.9
		c-5.3-2.6-10.9-3.7-16.8-3.3c-1.5,0.1-3.1,0.3-4.5,0.9c-5.1,2.2-5.9,7.8-1.6,11.3c2.2,1.8,4.7,3,7.3,4.1c4.5,1.9,9,3.7,13.3,6
		C284.7,334.9,288.4,352,278.8,363.6z"/>
</g>
</svg>
