<?xml version="1.0" encoding="utf-8"?>
<!-- Generator: Adobe Illustrator 18.0.0, SVG Export Plug-In . SVG Version: 6.00 Build 0)  -->
<!DOCTYPE svg PUBLIC "-//W3C//DTD SVG 1.1//EN" "http://www.w3.org/Graphics/SVG/1.1/DTD/svg11.dtd">
<svg version="1.1" id="Layer_1" xmlns="http://www.w3.org/2000/svg" xmlns:xlink="http://www.w3.org/1999/xlink" x="0px" y="0px"
	 viewBox="0 0 512 512" enable-background="new 0 0 512 512" xml:space="preserve">
<g>
	<path fill="#333333" d="M289.1,484.2c27,0,49.1-22.1,49.1-49.1v-37.6c-1.7,0.2-3.4,0.4-5.1,0.4l-15.2,0c-2,0-3.9-0.2-5.7-0.5v7.5
		c0,6.9-5.6,12.6-12.6,12.6H111.1c-6.9,0-12.6-5.6-12.6-12.6V107.2c0-6.9,5.6-12.6,12.6-12.6h188.5c6.9,0,12.6,5.6,12.6,12.6v2.2
		h-0.1v7.5c1.8-0.3,3.6-0.5,5.5-0.5l15.2,0h0h0c1.8,0,3.6,0.2,5.3,0.4V76.9c0-27-22.1-49.1-49.1-49.1H121.5
		c-27,0-49.1,22.1-49.1,49.1v358.3c0,27,22.1,49.1,49.1,49.1H289.1z M179.2,438.1h47.3c7,0,12.7,5.7,12.7,12.7
		c0,7-5.7,12.7-12.7,12.7h-47.3c-7,0-12.7-5.7-12.7-12.7C166.4,443.8,172.2,438.1,179.2,438.1z"/>
	<path fill="#E2574C" d="M325.3,143.1c-15,0-29.7,2.9-43.6,8.7c-58.2,24.1-85.9,91-61.8,149.1c17.7,42.8,59.2,70.5,105.5,70.5
		c15,0,29.7-2.9,43.6-8.7c28.2-11.7,50.1-33.6,61.8-61.8c11.7-28.2,11.7-59.2,0-87.4C413.1,170.7,371.7,143.1,325.3,143.1z
		 M274.9,181.6c-4.2,7.6-7.7,16-10.5,24.9h-14.4C256.4,196.8,264.8,188.3,274.9,181.6z M238.7,284.9c-5.9-18.5-5.6-37.7,0-55.2h20.1
		c-1.5,9.1-2.3,18.3-2.3,27.5c0,8.7,1,18.1,2.8,27.7H238.7z M249.9,308h15.6c3.2,9.3,7.2,18.4,11.9,26.5
		C266.5,327.8,257.1,318.8,249.9,308z M314.9,343.3c-9.2-6.3-18.1-19.4-24.6-35.3h24.6V343.3z M314.9,284.9H283
		c-2.1-9.2-3.3-18.6-3.3-27.7c0-9.4,1-18.6,2.6-27.5h32.5V284.9z M314.9,206.5h-26.1c6.5-17.1,15.8-30.3,26.1-36.2V206.5z
		 M400.8,206.5h-12.2c-2.5-7.9-5.6-15.5-9.2-22.4C387.7,190.2,395,197.7,400.8,206.5z M338.1,170.2c10.3,5.9,19.6,19.2,26.1,36.2
		h-26.1V170.2z M338.1,343.3V308h24.6C356.1,323.9,347.3,337,338.1,343.3z M370,284.9h-31.9v-55.2h32.5c1.7,8.8,2.6,18.1,2.6,27.5
		C373.2,266.3,372,275.7,370,284.9z M376.9,332.2c4.1-7.5,7.7-15.7,10.5-24.2h13.4C394.5,317.5,386.4,325.7,376.9,332.2z M412,284.9
		h-18.4c1.8-9.6,2.8-19,2.8-27.7c0-9.2-0.8-18.4-2.3-27.5H412C417.8,247.7,417.8,266.8,412,284.9z"/>
</g>
</svg>
