<?xml version="1.0" encoding="utf-8"?>
<!-- Generator: Adobe Illustrator 18.0.0, SVG Export Plug-In . SVG Version: 6.00 Build 0)  -->
<!DOCTYPE svg PUBLIC "-//W3C//DTD SVG 1.1//EN" "http://www.w3.org/Graphics/SVG/1.1/DTD/svg11.dtd">
<svg version="1.1" id="Layer_1" xmlns="http://www.w3.org/2000/svg" xmlns:xlink="http://www.w3.org/1999/xlink" x="0px" y="0px"
	 viewBox="0 0 512 512" enable-background="new 0 0 512 512" xml:space="preserve">
<g>
	<path fill="#333333" d="M285.7,381.6c0-12.3,5.4-23.8,14.9-31.5c8.2-6.7,16.5-12.7,24.3-17.9H72.3v-28.3v-9.9V140.1
		c0,0,0-0.1,0.1-0.1h177.8h0h123.1c0.1,0,0.1,0,0.1,0.1v42.7c8.2-4.4,17.5-7,27.5-7h8.7c0.4,0,0.8,0.1,1.2,0.1v-35.7
		c0-20.7-16.8-37.4-37.4-37.4H233.2h0H72.4c-20.7,0-37.4,16.8-37.4,37.4v153.7v8.2v27.6c0,4.9-1.7,9.6-4.7,13.3l-19.3,23.7
		c-1.5,1.8-2.2,4-2.2,6.3v10.8c0,14,11.4,25.4,25.4,25.4h251.7V381.6z M250.5,385.2h-55.3c-7.1,0-12.9-5.8-12.9-12.9v-2.8h81.1v2.8
		C263.4,379.4,257.6,385.2,250.5,385.2z"/>
	<path fill="#E2574C" d="M437.8,327.8v-38.9c4.9-3.3,8.1-8.8,8.1-15.1v-40.3c0-20.1-16.3-36.3-36.3-36.3h-4.3h-4.3
		c-20.1,0-36.3,16.3-36.3,36.3v40.3c0,6.3,3.2,11.9,8.1,15.1v38.9c0,0.7-0.4,1.3-1,1.6c-5.5,2.7-32.4,16.3-57.4,36.8
		c-4.5,3.7-7.1,9.3-7.1,15.1V409h85.2l8.4-38.6c-17-23.7,1.3-24.9,4.5-24.9h0h0c3.2,0,21.5,1.2,4.5,24.9l8.4,38.6h85.2v-27.6
		c0-5.8-2.6-11.4-7.1-15.1c-25-20.5-51.9-34.2-57.4-36.8C438.2,329.1,437.8,328.5,437.8,327.8z"/>
</g>
</svg>
