<?xml version="1.0" encoding="utf-8"?>
<!-- Generator: Adobe Illustrator 18.0.0, SVG Export Plug-In . SVG Version: 6.00 Build 0)  -->
<!DOCTYPE svg PUBLIC "-//W3C//DTD SVG 1.1//EN" "http://www.w3.org/Graphics/SVG/1.1/DTD/svg11.dtd">
<svg version="1.1" id="Layer_1" xmlns="http://www.w3.org/2000/svg" xmlns:xlink="http://www.w3.org/1999/xlink" x="0px" y="0px"
	 viewBox="0 0 512 512" enable-background="new 0 0 512 512" xml:space="preserve">
<g>
	<g id="XMLID_314_">
		<g>
			<path fill="#E2574C" d="M486.2,436.5L381.8,332.1l-9-9l-3-3l0,0l-2.7-2.7l-7,7l-15.1-15.1c60-70.7,56.6-176.8-10.2-243.5
				c-35.1-35.1-81.2-52.7-127.3-52.7c-46.1,0-92.1,17.6-127.3,52.7c-70.3,70.3-70.3,184.3,0,254.6c35.1,35.1,81.2,52.7,127.3,52.7
				c41.4,0,82.8-14.2,116.3-42.6l15.1,15.1l-7,7l0,0l0,0l5.7,5.7l9,9L451,471.8c4.9,4.9,11.2,7.3,17.6,7.3c6.4,0,12.7-2.4,17.6-7.3
				C495.9,462,495.9,446.3,486.2,436.5C486.2,436.5,486.2,436.5,486.2,436.5z M313.6,299.2c-29.3,29.3-67.7,43.9-106.1,43.9
				c-38.4,0-76.8-14.6-106.1-43.9c-58.6-58.6-58.6-153.6,0-212.2C130.7,57.7,169.1,43,207.5,43c38.4,0,76.8,14.6,106.1,43.9
				C372.2,145.6,372.2,240.6,313.6,299.2z"/>
		</g>
	</g>
	<g>
		<g>
			<path fill="#333333" d="M207.5,317.9c22.9,0,44.8-6.1,63.9-17.5v-33.9c9.5-6.3,15.7-17.1,15.7-29.3v-78.1
				c0-38.8-31.5-70.3-70.3-70.3h-8.4H200c-38.8,0-70.3,31.5-70.3,70.3v78.1c0,12.2,6.2,23,15.7,29.3v34.9
				C164.1,312.2,185.3,317.9,207.5,317.9z"/>
		</g>
		<g>
			<path fill="#333333" d="M328.7,385.2l-9-9l-5.7-5.7c-0.4-0.4-0.8-0.9-1.2-1.3c-31.6,18.9-68.1,29.1-105.4,29.1
				c-26.6,0-52.6-5.1-77.2-15c-10.3-4.2-20.2-9.2-29.6-14.9c-20.2,12.1-44.8,28.4-68.4,47.8c-8.7,7.2-13.8,17.9-13.8,29.2v53.5
				h189.9h189.9v-44.2L328.7,385.2z"/>
		</g>
	</g>
</g>
</svg>
