<?xml version="1.0" encoding="utf-8"?>
<!-- Generator: Adobe Illustrator 18.0.0, SVG Export Plug-In . SVG Version: 6.00 Build 0)  -->
<!DOCTYPE svg PUBLIC "-//W3C//DTD SVG 1.1//EN" "http://www.w3.org/Graphics/SVG/1.1/DTD/svg11.dtd">
<svg version="1.1" id="Layer_1" xmlns="http://www.w3.org/2000/svg" xmlns:xlink="http://www.w3.org/1999/xlink" x="0px" y="0px"
	 viewBox="0 0 512 512" enable-background="new 0 0 512 512" xml:space="preserve">
<g>
	<g>
		<path fill="#333333" d="M476.2,340.6c-9.1-0.7-27.9,9.6-33.1,12.1c-18.4,9.2-43.8,23.7-60.6,35.3c-1.2,0.8-2.7,1.8-3.9,2.6
			c-7.5,4.9-15.5,8.1-24.3,10c-48.7,10.4-119.6,11.5-119.6,11.5l-4.1,0.2c-3.1,0.2-5.9-2-6.3-5c-0.5-3.3,2-6.4,5.4-6.7l105.5-10
			c11.6-1.3,20.9-12.1,19.6-24.4c-1.3-12.2-12.5-21.1-24.1-19.9l-93.8-1.2c-6.4-0.1-16.6-1.7-22.7-3.5
			c-60.5-17.7-94.5-1.1-112.7,6.6c-4-6.7-11.7-11-20.3-10.5l-40.5,2.7c-13.5,0.9-23.6,12.1-22.7,25.1l6.5,89.8
			c0.9,13,12.6,22.8,26,21.9l40.5-2.7c8.5-0.6,15.5-5.8,18.5-13l177.7,7.7c19.8,2.1,38.4-0.3,55.8-9.4l5.1-2.7l134.3-78.6
			c6.6-3.9,11.3-10.5,11.5-18C494.3,351.6,489,341.6,476.2,340.6z M65.4,456c-7.6,0-13.8-5.9-13.8-13.3c0-7.3,6.2-13.3,13.8-13.3
			c7.6,0,13.8,5.9,13.8,13.3C79.2,450,73,456,65.4,456z"/>
		<path fill="#333333" d="M374.3,355c1,2.9,1.7,6,2,9.1c0.3,2.5,0.2,5,0.1,7.5c1.4-1,2.8-2,4.2-2.9c13.7-9.6,41.7-24.8,57.6-32.8
			c4.8-2.4,9.8-4.8,15.3-6.7c-6.9-4.6-14.3-4.8-21.9-1.8c-15.1,6-42.9,19.4-57,27.1C374.4,354.6,374.3,354.8,374.3,355z"/>
		<path fill="#333333" d="M366.3,341c0.6-0.4,1.2-0.9,1.8-1.2l6.8-3.7c9.9-5.5,31.1-12.9,42-17.8c-6.9-4.5-14.2-4.7-21.7-1.7
			c-9.3,3.7-30.2,10.4-39.4,15.4C359.7,334.4,363.3,337.5,366.3,341z"/>
	</g>
	<path fill="#333333" d="M427.5,181.9l0.1-19.6c0-6.4-5.2-11.7-11.6-11.7l-18-0.1c-2.7-13.8-8.1-27.3-16.2-39.4l12.7-12.7
		c4.6-4.5,4.6-11.9,0-16.5l-13.8-13.9c-4.5-4.6-11.9-4.6-16.5,0l-12.7,12.7c-12.1-8.2-25.5-13.6-39.3-16.4l0.1-18
		c0-6.4-5.2-11.7-11.6-11.7l-19.6-0.1c-6.4,0-11.7,5.2-11.7,11.6l-0.1,18c-13.8,2.7-27.3,8.1-39.4,16.2l-12.7-12.7
		c-4.5-4.6-11.9-4.6-16.5,0L187,81.5c-4.6,4.5-4.6,11.9,0,16.5l12.7,12.7c-8.2,12.1-13.6,25.5-16.4,39.3l-18-0.1
		c-6.4,0-11.7,5.2-11.7,11.6l-0.1,19.6c0,6.4,5.2,11.7,11.6,11.7l18,0.1c2.7,13.8,8.1,27.3,16.2,39.4l-12.7,12.7
		c-4.6,4.5-4.6,11.9,0,16.5l13.8,13.9c4.5,4.6,11.9,4.6,16.5,0l12.7-12.7c12.1,8.2,25.5,13.6,39.3,16.4l-0.1,18
		c0,6.4,5.2,11.7,11.6,11.7l19.6,0.1c6.4,0,11.7-5.2,11.7-11.6l0.1-18c13.8-2.7,27.3-8.1,39.4-16.2l12.7,12.7
		c4.5,4.6,11.9,4.6,16.5,0l13.9-13.8c4.6-4.5,4.6-11.9,0-16.5l-12.7-12.7c8.2-12.1,13.6-25.5,16.4-39.3l18,0.1
		C422.3,193.5,427.5,188.3,427.5,181.9z M342,223.5c-28.6,28.4-74.8,28.3-103.3-0.3c-28.4-28.6-28.3-74.8,0.3-103.3
		c28.6-28.4,74.8-28.3,103.3,0.3C370.8,148.8,370.6,195.1,342,223.5z"/>
	<path fill="#E2574C" d="M313,202.5c-3.4,4.1-7.8,6.9-13,8.3c-2.3,0.6-3.3,1.8-3.2,4.1c0.1,2.3,0,4.6,0,6.9c0,2.1-1.1,3.2-3.1,3.2
		c-2.5,0.1-5,0.1-7.4,0c-2.2,0-3.2-1.3-3.2-3.4c0-1.7,0-3.4,0-5.1c0-3.7-0.2-3.9-3.7-4.4c-4.6-0.7-9.1-1.8-13.3-3.8
		c-3.3-1.6-3.6-2.4-2.7-5.9c0.7-2.6,1.4-5.1,2.2-7.7c0.9-2.9,1.7-3.3,4.4-1.9c4.6,2.4,9.6,3.8,14.7,4.4c3.3,0.4,6.6,0.1,9.6-1.3
		c5.7-2.5,6.6-9.2,1.8-13.2c-1.7-1.4-3.5-2.4-5.5-3.2c-5-2.2-10.3-3.9-15-6.7c-7.7-4.6-12.6-11-12-20.3c0.6-10.6,6.6-17.2,16.4-20.8
		c4-1.5,4-1.4,4.1-5.6c0-1.4,0-2.8,0-4.3c0.1-3.2,0.6-3.7,3.8-3.8c1,0,2,0,2.9,0c6.7,0,6.7,0,6.7,6.7c0,4.7,0,4.8,4.7,5.5
		c3.6,0.6,7.1,1.6,10.4,3.1c1.8,0.8,2.5,2.1,2,4c-0.8,2.9-1.6,5.8-2.6,8.7c-0.9,2.7-1.7,3.1-4.3,1.8c-5.2-2.5-10.7-3.6-16.5-3.3
		c-1.5,0.1-3,0.3-4.4,0.9c-5,2.2-5.8,7.7-1.6,11.1c2.2,1.7,4.6,3,7.2,4c4.4,1.8,8.9,3.6,13.1,5.9C318.8,174.3,322.4,191.1,313,202.5
		z"/>
</g>
</svg>
