<?xml version="1.0" encoding="utf-8"?>
<!-- Generator: Adobe Illustrator 18.0.0, SVG Export Plug-In . SVG Version: 6.00 Build 0)  -->
<!DOCTYPE svg PUBLIC "-//W3C//DTD SVG 1.1//EN" "http://www.w3.org/Graphics/SVG/1.1/DTD/svg11.dtd">
<svg version="1.1" id="Layer_1" xmlns="http://www.w3.org/2000/svg" xmlns:xlink="http://www.w3.org/1999/xlink" x="0px" y="0px"
	 viewBox="0 0 512 512" enable-background="new 0 0 512 512" xml:space="preserve">
<g id="XMLID_5975_">
	<g id="XMLID_5987_">
		<circle fill="#333333" cx="301.7" cy="306.9" r="81.7"/>
	</g>
	<g id="XMLID_5984_">
		<path fill="#333333" d="M254.5,195.9c2.2,2.8,3.9,6,5.2,9.3c9.1-3.8,18.9-6.4,29.2-7.6c60.4-7.1,115.1,36.1,122.2,96.5
			c7.1,60.4-36.1,115.1-96.5,122.2c-60.4,7.1-115.1-36.1-122.2-96.5c-2.5-21,1.2-41.2,9.4-59.1c-3.9-1.6-7.5-3.9-10.6-6.8
			c-3.5,1.5-7.1,2.8-10.7,3.9c-2.1,17.9-17.8,31.4-36,30.6l-2.4-0.1c-1.7,14.6-1.4,29.5,1,44.5l-24.4,8.8
			c-8.8,3.2-13.4,12.9-10.2,21.7l8.9,24.6c3.2,8.8,12.9,13.4,21.7,10.2l24.4-8.8c11.4,19.3,26.5,35.6,44,48.3l-11,23.4
			c-4,8.5-0.3,18.6,8.2,22.6l23.8,11.1c8.5,4,18.6,0.3,22.6-8.2l10.9-23.3c21,5.4,43.2,6.7,65.5,3.1l8.7,24
			c3.2,8.8,12.9,13.4,21.7,10.2l24.6-8.9c8.8-3.2,13.4-12.9,10.2-21.7l-8.6-23.8c19.5-11.5,35.9-26.7,48.7-44.3l22.7,10.6
			c8.5,4,18.6,0.3,22.6-8.2l11.1-23.8c4-8.5,0.3-18.6-8.2-22.6l-22.6-10.6c5.5-21.2,6.7-43.6,3-66l23.4-8.5
			c8.8-3.2,13.4-12.9,10.2-21.7l-8.9-24.6c-3.2-8.8-12.9-13.4-21.7-10.2l-23.4,8.5c-11.6-19.5-26.9-36-44.7-48.7l10.6-22.6
			c4-8.5,0.3-18.6-8.2-22.6l-23.8-11.1c-8.5-4-18.6-0.3-22.6,8.2l-10.6,22.7c-15.7-4-32-5.6-48.5-4.7l-0.3,6.5
			c-0.4,9.3-4.4,17.8-11.3,24.1c-6.2,5.7-14.1,8.9-22.4,9.1C257.8,189.1,256.2,192.5,254.5,195.9z"/>
	</g>
	<g id="XMLID_5976_">
		<g>
			<path fill="#E2574C" d="M26.2,151.3l16.2,0.7c1.9,13.5,6.6,26.8,14,38.9l-11.9,10.9c-2.3,2.1-3.5,5-3.5,7.9
				c0,2.6,0.9,5.2,2.8,7.2L55,229c4,4.4,10.8,4.7,15.1,0.7l11.8-10.8c11.4,8.6,24.2,14.5,37.6,17.7l-0.7,15.8c0,0.2,0,0.3,0,0.5
				c0,5.7,4.5,10.4,10.2,10.7l16.5,0.7c5.9,0.3,10.9-4.3,11.2-10.2l0.7-15.7c13.6-1.9,27-6.6,39.2-14.2l10.6,11.6
				c4,4.4,10.8,4.7,15.1,0.7l12.2-11.2c2.3-2.1,3.5-5,3.5-7.9c0-2.6-0.9-5.2-2.8-7.2l-10.6-11.6c8.6-11.4,14.4-24.3,17.6-37.8
				l15.7,0.7c5.9,0.3,10.9-4.3,11.2-10.2l0.7-16.5c0-0.2,0-0.3,0-0.5c0-5.7-4.5-10.4-10.2-10.7l-15.8-0.7c-2-13.6-6.7-26.9-14.3-39
				l11.8-10.8c2.3-2.1,3.5-5,3.5-7.9c0-2.6-0.9-5.2-2.8-7.2l-11.2-12.2c-4-4.4-10.8-4.7-15.1-0.7l-11.9,10.9
				c-11.4-8.5-24.2-14.3-37.5-17.4l0.7-16.2c0-0.2,0-0.3,0-0.5c0-5.7-4.5-10.4-10.2-10.7l-16.5-0.7c-5.9-0.3-10.9,4.3-11.2,10.2
				l-0.7,16.3c-13.5,2-26.7,6.7-38.7,14.1l-11-12.1c-4-4.4-10.8-4.7-15.1-0.7L51.3,49.7c-2.3,2.1-3.5,5-3.5,7.9
				c0,2.6,0.9,5.2,2.8,7.2l11,12.1c-8.5,11.3-14.3,24-17.5,37.3l-16.3-0.7c-5.9-0.3-10.9,4.3-11.2,10.2L16,140.1c0,0.2,0,0.3,0,0.5
				C16,146.3,20.5,151,26.2,151.3z M105.6,96.8c22.5-20.5,57.3-19,77.9,3.4c9.7,10.6,14.5,23.9,14.5,37.2c0,14.9-6,29.8-17.9,40.7
				c-22.5,20.5-57.3,19-77.9-3.4c-9.7-10.6-14.5-23.9-14.5-37.2C87.7,122.6,93.7,107.7,105.6,96.8z"/>
		</g>
	</g>
</g>
</svg>
