<?xml version="1.0" encoding="utf-8"?>
<!-- Generator: Adobe Illustrator 18.0.0, SVG Export Plug-In . SVG Version: 6.00 Build 0)  -->
<!DOCTYPE svg PUBLIC "-//W3C//DTD SVG 1.1//EN" "http://www.w3.org/Graphics/SVG/1.1/DTD/svg11.dtd">
<svg version="1.1" id="Layer_1" xmlns="http://www.w3.org/2000/svg" xmlns:xlink="http://www.w3.org/1999/xlink" x="0px" y="0px"
	 viewBox="0 0 512 512" enable-background="new 0 0 512 512" xml:space="preserve">
<g>
	<path fill="#333333" d="M477.2,368.1L477.2,368.1l0-53.1l0,0V83.5c0-17.7-14.4-32.2-32.2-32.2H67c-17.7,0-32.2,14.4-32.2,32.2
		v237.2c0,0.1,0,0.3,0,0.4v43c0,0.2,0,0.3,0,0.5v2.4c0,0.2,0,0.3,0,0.5v0.6h0c0.6,15.1,13,27.2,28.3,27.2h143.5
		c-0.3,6.4-3.8,35.2-46.9,40.7h1.4c-6.8,0-12.3,5.5-12.3,12.3c0,6.8,5.5,12.3,12.3,12.3h189.1c6.8,0,12.3-5.5,12.3-12.3
		c0-6.8-5.5-12.3-12.3-12.3h2.1c-43.1-5.4-46.7-34.3-46.9-40.7h143.5C464.1,395.4,476.6,383.3,477.2,368.1z M256,379.4
		c-8.7,0-15.7-7-15.7-15.7c0-8.7,7-15.7,15.7-15.7c8.7,0,15.7,7,15.7,15.7C271.7,372.3,264.7,379.4,256,379.4z M67,326.4
		c-3.1,0-5.6-2.5-5.6-5.6V83.5c0-3.1,2.5-5.6,5.6-5.6h378c3.1,0,5.6,2.5,5.6,5.6v237.2c0,3.1-2.5,5.6-5.6,5.6H67z"/>
	<path fill="#E2574C" d="M285.5,223.7v-35.3c4.4-3,7.4-8,7.4-13.7v-36.6c0-18.2-14.8-33-33-33H256h-3.9c-18.2,0-33,14.8-33,33v36.6
		c0,5.7,2.9,10.8,7.4,13.7v35.3c0,0.6-0.4,1.2-0.9,1.5c-5,2.4-29.4,14.8-52.1,33.4c-4.1,3.4-6.4,8.4-6.4,13.7v25.1h77.3l7.6-35
		c-15.4-21.5,1.2-22.6,4-22.6h0h0c2.9,0,19.5,1.1,4,22.6l7.6,35H345v-25.1c0-5.3-2.4-10.3-6.4-13.7c-22.7-18.6-47.1-31-52.1-33.4
		C285.9,224.9,285.5,224.3,285.5,223.7z"/>
</g>
</svg>
