<?xml version="1.0" encoding="utf-8"?>
<!-- Generator: Adobe Illustrator 18.0.0, SVG Export Plug-In . SVG Version: 6.00 Build 0)  -->
<!DOCTYPE svg PUBLIC "-//W3C//DTD SVG 1.1//EN" "http://www.w3.org/Graphics/SVG/1.1/DTD/svg11.dtd">
<svg version="1.1" id="Layer_1" xmlns="http://www.w3.org/2000/svg" xmlns:xlink="http://www.w3.org/1999/xlink" x="0px" y="0px"
	 viewBox="0 0 512 512" enable-background="new 0 0 512 512" xml:space="preserve">
<g>
	<path fill="#333333" d="M277,17.3c-27.6,0-54.3,6-77.9,17.6C136.8,64,93.6,126.8,93.6,199.7v24.1v6l-37.2,71.3
		c-9.5,18.1-0.5,32.7,19.6,32.7h17.6v0.5V365v36.2c0,21.1,17.1,38.2,38.2,38.2l52.8-8V484v0.5c0,6.5,6,11.1,13.1,10L387,460.9
		c7-1.5,13.1-8,13.1-15.6v-8.5v-6.5v-96.5c36.2-33.2,59.3-80.9,59.3-134.2C458.9,99.2,377.5,17.3,277,17.3z M277.1,332.4
		c-73.8,0-133.9-60.1-133.9-133.9c0-73.8,60.1-133.9,133.9-133.9c73.8,0,133.9,60.1,133.9,133.9
		C410.9,272.4,350.9,332.4,277.1,332.4z"/>
	<g>
		<path fill="#E2574C" d="M169,189.3c6.7-9.4,14.1-18.3,22.1-26.5l0.1-0.2c2.4-2.9,6.9-2.9,9.3,0c8.1,8.3,15.5,17.2,22.2,26.6
			l2.5,3.5c2.4,2.9,0.3,7.3-3.5,7.3h-13.7c0.8,37.3,31.4,67.4,68.9,67.4c13.3,0,25.8-3.8,36.3-10.4c4.8-3,11-2.1,14.9,1.8
			c5.6,5.6,4.5,14.8-2.2,19c-14.3,8.9-31.1,14-49.1,14c-51,0-92.5-41.1-93.3-91.8H170c-3.8,0-5.8-4.4-3.4-7.3L169,189.3z
			 M225.8,138.2c4,4,10.2,4.8,14.9,1.8c10.6-6.6,23-10.4,36.3-10.4c37.5,0,68.1,30.1,68.9,67.4h-13.7c-3.8,0-5.8,4.4-3.4,7.3
			l2.5,3.5c6.7,9.4,14.1,18.3,22.2,26.6c2.4,2.9,6.9,2.9,9.3,0l0.1-0.2c8-8.3,15.4-17.1,22.1-26.5l2.4-3.4c2.4-2.9,0.3-7.3-3.4-7.3
			h-13.8c-0.8-50.8-42.3-91.8-93.3-91.8c-18,0-34.8,5.1-49.1,14C221.3,123.4,220.2,132.7,225.8,138.2L225.8,138.2z"/>
	</g>
</g>
</svg>
