<?xml version="1.0" encoding="utf-8"?>
<!-- Generator: Adobe Illustrator 18.0.0, SVG Export Plug-In . SVG Version: 6.00 Build 0)  -->
<!DOCTYPE svg PUBLIC "-//W3C//DTD SVG 1.1//EN" "http://www.w3.org/Graphics/SVG/1.1/DTD/svg11.dtd">
<svg version="1.1" id="Layer_1" xmlns="http://www.w3.org/2000/svg" xmlns:xlink="http://www.w3.org/1999/xlink" x="0px" y="0px"
	 viewBox="0 0 512 512" enable-background="new 0 0 512 512" xml:space="preserve">
<g>
	<path fill="#333333" d="M314.5,382.9V405c0,6.9-5.6,12.6-12.6,12.6H113.5c-6.9,0-12.6-5.6-12.6-12.6V107.2
		c0-6.9,5.6-12.6,12.6-12.6H302c6.9,0,12.6,5.6,12.6,12.6v2.2h-0.1v9.4c4.3-0.4,8.7-0.6,13.1-0.6c4.3,0,8.7,0.2,12.9,0.6v-42
		c0-27-22.1-49.1-49.1-49.1H123.9c-27,0-49.1,22.1-49.1,49.1v358.3c0,27,22.1,49.1,49.1,49.1h167.6c27,0,49.1-22.1,49.1-49.1v-52.2
		c-4.3,0.4-8.6,0.6-12.9,0.6C323.3,383.5,318.9,383.3,314.5,382.9z M228.8,463.6h-47.3c-7,0-12.7-5.7-12.7-12.7
		c0-7,5.7-12.7,12.7-12.7h47.3c7,0,12.7,5.7,12.7,12.7C241.6,457.9,235.8,463.6,228.8,463.6z"/>
	<path fill="#E2574C" d="M326.9,141.1c-60.9,0-110.3,49.4-110.3,110.3c0,28.8,11,54.9,29,74.6c-4.2,8.6-11.1,18.8-21.8,24
		c-3.7,1.8-2.9,7.4,1.2,8c12,1.9,29.1-0.1,45.3-11.8c16.5,9.9,35.9,15.6,56.6,15.6c60.9,0,110.3-49.4,110.3-110.3
		C437.2,190.5,387.8,141.1,326.9,141.1z M331.2,188.9c9.1,0,16.4,7.5,16.3,16.7c-0.1,9.1-7.5,16.6-16.4,16.5
		c-9.2-0.1-16.6-7.6-16.5-16.8C314.6,196.2,322,188.9,331.2,188.9z M354.6,300.2c-0.4,1.4-1.3,2.9-2.3,4c-6,6.1-13.2,9.7-21.8,9.8
		c-4,0.1-8.1-0.1-12-0.7c-6.6-0.9-15-9.1-13.8-17.8c0.8-6,1.7-11.9,2.7-17.8c1.7-10.3,3.6-20.6,5.4-30.9c0.1-0.6,0.2-1.3,0.2-2
		c0-4.3-1.4-5.8-5.6-6.4c-1.8-0.3-3.7-0.4-5.4-1c-2.1-0.8-3.1-2.4-2.9-4.1c0.2-1.8,1.4-2.9,3.7-3.4c1.2-0.2,2.5-0.3,3.8-0.3
		c5.1,0,10.1,0,15.2,0c5.4,0,10.7,0,16.1,0c3.9,0,6.2,1.8,6.3,5.7c0.1,3.2-0.5,6.4-1,9.6c-2.1,11.8-4.3,23.5-6.4,35.3
		c-0.7,3.9-1.5,7.8-2,11.7c-0.2,1.9,0,3.9,0.5,5.7c0.6,2.5,2.5,3.8,5,3.5c2.1-0.2,4.2-1,6.1-1.7c1.6-0.6,3-1.7,4.6-2.4
		C353.2,296,355.2,297.7,354.6,300.2z"/>
</g>
</svg>
