<?xml version="1.0" encoding="utf-8"?>
<!-- Generator: Adobe Illustrator 18.0.0, SVG Export Plug-In . SVG Version: 6.00 Build 0)  -->
<!DOCTYPE svg PUBLIC "-//W3C//DTD SVG 1.1//EN" "http://www.w3.org/Graphics/SVG/1.1/DTD/svg11.dtd">
<svg version="1.1" id="Layer_1" xmlns="http://www.w3.org/2000/svg" xmlns:xlink="http://www.w3.org/1999/xlink" x="0px" y="0px"
	 viewBox="0 0 512 512" enable-background="new 0 0 512 512" xml:space="preserve">
<g>
	<g id="XMLID_350_">
		<path fill="#333333" d="M226.4,330.9h-46.8c-5.6,0-10.1,4.5-10.1,10.1v19.5V446v19.5c0,5.6,4.5,10.1,10.1,10.1h46.8
			c5.6,0,10.1-4.5,10.1-10.1V446v-85.5V341C236.5,335.5,231.9,330.9,226.4,330.9z"/>
	</g>
	<g id="XMLID_349_">
		<path fill="#333333" d="M321,274.9h-46.8c-5.6,0-10.1,4.5-10.1,10.1v75.5V390v75.5c0,5.6,4.5,10.1,10.1,10.1H321
			c5.6,0,10.1-4.5,10.1-10.1V390v-29.5V285C331.1,279.4,326.6,274.9,321,274.9z"/>
	</g>
	<g id="XMLID_348_">
		<path fill="#333333" d="M131.7,377H84.9c-5.6,0-10.1,4.5-10.1,10.1v-26.6V446v19.5c0,5.6,4.5,10.1,10.1,10.1h46.8
			c5.6,0,10.1-4.5,10.1-10.1V446v-85.5v26.6C141.8,381.5,137.3,377,131.7,377z"/>
	</g>
	<g id="XMLID_346_">
		<path fill="#E2574C" d="M464.6,209.8L398.7,104c-3-4.8-9.9-4.8-12.9,0l-65.9,105.8c-3.2,5.1,0.5,11.6,6.5,11.6h32.4v244.1
			c0,5.6,4.5,10.1,10.1,10.1h46.8c5.3,0,9.7-4.2,10-9.4h0.1V304.8v-4.5v-78.8h32.4C464.1,221.4,467.7,214.9,464.6,209.8z"/>
	</g>
	<g>
		<path fill="#333333" d="M154.6,101.2L154.6,101.2c-0.1,0-0.1,0-0.2,0c-0.1,0-0.1,0-0.2,0l0,0c-28.6-7.6-14.6-44.8-14.6-44.8
			c7.7-25.2,29-19.6,31.1-19c2.1,0.5,23.6,5.7,18.2,31.5C188.9,68.9,183.3,108.2,154.6,101.2z"/>
		<path fill="#333333" d="M101.8,288.5c3.1-4.5,5-9.6,5.6-14.9l3.9-33.4c9.4,2.9,18.6,5.8,27.5,8.7l9.2,3l-6.7,29.2
			c-1.5,6.6-4.6,12.6-9.1,17.7l-36.4,41.4c-5.2,5.7-14.3,5.2-18.9-1c-3.2-4.4-3.2-10.4,0.2-14.7L101.8,288.5z"/>
		<path fill="#333333" d="M47.2,171.5L69,119.7c1.5-3.6,4.4-6.4,8-7.9l21.6-9l13.4-4.8c2.5-0.9,5.1-0.8,7.8-0.8
			c4.6,0,9.1,0.8,13.5,1.9c3.2,0.8,5.8,2.9,7.3,5.8l8.3,23.2l2.7-6.9c-8.1-14.1,2.1-13.8,3.9-13.6c0,0,0,0,0,0c0,0,0,0,0,0
			c0,0,0,0,0,0c0,0,0,0,0,0l0,0c1.8,0.2,11.9,1.8,1.1,14.1l2.4,9.8l9.7-20.8c4.5,1.8,8.6,4.1,12.1,7.6c8.5,8.2,16.4,20.4,25,28.4
			l2.6,2.6l56.5,2.7c4.6,0.2,8.9,3.1,10.3,7.5c2.1,6.8-2.8,13.6-9.8,13.9l-65.5,2.3c-3.9,0.1-7.6-1.2-10.5-3.8L177,160.9l-9.2,40.6
			l17.4,6.2l28,11.7c4.6,1.9,8.3,5.6,10.3,10.2l24.4,58.1c3.5,8-1.2,17.2-9.8,19.1c-6.1,1.3-12.3-1.5-15.2-7l-25.7-45.4L152.8,238
			c-13-4.2-26-8.5-39.1-12.4C110.2,224.4,91,214.8,96,187l8.8-48.3l1.1-6l-16.7,6.1l-22.8,42c-2.3,4.2-7.1,6.4-11.7,5.4
			C48.1,184.8,44.5,177.7,47.2,171.5z"/>
	</g>
</g>
</svg>
