<?xml version="1.0" encoding="utf-8"?>
<!-- Generator: Adobe Illustrator 18.0.0, SVG Export Plug-In . SVG Version: 6.00 Build 0)  -->
<!DOCTYPE svg PUBLIC "-//W3C//DTD SVG 1.1//EN" "http://www.w3.org/Graphics/SVG/1.1/DTD/svg11.dtd">
<svg version="1.1" id="Layer_1" xmlns="http://www.w3.org/2000/svg" xmlns:xlink="http://www.w3.org/1999/xlink" x="0px" y="0px"
	 viewBox="0 0 512 512" enable-background="new 0 0 512 512" xml:space="preserve">
<g>
	<path fill="#E2574C" d="M132.3,307.5c5.6,0,10.1-4.5,10.1-10.1v-32.2h227.2v32.2c0,5.6,4.5,10.1,10.1,10.1
		c5.6,0,10.1-4.5,10.1-10.1v-42.3c0-5.6-4.5-10.1-10.1-10.1H266.5v-32.2c0-5.6-4.5-10.1-10.1-10.1c-5.6,0-10.1,4.5-10.1,10.1v32.2
		h-114c-5.6,0-10.1,4.5-10.1,10.1v42.3C122.1,303,126.7,307.5,132.3,307.5z"/>
	<path fill="#333333" d="M252.5,153.5c-13.4-18.8,1-19.7,3.5-19.7h0h0c2.5,0,17,0.9,3.5,19.7l6.7,30.5h67.3v-21.8
		c0-4.6-2.1-9-5.6-11.9c-19.7-16.2-41-27-45.4-29.1c-0.5-0.2-0.8-0.7-0.8-1.3V89.1c3.9-2.6,6.4-7,6.4-12V45.2
		c0-15.9-12.9-28.7-28.7-28.7H256h-3.4c-15.9,0-28.7,12.9-28.7,28.7v31.9c0,5,2.6,9.4,6.4,12v30.7c0,0.5-0.3,1-0.8,1.3
		c-4.3,2.1-25.6,12.9-45.4,29.1c-3.6,2.9-5.6,7.3-5.6,11.9V184h67.3L252.5,153.5z"/>
	<path fill="#333333" d="M204.2,461.7c-19.7-16.2-41-27-45.4-29.1c-0.5-0.2-0.8-0.7-0.8-1.3v-30.7c3.9-2.6,6.4-7,6.4-12v-31.9
		c0-15.9-12.9-28.7-28.7-28.7h-3.4h-3.4c-15.9,0-28.7,12.9-28.7,28.7v31.9c0,5,2.6,9.4,6.4,12v30.7c0,0.5-0.3,1-0.8,1.3
		c-4.3,2.1-25.6,12.9-45.4,29.1c-3.6,2.9-5.6,7.3-5.6,11.9v21.8h67.3l6.7-30.5c-13.4-18.8,1-19.7,3.5-19.7h0h0
		c2.5,0,17,0.9,3.5,19.7l6.7,30.5h67.3v-21.8C209.8,469,207.7,464.6,204.2,461.7z"/>
	<path fill="#333333" d="M451.6,461.7c-19.7-16.2-41-27-45.4-29.1c-0.5-0.2-0.8-0.7-0.8-1.3v-30.7c3.9-2.6,6.4-7,6.4-12v-31.9
		c0-15.9-12.9-28.7-28.7-28.7h-3.4h-3.4c-15.9,0-28.7,12.9-28.7,28.7v31.9c0,5,2.6,9.4,6.4,12v30.7c0,0.5-0.3,1-0.8,1.3
		c-4.3,2.1-25.6,12.9-45.4,29.1c-3.6,2.9-5.6,7.3-5.6,11.9v21.8h67.3l6.7-30.5c-13.4-18.8,1-19.7,3.5-19.7h0h0
		c2.5,0,17,0.9,3.5,19.7l6.7,30.5h67.3v-21.8C457.3,469,455.2,464.6,451.6,461.7z"/>
</g>
</svg>
