<?xml version="1.0" encoding="utf-8"?>
<!-- Generator: Adobe Illustrator 18.0.0, SVG Export Plug-In . SVG Version: 6.00 Build 0)  -->
<!DOCTYPE svg PUBLIC "-//W3C//DTD SVG 1.1//EN" "http://www.w3.org/Graphics/SVG/1.1/DTD/svg11.dtd">
<svg version="1.1" id="Layer_1" xmlns="http://www.w3.org/2000/svg" xmlns:xlink="http://www.w3.org/1999/xlink" x="0px" y="0px"
	 viewBox="0 0 512 512" enable-background="new 0 0 512 512" xml:space="preserve">
<g id="XMLID_4563_">
	<path id="XMLID_4566_" fill="#333333" d="M166.8,140c7.3,7.3,14.7,14.6,22,22c12.9,13,12.9,28.1,0.1,40.9
		c-9.2,9.2-18.3,18.5-27.7,27.6c-2.5,2.4-2.7,4.4-1.4,7.4c6.1,14.8,15,27.8,25,40.1c20.1,24.7,42.8,46.6,69.9,63.7
		c5.8,3.6,12.2,6.3,18.3,9.6c3.1,1.7,5.2,1.1,7.7-1.4c9.2-9.5,18.5-18.7,27.9-28c12.3-12.1,27.6-12.2,39.9,0
		c15,14.9,30,29.9,44.9,44.9c12.5,12.6,12.4,28-0.2,40.7c-8.5,8.6-17.5,16.7-25.5,25.7c-11.7,13.1-26.4,17.3-43.2,16.4
		c-24.4-1.3-46.9-9.4-68.6-20c-48.2-23.4-89.4-55.9-123.8-96.9c-25.5-30.3-46.5-63.3-60.4-100.6c-6.7-18-11.5-36.5-10-56
		c0.9-12.1,5.4-22.3,14.3-30.8c9.5-9.1,18.6-18.6,28-27.9c12.3-12.1,27.7-12.1,40,0C151.8,124.9,159.2,132.5,166.8,140z"/>
	<path id="XMLID_4565_" fill="#E2574C" d="M389.3,115c40.3,41.6,59.5,86.3,61.1,138.4c0.4,12-6.9,19.9-18.4,20.5
		c-12.2,0.6-20.4-6.9-20.7-19.1c-0.6-25.7-6.5-50.1-19.2-72.4c-29-50.9-73.3-77.4-131.6-80.7c-6.5-0.4-12.5-1-17.1-6.2
		c-5.8-6.6-6.3-14.2-3.2-22c3.2-7.8,9.6-11.3,17.9-11.2c37.9,0.6,72.9,11.2,104.5,32.2C373.6,101.8,383.5,110.5,389.3,115z"/>
	<path id="XMLID_4564_" fill="#E2574C" d="M341.8,170.8c23.4,24.4,35.5,52.8,35.7,86.1c0.1,8.9-4.4,15.6-11.9,18.5
		c-8.5,3.2-17.7,1.5-22.9-5.6c-2.5-3.4-4.1-8.2-4.2-12.5c-0.9-23.8-9-44.3-26.6-60.7c-16-14.9-35.2-21.7-56.9-22
		c-9.3-0.1-16.7-5.9-18.6-14.3c-2.2-9.5,1.6-19,9.7-22.8c3.1-1.5,6.9-2.1,10.4-2.1C289.9,135.9,318.3,148.3,341.8,170.8z"/>
</g>
</svg>
