<?xml version="1.0" encoding="utf-8"?>
<!-- Generator: Adobe Illustrator 18.0.0, SVG Export Plug-In . SVG Version: 6.00 Build 0)  -->
<!DOCTYPE svg PUBLIC "-//W3C//DTD SVG 1.1//EN" "http://www.w3.org/Graphics/SVG/1.1/DTD/svg11.dtd">
<svg version="1.1" id="Layer_1" xmlns="http://www.w3.org/2000/svg" xmlns:xlink="http://www.w3.org/1999/xlink" x="0px" y="0px"
	 viewBox="0 0 512 512" enable-background="new 0 0 512 512" xml:space="preserve">
<g>
	<g>
		<g id="XMLID_107_">
			<path fill="#333333" d="M272.4,328.8h-44.5c-5.3,0-9.6,4.3-9.6,9.6v18.5v81.2v18.5c0,5.3,4.3,9.6,9.6,9.6h44.5
				c5.3,0,9.6-4.3,9.6-9.6v-18.5v-81.2v-18.5C282,333.1,277.7,328.8,272.4,328.8z"/>
		</g>
		<g id="XMLID_105_">
			<path fill="#333333" d="M362.2,275.7h-44.5c-5.3,0-9.6,4.3-9.6,9.6v71.7v28.1v71.6c0,5.3,4.3,9.6,9.6,9.6h44.5
				c5.3,0,9.6-4.3,9.6-9.6v-71.6v-28.1v-71.7C371.8,279.9,367.5,275.7,362.2,275.7z"/>
		</g>
		<g id="XMLID_97_">
			<path fill="#333333" d="M498.6,213.8L436,113.4c-2.8-4.5-9.4-4.5-12.3,0l-62.6,100.4c-3,4.8,0.5,11.1,6.1,11.1h30.7v231.7
				c0,5.3,4.3,9.6,9.6,9.6h44.5c5.1,0,9.2-3.9,9.5-8.9h0.1V304v-4.3v-74.8h30.7C498.1,224.9,501.6,218.6,498.6,213.8z"/>
		</g>
	</g>
	<g>
		<g>
			<path fill="#333333" d="M119.1,126.1L119.1,126.1c0.1,0,0.1,0,0.2,0c0.1,0,0.1,0,0.2,0v0c36-0.4,30.8-48.5,30.8-48.5
				c-1.5-32.2-28.4-31.9-31-31.8c-2.6-0.1-29.5-0.4-31,31.8C88.2,77.6,83,125.7,119.1,126.1z"/>
			<path fill="#333333" d="M274,224.6l-62.7-17.8l-29.7-46.7l0,0c-0.3-0.5-0.6-0.9-1-1.3c-3.1-3.1-4.7-4.7-8.2-7.2
				c-13.4-9.9-29.8-16.5-29.8-16.5l-12.5,39.5l-7.3-20.7c13.1-18.3-1.5-18.8-3.5-18.8c-2,0-16.6,0.5-3.5,18.8l-7.3,20.7L96,135.1
				c0,0-14.3,5.8-27.1,14.5c-1.7,1.2-3.3,2.6-4.7,4.1l-46.4,50.1c-8.2,9.7-7.1,24.1,2.5,32.5L76,283.9l-9.2,169.4
				c-0.3,6.2,4.1,11.7,10.2,12.7h0c6.6,1,12.7-3.4,13.9-9.9l24.7-132.3l13,131.1c0.5,6.2,5.6,11.1,11.8,11.2c6.6,0.1,12-5,12.3-11.6
				l7.6-187.4l6.3-61.5c0.1-1.1,1.6-1.5,2.2-0.6l15.3,21.9c2.5,3.6,6.4,6.1,10.7,7l73.4,14.4c7.5,1.5,14.6-4.3,14.6-12v0
				C282.8,230.9,279.2,226.1,274,224.6z M71.2,200.2l5.1,49.6L48,221.2L71.2,200.2z"/>
		</g>
		<g id="XMLID_109_">
			<g>
				<path fill="#E2574C" d="M282.8,97c-30.9,0-55.9,25-55.9,55.9s25,55.9,55.9,55.9c30.9,0,55.9-25,55.9-55.9S313.7,97,282.8,97z
					 M298.9,175c-2.4,3-5.6,5-9.3,6c-1.6,0.4-2.3,1.3-2.3,3c0.1,1.6,0,3.3,0,5c0,1.5-0.8,2.3-2.2,2.3c-1.8,0-3.6,0-5.3,0
					c-1.6,0-2.3-0.9-2.3-2.4c0-1.2,0-2.4,0-3.6c0-2.7-0.1-2.8-2.7-3.2c-3.3-0.5-6.5-1.3-9.5-2.7c-2.4-1.1-2.6-1.7-1.9-4.2
					c0.5-1.8,1-3.7,1.6-5.5c0.7-2.1,1.2-2.4,3.2-1.4c3.3,1.7,6.8,2.7,10.5,3.2c2.4,0.3,4.7,0.1,6.9-0.9c4.1-1.8,4.8-6.6,1.3-9.4
					c-1.2-1-2.5-1.7-3.9-2.3c-3.6-1.6-7.4-2.8-10.8-4.8c-5.5-3.3-9-7.8-8.6-14.6c0.5-7.6,4.8-12.3,11.7-14.9c2.9-1,2.9-1,2.9-4
					c0-1,0-2,0-3c0.1-2.3,0.4-2.7,2.7-2.7c0.7,0,1.4,0,2.1,0c4.8,0,4.8,0,4.8,4.8c0,3.4,0,3.4,3.4,3.9c2.6,0.4,5.1,1.2,7.5,2.2
					c1.3,0.6,1.8,1.5,1.4,2.9c-0.6,2.1-1.2,4.2-1.8,6.2c-0.6,1.9-1.2,2.2-3.1,1.3c-3.7-1.8-7.7-2.6-11.8-2.3
					c-1.1,0.1-2.1,0.2-3.2,0.6c-3.6,1.6-4.2,5.5-1.1,8c1.5,1.2,3.3,2.1,5.1,2.9c3.2,1.3,6.4,2.6,9.4,4.2
					C303.1,154.7,305.7,166.8,298.9,175z"/>
			</g>
		</g>
	</g>
</g>
</svg>
