<?xml version="1.0" encoding="utf-8"?>
<!-- Generator: Adobe Illustrator 18.0.0, SVG Export Plug-In . SVG Version: 6.00 Build 0)  -->
<!DOCTYPE svg PUBLIC "-//W3C//DTD SVG 1.1//EN" "http://www.w3.org/Graphics/SVG/1.1/DTD/svg11.dtd">
<svg version="1.1" id="Layer_1" xmlns="http://www.w3.org/2000/svg" xmlns:xlink="http://www.w3.org/1999/xlink" x="0px" y="0px"
	 viewBox="0 0 512 512" enable-background="new 0 0 512 512" xml:space="preserve">
<g>
	<path fill="#E2574C" d="M277.1,89.6c-60.2,0-108.9,48.8-108.9,108.9c0,60.2,48.8,108.9,108.9,108.9c60.2,0,108.9-48.8,108.9-108.9
		C386,138.4,337.2,89.6,277.1,89.6z M324.1,249.7c-4.5,4.5-11.7,4.7-16.5,0.6l0,0l-41.5-34.8c-0.8-0.6-1.6-1.2-2.3-1.9
		c-3.4-3.4-5.1-7.9-5-12.3c0-0.1,0-0.3,0-0.4c0-0.1,0-0.2,0-0.3l0,0l0-0.2c0-0.5,0-1,0.1-1.5l4.9-74c0-0.3,0-0.5,0.1-0.8l0-0.1h0
		c0.7-6,5.8-10.7,12.1-10.7c6.4,0,11.6,4.9,12.1,11.1l0,0l4.4,67.3c0.1,2,0.9,3.9,2.2,5.4l30,35.8c0.1,0.2,0.3,0.3,0.4,0.5l0.1,0.2
		l0,0C328.8,238.6,328.5,245.4,324.1,249.7z"/>
	<path fill="#333333" d="M277,17.3c-27.6,0-54.3,6-77.9,17.6C136.8,64,93.6,126.8,93.6,199.7v24.1v6l-37.2,71.3
		c-9.5,18.1-0.5,32.7,19.6,32.7h17.6v0.5V365v36.2c0,21.1,17.1,38.2,38.2,38.2l52.8-8V484v0.5c0,6.5,6,11.1,13.1,10L387,460.9
		c7-1.5,13.1-8,13.1-15.6v-8.5v-6.5v-96.5c36.2-33.2,59.3-80.9,59.3-134.2C458.9,99.2,377.5,17.3,277,17.3z M277.1,340
		c-78,0-141.4-63.4-141.4-141.4c0-78,63.4-141.4,141.4-141.4c78,0,141.4,63.4,141.4,141.4C418.5,276.5,355,340,277.1,340z"/>
</g>
</svg>
