<?xml version="1.0" encoding="utf-8"?>
<!-- Generator: Adobe Illustrator 18.0.0, SVG Export Plug-In . SVG Version: 6.00 Build 0)  -->
<!DOCTYPE svg PUBLIC "-//W3C//DTD SVG 1.1//EN" "http://www.w3.org/Graphics/SVG/1.1/DTD/svg11.dtd">
<svg version="1.1" id="Layer_1" xmlns="http://www.w3.org/2000/svg" xmlns:xlink="http://www.w3.org/1999/xlink" x="0px" y="0px"
	 viewBox="0 0 512 512" enable-background="new 0 0 512 512" xml:space="preserve">
<g>
	<path fill="#333333" d="M15.3,394.3L15.3,394.3c0.6,14.7,12.7,26.5,27.6,26.5h139.6c-0.3,6.2-3.7,34.3-45.6,39.6h1.3
		c-6.6,0-12,5.4-12,12c0,6.6,5.4,12,12,12h183.9c6.6,0,12-5.4,12-12c0-6.6-5.4-12-12-12h2c-42-5.3-45.4-33.4-45.6-39.6h139.6
		c14.9,0,27-11.8,27.5-26.5h0v-51.6l0,0v-74.3c-8.2,4.3-16.8,7.8-25.8,10.4v69.5c0,3-2.5,5.5-5.5,5.5H46.6c-3,0-5.5-2.5-5.5-5.5
		V117.4c0-3,2.5-5.5,5.5-5.5h197.2c2.1-9,5-17.6,8.7-25.8H46.6c-17.3,0-31.3,14-31.3,31.3v230.8c0,0.1,0,0.3,0,0.4v41.9
		c0,0.2,0,0.3,0,0.5v2.3c0,0.2,0,0.3,0,0.5V394.3z M230.5,374.6c8.5,0,15.3,6.9,15.3,15.3c0,8.5-6.9,15.3-15.3,15.3
		s-15.3-6.9-15.3-15.3C215.2,381.5,222,374.6,230.5,374.6z"/>
	<path fill="#E2574C" d="M295.1,221.4c-4.4,9.5-11.9,21.1-23.9,27c-3.9,1.9-3,7.8,1.3,8.5c13.1,2,31.8-0.3,49.3-13.5l0.2,0.2
		c44.4,26.1,102.6,20.1,140.7-18c45.3-45.3,45.3-118.7,0-164c-45.3-45.3-118.7-45.3-164,0c-43.6,43.6-45.2,113.3-4.9,158.8
		L295.1,221.4z M348,180.8c0.8-3.1,1.7-6.2,2.7-9.2c1.1-3.5,2.1-4,5.3-2.3c5.6,2.9,11.5,4.5,17.7,5.3c4,0.5,7.9,0.1,11.6-1.5
		c6.9-3,8-11,2.2-15.8c-2-1.6-4.2-2.8-6.6-3.9c-6-2.7-12.4-4.7-18.1-8.1c-9.3-5.6-15.2-13.2-14.5-24.5c0.8-12.8,8-20.7,19.7-25
		c4.8-1.8,4.8-1.7,4.9-6.7c0-1.7,0-3.4,0-5.1c0.1-3.8,0.7-4.5,4.5-4.6c1.2,0,2.3,0,3.5,0c8.1,0,8.1,0,8.1,8.1c0,5.7,0,5.7,5.7,6.6
		c4.3,0.7,8.5,2,12.5,3.7c2.2,1,3.1,2.5,2.4,4.9c-1,3.5-2,7-3.1,10.4c-1.1,3.3-2.1,3.7-5.2,2.2c-6.3-3-12.9-4.3-19.9-3.9
		c-1.8,0.1-3.6,0.3-5.3,1.1c-6,2.6-7,9.3-1.9,13.4c2.6,2.1,5.5,3.6,8.6,4.8c5.3,2.2,10.7,4.3,15.7,7.1c16.1,8.9,20.4,29.1,9.1,42.9
		c-4.1,5-9.4,8.3-15.7,10c-2.7,0.7-3.9,2.2-3.8,5c0.1,2.8,0,5.5,0,8.3c0,2.5-1.3,3.8-3.7,3.9c-3,0.1-6,0.1-9,0
		c-2.6,0-3.8-1.5-3.9-4.1c0-2,0-4.1-0.1-6.1c0-4.5-0.2-4.7-4.5-5.3c-5.5-0.9-10.9-2.1-15.9-4.6C347.3,185.9,346.9,184.9,348,180.8z"
		/>
</g>
</svg>
