<?xml version="1.0" encoding="utf-8"?>
<!-- Generator: Adobe Illustrator 18.0.0, SVG Export Plug-In . SVG Version: 6.00 Build 0)  -->
<!DOCTYPE svg PUBLIC "-//W3C//DTD SVG 1.1//EN" "http://www.w3.org/Graphics/SVG/1.1/DTD/svg11.dtd">
<svg version="1.1" id="Layer_1" xmlns="http://www.w3.org/2000/svg" xmlns:xlink="http://www.w3.org/1999/xlink" x="0px" y="0px"
	 viewBox="0 0 512 512" enable-background="new 0 0 512 512" xml:space="preserve">
<g>
	<path fill="#E2574C" d="M389.8,305.9c2,0,3.6-1.6,3.6-3.6v-71.7c0-2-1.6-3.6-3.6-3.6H365c-2,0-3.6,1.6-3.6,3.6v71.7
		c0,2,1.6,3.6,3.6,3.6H389.8z M368.6,234.2h17.6v64.4h-17.6V234.2z"/>
	<path fill="#E2574C" d="M310.2,305.9c2,0,3.6-1.6,3.6-3.6v-52.6c0-2-1.6-3.6-3.6-3.6h-24.8c-2,0-3.6,1.6-3.6,3.6v52.6
		c0,2,1.6,3.6,3.6,3.6H310.2z M306.6,253.2v5.6l-5.6-5.6H306.6z M295.2,253.2l11.4,11.4v5.7l-17.1-17.1H295.2z M289.1,258.5
		l17.6,17.6v5.7l-17.6-17.6V258.5z M289.1,270l17.6,17.6v5.7l-17.6-17.6V270z M289.1,281.5l17.1,17.1h-5.7l-11.4-11.4V281.5z
		 M289.1,293l5.7,5.7h-5.7V293z"/>
	<path fill="#E2574C" d="M350,305.9c2,0,3.6-1.6,3.6-3.6V201.5c0-2-1.6-3.6-3.6-3.6h-24.8c-2,0-3.6,1.6-3.6,3.6v100.8
		c0,2,1.6,3.6,3.6,3.6H350z"/>
	<path fill="#333333" d="M110.7,138.7L110.7,138.7c0.1,0,0.1,0,0.2,0c0.1,0,0.1,0,0.2,0v0c32.5-0.3,27.8-43.8,27.8-43.8
		c-1.3-29-25.6-28.8-28-28.7c-2.4-0.1-26.7-0.3-28,28.7C82.9,94.9,78.1,138.4,110.7,138.7z"/>
	<path fill="#333333" d="M496,348.3l-14.2-17.5c-2.3-2.8-3.6-6.3-3.6-10v-16.5v-10.5v-30.5l0,0v-84.5c0-15.5-12.5-28-28-28H345.5
		H225.2c-15.5,0-28,12.5-28,28v3.9l8.4,13.1l19.6,5.6v-22.6c0,0,0,0,0.1,0h132.9h92c0,0,0.1,0,0.1,0v115v7.4v1.9h0v1.2v18H225.1
		v-21.2v-7.4v-48.8l20.3,4c6.8,1.3,13.2-3.9,13.2-10.8l0,0c0-4.9-3.3-9.3-8-10.6l-56.6-16.1l-26.8-42.1l0,0
		c-0.3-0.4-0.6-0.8-0.9-1.1c-2.8-2.8-4.2-4.2-7.4-6.5c-12.1-8.9-26.9-14.9-26.9-14.9l-11.3,35.7l-6.6-18.7c11.8-16.5-1.4-17-3.2-17
		c-1.8,0-15,0.5-3.2,17l-6.6,18.7l-11.3-35.7c0,0-12.9,5.2-24.4,13.1c-1.6,1.1-3,2.3-4.3,3.7l-41.9,45.2c-7.4,8.7-6.4,21.8,2.2,29.3
		l50.3,43l-8.3,153c-0.3,5.6,3.7,10.6,9.2,11.4h0c5.9,0.9,11.5-3.1,12.5-9l22.3-119.4l11.8,118.4c0.4,5.6,5,10,10.7,10.1
		c5.9,0.1,10.9-4.5,11.1-10.5l6.9-169.2l5.7-55.5c0.1-1,1.4-1.4,2-0.5l13.8,19.8c2.3,3.3,5.8,5.5,9.7,6.3l18,3.5v54.2v6.1v20.6
		c0,3.6-1.3,7.2-3.5,10l-14.4,17.7c-1.1,1.3-1.7,3-1.7,4.7v8.1c0,10.5,8.5,19,19,19h282.1c10.5,0,19-8.5,19-19V353
		C497.7,351.3,497.1,349.6,496,348.3z M46.6,224.6l20.9-18.9l4.6,44.8L46.6,224.6z M368,352.4c0,5.3-4.3,9.6-9.6,9.6H317
		c-5.3,0-9.7-4.3-9.7-9.6v-2.1H368V352.4z"/>
</g>
</svg>
