<?xml version="1.0" encoding="utf-8"?>
<!-- Generator: Adobe Illustrator 18.0.0, SVG Export Plug-In . SVG Version: 6.00 Build 0)  -->
<!DOCTYPE svg PUBLIC "-//W3C//DTD SVG 1.1//EN" "http://www.w3.org/Graphics/SVG/1.1/DTD/svg11.dtd">
<svg version="1.1" id="Layer_1" xmlns="http://www.w3.org/2000/svg" xmlns:xlink="http://www.w3.org/1999/xlink" x="0px" y="0px"
	 viewBox="0 0 512 512" enable-background="new 0 0 512 512" xml:space="preserve">
<g>
	<path fill="#333333" d="M237.9,297.9v-65.8c8.3-5.5,13.7-14.9,13.7-25.6v-68.2c0-33.9-27.5-61.5-61.5-61.5h-7.3h-7.3
		c-33.9,0-61.5,27.5-61.5,61.5v68.2c0,10.7,5.5,20.1,13.7,25.6v65.8c0,1.2-0.7,2.2-1.7,2.7c-9.3,4.5-54.8,27.6-97.1,62.3
		c-7.6,6.3-12,15.7-12,25.5v46.7H161l14.2-65.2c-28.8-40.1,2.1-42.1,7.5-42.1h0h0c5.4,0,36.3,2,7.5,42.1l14.2,65.2h144.1v-46.7
		c0-9.9-4.4-19.3-12-25.5c-42.3-34.7-87.8-57.8-97.1-62.3C238.5,300.1,237.9,299,237.9,297.9z"/>
	<path fill="#E2574C" d="M474,76.8H313c-11.6,0-21.1,9.4-21.1,21.1v97.6c0,11.6,9.4,21.1,21.1,21.1h4.7v41.3l41.3-41.3H474
		c11.6,0,21.1-9.4,21.1-21.1V97.9C495.1,86.2,485.7,76.8,474,76.8z M423.6,186.3h-98.4v-15.9h98.4V186.3z M461.9,154.6H325.2v-15.9
		h136.7V154.6z M461.9,123H325.2V107h136.7V123z"/>
</g>
</svg>
