<?xml version="1.0" encoding="utf-8"?>
<!-- Generator: Adobe Illustrator 18.0.0, SVG Export Plug-In . SVG Version: 6.00 Build 0)  -->
<!DOCTYPE svg PUBLIC "-//W3C//DTD SVG 1.1//EN" "http://www.w3.org/Graphics/SVG/1.1/DTD/svg11.dtd">
<svg version="1.1" id="Layer_1" xmlns="http://www.w3.org/2000/svg" xmlns:xlink="http://www.w3.org/1999/xlink" x="0px" y="0px"
	 viewBox="0 0 512 512" enable-background="new 0 0 512 512" xml:space="preserve">
<g>
	<path fill="#E2574C" d="M141.9,245.5c7.4-53.6,50.1-96.2,103.6-103.6l10.7-1.5V25.8l-13.5,1.1C187.3,31.5,135,55.8,95.4,95.4
		s-63.9,91.9-68.5,147.4l-1.1,13.5h114.6L141.9,245.5z M53.3,231.4c13.5-92.4,85.7-164.6,178.1-178.1v65.8
		c-55.9,12.1-100.1,56.3-112.2,112.2H53.3z"/>
	<path fill="#333333" d="M280.9,39.3v90.2c65.2,9.1,115.6,65.2,115.6,132.8c0,32.5-11.6,62.4-31,85.6l63.6,63.6
		c35.5-39.6,57.1-91.9,57.1-149.2C486.2,145.2,395.7,48.8,280.9,39.3z"/>
	<path fill="#333333" d="M262.4,396.5c-67.7,0-123.8-50.4-132.8-115.6H39.3c9.5,114.8,105.9,205.3,223.1,205.3
		c57.2,0,109.5-21.6,149.2-57.1L348,365.6C324.7,384.9,294.9,396.5,262.4,396.5z"/>
</g>
</svg>
