<?xml version="1.0" encoding="utf-8"?>
<!-- Generator: Adobe Illustrator 18.0.0, SVG Export Plug-In . SVG Version: 6.00 Build 0)  -->
<!DOCTYPE svg PUBLIC "-//W3C//DTD SVG 1.1//EN" "http://www.w3.org/Graphics/SVG/1.1/DTD/svg11.dtd">
<svg version="1.1" id="Layer_1" xmlns="http://www.w3.org/2000/svg" xmlns:xlink="http://www.w3.org/1999/xlink" x="0px" y="0px"
	 viewBox="0 0 512 512" enable-background="new 0 0 512 512" xml:space="preserve">
<g id="XMLID_6213_">
	<g id="XMLID_6234_">
		<g>
			<path fill="#333333" d="M253.2,168.4c-48.4,0-87.6,39.2-87.6,87.6s39.2,87.6,87.6,87.6c48.4,0,87.6-39.2,87.6-87.6
				S301.6,168.4,253.2,168.4z M278.4,290.6c-3.8,4.6-8.8,7.8-14.6,9.4c-2.5,0.7-3.7,2-3.5,4.7c0.1,2.6,0,5.2,0,7.8
				c0,2.3-1.2,3.5-3.5,3.6c-2.8,0.1-5.6,0.1-8.4,0c-2.4,0-3.6-1.4-3.6-3.8c0-1.9,0-3.8-0.1-5.7c0-4.2-0.2-4.3-4.2-5
				c-5.1-0.8-10.2-2-14.9-4.3c-3.7-1.8-4.1-2.7-3-6.6c0.8-2.9,1.6-5.8,2.5-8.6c1-3.3,1.9-3.7,5-2.1c5.2,2.7,10.7,4.2,16.5,4.9
				c3.7,0.5,7.4,0.1,10.8-1.4c6.4-2.8,7.4-10.3,2-14.8c-1.9-1.5-4-2.6-6.2-3.6c-5.6-2.5-11.5-4.4-16.9-7.6
				c-8.7-5.2-14.1-12.3-13.5-22.8c0.7-11.9,7.5-19.3,18.4-23.3c4.5-1.6,4.5-1.6,4.5-6.3c0-1.6,0-3.2,0-4.8c0.1-3.6,0.7-4.2,4.2-4.3
				c1.1,0,2.2,0,3.3,0c7.5,0,7.5,0,7.6,7.5c0,5.3,0,5.3,5.3,6.2c4.1,0.6,7.9,1.8,11.7,3.5c2.1,0.9,2.9,2.4,2.2,4.5
				c-0.9,3.2-1.8,6.5-2.9,9.7c-1,3-2,3.5-4.9,2.1c-5.9-2.8-12-4-18.5-3.7c-1.7,0.1-3.4,0.3-4.9,1c-5.6,2.5-6.5,8.6-1.7,12.5
				c2.4,1.9,5.2,3.3,8,4.5c5,2.1,10,4,14.7,6.6C284.9,258.8,289,277.7,278.4,290.6z"/>
		</g>
	</g>
	<g id="XMLID_6231_">
		<circle fill="#333333" cx="125.9" cy="260.4" r="24.3"/>
	</g>
	<g id="XMLID_6228_">
		<circle fill="#333333" cx="380.7" cy="260.4" r="24.3"/>
	</g>
	<g id="XMLID_6220_">
		<g>
			<path fill="#333333" d="M446.7,113.1H65.3c-22.1,0-40,17.9-40,40v205.8c0,22.1,17.9,40,40,40h381.5c22.1,0,40-17.9,40-40V153.1
				C486.7,131.1,468.8,113.1,446.7,113.1z M452.6,317.4c-2.3-0.4-4.7-0.6-7.1-0.6c-22.4,0-40.5,18.1-40.5,40.5c0,2.5,0.2,5,0.7,7.4
				H109.6c0.2-1.6,0.3-3.3,0.3-5c0-22.4-18.1-40.5-40.5-40.5c-3.5,0-6.8,0.4-10,1.3V196.4c3.2,0.8,6.6,1.3,10,1.3
				c22.4,0,40.5-18.1,40.5-40.5c0-3.4-0.4-6.7-1.2-9.9h297c-0.4,2.4-0.7,4.9-0.7,7.4c0,22.4,18.1,40.5,40.5,40.5
				c2.4,0,4.8-0.2,7.1-0.6V317.4z"/>
		</g>
	</g>
	<g id="XMLID_6217_">
		<path fill="#E2574C" d="M253.2,494.9c65.3,0,124.5-26.2,167.6-68.7H85.7C128.8,468.7,188,494.9,253.2,494.9z"/>
	</g>
	<g id="XMLID_6214_">
		<path fill="#E2574C" d="M420.8,85.7c-43.1-42.5-102.3-68.7-167.6-68.7S128.8,43.3,85.7,85.7H420.8z"/>
	</g>
</g>
</svg>
