<?xml version="1.0" encoding="utf-8"?>
<!-- Generator: Adobe Illustrator 18.0.0, SVG Export Plug-In . SVG Version: 6.00 Build 0)  -->
<!DOCTYPE svg PUBLIC "-//W3C//DTD SVG 1.1//EN" "http://www.w3.org/Graphics/SVG/1.1/DTD/svg11.dtd">
<svg version="1.1" id="Layer_1" xmlns="http://www.w3.org/2000/svg" xmlns:xlink="http://www.w3.org/1999/xlink" x="0px" y="0px"
	 viewBox="0 0 512 512" enable-background="new 0 0 512 512" xml:space="preserve">
<g>
	<g id="XMLID_1718_">
		<path fill="#333333" d="M324.6,437.2c1.7-6.1,3.2-11.5,4.9-17.2c1-3.2,2.5-7.4,5.5-11.3c5-6.7,12.7-10.6,21-10.6
			c0.8,0,1.7,0,2.5,0.1c-30.2-19.3-35.3-44.7-34.2-62.9c0.9-14.4,5.2-27,12.8-37.6c-13.9-7.8-24.2-13-28.3-15c-1.2-0.6-2-1.8-2-3.2
			v-77.1c9.7-6.5,16.1-17.5,16.1-30V92.5c0-39.8-32.2-72-72-72h-8.6h-8.6c-39.8,0-72,32.2-72,72v79.9c0,12.5,6.4,23.5,16.1,30v77.1
			c0,1.4-0.8,2.6-2,3.2c-10.9,5.3-64.2,32.3-113.7,73C53,363,47.9,374,47.9,385.6v54.8h168.8l16.7-76.4c-33.7-47,2.5-49.3,8.8-49.3
			c0,0,0,0,0,0c0,0,0,0,0,0c6.3,0,42.5,2.3,8.8,49.3l16.7,76.4h56C324,439.1,324.3,438.1,324.6,437.2z"/>
	</g>
	<g id="XMLID_1113_">
		<path fill="#E2574C" d="M425,460.9c11.1-3,20.5-9,27.8-17.8c20.1-24.5,12.4-60.4-16.2-76.2c-9-5-18.5-8.7-27.9-12.6
			c-5.5-2.3-10.7-4.9-15.3-8.6c-9.1-7.3-7.4-19.1,3.3-23.7c3-1.3,6.2-1.7,9.4-1.9c12.4-0.7,24.1,1.6,35.3,7c5.6,2.7,7.4,1.9,9.3-3.9
			c2-6.1,3.7-12.3,5.5-18.5c1.2-4.2-0.3-6.9-4.2-8.6c-7.1-3.2-14.5-5.4-22.3-6.6c-10.1-1.6-10.1-1.6-10.1-11.8
			c-0.1-14.3-0.1-14.3-14.4-14.3c-2.1,0-4.2-0.1-6.3,0c-6.7,0.2-7.9,1.4-8,8.1c-0.1,3,0,6.1,0,9.1c0,9-0.1,8.8-8.7,12
			c-20.8,7.6-33.6,21.7-35,44.4c-1.2,20,9.2,33.6,25.7,43.4c10.2,6.1,21.4,9.7,32.1,14.4c4.2,1.8,8.2,4,11.7,6.9
			c10.4,8.5,8.4,22.7-3.8,28.1c-6.6,2.9-13.5,3.6-20.6,2.7c-11-1.4-21.5-4.3-31.4-9.4c-5.8-3-7.5-2.2-9.5,4.1
			c-1.7,5.4-3.2,10.9-4.7,16.4c-2,7.4-1.3,9.1,5.7,12.5c8.9,4.3,18.5,6.6,28.3,8.1c7.6,1.2,7.9,1.5,8,9.5c0,3.6,0.1,7.2,0.1,10.8
			c0.1,4.5,2.2,7.2,6.9,7.3c5.3,0.1,10.6,0.1,15.9,0c4.3-0.1,6.6-2.5,6.6-6.9c0-4.9,0.3-9.9,0-14.8C418,464.8,420.2,462.2,425,460.9
			z"/>
	</g>
</g>
</svg>
