<?xml version="1.0" encoding="utf-8"?>
<!-- Generator: Adobe Illustrator 18.0.0, SVG Export Plug-In . SVG Version: 6.00 Build 0)  -->
<!DOCTYPE svg PUBLIC "-//W3C//DTD SVG 1.1//EN" "http://www.w3.org/Graphics/SVG/1.1/DTD/svg11.dtd">
<svg version="1.1" id="Layer_1" xmlns="http://www.w3.org/2000/svg" xmlns:xlink="http://www.w3.org/1999/xlink" x="0px" y="0px"
	 viewBox="0 0 512 512" enable-background="new 0 0 512 512" xml:space="preserve">
<g>
	<path fill="#333333" d="M277.8,405.1c0,6.9-5.6,12.7-12.7,12.7H76.5c-6.9,0-12.7-5.6-12.7-12.7V107.1c0-6.9,5.6-12.7,12.7-12.7
		h188.8c6.9,0,12.7,5.6,12.7,12.7v2.2h-0.1v8.1h26.1V76.7c0-27-22.1-49.1-49.1-49.1H86.9c-27,0-49.1,22.1-49.1,49.1v358.7
		c0,27,22.1,49.1,49.1,49.1h167.8c27,0,49.1-22.1,49.1-49.1v-35.1h-26.1V405.1z M192,463.8h-47.3c-7,0-12.8-5.7-12.8-12.8
		c0-7,5.7-12.8,12.8-12.8H192c7,0,12.8,5.7,12.8,12.8C204.7,458.1,199,463.8,192,463.8z"/>
	<path fill="#E2574C" d="M432.4,142H301.3h-18.5H151.8c-22.9,0-41.8,18.7-41.8,41.8v150.1c0,23,18.8,41.8,41.8,41.8h131.1h18.5
		h131.1c23,0,41.8-18.8,41.8-41.8V183.7C474.2,160.7,455.4,142,432.4,142z M451.7,334.3c0,8.3-6.8,15.1-15.1,15.1H301.3h-18.5H147.7
		c-8.3,0-15.1-6.8-15.1-15.1v-87.2h150.3h18.5h150.3V334.3z M132.5,197.8v-14.5c0-8.3,6.8-15.1,15.1-15.1h135.2h18.5h135.2
		c8.3,0,15.1,6.8,15.1,15.1v14.5H132.5z"/>
</g>
</svg>
