<?xml version="1.0" encoding="utf-8"?>
<!-- Generator: Adobe Illustrator 18.0.0, SVG Export Plug-In . SVG Version: 6.00 Build 0)  -->
<!DOCTYPE svg PUBLIC "-//W3C//DTD SVG 1.1//EN" "http://www.w3.org/Graphics/SVG/1.1/DTD/svg11.dtd">
<svg version="1.1" id="Layer_1" xmlns="http://www.w3.org/2000/svg" xmlns:xlink="http://www.w3.org/1999/xlink" x="0px" y="0px"
	 viewBox="0 0 512 512" enable-background="new 0 0 512 512" xml:space="preserve">
<g>
	<path id="XMLID_189_" fill="#333333" d="M207.9,309.9c8,0,15.1,3.6,19.9,9.2c4.8-5.6,12-9.2,19.9-9.2c14.5,0,26.2,11.8,26.2,26.2
		c0,14.5-11.8,26.2-26.2,26.2c-8,0-15.1-3.6-19.9-9.2c-4.8,5.6-12,9.2-19.9,9.2c-14.5,0-26.2-11.8-26.2-26.2
		C181.7,321.7,193.4,309.9,207.9,309.9z"/>
	<g>
		<path fill="#333333" d="M345.9,378.2H181.1c-8.1,0-14.7-6.6-14.7-14.7V261h263.7v24c1.7-0.1,3.4-0.3,5.2-0.3
			c5.7,0,11.3,0.6,16.7,1.6v-69c0-22.4-18.3-40.5-40.5-40.5H181.6c-22.3,0-40.5,18.3-40.5,40.5V363c0,22.3,18.3,40.5,40.5,40.5
			h169.1C347.9,395.6,346.3,387,345.9,378.2z M166.4,216.9c0-8.1,6.6-14.7,14.7-14.7h234.4c8.1,0,14.7,6.6,14.7,14.7v5.5H166.4
			V216.9z"/>
	</g>
	<path fill="#333333" d="M115.9,363V217.4c0-36.2,29.5-65.7,65.7-65.7h141.3l-27.7-56.1c-9.9-20-34.3-28.3-54.3-18.4L34.8,179.1
		c-20,9.9-28.3,34.3-18.4,54.3L81,364c7.5,15.2,23.4,23.6,39.3,22.5C117.5,379.2,115.9,371.3,115.9,363z"/>
	<g>
		<g>
			<path fill="#E2574C" d="M435.3,309.9c-35.6,0-64.5,28.9-64.5,64.5s28.9,64.5,64.5,64.5c35.6,0,64.5-28.9,64.5-64.5
				S470.9,309.9,435.3,309.9z M438,334.6c5.8,0,10.4,4.8,10.4,10.7c0,5.8-4.8,10.6-10.4,10.5c-5.9,0-10.6-4.8-10.5-10.7
				C427.5,339.2,432.2,334.6,438,334.6z M453,405.5c-0.2,0.9-0.8,1.8-1.5,2.5c-3.8,3.9-8.4,6.2-13.9,6.3c-2.6,0-5.1-0.1-7.7-0.4
				c-4.2-0.6-9.5-5.8-8.8-11.4c0.5-3.8,1.1-7.6,1.7-11.4c1.1-6.6,2.3-13.1,3.4-19.7c0.1-0.4,0.1-0.8,0.1-1.3c0-2.7-0.9-3.7-3.6-4.1
				c-1.2-0.2-2.4-0.3-3.5-0.6c-1.4-0.5-2-1.5-1.8-2.6c0.1-1.2,0.9-1.9,2.3-2.2c0.8-0.2,1.6-0.2,2.4-0.2c3.2,0,6.4,0,9.7,0
				c3.4,0,6.8,0,10.2,0c2.5,0,3.9,1.2,4,3.6c0,2-0.3,4.1-0.7,6.1c-1.3,7.5-2.7,15-4.1,22.5c-0.5,2.5-1,5-1.3,7.5
				c-0.1,1.2,0,2.5,0.3,3.6c0.4,1.6,1.6,2.4,3.2,2.3c1.3-0.1,2.7-0.6,3.9-1.1c1-0.4,1.9-1.1,3-1.5
				C452.1,402.9,453.4,403.9,453,405.5z"/>
		</g>
	</g>
</g>
</svg>
