<?xml version="1.0" encoding="utf-8"?>
<!-- Generator: Adobe Illustrator 18.0.0, SVG Export Plug-In . SVG Version: 6.00 Build 0)  -->
<!DOCTYPE svg PUBLIC "-//W3C//DTD SVG 1.1//EN" "http://www.w3.org/Graphics/SVG/1.1/DTD/svg11.dtd">
<svg version="1.1" id="Layer_1" xmlns="http://www.w3.org/2000/svg" xmlns:xlink="http://www.w3.org/1999/xlink" x="0px" y="0px"
	 viewBox="0 0 512 512" enable-background="new 0 0 512 512" xml:space="preserve">
<g id="XMLID_2153_">
	<g id="XMLID_2178_">
		<path fill="#E2574C" d="M496.9,377c-37-30.4-76.8-50.5-84.9-54.5c-0.9-0.4-1.5-1.4-1.5-2.4v-57.5c7.2-4.8,12-13,12-22.4v-59.7
			c0-29.7-24.1-53.7-53.7-53.7h-6.4h-6.4c-29.7,0-53.7,24.1-53.7,53.7v59.7c0,9.3,4.8,17.6,12,22.4v57.5c0,0.3-0.1,0.7-0.2,1
			c11.3,7.8,23.1,16.4,34.7,25.9c13.5,11.1,21.3,27.5,21.3,45.1v48.1h137.5v-40.9C507.4,390.7,503.6,382.4,496.9,377z"/>
	</g>
	<g id="XMLID_2142_">
		<path fill="#333333" d="M231.7,299v-67.6c8.5-5.7,14.1-15.3,14.1-26.3V135c0-34.9-28.3-63.2-63.2-63.2h-7.5h-7.5
			c-34.9,0-63.2,28.3-63.2,63.2v70.1c0,11,5.6,20.6,14.1,26.3V299c0,1.2-0.7,2.3-1.8,2.8c-9.5,4.7-56.4,28.3-99.8,64
			C9.1,372.3,4.6,382,4.6,392.1l0,48.1h170.5h170.5v-48.1c0-10.2-4.5-19.8-12.4-26.3c-43.4-35.7-90.3-59.4-99.8-64
			C232.3,301.3,231.7,300.2,231.7,299z"/>
	</g>
</g>
</svg>
