<?xml version="1.0" encoding="utf-8"?>
<!-- Generator: Adobe Illustrator 18.0.0, SVG Export Plug-In . SVG Version: 6.00 Build 0)  -->
<!DOCTYPE svg PUBLIC "-//W3C//DTD SVG 1.1//EN" "http://www.w3.org/Graphics/SVG/1.1/DTD/svg11.dtd">
<svg version="1.1" id="Layer_1" xmlns="http://www.w3.org/2000/svg" xmlns:xlink="http://www.w3.org/1999/xlink" x="0px" y="0px"
	 viewBox="0 0 512 512" enable-background="new 0 0 512 512" xml:space="preserve">
<g>
	<path id="XMLID_1144_" fill="#333333" d="M454.7,205.5c-22.7,0-42,15.1-48.3,35.8H389c-2.8-25.3-12.6-49-28.5-68.8l12.2-12.2
		c7.2,3.9,15.3,5.9,23.7,5.9c13.5,0,26.2-5.3,35.7-14.8c9.5-9.5,14.8-22.2,14.8-35.7c0-13.5-5.3-26.2-14.8-35.7
		c-9.5-9.5-22.2-14.8-35.7-14.8c-13.5,0-26.2,5.3-35.7,14.8c-9.5,9.5-14.8,22.2-14.8,35.7c0,8.4,2,16.5,5.9,23.7l-12.2,12.2
		c-19.8-15.9-43.6-25.8-68.8-28.5v-17.3c20.7-6.3,35.8-25.6,35.8-48.3c0-27.9-22.7-50.5-50.5-50.5s-50.5,22.7-50.5,50.5
		c0,22.7,15.1,42,35.8,48.3V123c-25.3,2.8-49,12.6-68.8,28.5l-12.2-12.2c3.9-7.2,5.9-15.3,5.9-23.7c0-13.5-5.3-26.2-14.8-35.7
		c-9.5-9.5-22.2-14.8-35.7-14.8s-26.2,5.3-35.7,14.8S64.9,102,64.9,115.5c0,13.5,5.3,26.2,14.8,35.7c9.5,9.5,22.2,14.8,35.7,14.8
		c8.4,0,16.5-2,23.7-5.9l12.2,12.2c-15.9,19.8-25.8,43.6-28.5,68.8h-17.3c-6.3-20.7-25.6-35.8-48.3-35.8
		c-27.9,0-50.5,22.7-50.5,50.5c0,27.9,22.7,50.5,50.5,50.5c22.7,0,42-15.1,48.3-35.8H123c2.8,25.3,12.6,49,28.5,68.8l-12.3,12.3
		c-19.1-10.1-43.4-7.2-59.5,8.9c-19.7,19.7-19.7,51.8,0,71.5c9.5,9.5,22.2,14.8,35.7,14.8s26.2-5.3,35.7-14.8
		c9.5-9.5,14.8-22.2,14.8-35.7c0-8.4-2-16.5-5.9-23.7l12.2-12.2c19.8,15.9,43.6,25.8,68.8,28.5v17.3c-20.7,6.3-35.8,25.6-35.8,48.3
		c0,27.9,22.7,50.5,50.5,50.5s50.5-22.7,50.5-50.5c0-22.7-15.1-42-35.8-48.3V389c25.3-2.8,49-12.6,68.8-28.5l12.2,12.2
		c-3.9,7.2-5.9,15.3-5.9,23.7c0,13.5,5.3,26.2,14.8,35.7c9.5,9.5,22.2,14.8,35.7,14.8c13.5,0,26.2-5.3,35.7-14.8
		c19.7-19.7,19.7-51.8,0-71.5c-16.1-16.1-40.4-19-59.5-8.9l-12.3-12.3c15.9-19.8,25.8-43.6,28.5-68.8h17.3
		c6.3,20.7,25.6,35.8,48.3,35.8c27.9,0,50.5-22.7,50.5-50.5C505.3,228.1,482.6,205.5,454.7,205.5z M381.7,100.7
		c4-4,9.2-6.1,14.8-6.1c5.6,0,10.9,2.2,14.8,6.1c4,4,6.1,9.2,6.1,14.8c0,5.6-2.2,10.9-6.1,14.8c-4,4-9.2,6.1-14.8,6.1
		c-5.6,0-10.9-2.2-14.8-6.1c-4-4-6.1-9.2-6.1-14.8C375.5,109.9,377.7,104.6,381.7,100.7z M235,57.3c0-11.6,9.4-21,21-21
		c11.6,0,21,9.4,21,21s-9.4,21-21,21C244.4,78.3,235,68.9,235,57.3z M100.7,130.3c-4-4-6.1-9.2-6.1-14.8c0-5.6,2.2-10.9,6.1-14.8
		c4.1-4.1,9.5-6.1,14.8-6.1c5.4,0,10.7,2,14.8,6.1c4,4,6.1,9.2,6.1,14.8c0,5.6-2.2,10.9-6.1,14.8c-4,4-9.2,6.1-14.8,6.1
		C109.9,136.5,104.6,134.3,100.7,130.3z M57.3,277c-11.6,0-21-9.4-21-21c0-11.6,9.4-21,21-21s21,9.4,21,21
		C78.3,267.6,68.9,277,57.3,277z M130.3,411.3c-4,4-9.2,6.1-14.8,6.1c-5.6,0-10.9-2.2-14.8-6.1c-8.2-8.2-8.2-21.5,0-29.7
		c4.1-4.1,9.5-6.1,14.8-6.1c5.4,0,10.7,2,14.8,6.1c4,4,6.1,9.2,6.1,14.8C136.5,402.1,134.3,407.4,130.3,411.3z M277,454.7
		c0,11.6-9.4,21-21,21c-11.6,0-21-9.4-21-21c0-11.6,9.4-21,21-21C267.6,433.7,277,443.1,277,454.7z M256,360.3
		c-57.5,0-104.3-46.8-104.3-104.3c0-57.5,46.8-104.3,104.3-104.3S360.3,198.5,360.3,256C360.3,313.5,313.5,360.3,256,360.3z
		 M396.5,375.5c5.4,0,10.7,2,14.8,6.1c8.2,8.2,8.2,21.5,0,29.7c-4,4-9.2,6.1-14.8,6.1c-5.6,0-10.9-2.2-14.8-6.1
		c-4-4-6.1-9.2-6.1-14.8c0-5.6,2.2-10.9,6.1-14.8C385.8,377.6,391.1,375.5,396.5,375.5z M454.7,277c-11.6,0-21-9.4-21-21
		c0-11.6,9.4-21,21-21s21,9.4,21,21C475.7,267.6,466.3,277,454.7,277z"/>
	<g id="XMLID_318_">
		<g>
			<path fill="#E2574C" d="M256,179.2c-42.4,0-76.8,34.4-76.8,76.8s34.4,76.8,76.8,76.8c42.4,0,76.8-34.4,76.8-76.8
				S298.4,179.2,256,179.2z M278.1,286.3c-3.4,4.1-7.7,6.8-12.8,8.2c-2.2,0.6-3.2,1.8-3.1,4.1c0.1,2.3,0,4.5,0,6.8c0,2-1,3.1-3,3.2
				c-2.4,0.1-4.9,0.1-7.3,0c-2.1,0-3.1-1.3-3.2-3.3c0-1.7,0-3.3,0-5c0-3.7-0.2-3.8-3.7-4.4c-4.5-0.7-8.9-1.7-13-3.7
				c-3.2-1.6-3.6-2.4-2.6-5.8c0.7-2.5,1.4-5.1,2.2-7.5c0.9-2.9,1.7-3.3,4.4-1.9c4.6,2.4,9.4,3.7,14.5,4.3c3.3,0.4,6.5,0.1,9.5-1.2
				c5.6-2.5,6.5-9,1.8-12.9c-1.6-1.3-3.5-2.3-5.4-3.2c-4.9-2.2-10.1-3.8-14.8-6.6c-7.6-4.5-12.4-10.8-11.8-20
				c0.6-10.4,6.5-16.9,16.1-20.4c3.9-1.4,4-1.4,4-5.5c0-1.4,0-2.8,0-4.2c0.1-3.1,0.6-3.6,3.7-3.7c1,0,1.9,0,2.9,0
				c6.6,0,6.6,0,6.6,6.6c0,4.7,0,4.7,4.7,5.4c3.6,0.6,7,1.6,10.3,3.1c1.8,0.8,2.5,2.1,1.9,4c-0.8,2.8-1.6,5.7-2.5,8.5
				c-0.9,2.7-1.7,3.1-4.3,1.8c-5.2-2.5-10.6-3.5-16.2-3.2c-1.5,0.1-3,0.3-4.3,0.9c-4.9,2.2-5.7,7.6-1.5,10.9c2.1,1.7,4.5,2.9,7.1,4
				c4.4,1.8,8.7,3.5,12.9,5.8C283.8,258.5,287.3,275,278.1,286.3z"/>
		</g>
	</g>
</g>
</svg>
