<?xml version="1.0" encoding="utf-8"?>
<!-- Generator: Adobe Illustrator 18.0.0, SVG Export Plug-In . SVG Version: 6.00 Build 0)  -->
<!DOCTYPE svg PUBLIC "-//W3C//DTD SVG 1.1//EN" "http://www.w3.org/Graphics/SVG/1.1/DTD/svg11.dtd">
<svg version="1.1" id="Layer_1" xmlns="http://www.w3.org/2000/svg" xmlns:xlink="http://www.w3.org/1999/xlink" x="0px" y="0px"
	 viewBox="0 0 512 512" enable-background="new 0 0 512 512" xml:space="preserve">
<g id="XMLID_6655_">
	<g id="XMLID_6662_">
		<path fill="#E2574C" d="M134,208c13.5-0.9,26.8,3.7,36.4,13.3l18.7,18.7c0.9,0.7,1.8,1.5,2.6,2.3l50.8-50.7l-18.5-18.5
			c-10.2-10.2-14.9-24.5-13.3-38.8c2.7-24-5.2-49-23.6-67.4c-18.4-18.4-43.4-26.3-67.5-23.6c-9,1-12.7,12.1-6.3,18.5l24.4,24.4
			c9.9,9.9,9.9,26.3-0.1,36.2l-15.2,15.2c-10,10-26.3,10-36.2,0.1l-21.7-21.7c-6.8-6.8-18.3-2.1-18.6,7.5
			c-0.6,21.8,7.4,43.8,24.1,60.4C87.6,201.6,111.1,209.6,134,208z"/>
	</g>
	<g id="XMLID_6659_">
		<path fill="#E2574C" d="M378,304c-13.5,0.9-26.8-3.7-36.4-13.3L320,269.1l-50.8,50.6c0.9,0.9,1.8,1.9,2.6,3l16.1,16.1
			c10.2,10.2,14.9,24.5,13.3,38.8c-2.7,24,5.2,49,23.6,67.4c18.4,18.4,43.4,26.3,67.5,23.6c9-1,12.7-12.1,6.3-18.5l-24.4-24.4
			c-9.9-9.9-9.9-26.3,0.1-36.2l15.2-15.2c10-10,26.3-10,36.2-0.1l21.7,21.7c6.8,6.8,18.3,2.1,18.6-7.5c0.6-21.8-7.4-43.8-24.1-60.4
			C424.4,310.4,400.9,302.4,378,304z"/>
	</g>
	<g id="XMLID_6656_">
		<path fill="#333333" d="M357.8,179.9h51.6l51.6-103.1L435.1,51L332,102.5v51.6L191.7,294l-25.2-25.2L64.9,370.4
			c-21.2,21.2-21.2,55.5,0,76.6c21.2,21.2,55.5,21.2,76.6,0l101.6-101.6l-25.7-25.7L357.8,179.9z"/>
	</g>
</g>
</svg>
