<?xml version="1.0" encoding="utf-8"?>
<!-- Generator: Adobe Illustrator 18.0.0, SVG Export Plug-In . SVG Version: 6.00 Build 0)  -->
<!DOCTYPE svg PUBLIC "-//W3C//DTD SVG 1.1//EN" "http://www.w3.org/Graphics/SVG/1.1/DTD/svg11.dtd">
<svg version="1.1" id="Layer_1" xmlns="http://www.w3.org/2000/svg" xmlns:xlink="http://www.w3.org/1999/xlink" x="0px" y="0px"
	 viewBox="0 0 512 512" enable-background="new 0 0 512 512" xml:space="preserve">
<g>
	<g>
		<path fill="#333333" d="M502.9,383.2V254.3c0-3.6-2.9-6.5-6.5-6.5h-44.6c-3.6,0-6.5,2.9-6.5,6.5v128.9c0,3.6,2.9,6.5,6.5,6.5h44.6
			C500,389.8,502.9,386.9,502.9,383.2z M489.9,376.7h-31.6V260.9h31.6V376.7z"/>
	</g>
	<g>
		<path fill="#333333" d="M286.7,383.2v-60.8H64.6v-24.7v-8.6V154.9c0,0,0,0,0.1-0.1h155.2h107.4c0,0,0.1,0,0.1,0.1v111.7h25.9
			c2.3,0,4.6,0.4,6.7,1.1v-14.1l0,0v-98.6c0-18-14.6-32.7-32.7-32.7H205h0H64.7c-18,0-32.7,14.6-32.7,32.7v134.2v7.2v24.1
			c0,4.2-1.5,8.3-4.1,11.6L11,352.6c-1.3,1.6-2,3.5-2,5.5v9.5c0,12.2,9.9,22.2,22.2,22.2h256.5C287.1,387.7,286.7,385.5,286.7,383.2
			z M231.4,357.5c0,6.2-5,11.3-11.3,11.3h-48.3c-6.2,0-11.3-5-11.3-11.3v-2.4h70.8V357.5z"/>
	</g>
	<g>
		<path fill="#333333" d="M308.6,282c-3.6,0-6.5,2.9-6.5,6.5v94.7c0,3.6,2.9,6.5,6.5,6.5h44.6c3.6,0,6.5-2.9,6.5-6.5v-94.7
			c0-3.6-2.9-6.5-6.5-6.5H308.6z M315.2,376.7v-10.2l10.2,10.2H315.2z M335.7,376.7l-20.5-20.5v-10.3l30.8,30.8H335.7z M346.8,367.2
			l-31.6-31.6v-10.3l31.6,31.6V367.2z M346.8,346.5l-31.6-31.6v-10.3l31.6,31.6V346.5z M346.8,325.9L316,295.1h10.3l20.5,20.5V325.9
			z M346.8,305.2l-10.1-10.1h10.1V305.2z"/>
	</g>
	<g>
		<path fill="#E2574C" d="M431.4,383.2V201.9c0-3.6-2.9-6.5-6.5-6.5h-44.6c-3.6,0-6.5,2.9-6.5,6.5v181.3c0,3.6,2.9,6.5,6.5,6.5h44.6
			C428.5,389.8,431.4,386.9,431.4,383.2z"/>
	</g>
</g>
</svg>
