<?xml version="1.0" encoding="utf-8"?>
<!-- Generator: Adobe Illustrator 18.0.0, SVG Export Plug-In . SVG Version: 6.00 Build 0)  -->
<!DOCTYPE svg PUBLIC "-//W3C//DTD SVG 1.1//EN" "http://www.w3.org/Graphics/SVG/1.1/DTD/svg11.dtd">
<svg version="1.1" id="Layer_1" xmlns="http://www.w3.org/2000/svg" xmlns:xlink="http://www.w3.org/1999/xlink" x="0px" y="0px"
	 viewBox="0 0 512 512" enable-background="new 0 0 512 512" xml:space="preserve">
<g>
	<g>
		<g>
			<path fill="#333333" d="M480.6,333.3c-9.3-0.7-28.5,10.1-33.7,12.8c-18.7,9.8-44.7,25.1-61.8,37.3c-1.2,0.8-2.8,1.9-4,2.7
				c-7.7,5.1-15.8,8.6-24.8,10.5c-49.6,11-121.9,12.1-121.9,12.1l-4.2,0.2c-3.2,0.2-6-2.1-6.5-5.3c-0.5-3.5,2-6.8,5.5-7.1L336.8,386
				c11.8-1.3,21.3-12.8,20-25.8c-1.3-12.9-12.8-22.4-24.6-21l-95.7-1.2c-6.5-0.1-16.9-1.8-23.2-3.7c-61.6-18.7-96.4-1.2-114.9,7
				c-4.1-7.1-11.9-11.7-20.7-11.1l-41.2,2.9c-13.7,1-24.1,12.8-23.1,26.6l6.6,95c1,13.7,12.8,24.1,26.6,23.1l41.2-2.9
				c8.7-0.6,15.8-6.2,18.9-13.7l181.1,8.1c20.2,2.2,39.1-0.3,56.9-10l5.2-2.8l136.9-83.1c6.7-4.1,11.5-11.1,11.8-19
				C498.9,344.8,493.6,334.3,480.6,333.3z M61.6,455.3c-7.8,0-14.1-6.3-14.1-14.1s6.3-14.1,14.1-14.1c7.8,0,14.1,6.3,14.1,14.1
				S69.4,455.3,61.6,455.3z"/>
			<path fill="#333333" d="M376.6,348.4c1,3.1,1.8,6.3,2.1,9.7c0.3,2.7,0.2,5.3,0.1,7.9c1.4-1,2.9-2.1,4.3-3.1
				c14-10.2,42.6-26.2,58.8-34.7c4.9-2.6,10-5.1,15.6-7.1c-7.1-4.9-14.6-5.1-22.4-1.9c-15.4,6.3-43.7,20.5-58.2,28.7
				C376.7,348,376.7,348.2,376.6,348.4z"/>
			<path fill="#333333" d="M368.5,333.7c0.6-0.4,1.2-0.9,1.9-1.3l6.9-3.9c10.1-5.8,31.7-13.7,42.8-18.8c-7-4.7-14.5-4.9-22.1-1.8
				c-9.5,3.9-30.8,11.1-40.2,16.2C361.8,326.7,365.4,329.9,368.5,333.7z"/>
		</g>
	</g>
	<path fill="#E2574C" d="M275.6,34.2c-75,0-135.8,60.8-135.8,135.8s60.8,135.8,135.8,135.8c75,0,135.8-60.8,135.8-135.8
		S350.6,34.2,275.6,34.2z M281.4,86c12.2,0,22,10.1,21.9,22.4c-0.1,12.2-10,22.2-22,22.2c-12.3-0.1-22.3-10.2-22.2-22.5
		C259.2,95.8,269.1,86,281.4,86z M312.8,235.4c-0.5,1.9-1.7,3.9-3.1,5.3c-8,8.1-17.7,13-29.3,13.2c-5.4,0.1-10.8-0.1-16.1-0.9
		c-8.8-1.2-20.1-12.2-18.5-23.9c1.1-8,2.3-16,3.7-23.9c2.3-13.8,4.8-27.7,7.2-41.5c0.2-0.9,0.2-1.8,0.2-2.7c0-5.8-1.8-7.8-7.5-8.6
		c-2.5-0.3-5-0.5-7.3-1.4c-2.9-1-4.1-3.2-3.9-5.5c0.3-2.4,1.8-3.9,4.9-4.6c1.6-0.3,3.4-0.4,5-0.4c6.8,0,13.6,0,20.4,0
		c7.2,0,14.4,0,21.6,0c5.2,0,8.3,2.5,8.4,7.6c0.1,4.3-0.6,8.6-1.4,12.9c-2.8,15.8-5.8,31.6-8.6,47.4c-1,5.2-2,10.5-2.6,15.7
		c-0.3,2.5,0.1,5.2,0.7,7.6c0.8,3.3,3.3,5.1,6.7,4.7c2.8-0.3,5.6-1.3,8.2-2.3c2.2-0.8,4.1-2.3,6.2-3.2
		C311,229.8,313.7,232,312.8,235.4z"/>
</g>
</svg>
