<?xml version="1.0" encoding="utf-8"?>
<!-- Generator: Adobe Illustrator 18.0.0, SVG Export Plug-In . SVG Version: 6.00 Build 0)  -->
<!DOCTYPE svg PUBLIC "-//W3C//DTD SVG 1.1//EN" "http://www.w3.org/Graphics/SVG/1.1/DTD/svg11.dtd">
<svg version="1.1" id="Layer_1" xmlns="http://www.w3.org/2000/svg" xmlns:xlink="http://www.w3.org/1999/xlink" x="0px" y="0px"
	 viewBox="0 0 512 512" enable-background="new 0 0 512 512" xml:space="preserve">
<g id="XMLID_2237_">
	<path id="XMLID_2257_" fill="#333333" d="M328.1,74.5l-17.7,17.7c-17.3-11.7-37-20.1-58.3-24.1l0-25.1c0-9.1-7.3-16.4-16.4-16.4
		l-25.3,0C201.4,26.6,194,34,194,43l0,25.1c-21.3,4-41.1,12.4-58.3,24.1L118,74.5c-6.4-6.4-16.8-6.4-23.2,0L76.9,92.4
		c-6.4,6.4-6.4,16.8,0,23.2l17.6,17.6c-11.9,17.3-20.3,37.1-24.4,58.4l-24.6,0c-9.1,0-16.4,7.3-16.4,16.4l0,25.3
		c0,9.1,7.3,16.4,16.4,16.4l24.4,0c4,21.5,12.4,41.4,24.2,58.9l-17.1,17.1c-6.4,6.4-6.4,16.8,0,23.2l17.9,17.9
		c6.4,6.4,16.8,6.4,23.2,0l17.1-17.1c17.4,12,37.4,20.4,58.9,24.5l0,24c0,9.1,7.3,16.4,16.4,16.4h25.3c9.1,0,16.4-7.3,16.4-16.4
		l0-24c13.1-2.5,25.6-6.6,37.3-12.1l-37.1-37.1c-33.4,9.3-70.6,2.5-99.1-21.5c-45.8-38.6-51.7-107-13.1-152.8
		c38.6-45.8,107-51.7,152.8-13.1c34.6,29.1,46.4,75.3,33.5,115.9l36.5,36.5c6.2-12.6,10.8-26.1,13.4-40.3l24.4,0
		c9.1,0,16.4-7.3,16.4-16.4l0-25.3c0-9.1-7.3-16.4-16.4-16.4l-24.6,0c-4.1-21.3-12.6-41.1-24.4-58.4l17.6-17.6
		c6.4-6.4,6.4-16.8,0-23.2l-17.9-17.9C344.9,68.1,334.6,68.1,328.1,74.5z"/>
	<path id="XMLID_2238_" fill="#E2574C" d="M415.6,358.9c-10.4,0.7-20.5-2.9-27.9-10.2l-48.4-48.4l0,0l-41.6-41.6
		c-7.8-7.8-11.4-18.7-10.2-29.7c2-18.4-4-37.5-18.1-51.6c-14.1-14.1-33.3-20.1-51.7-18.1c-6.9,0.8-9.8,9.3-4.9,14.2l18.7,18.7
		c7.6,7.6,7.6,20.1,0,27.8l-11.6,11.6c-7.6,7.6-20.1,7.7-27.8,0l-16.6-16.6c-5.2-5.2-14-1.6-14.2,5.7c-0.4,16.7,5.7,33.6,18.4,46.3
		c13.4,13.4,31.4,19.5,48.9,18.3c10.4-0.7,20.5,2.9,27.9,10.2L305,344l0,0l41.6,41.6c7.8,7.8,11.4,18.7,10.2,29.7
		c-2,18.4,4,37.5,18.1,51.6c14.1,14.1,33.3,20.1,51.7,18.1c6.9-0.8,9.8-9.3,4.9-14.2l-18.7-18.7c-7.6-7.6-7.6-20.1,0-27.8l11.6-11.6
		c7.6-7.6,20.1-7.7,27.8,0l16.6,16.6c5.2,5.2,14,1.6,14.2-5.7c0.4-16.7-5.7-33.6-18.4-46.3C451.1,363.8,433.1,357.7,415.6,358.9z"/>
</g>
</svg>
