<?xml version="1.0" encoding="utf-8"?>
<!-- Generator: Adobe Illustrator 18.0.0, SVG Export Plug-In . SVG Version: 6.00 Build 0)  -->
<!DOCTYPE svg PUBLIC "-//W3C//DTD SVG 1.1//EN" "http://www.w3.org/Graphics/SVG/1.1/DTD/svg11.dtd">
<svg version="1.1" id="Layer_1" xmlns="http://www.w3.org/2000/svg" xmlns:xlink="http://www.w3.org/1999/xlink" x="0px" y="0px"
	 viewBox="0 0 512 512" enable-background="new 0 0 512 512" xml:space="preserve">
<g>
	<path fill="#333333" d="M238.2,360.4c0-10.2,4.5-19.8,12.4-26.2c6.8-5.6,13.7-10.6,20.2-14.9h-210v-23.6v-8.2V159.7
		c0,0,0,0,0.1-0.1h147.8h0H311c0,0,0.1,0,0.1,0.1v35.5c6.8-3.7,14.6-5.8,22.8-5.8h7.2c0.3,0,0.7,0,1,0v-29.7
		c0-17.2-13.9-31.1-31.1-31.1H194.6h0H60.9c-17.2,0-31.1,13.9-31.1,31.1v127.8v6.8v22.9c0,4-1.4,8-3.9,11.1L9.8,348
		c-1.2,1.5-1.9,3.3-1.9,5.3v9c0,11.7,9.4,21.1,21.1,21.1h209.2V360.4z M208.9,363.4h-46c-5.9,0-10.7-4.8-10.7-10.7v-2.3h67.4v2.3
		C219.6,358.6,214.8,363.4,208.9,363.4z"/>
	<path fill="#333333" d="M499,328.6c-18-14.8-37.3-24.6-41.3-26.5c-0.4-0.2-0.7-0.7-0.7-1.2v-28c3.5-2.3,5.8-6.3,5.8-10.9v-29
		c0-14.4-11.7-26.1-26.1-26.1h-3.1h-3.1c-14.4,0-26.1,11.7-26.1,26.1v29c0,4.5,2.3,8.5,5.8,10.9v28c0,0.5-0.3,0.9-0.7,1.2
		c-2,1-8.2,4.1-16.1,8.9c9.4,5.6,20.8,13.2,31.9,22.2c7.9,6.5,12.4,15.9,12.7,26.1h66.2v-19.9C504.1,335.3,502.2,331.3,499,328.6z"
		/>
	<path fill="#E2574C" d="M364.6,315.8v-32.4c4.1-2.7,6.8-7.3,6.8-12.6v-33.6c0-16.7-13.5-30.2-30.2-30.2h-3.6h-3.6
		c-16.7,0-30.2,13.5-30.2,30.2v33.6c0,5.3,2.7,9.9,6.8,12.6v32.4c0,0.6-0.3,1.1-0.8,1.3c-4.6,2.2-27,13.6-47.8,30.7
		c-3.8,3.1-5.9,7.7-5.9,12.6v23h70.9l7-32.1c-14.2-19.7,1.1-20.7,3.7-20.7h0h0c2.7,0,17.9,1,3.7,20.7l7,32.1h70.9v-23
		c0-4.9-2.2-9.5-5.9-12.6c-20.8-17.1-43.2-28.4-47.8-30.7C364.9,316.9,364.6,316.4,364.6,315.8z"/>
</g>
</svg>
