<?xml version="1.0" encoding="utf-8"?>
<!-- Generator: Adobe Illustrator 18.0.0, SVG Export Plug-In . SVG Version: 6.00 Build 0)  -->
<!DOCTYPE svg PUBLIC "-//W3C//DTD SVG 1.1//EN" "http://www.w3.org/Graphics/SVG/1.1/DTD/svg11.dtd">
<svg version="1.1" id="Layer_1" xmlns="http://www.w3.org/2000/svg" xmlns:xlink="http://www.w3.org/1999/xlink" x="0px" y="0px"
	 viewBox="0 0 512 512" enable-background="new 0 0 512 512" xml:space="preserve">
<g>
	<g>
		<g>
			<path fill="#333333" d="M119.5,126.5L119.5,126.5c0.1,0,0.1,0,0.2,0c0.1,0,0.1,0,0.2,0v0c35.9-0.4,30.7-48.4,30.7-48.4
				c-1.5-32.1-28.3-31.8-30.9-31.7c-2.6-0.1-29.5-0.4-30.9,31.7C88.8,78.2,83.6,126.2,119.5,126.5z"/>
			<path fill="#333333" d="M273.9,224.7l-62.5-17.8l-29.6-46.5l0,0c-0.3-0.5-0.6-0.9-1-1.3c-3.1-3.1-4.7-4.6-8.2-7.2
				c-13.3-9.8-29.7-16.4-29.7-16.4l-12.5,39.4l-7.3-20.7c13.1-18.2-1.5-18.8-3.5-18.8c-2,0-16.6,0.5-3.5,18.8l-7.3,20.7l-12.5-39.4
				c0,0-14.2,5.7-27,14.5c-1.7,1.2-3.3,2.5-4.7,4.1L18.6,204c-8.2,9.6-7.1,24,2.5,32.3l55.5,47.5l-9.2,168.9
				c-0.3,6.2,4.1,11.6,10.2,12.6h0c6.5,1,12.7-3.4,13.8-9.9L116,323.6l13,130.7c0.5,6.2,5.6,11,11.8,11.1c6.6,0.1,12-5,12.3-11.6
				l7.6-186.8l6.2-61.3c0.1-1.1,1.6-1.5,2.2-0.6l15.3,21.8c2.5,3.6,6.4,6.1,10.7,6.9l73.1,14.3c7.5,1.5,14.5-4.3,14.5-12v0
				C282.8,230.9,279.1,226.2,273.9,224.7z M71.8,200.4l5.1,49.5l-28.2-28.6L71.8,200.4z"/>
		</g>
		<path fill="#E2574C" d="M289.9,106.5c-28.3,0-51.3,23-51.3,51.4s22.9,51.4,51.3,51.4s51.3-23,51.3-51.4S318.2,106.5,289.9,106.5z
			 M307.7,184c-1.5,0.7-3.1,1.3-4.8,1.7c-6.2,1.7-12.5,1.8-18.7-0.2c-7.5-2.4-12.5-7.6-15.5-14.8c-0.6-1.4-0.9-2.9-1.4-4.3h-5.9
			c-1,0-1.8-0.8-1.8-1.8v-4c0-1,0.8-1.8,1.8-1.8h4.9c0-1.1,0-2.1,0-3.2h-4.9c-1,0-1.8-0.8-1.8-1.8v-4c0-1,0.8-1.8,1.8-1.8h6.2
			l0.2-0.6c1.7-5.3,4.5-9.9,9-13.3c3.5-2.7,7.6-4.2,11.9-4.9c6.2-1,12.2-0.1,18,2.1c0.4,0.1,0.7,0.3,1.1,0.5
			c1.4,0.8,1.8,1.9,1.1,3.4c-0.6,1.6-1.3,3.1-2,4.7c-0.6,1.3-1.5,1.8-2.9,1.4c-2-0.4-3.9-1.1-5.9-1.5c-4.1-0.8-8.3-0.9-12.3,0.7
			c-3.5,1.4-5.6,4-7,7.3c0,0,0,0.1,0,0.1h12c1,0,1.8,0.8,1.8,1.8v4c0,1-0.8,1.8-1.8,1.8h-13.8c0,1.1,0,2.1,0,3.2H291
			c1,0,1.8,0.8,1.8,1.8v4c0,1-0.8,1.8-1.8,1.8h-12.6c1.5,4.4,4,7.7,8.6,9.2c3.7,1.2,7.5,1.1,11.2,0.3c1.9-0.4,3.8-1,5.8-1.4
			c1.5-0.3,2.3,0.1,3,1.5c0.7,1.6,1.4,3.2,2,4.8C309.6,182.1,309.2,183.3,307.7,184z"/>
	</g>
	<g>
		<g id="XMLID_131_">
			<path fill="#333333" d="M272.3,328.6H228c-5.3,0-9.6,4.3-9.6,9.6v18.4v81v18.4c0,5.3,4.3,9.6,9.6,9.6h44.3c5.3,0,9.6-4.3,9.6-9.6
				v-18.4v-81v-18.4C281.9,332.9,277.6,328.6,272.3,328.6z"/>
		</g>
		<g id="XMLID_93_">
			<path fill="#333333" d="M361.9,275.6h-44.3c-5.3,0-9.6,4.3-9.6,9.6v71.4v28v71.4c0,5.3,4.3,9.6,9.6,9.6h44.3
				c5.3,0,9.6-4.3,9.6-9.6v-71.4v-28v-71.4C371.4,279.9,367.2,275.6,361.9,275.6z"/>
		</g>
		<g id="XMLID_50_">
			<path fill="#333333" d="M497.8,213.9l-62.3-100.1c-2.8-4.5-9.4-4.5-12.2,0l-62.3,100.1c-3,4.8,0.5,11,6.1,11h30.6v231
				c0,5.3,4.3,9.6,9.6,9.6h44.3c5,0,9.1-3.9,9.5-8.9h0.1V303.8v-4.3V225h30.6C497.3,225,500.8,218.7,497.8,213.9z"/>
		</g>
	</g>
</g>
</svg>
