<?xml version="1.0" encoding="utf-8"?>
<!-- Generator: Adobe Illustrator 18.0.0, SVG Export Plug-In . SVG Version: 6.00 Build 0)  -->
<!DOCTYPE svg PUBLIC "-//W3C//DTD SVG 1.1//EN" "http://www.w3.org/Graphics/SVG/1.1/DTD/svg11.dtd">
<svg version="1.1" id="Layer_1" xmlns="http://www.w3.org/2000/svg" xmlns:xlink="http://www.w3.org/1999/xlink" x="0px" y="0px"
	 viewBox="0 0 512 512" enable-background="new 0 0 512 512" xml:space="preserve">
<g id="XMLID_313_">
	<g id="XMLID_574_">
		<path fill="#333333" d="M304.4,476.3v-11.9v-52.2v-11.9c0-12.3,10-22.3,22.3-22.3h28.6c2.4,0,4.7,0.4,6.9,1.1v-12.9
			c0-4.2,1.2-8.1,3.2-11.5c-35.3-23.4-65.2-38.5-73.3-42.4c-1.3-0.6-2.2-2-2.2-3.5v-83.2c10.5-7,17.4-18.9,17.4-32.4v-86.2
			c0-42.9-34.8-77.7-77.7-77.7h-9.3h-9.3c-42.9,0-77.7,34.8-77.7,77.7v86.2c0,13.5,6.9,25.4,17.4,32.4v83.2c0,1.5-0.8,2.8-2.2,3.5
			c-11.7,5.7-69.3,34.9-122.7,78.7c-9.6,7.9-15.2,19.8-15.2,32.3v59.1h182.2l18-82.4c-36.4-50.7,2.7-53.2,9.5-53.2c0,0,0,0,0,0
			c0,0,0,0,0,0c6.8,0.1,45.9,2.5,9.5,53.2l18,82.4h57.5C304.8,480.5,304.4,478.5,304.4,476.3z"/>
	</g>
	<path id="XMLID_12_" fill="#E2574C" d="M361.5,464.5v-52.2v-11.9c0-3.4-2.8-6.2-6.2-6.2h-28.6c-3.4,0-6.2,2.8-6.2,6.2v11.9v52.2
		v11.9c0,3.4,2.8,6.2,6.2,6.2h28.6c3.4,0,6.2-2.8,6.2-6.2V464.5z"/>
	<path id="XMLID_603_" fill="#E2574C" d="M384.5,482.5h28.6c3.4,0,6.2-2.8,6.2-6.2v-46v-18v-46c0-3.4-2.8-6.2-6.2-6.2h-28.6
		c-3.4,0-6.2,2.8-6.2,6.2v46v18v46C378.3,479.7,381.1,482.5,384.5,482.5z"/>
	<path id="XMLID_536_" fill="#E2574C" d="M500.6,320.4l-40.2-64.5c-0.9-1.5-2.4-2.2-3.9-2.2c-1.5,0-3,0.7-3.9,2.2l-40.2,64.5
		c-1.9,3.1,0.3,7.1,3.9,7.1h19.7v148.9c0,3.4,2.8,6.2,6.2,6.2h28.6c3.3,0,5.9-2.5,6.1-5.7h0v-98.5v-2.8v-48.1h19.7
		C500.3,327.5,502.6,323.5,500.6,320.4z"/>
</g>
</svg>
