<?xml version="1.0" encoding="utf-8"?>
<!-- Generator: Adobe Illustrator 18.0.0, SVG Export Plug-In . SVG Version: 6.00 Build 0)  -->
<!DOCTYPE svg PUBLIC "-//W3C//DTD SVG 1.1//EN" "http://www.w3.org/Graphics/SVG/1.1/DTD/svg11.dtd">
<svg version="1.1" id="Layer_1" xmlns="http://www.w3.org/2000/svg" xmlns:xlink="http://www.w3.org/1999/xlink" x="0px" y="0px"
	 viewBox="0 0 512 512" enable-background="new 0 0 512 512" xml:space="preserve">
<g>
	<path fill="#333333" d="M254.2,192.7c-33.8,0-61.4,27.5-61.4,61.4c0,5.4,4.4,9.8,9.8,9.8s9.8-4.4,9.8-9.8c0-23,18.7-41.7,41.7-41.7
		c5.4,0,9.8-4.4,9.8-9.8S259.6,192.7,254.2,192.7z"/>
	<path fill="#333333" d="M318.5,382.5c-19.9,10.1-41.9,15.3-64.7,15.3c-38.5,0-74.6-15-101.8-42.2c-27.2-27.2-42.2-63.4-42.2-101.8
		c0-38.5,15-74.6,42.2-101.8c27.2-27.2,63.4-42.2,101.8-42.2s74.6,15,101.8,42.2c24.6,24.6,39.5,57.3,41.8,92
		c1.8,25.9-3.5,51.7-15,74.5l30.2,30.2c10.8-18.1,18.3-37.8,22.3-57.9l30.3,0.1c10.8,0,19.7-8.7,19.7-19.6l0.1-33
		c0-10.8-8.7-19.7-19.6-19.7l-30.3-0.1c-4.6-23.4-13.7-46-27.3-66.5l21.5-21.4c7.7-7.6,7.7-20.1,0.1-27.8l-23.3-23.4
		c-7.6-7.7-20.1-7.7-27.8-0.1L357,100.6c-20.4-13.8-43-23-66.4-27.7l0.1-30.3c0-10.8-8.7-19.7-19.6-19.7l-33-0.1
		c-10.8,0-19.7,8.7-19.7,19.6l-0.1,30.3c-23.4,4.6-46,13.7-66.5,27.3l-21.4-21.5c-7.6-7.7-20.1-7.7-27.8-0.1l-23.4,23.3
		c-7.7,7.6-7.7,20.1-0.1,27.8l21.4,21.5c-13.8,20.4-23,43-27.7,66.4l-30.3-0.1c-10.8,0-19.7,8.7-19.7,19.6l-0.1,33
		c0,10.8,8.7,19.7,19.6,19.7l30.3,0.1c4.6,23.4,13.7,46,27.3,66.5l-21.5,21.4c-7.7,7.6-7.7,20.1-0.1,27.8l23.3,23.4
		c7.6,7.7,20.1,7.7,27.8,0.1l21.5-21.4c20.4,13.8,43,23,66.4,27.7l-0.1,30.3c0,10.8,8.7,19.7,19.6,19.7l33,0.1
		c10.8,0,19.7-8.7,19.7-19.6l0.1-30.3c20.6-4,40.6-11.6,59.2-22.7L318.5,382.5z"/>
	<g>
		<g>
			<g>
				<g>
					<path fill="#E2574C" d="M340.8,166.7c-48-48-125.9-48-174,0c-48,48-48,125.9,0,174c43.8,43.8,112.3,47.7,160.5,11.7l7,7
						l-4.6,4.6l118.2,118.2c9.5,9.5,24.9,9.5,34.3,0c9.5-9.5,9.5-24.9,0-34.3L364.1,329.7l-4.6,4.6l-7-7
						C388.5,279,384.6,210.5,340.8,166.7z M314.1,314c-33.3,33.3-87.3,33.3-120.6,0c-33.3-33.3-33.3-87.3,0-120.6
						c33.3-33.3,87.3-33.3,120.6,0C347.4,226.7,347.4,280.7,314.1,314z"/>
				</g>
			</g>
		</g>
	</g>
</g>
</svg>
