<?xml version="1.0" encoding="utf-8"?>
<!-- Generator: Adobe Illustrator 18.0.0, SVG Export Plug-In . SVG Version: 6.00 Build 0)  -->
<!DOCTYPE svg PUBLIC "-//W3C//DTD SVG 1.1//EN" "http://www.w3.org/Graphics/SVG/1.1/DTD/svg11.dtd">
<svg version="1.1" id="Layer_1" xmlns="http://www.w3.org/2000/svg" xmlns:xlink="http://www.w3.org/1999/xlink" x="0px" y="0px"
	 viewBox="0 0 512 512" enable-background="new 0 0 512 512" xml:space="preserve">
<g>
	<path id="XMLID_1_" fill="#333333" d="M497.2,382.1l-21.7-26.6c-3.5-4.3-5.4-9.7-5.4-15.2v-25.1v-16.1v-46.4l0,0V124.1
		c0-23.5-19.1-42.6-42.6-42.6H268h0H84.8c-23.5,0-42.6,19.1-42.6,42.6v175.1v9.4v31.4c0,5.5-1.9,10.9-5.4,15.2l-22,27
		c-1.7,2-2.6,4.6-2.6,7.2v12.3c0,16,12.9,28.9,28.9,28.9h429.7c16,0,28.9-12.9,28.9-28.9v-12.3C499.8,386.7,498.9,384.1,497.2,382.1
		z M302.3,388.4c0,8.1-6.6,14.7-14.7,14.7h-63c-8.1,0-14.7-6.6-14.7-14.7v-3.2h92.4V388.4z M427.6,342.7H84.7v-32.3v-11.3V124
		c0,0,0.1-0.1,0.1-0.1h202.5h0h140.2c0.1,0,0.1,0.1,0.1,0.1v175.1v11.3v2.9h0v1.9V342.7z"/>
	
		<rect x="186.5" y="224.6" transform="matrix(0.4956 -0.8685 0.8685 0.4956 -75.7703 341.3272)" fill="#E2574C" width="139" height="22.6"/>
	<polygon fill="#E2574C" points="182.2,179.9 142.2,219.9 126.2,235.9 142.2,251.9 182.2,291.9 198.2,275.9 158.2,235.9 
		198.2,195.9 	"/>
	<polygon fill="#E2574C" points="329.8,179.9 369.8,219.9 385.8,235.9 369.8,251.9 329.8,291.9 313.8,275.9 353.8,235.9 
		313.8,195.9 	"/>
</g>
</svg>
