<?xml version="1.0" encoding="utf-8"?>
<!-- Generator: Adobe Illustrator 18.0.0, SVG Export Plug-In . SVG Version: 6.00 Build 0)  -->
<!DOCTYPE svg PUBLIC "-//W3C//DTD SVG 1.1//EN" "http://www.w3.org/Graphics/SVG/1.1/DTD/svg11.dtd">
<svg version="1.1" id="Layer_1" xmlns="http://www.w3.org/2000/svg" xmlns:xlink="http://www.w3.org/1999/xlink" x="0px" y="0px"
	 viewBox="0 0 512 512" enable-background="new 0 0 512 512" xml:space="preserve">
<g>
	<path fill="#333333" d="M494.2,329.2c-21.7-17.8-45-29.6-49.8-31.9c-0.5-0.3-0.9-0.8-0.9-1.4v-33.7c4.2-2.8,7-7.6,7-13.1v-35
		c0-17.4-14.1-31.5-31.5-31.5h-3.8h-3.8c-17.4,0-31.5,14.1-31.5,31.5v35c0,5.5,2.8,10.3,7,13.1v33.7c0,0.6-0.3,1.1-0.9,1.4
		c-2.9,1.4-12.5,6.3-24.5,13.8c7.4,6.8,11.7,16.3,11.7,26.4v28.8h30.7l7.3-33.4c-14.7-20.6,1.1-21.6,3.9-21.6h0h0
		c2.8,0,18.6,1,3.9,21.6l7.3,33.4h73.9v-24C500.4,337.2,498.1,332.4,494.2,329.2z"/>
	<path fill="#E2574C" d="M289.9,281.8v-40.5c5.1-3.4,8.4-9.2,8.4-15.7v-42c0-20.9-16.9-37.8-37.8-37.8H256h-4.5
		c-20.9,0-37.8,16.9-37.8,37.8v42c0,6.6,3.4,12.4,8.4,15.7v40.5c0,0.7-0.4,1.4-1,1.7c-5.7,2.8-33.7,17-59.7,38.3
		c-4.7,3.9-7.4,9.6-7.4,15.7v28.8h88.7l8.8-40.1c-17.7-24.7,1.3-25.9,4.6-25.9h0h0c3.3,0,22.3,1.2,4.6,25.9l8.8,40.1h88.7v-28.8
		c0-6.1-2.7-11.9-7.4-15.7c-26-21.4-54-35.5-59.7-38.3C290.3,283.1,289.9,282.5,289.9,281.8z"/>
	<path fill="#333333" d="M494.2,329.2c-21.7-17.8-45-29.6-49.8-31.9c-0.5-0.3-0.9-0.8-0.9-1.4v-33.7c4.2-2.8,7-7.6,7-13.1v-35
		c0-17.4-14.1-31.5-31.5-31.5h-3.8h-3.8c-17.4,0-31.5,14.1-31.5,31.5v35c0,5.5,2.8,10.3,7,13.1v33.7c0,0.6-0.3,1.1-0.9,1.4
		c-2.9,1.4-12.5,6.3-24.5,13.8c7.4,6.8,11.7,16.3,11.7,26.4v28.8h30.7l7.3-33.4c-14.7-20.6,1.1-21.6,3.9-21.6h0h0
		c2.8,0,18.6,1,3.9,21.6l7.3,33.4h73.9v-24C500.4,337.2,498.1,332.4,494.2,329.2z"/>
	<path fill="#E2574C" d="M289.9,281.8v-40.5c5.1-3.4,8.4-9.2,8.4-15.7v-42c0-20.9-16.9-37.8-37.8-37.8H256h-4.5
		c-20.9,0-37.8,16.9-37.8,37.8v42c0,6.6,3.4,12.4,8.4,15.7v40.5c0,0.7-0.4,1.4-1,1.7c-5.7,2.8-33.7,17-59.7,38.3
		c-4.7,3.9-7.4,9.6-7.4,15.7v28.8h88.7l8.8-40.1c-17.7-24.7,1.3-25.9,4.6-25.9h0h0c3.3,0,22.3,1.2,4.6,25.9l8.8,40.1h88.7v-28.8
		c0-6.1-2.7-11.9-7.4-15.7c-26-21.4-54-35.5-59.7-38.3C290.3,283.1,289.9,282.5,289.9,281.8z"/>
	<path fill="#333333" d="M17.8,329.2c21.7-17.8,45-29.6,49.8-31.9c0.5-0.3,0.9-0.8,0.9-1.4v-33.7c-4.2-2.8-7-7.6-7-13.1v-35
		c0-17.4,14.1-31.5,31.5-31.5h3.8h3.8c17.4,0,31.5,14.1,31.5,31.5v35c0,5.5-2.8,10.3-7,13.1v33.7c0,0.6,0.3,1.1,0.9,1.4
		c2.9,1.4,12.5,6.3,24.5,13.8c-7.4,6.8-11.7,16.3-11.7,26.4v28.8h-30.7l-7.3-33.4c14.7-20.6-1.1-21.6-3.9-21.6h0h0
		c-2.8,0-18.6,1-3.9,21.6l-7.3,33.4H11.6v-24C11.6,337.2,13.9,332.4,17.8,329.2z"/>
</g>
</svg>
