<?xml version="1.0" encoding="utf-8"?>
<!-- Generator: Adobe Illustrator 18.0.0, SVG Export Plug-In . SVG Version: 6.00 Build 0)  -->
<!DOCTYPE svg PUBLIC "-//W3C//DTD SVG 1.1//EN" "http://www.w3.org/Graphics/SVG/1.1/DTD/svg11.dtd">
<svg version="1.1" id="Layer_1" xmlns="http://www.w3.org/2000/svg" xmlns:xlink="http://www.w3.org/1999/xlink" x="0px" y="0px"
	 viewBox="0 0 512 512" enable-background="new 0 0 512 512" xml:space="preserve">
<g>
	<path fill="#333333" d="M387.1,140.2c32.5,55.2,25.1,127.3-22.3,174.7c-56.2,56.2-147.3,56.2-203.5,0
		c-56.2-56.2-56.2-147.3,0-203.5C208.7,64.1,280.8,56.7,336,89.2l29-29c-71.5-47.7-168.9-40-232,23c-43.4,43.4-60.5,103-51.5,159.3
		l-37.1,71.3c-9.5,18.1-0.5,32.7,19.6,32.7h17.6v0.5v30.6v36.2c0,21.1,17.1,38.2,38.2,38.2l52.8-8v52.8v0.5c0,6.5,6,11.1,13.1,10
		l189.4-33.7c7-1.5,13.1-8,13.1-15.6v-8.5v-6.5v-94.7c1.7-1.6,3.4-3.2,5.1-4.9c63.1-63.1,70.7-160.6,23-232L387.1,140.2z"/>
	<path fill="#333333" d="M281.9,143.3l28.4-28.4c-40.6-19.5-90.7-12.4-124.3,21.2c-42.6,42.6-42.6,111.6,0,154.2s111.6,42.6,154.2,0
		c33.6-33.6,40.7-83.8,21.2-124.3l-28.4,28.4c6.5,24.2,0.3,51.1-18.7,70c-28.3,28.3-74.1,28.3-102.4,0c-28.3-28.3-28.3-74.1,0-102.4
		C230.8,143,257.7,136.8,281.9,143.3z"/>
	<path fill="#E2574C" d="M277.4,178.4c-13.6-5.6-29.9-2.9-41,8.2c-14.7,14.7-14.7,38.5,0,53.2c14.7,14.7,38.5,14.7,53.2,0
		c11.1-11.1,13.8-27.3,8.2-41l108-108l18,2.4l47.6-47.6l-36-4.8l-4.8-36L383,52.4l2.4,18L277.4,178.4z"/>
</g>
</svg>
