<?xml version="1.0" encoding="utf-8"?>
<!-- Generator: Adobe Illustrator 18.0.0, SVG Export Plug-In . SVG Version: 6.00 Build 0)  -->
<!DOCTYPE svg PUBLIC "-//W3C//DTD SVG 1.1//EN" "http://www.w3.org/Graphics/SVG/1.1/DTD/svg11.dtd">
<svg version="1.1" id="Layer_1" xmlns="http://www.w3.org/2000/svg" xmlns:xlink="http://www.w3.org/1999/xlink" x="0px" y="0px"
	 viewBox="0 0 512 512" enable-background="new 0 0 512 512" xml:space="preserve">
<g>
	<g>
		<g>
			<g>
				<path fill="#333333" d="M279.1,116.2c0-4.6,0-27.6,0-27.6c3.5-2.3,5.8-6.3,5.8-10.7V52.3c0-16-12.9-28.9-28.9-28.9h0h0
					c-16,0-28.9,12.9-28.9,28.9v25.6c0,4.5,2.3,8.4,5.8,10.7l0,27.6c0,0.5-0.3,0.9-0.7,1.1c-3.9,1.9-23.1,11.6-40.8,26.2
					c-3.2,2.6-5,6.6-5,10.7v19.6h60.5l6-27.4c-12.1-16.8,0.9-17.7,3.2-17.7h0h0c2.3,0,15.2,0.8,3.2,17.7l6,27.4h60.5v-19.6
					c0-4.1-1.8-8.1-5-10.7c-17.8-14.6-36.9-24.3-40.8-26.2C279.4,117.2,279.1,116.7,279.1,116.2z"/>
				<path fill="#333333" d="M449.2,413.9c0-4.6,0-27.6,0-27.6c3.5-2.3,5.8-6.3,5.8-10.7V350c0-16-12.9-28.9-28.9-28.9h0h0
					c-16,0-28.9,12.9-28.9,28.9v25.6c0,4.5,2.3,8.4,5.8,10.7l0,27.6c0,0.5-0.3,0.9-0.7,1.1c-3.9,1.9-23.1,11.6-40.8,26.2
					c-3.2,2.6-5,6.6-5,10.7v19.6H417l6-27.4c-12.1-16.8,0.9-17.7,3.2-17.7h0h0c2.3,0,15.2,0.8,3.2,17.7l6,27.4h60.5v-19.6
					c0-4.1-1.8-8.1-5-10.7c-17.8-14.6-36.9-24.3-40.8-26.2C449.5,414.8,449.2,414.4,449.2,413.9z"/>
				<g>
					<path fill="#333333" d="M246.2,478.9c0-5.4,4.4-9.7,9.7-9.7l0,0c5.4,0,9.7,4.4,9.7,9.7l0,0c0,5.4-4.4,9.7-9.7,9.7l0,0
						c0,0-0.1,0-0.2,0l0,0C250.4,488.5,246.2,484.2,246.2,478.9z M182.6,473c-4.9-2.2-7.1-7.9-4.9-12.8l0,0c2.2-4.9,8-7.1,12.8-4.9
						l0,0c4.9,2.2,7.1,8,4.9,12.8l0,0c-1.6,3.7-5.3,5.8-9.1,5.8l0,0C185.1,473.8,183.8,473.6,182.6,473z M316.4,468.2
						c-2.2-4.9,0-10.7,4.9-12.8l0,0c4.9-2.2,10.6,0,12.8,4.9l0,0c2.2,4.9,0,10.7-4.9,12.8l0,0c-1.4,0.6-2.7,0.9-4.1,0.9l0,0
						C321.5,473.9,318,471.7,316.4,468.2z M85.3,300.1c-5.3-0.6-9.2-5.3-8.6-10.7l0,0c0,0,0-0.1,0-0.1l0,0c0-0.1,0-0.1,0-0.2l0,0
						c0,0,0,0,0,0l0,0c0.6-5.4,5.4-9.2,10.7-8.6l0,0c5.3,0.6,9.2,5.3,8.6,10.7l0,0c0,0.1,0,0.1,0,0.2l0,0c0,0,0,0.1,0,0.1l0,0
						c-0.5,5.1-4.9,8.8-9.8,8.7l0,0C86,300.1,85.7,300.1,85.3,300.1z M416,291.6c-0.6-5.3,3.3-10.1,8.7-10.7l0,0
						c5.4-0.6,10.1,3.3,10.7,8.7l0,0c0.5,5.4-3.4,10.1-8.7,10.7l0,0c-0.4,0.1-0.8,0.1-1.2,0.1l0,0
						C420.7,300.3,416.6,296.6,416,291.6z M103.5,231.1c-4.6-2.7-6.2-8.7-3.5-13.3l0,0c2.7-4.6,8.6-6.2,13.3-3.5l0,0
						c4.6,2.7,6.2,8.6,3.5,13.3l0,0c-1.8,3.1-5.2,4.9-8.6,4.8l0,0C106.6,232.4,105,232,103.5,231.1z M395.4,228.1L395.4,228.1
						c-2.7-4.7-1.1-10.6,3.6-13.3l0,0c4.7-2.7,10.6-1.1,13.3,3.6l0,0c2.7,4.7,1.1,10.6-3.6,13.3l0,0c-1.6,0.9-3.3,1.3-5,1.3l0,0
						C400.4,232.9,397.2,231.1,395.4,228.1z M148.1,175.8c-3.1-4.4-2.2-10.4,2.2-13.6l0,0c4.4-3.1,10.4-2.2,13.6,2.2l0,0
						c3.1,4.3,2.2,10.4-2.2,13.6l0,0c-1.8,1.3-3.8,1.9-5.8,1.8l0,0C152.9,179.8,150,178.4,148.1,175.8z M350.8,178.3
						c-4.3-3.2-5.3-9.3-2.1-13.6l0,0c3.2-4.3,9.3-5.3,13.6-2.1l0,0c4.4,3.2,5.3,9.3,2.1,13.6l0,0c-1.9,2.7-5,4-8,4l0,0
						C354.4,180.1,352.4,179.5,350.8,178.3z"/>
				</g>
				<path fill="#333333" d="M62.8,413.9c0-4.6,0-27.6,0-27.6C59.3,384,57,380,57,375.5V350c0-16,12.9-28.9,28.9-28.9h0h0
					c16,0,28.9,12.9,28.9,28.9v25.6c0,4.5-2.3,8.4-5.8,10.7l0,27.6c0,0.5,0.3,0.9,0.7,1.1c3.9,1.9,23.1,11.6,40.8,26.2
					c3.2,2.6,5,6.6,5,10.7v19.6H95l-6-27.4c12.1-16.8-0.9-17.7-3.2-17.7h0h0c-2.3,0-15.2,0.8-3.2,17.7l-6,27.4H16.2l0-19.6
					c0-4.1,1.8-8.1,5-10.7C39,426.6,58.2,416.9,62.1,415C62.5,414.8,62.8,414.4,62.8,413.9z"/>
			</g>
		</g>
	</g>
	<g id="XMLID_154_">
		<g>
			<g id="XMLID_139_">
				<path id="XMLID_140_" fill="#E2574C" d="M256,401.5c-48.2,0-87.5-39.2-87.5-87.5s39.2-87.5,87.5-87.5s87.5,39.2,87.5,87.5
					S304.2,401.5,256,401.5z M256,244.6c-38.3,0-69.4,31.1-69.4,69.4s31.1,69.4,69.4,69.4s69.4-31.1,69.4-69.4
					S294.3,244.6,256,244.6z"/>
			</g>
			<path id="XMLID_138_" fill="#E2574C" d="M265.4,353.3c5.2-1.4,9.7-4.2,13.1-8.4c9.5-11.5,5.8-28.4-7.6-35.8
				c-4.2-2.3-8.7-4.1-13.1-5.9c-2.6-1.1-5-2.3-7.2-4c-4.3-3.4-3.5-9,1.6-11.2c1.4-0.6,2.9-0.8,4.4-0.9c5.8-0.3,11.3,0.7,16.6,3.3
				c2.6,1.3,3.5,0.9,4.4-1.9c0.9-2.9,1.7-5.8,2.6-8.7c0.6-2-0.1-3.2-2-4.1c-3.4-1.5-6.8-2.6-10.5-3.1c-4.7-0.7-4.7-0.8-4.8-5.5
				c0-6.7,0-6.7-6.8-6.7c-1,0-2,0-2.9,0c-3.2,0.1-3.7,0.6-3.8,3.8c0,1.4,0,2.9,0,4.3c0,4.2,0,4.2-4.1,5.6
				c-9.8,3.6-15.8,10.2-16.4,20.9c-0.6,9.4,4.3,15.8,12.1,20.4c4.8,2.9,10.1,4.6,15.1,6.8c2,0.9,3.9,1.9,5.5,3.2
				c4.9,4,4,10.7-1.8,13.2c-3.1,1.4-6.4,1.7-9.7,1.3c-5.2-0.6-10.1-2-14.8-4.4c-2.7-1.4-3.5-1-4.5,1.9c-0.8,2.5-1.5,5.1-2.2,7.7
				c-0.9,3.5-0.6,4.3,2.7,5.9c4.2,2,8.7,3.1,13.3,3.8c3.6,0.6,3.7,0.7,3.8,4.5c0,1.7,0,3.4,0,5.1c0,2.1,1.1,3.4,3.2,3.4
				c2.5,0,5,0,7.5,0c2-0.1,3.1-1.2,3.1-3.2c0-2.3,0.1-4.6,0-6.9C262.2,355.1,263.2,353.9,265.4,353.3z"/>
		</g>
	</g>
</g>
</svg>
