<?xml version="1.0" encoding="utf-8"?>
<!-- Generator: Adobe Illustrator 18.0.0, SVG Export Plug-In . SVG Version: 6.00 Build 0)  -->
<!DOCTYPE svg PUBLIC "-//W3C//DTD SVG 1.1//EN" "http://www.w3.org/Graphics/SVG/1.1/DTD/svg11.dtd">
<svg version="1.1" id="Layer_1" xmlns="http://www.w3.org/2000/svg" xmlns:xlink="http://www.w3.org/1999/xlink" x="0px" y="0px"
	 viewBox="0 0 512 512" enable-background="new 0 0 512 512" xml:space="preserve">
<g>
	<g id="XMLID_345_">
		<path fill="#333333" d="M358.5,372.5c-46-37.8-95.7-62.9-105.8-67.9c-1.1-0.6-1.9-1.7-1.9-3v-71.7c9-6,15-16.2,15-27.9v-74.3
			c0-37-30-67-67-67h-8h-8c-37,0-67,30-67,67V202c0,11.6,5.9,21.9,15,27.9v71.7c0,1.3-0.7,2.4-1.9,3c-10.1,4.9-59.8,30-105.8,67.9
			c-8.3,6.8-13.1,17.1-13.1,27.8v50.9h157l15.5-71c-31.3-43.7,2.3-45.8,8.2-45.9h0h0c5.9,0,39.5,2.2,8.2,45.9l15.5,71h157v-50.9
			C371.6,389.5,366.8,379.3,358.5,372.5z"/>
	</g>
	<g id="XMLID_116_">
		<g>
			<path fill="#E2574C" d="M472.1,90.6c-39.8-39.8-104.3-39.8-144.1,0c-38.3,38.3-39.7,99.5-4.3,139.5l1,0.9
				c-3.9,8.3-10.5,18.6-21,23.7c-3.5,1.7-2.7,6.9,1.1,7.5c11.5,1.8,28-0.2,43.3-11.8l0.2,0.2c39.1,23,90.1,17.7,123.6-15.8
				C511.9,194.9,511.9,130.4,472.1,90.6z M354.3,174.9c-6.8,0-12.2-5.5-12.2-12.2c0-6.8,5.5-12.2,12.2-12.2
				c6.8,0,12.2,5.5,12.2,12.2C366.5,169.4,361,174.9,354.3,174.9z M400,174.9c-6.8,0-12.2-5.5-12.2-12.2c0-6.8,5.5-12.2,12.2-12.2
				s12.2,5.5,12.2,12.2C412.3,169.4,406.8,174.9,400,174.9z M445.8,174.9c-6.8,0-12.2-5.5-12.2-12.2c0-6.8,5.5-12.2,12.2-12.2
				s12.2,5.5,12.2,12.2C458.1,169.4,452.6,174.9,445.8,174.9z"/>
		</g>
	</g>
</g>
</svg>
