<?xml version="1.0" encoding="utf-8"?>
<!-- Generator: Adobe Illustrator 18.0.0, SVG Export Plug-In . SVG Version: 6.00 Build 0)  -->
<!DOCTYPE svg PUBLIC "-//W3C//DTD SVG 1.1//EN" "http://www.w3.org/Graphics/SVG/1.1/DTD/svg11.dtd">
<svg version="1.1" id="Layer_1" xmlns="http://www.w3.org/2000/svg" xmlns:xlink="http://www.w3.org/1999/xlink" x="0px" y="0px"
	 viewBox="0 0 512 512" enable-background="new 0 0 512 512" xml:space="preserve">
<g>
	<path id="XMLID_38_" fill="#333333" d="M437.8,379.5c-3.2-3.9-5-8.8-5-13.9v-22.9v-14.7v-42.4c-12.4,4.1-25.5,6.2-38.9,6.2v36.2
		v14.7v25.1H80.4v-29.5v-10.3V167.8c0,0,0-0.1,0.1-0.1h189.5c0-13.2,2.1-26.3,6.2-38.9H80.5c-21.5,0-39,17.5-39,39v160.1v8.6v28.7
		c0,5.1-1.7,10-4.9,13.9l-20.1,24.7c-1.5,1.9-2.3,4.2-2.3,6.6v11.3c0,14.6,11.8,26.4,26.4,26.4h392.9c14.6,0,26.4-11.8,26.4-26.4
		v-11.3c0-2.4-0.8-4.7-2.3-6.6L437.8,379.5z M279.5,409.5c0,7.4-6,13.4-13.4,13.4h-57.6c-7.4,0-13.4-6-13.4-13.4v-2.9h84.5V409.5z"
		/>
	<g>
		<path fill="#333333" d="M320.6,94.3c-39,39-40.5,101.4-4.4,142.2l1.1,0.9c-3.9,8.5-10.7,18.9-21.4,24.2c-3.5,1.7-2.7,7,1.2,7.6
			c11.7,1.8,28.5-0.2,44.1-12.1l0.2,0.2c39.8,23.4,91.8,18,126-16.1c40.5-40.5,40.5-106.3,0-146.8C426.9,53.8,361.1,53.8,320.6,94.3
			z M394,247.1c-43.8,0-79.4-35.5-79.4-79.4s35.5-79.4,79.4-79.4c43.8,0,79.4,35.5,79.4,79.4S437.8,247.1,394,247.1z"/>
		<circle fill="#E2574C" cx="394" cy="167.7" r="11.2"/>
		<circle fill="#E2574C" cx="433.4" cy="167.7" r="11.2"/>
		<circle fill="#E2574C" cx="354.6" cy="167.7" r="11.2"/>
	</g>
</g>
</svg>
