<?xml version="1.0" encoding="utf-8"?>
<!-- Generator: Adobe Illustrator 18.0.0, SVG Export Plug-In . SVG Version: 6.00 Build 0)  -->
<!DOCTYPE svg PUBLIC "-//W3C//DTD SVG 1.1//EN" "http://www.w3.org/Graphics/SVG/1.1/DTD/svg11.dtd">
<svg version="1.1" id="Layer_1" xmlns="http://www.w3.org/2000/svg" xmlns:xlink="http://www.w3.org/1999/xlink" x="0px" y="0px"
	 viewBox="0 0 512 512" enable-background="new 0 0 512 512" xml:space="preserve">
<g>
	<path fill="#E2574C" d="M286.6,187.2c-39.6,0-71.6,32.1-71.6,71.6c0,39.6,32.1,71.6,71.6,71.6c39.6,0,71.6-32.1,71.6-71.6
		C358.2,219.2,326.1,187.2,286.6,187.2z M307.1,287.1c-3.1,3.8-7.2,6.4-11.9,7.7c-2.1,0.6-3,1.7-2.9,3.8c0.1,2.1,0,4.2,0,6.3
		c0,1.9-1,2.9-2.8,2.9c-2.3,0.1-4.6,0.1-6.8,0c-2,0-2.9-1.2-3-3.1c0-1.5,0-3.1,0-4.6c0-3.4-0.1-3.6-3.4-4.1
		c-4.2-0.7-8.3-1.6-12.2-3.5c-3-1.5-3.3-2.2-2.5-5.4c0.6-2.4,1.3-4.7,2-7c0.8-2.7,1.6-3,4.1-1.7c4.2,2.2,8.8,3.5,13.5,4
		c3.1,0.4,6,0.1,8.9-1.2c5.3-2.3,6.1-8.4,1.6-12.1c-1.5-1.2-3.2-2.2-5-3c-4.6-2-9.4-3.6-13.8-6.2c-7.1-4.2-11.6-10.1-11-18.7
		c0.6-9.7,6.1-15.8,15-19.1c3.7-1.3,3.7-1.3,3.7-5.1c0-1.3,0-2.6,0-3.9c0.1-2.9,0.6-3.4,3.4-3.5c0.9,0,1.8,0,2.7,0
		c6.2,0,6.2,0,6.2,6.2c0,4.4,0,4.4,4.4,5.1c3.3,0.5,6.5,1.5,9.6,2.9c1.7,0.7,2.3,1.9,1.8,3.7c-0.8,2.7-1.5,5.3-2.3,8
		c-0.8,2.5-1.6,2.9-4,1.7c-4.8-2.3-9.8-3.3-15.2-3c-1.4,0.1-2.8,0.3-4,0.8c-4.6,2-5.3,7.1-1.4,10.2c2,1.6,4.2,2.7,6.6,3.7
		c4.1,1.7,8.2,3.3,12,5.4C312.5,261.1,315.8,276.5,307.1,287.1z"/>
	<circle fill="#333333" cx="182.4" cy="262.4" r="19.9"/>
	<circle fill="#333333" cx="390.8" cy="262.4" r="19.9"/>
	<path fill="#333333" d="M274.5,405.1c0,6.9-5.6,12.7-12.7,12.7H73.2c-6.9,0-12.7-5.6-12.7-12.7V107.1c0-6.9,5.6-12.7,12.7-12.7H262
		c6.9,0,12.7,5.6,12.7,12.7v2.2h-0.1v8.1h26.1V76.7c0-27-22.1-49.1-49.1-49.1H83.6c-27,0-49.1,22.1-49.1,49.1v358.7
		c0,27,22.1,49.1,49.1,49.1h167.8c27,0,49.1-22.1,49.1-49.1v-35.1h-26.1V405.1z M188.7,463.8h-47.3c-7,0-12.8-5.7-12.8-12.8
		c0-7,5.7-12.8,12.8-12.8h47.3c7,0,12.8,5.7,12.8,12.8C201.5,458.1,195.7,463.8,188.7,463.8z"/>
	<path fill="#333333" d="M444.8,142h-312c-18,0-32.7,14.7-32.7,32.7v168.3c0,18,14.7,32.7,32.7,32.7h312c18,0,32.7-14.7,32.7-32.7
		V174.7C477.5,156.6,462.8,142,444.8,142z M449.6,309.1c-1.9-0.3-3.8-0.5-5.8-0.5c-18.3,0-33.1,14.8-33.1,33.1
		c0,2.1,0.2,4.1,0.6,6.1H169.1c0.2-1.3,0.3-2.7,0.3-4.1c0-18.3-14.8-33.1-33.1-33.1c-2.8,0-5.6,0.4-8.2,1V210c2.6,0.7,5.4,1,8.2,1
		c18.3,0,33.1-14.8,33.1-33.1c0-2.8-0.4-5.5-1-8.1h242.9c-0.4,2-0.6,4-0.6,6.1c0,18.3,14.8,33.1,33.1,33.1c2,0,3.9-0.2,5.8-0.5
		V309.1z"/>
</g>
</svg>
