<?xml version="1.0" encoding="utf-8"?>
<!-- Generator: Adobe Illustrator 18.0.0, SVG Export Plug-In . SVG Version: 6.00 Build 0)  -->
<!DOCTYPE svg PUBLIC "-//W3C//DTD SVG 1.1//EN" "http://www.w3.org/Graphics/SVG/1.1/DTD/svg11.dtd">
<svg version="1.1" id="Layer_1" xmlns="http://www.w3.org/2000/svg" xmlns:xlink="http://www.w3.org/1999/xlink" x="0px" y="0px"
	 viewBox="0 0 512 512" enable-background="new 0 0 512 512" xml:space="preserve">
<g>
	<path fill="#333333" d="M222.6,125.7c-1.1,4.6-3,8.8-5.7,12.6c8.6-0.6,17.5-1.1,26.4-1.3c0-0.2,0-0.4,0-0.5c0-4,0.6-7.9,1.7-11.5
		C237.5,125.1,230,125.4,222.6,125.7z"/>
	<path fill="#333333" d="M414.8,163.2c0-15.7-39-29.1-94.8-35.1c0.6,2.7,0.9,5.5,0.9,8.4c0,1.5-0.1,2.9-0.3,4.3
		c38.6,4.9,67,13.6,67,22.5c0,13.3-58.9,24.2-131.5,24.2c-72.7,0-131.5-10.8-131.5-24.2c0-6.4,15.1-12.7,38.1-17.6
		c-3.8-3.2-7-7.2-9.3-11.7c-34.3,7-56,17.5-56,29.2c0,2,0.6,4,1.9,5.9c37.1,87.8,125.1,132.8,125.1,132.8l4,82.5
		c8.5-3.9,17.9-6.2,27.8-6.2c9.9,0,19.3,2.2,27.7,6.1l4-82.5c0,0,88.9-45.5,125.8-133.8c0.4-0.7,0.6-1.3,0.8-2c0,0,0,0,0-0.1h0
		C414.6,165.1,414.8,164.1,414.8,163.2z"/>
	<circle fill="#E2574C" cx="135.9" cy="67" r="17"/>
	<circle fill="#E2574C" cx="228.2" cy="38.9" r="20.9"/>
	<circle fill="#E2574C" cx="360.5" cy="93.3" r="20.9"/>
	<circle fill="#E2574C" cx="298.8" cy="64.1" r="14.1"/>
	<circle fill="#E2574C" cx="282.1" cy="136.5" r="22.3"/>
	<circle fill="#E2574C" cx="186.4" cy="117.1" r="20.9"/>
	<path fill="#333333" d="M256,394.8c-27.3,0-49.5,22.2-49.5,49.6S228.7,494,256,494s49.5-22.2,49.5-49.6S283.3,394.8,256,394.8z
		 M273.3,469.5c-1.5,0.7-3,1.2-4.6,1.7c-6,1.7-12.1,1.7-18.1-0.2c-7.2-2.4-12-7.3-14.9-14.3c-0.6-1.3-0.9-2.8-1.3-4.2h-5.7
		c-0.9,0-1.7-0.8-1.7-1.7V447c0-1,0.8-1.7,1.7-1.7h4.7c0-1.1,0-2.1,0-3.1h-4.7c-0.9,0-1.7-0.8-1.7-1.7v-3.8c0-1,0.8-1.7,1.7-1.7h6
		l0.2-0.6c1.6-5.1,4.4-9.5,8.6-12.8c3.4-2.6,7.3-4.1,11.5-4.8c6-1,11.7-0.1,17.3,2.1c0.4,0.1,0.7,0.3,1,0.5c1.3,0.8,1.7,1.8,1.1,3.2
		c-0.6,1.5-1.3,3-1.9,4.5c-0.6,1.3-1.4,1.7-2.8,1.4c-1.9-0.4-3.7-1-5.6-1.4c-4-0.8-8-0.9-11.8,0.7c-3.3,1.3-5.4,3.9-6.8,7.1
		c0,0,0,0.1,0,0.1h11.6c0.9,0,1.7,0.8,1.7,1.7v3.8c0,1-0.8,1.7-1.7,1.7h-13.3c0,1,0,2,0,3.1h13.3c0.9,0,1.7,0.8,1.7,1.7v3.8
		c0,1-0.8,1.7-1.7,1.7h-12.1c1.5,4.2,3.8,7.4,8.3,8.9c3.6,1.1,7.2,1.1,10.8,0.3c1.9-0.4,3.7-1,5.6-1.4c1.5-0.3,2.3,0.1,2.9,1.4
		c0.7,1.5,1.3,3,2,4.6C275.1,467.8,274.7,468.9,273.3,469.5z"/>
</g>
</svg>
