<?xml version="1.0" encoding="utf-8"?>
<!-- Generator: Adobe Illustrator 18.0.0, SVG Export Plug-In . SVG Version: 6.00 Build 0)  -->
<!DOCTYPE svg PUBLIC "-//W3C//DTD SVG 1.1//EN" "http://www.w3.org/Graphics/SVG/1.1/DTD/svg11.dtd">
<svg version="1.1" id="Layer_1" xmlns="http://www.w3.org/2000/svg" xmlns:xlink="http://www.w3.org/1999/xlink" x="0px" y="0px"
	 viewBox="0 0 512 512" enable-background="new 0 0 512 512" xml:space="preserve">
<g>
	<g id="XMLID_3631_">
		<g id="XMLID_2807_">
			<path id="XMLID_3599_" fill="#333333" d="M479.1,305.3c3.5-15.8,5.3-32,5.3-48.6c0.1-42-11-82.3-32-117.5l-46.6,36.5
				c13,24.1,20.3,51.6,20.2,80.8c0,9.8-0.9,19.4-2.5,28.7L479.1,305.3z"/>
			<path id="XMLID_3070_" fill="#333333" d="M403.7,340.2c-29.4,51.4-84.9,86-148.2,85.8C161.7,425.7,85.7,349.2,86,255.5
				c0.1-28,7-54.4,19.1-77.7L58,141.9C38.3,176,27.7,214.8,27.6,255.3C27.4,316.3,51,373.7,94,417c43,43.3,100.3,67.2,161.3,67.4
				S373.7,461,417,418c17.3-17.2,31.5-36.7,42.4-57.8L403.7,340.2z"/>
			<path id="XMLID_2830_" fill="#333333" d="M140.5,131.3c30.5-28.3,71.3-45.5,116-45.4c43.5,0.1,83.2,16.7,113.3,43.8l46.5-36.5
				c-42.8-42.2-99.4-65.6-159.6-65.7C195.7,27.4,138.3,51,95,94c-0.5,0.5-1,1-1.5,1.5L140.5,131.3z"/>
		</g>
	</g>
	<path fill="#E2574C" d="M298.2,294.6l0.2-50.5c6.4-4.2,10.6-11.4,10.6-19.6l0.2-52.4c0.1-26.1-21-47.3-47.1-47.4l-5.6,0l-5.6,0
		c-26.1-0.1-47.3,21-47.4,47.1l-0.2,52.4c0,8.2,4.1,15.4,10.5,19.7l-0.2,50.5c0,0.9-0.5,1.7-1.3,2.1c-6.7,3.2-37.6,18.8-68.2,42.4
		c14.7,20.3,34.7,36.4,58.5,46.3c12.1,5,24.6,8.3,37.4,9.8l10-45c-22-30.9,1.7-32.3,5.9-32.3h0l0,0c4.1,0,27.9,1.6,5.7,32.4
		l9.7,45.1c38.8-4.3,73.5-24.5,96.2-55.4c-30.4-23.9-61.3-39.6-68-42.9C298.7,296.3,298.2,295.5,298.2,294.6z"/>
</g>
</svg>
