<?xml version="1.0" encoding="utf-8"?>
<!-- Generator: Adobe Illustrator 18.0.0, SVG Export Plug-In . SVG Version: 6.00 Build 0)  -->
<!DOCTYPE svg PUBLIC "-//W3C//DTD SVG 1.1//EN" "http://www.w3.org/Graphics/SVG/1.1/DTD/svg11.dtd">
<svg version="1.1" id="Layer_1" xmlns="http://www.w3.org/2000/svg" xmlns:xlink="http://www.w3.org/1999/xlink" x="0px" y="0px"
	 viewBox="0 0 512 512" enable-background="new 0 0 512 512" xml:space="preserve">
<g>
	<path fill="#333333" d="M470.5,370.5l-5-14c-1.7-4.6-6.7-7-11.3-5.3l-12.9,4.6c-5.5-9.2-12.9-17.4-21.8-24l5.8-12.4
		c2.1-4.4,0.2-9.7-4.2-11.8l-13.5-6.3c-4.4-2.1-9.7-0.2-11.8,4.2l-5.8,12.4c-10.8-2.7-21.8-3.1-32.4-1.5l-4.6-12.9
		c-1.7-4.6-6.7-7-11.3-5.3l-14,5c-4.6,1.7-7,6.7-5.3,11.3l4.6,12.9c-9.2,5.5-17.4,12.9-24,21.8l-12.4-5.8c-4.4-2.1-9.7-0.2-11.8,4.2
		l-6.3,13.5c-2.1,4.4-0.2,9.7,4.2,11.8l12.4,5.8c-2.7,10.8-3.1,21.8-1.5,32.4l-12.9,4.6c-4.6,1.7-7,6.7-5.3,11.3l5,14
		c1.7,4.6,6.7,7,11.3,5.3l12.9-4.6c5.5,9.2,12.9,17.4,21.8,24l-5.8,12.4c-2.1,4.4-0.2,9.7,4.2,11.8l13.5,6.3
		c4.4,2.1,9.7,0.2,11.8-4.2l5.8-12.4c10.8,2.7,21.8,3.1,32.4,1.5l4.6,12.9c1.7,4.6,6.7,7,11.3,5.3l14-5c4.6-1.7,7-6.7,5.3-11.3
		l-4.6-12.9c9.2-5.5,17.4-12.9,24-21.8l12.4,5.8c4.4,2.1,9.7,0.2,11.8-4.2l6.3-13.5c2.1-4.4,0.2-9.7-4.2-11.8l-12.4-5.8
		c2.7-10.8,3.1-21.8,1.5-32.4l12.9-4.6C469.7,380.2,472.1,375.1,470.5,370.5z M405.8,415.7c-9.3,19.8-33,28.3-52.8,18.9
		c-19.8-9.3-28.3-33-18.9-52.8c9.3-19.8,33-28.3,52.8-18.9C406.6,372.2,415.1,395.9,405.8,415.7z"/>
	<path fill="#E2574C" d="M268.8,400.7l0-10.3c0-3.4-2.7-6.2-6.1-6.2l-9.5,0c-1.4-7.3-4.3-14.4-8.6-20.8l6.7-6.7
		c2.4-2.4,2.4-6.3,0-8.7l-7.3-7.3c-2.4-2.4-6.3-2.4-8.7,0l-6.7,6.7c-6.4-4.3-13.5-7.2-20.8-8.7l0-9.5c0-3.4-2.7-6.2-6.1-6.2l-10.3,0
		c-3.4,0-6.2,2.7-6.2,6.1l0,9.5c-7.3,1.4-14.4,4.3-20.8,8.6l-6.7-6.7c-2.4-2.4-6.3-2.4-8.7,0l-7.3,7.3c-2.4,2.4-2.4,6.3,0,8.7
		l6.7,6.7c-4.3,6.4-7.2,13.5-8.7,20.8l-9.5,0c-3.4,0-6.2,2.7-6.2,6.1l0,10.3c0,3.4,2.7,6.2,6.1,6.2l9.5,0c1.4,7.3,4.3,14.4,8.6,20.8
		l-6.7,6.7c-2.4,2.4-2.4,6.3,0,8.7l7.3,7.3c2.4,2.4,6.3,2.4,8.7,0l6.7-6.7c6.4,4.3,13.5,7.2,20.8,8.7l0,9.5c0,3.4,2.7,6.2,6.1,6.2
		l10.3,0c3.4,0,6.2-2.7,6.2-6.1l0-9.5c7.3-1.4,14.4-4.3,20.8-8.6l6.7,6.7c2.4,2.4,6.3,2.4,8.7,0l7.3-7.3c2.4-2.4,2.4-6.3,0-8.7
		l-6.7-6.7c4.3-6.4,7.2-13.5,8.7-20.8l9.5,0C266,406.9,268.8,404.1,268.8,400.7z M215.8,414.9c-10.8,10.7-28.2,10.7-39-0.1
		c-10.7-10.8-10.7-28.2,0.1-39c10.8-10.7,28.2-10.7,39,0.1C226.6,386.7,226.6,404.2,215.8,414.9z"/>
	<path fill="#333333" d="M122.4,308.8l21.1,8.7c6.9,2.9,14.9-0.4,17.8-7.3l8-19.4c16.1,3.2,33,3.4,49.8,0l8,19.4
		c2.9,6.9,10.8,10.2,17.8,7.4l21.1-8.7c6.9-2.9,10.2-10.8,7.4-17.8l-8-19.4c14.2-9.5,26-21.5,35.2-35.2l19.4,8
		c6.9,2.9,14.9-0.4,17.8-7.3l8.7-21.1c2.9-6.9-0.4-14.9-7.4-17.8l-19.4-8c3.2-16.1,3.4-33,0-49.8l19.4-8c6.9-2.9,10.2-10.8,7.4-17.8
		l-8.7-21.1c-2.9-6.9-10.8-10.2-17.8-7.4l-19.4,8c-9.5-14.2-21.5-26-35.2-35.2l8-19.4c2.9-6.9-0.4-14.9-7.4-17.8l-21.1-8.8
		c-6.9-2.9-14.9,0.4-17.8,7.4l-8,19.4c-16.1-3.2-33-3.4-49.8,0l-8-19.4c-2.9-6.9-10.8-10.2-17.8-7.4l-21.1,8.7
		c-6.9,2.9-10.2,10.8-7.4,17.8l8,19.4C109,68.5,97.1,80.6,88,94.2l-19.4-8c-6.9-2.9-14.9,0.4-17.8,7.4l-8.7,21.1
		c-2.9,6.9,0.4,14.9,7.3,17.8l19.4,8c-3.2,16.1-3.4,33,0,49.8l-19.4,8c-6.9,2.9-10.2,10.8-7.4,17.8l8.7,21.1
		c2.9,6.9,10.8,10.2,17.8,7.4l19.4-8c9.5,14.2,21.5,26,35.2,35.2l-8,19.4C112.2,297.9,115.5,305.9,122.4,308.8z M108.6,200.8
		C89,153.5,111.5,99.3,158.8,79.7c47.3-19.6,101.5,2.9,121.1,50.2c19.6,47.3-2.9,101.5-50.2,121.1
		C182.4,270.6,128.2,248.1,108.6,200.8z"/>
	<path fill="#333333" d="M222.2,203.8c-4.2,5.2-9.8,8.6-16.2,10.4c-2.8,0.8-4.1,2.2-3.9,5.2c0.1,2.9,0,5.7,0,8.6
		c0,2.6-1.3,3.9-3.8,4c-3.1,0.1-6.2,0.1-9.3,0c-2.7-0.1-4-1.6-4-4.2c0-2.1,0-4.2-0.1-6.3c0-4.6-0.2-4.8-4.7-5.5
		c-5.7-0.9-11.3-2.2-16.5-4.7c-4.1-2-4.5-3-3.3-7.3c0.9-3.2,1.8-6.4,2.7-9.6c1.2-3.7,2.1-4.1,5.5-2.4c5.8,3,11.9,4.7,18.3,5.5
		c4.1,0.5,8.2,0.1,12-1.6c7.2-3.1,8.3-11.4,2.2-16.4c-2.1-1.7-4.4-2.9-6.8-4c-6.3-2.8-12.8-4.9-18.7-8.4c-9.6-5.8-15.7-13.7-15-25.4
		c0.8-13.2,8.3-21.5,20.4-25.9c5-1.8,5-1.7,5.1-7c0-1.8,0-3.5,0-5.3c0.1-3.9,0.8-4.6,4.7-4.7c1.2,0,2.4,0,3.6,0c8.4,0,8.4,0,8.4,8.4
		c0,5.9,0,5.9,5.9,6.9c4.5,0.7,8.8,2,13,3.9c2.3,1,3.2,2.6,2.5,5c-1.1,3.6-2,7.2-3.2,10.8c-1.1,3.4-2.2,3.9-5.4,2.3
		c-6.5-3.2-13.4-4.5-20.6-4.1c-1.9,0.1-3.7,0.4-5.5,1.1c-6.2,2.7-7.2,9.6-1.9,13.8c2.7,2.1,5.8,3.7,8.9,5c5.5,2.3,11.1,4.5,16.3,7.4
		C229.4,168.5,233.9,189.5,222.2,203.8z"/>
</g>
</svg>
