<?xml version="1.0" encoding="utf-8"?>
<!-- Generator: Adobe Illustrator 18.0.0, SVG Export Plug-In . SVG Version: 6.00 Build 0)  -->
<!DOCTYPE svg PUBLIC "-//W3C//DTD SVG 1.1//EN" "http://www.w3.org/Graphics/SVG/1.1/DTD/svg11.dtd">
<svg version="1.1" id="Layer_1" xmlns="http://www.w3.org/2000/svg" xmlns:xlink="http://www.w3.org/1999/xlink" x="0px" y="0px"
	 viewBox="0 0 512 512" enable-background="new 0 0 512 512" xml:space="preserve">
<g>
	<g>
		<g>
			<path fill="#333333" d="M486.3,308c-9.5-0.7-29.2,10-34.6,12.7c-19.2,9.7-45.8,24.8-63.4,36.9c-1.2,0.8-2.8,1.9-4.1,2.7
				c-7.9,5.1-16.2,8.5-25.4,10.4c-50.9,10.8-125.1,12-125.1,12l-4.3,0.2c-3.3,0.2-6.2-2.1-6.6-5.2c-0.5-3.5,2.1-6.7,5.7-7
				l110.3-10.5c12.1-1.3,21.8-12.7,20.5-25.5c-1.3-12.8-13.1-22.1-25.2-20.8l-98.1-1.2c-6.7-0.1-17.4-1.7-23.8-3.6
				c-63.2-18.5-98.9-1.2-117.8,6.9c-4.2-7-12.2-11.5-21.2-11l-42.3,2.8c-14.1,0.9-24.7,12.7-23.7,26.3l6.8,93.9
				c1,13.6,13.2,23.8,27.2,22.9l42.3-2.8c8.9-0.6,16.2-6.1,19.4-13.6l185.8,8c20.7,2.2,40.1-0.3,58.3-9.9l5.3-2.8l140.5-82.2
				c6.9-4,11.8-11,12.1-18.8C505.2,319.4,499.7,309,486.3,308z M56.7,428.6c-8,0-14.4-6.2-14.4-13.9s6.5-13.9,14.4-13.9
				c8,0,14.4,6.2,14.4,13.9S64.6,428.6,56.7,428.6z"/>
			<path fill="#333333" d="M379.7,323c1,3.1,1.8,6.2,2.1,9.6c0.3,2.7,0.3,5.3,0.1,7.8c1.5-1,2.9-2.1,4.4-3.1
				c14.3-10,43.7-25.9,60.3-34.3c5-2.5,10.3-5,16-7c-7.3-4.8-15-5.1-22.9-1.9c-15.8,6.2-44.9,20.3-59.7,28.3
				C379.8,322.6,379.8,322.8,379.7,323z"/>
			<path fill="#333333" d="M371.4,308.4c0.6-0.4,1.2-0.9,1.9-1.3l7.1-3.9c10.4-5.7,32.5-13.5,43.9-18.6c-7.2-4.7-14.8-4.9-22.7-1.8
				c-9.8,3.9-31.5,10.9-41.2,16.1C364.5,301.5,368.2,304.7,371.4,308.4z"/>
		</g>
	</g>
	<g id="XMLID_218_">
		<g>
			<g id="XMLID_70_">
				<path fill="#E2574C" d="M295.9,256.1c10.9-3,20.2-8.9,27.4-17.6c19.9-24.1,12.3-59.5-15.9-75.1c-8.8-4.9-18.2-8.6-27.6-12.5
					c-5.4-2.2-10.6-4.9-15.1-8.5c-9-7.2-7.3-18.8,3.3-23.4c3-1.3,6.1-1.7,9.3-1.9c12.2-0.7,23.8,1.6,34.8,6.9
					c5.5,2.7,7.3,1.8,9.2-3.9c2-6,3.6-12.2,5.4-18.3c1.2-4.1-0.3-6.8-4.2-8.5c-7-3.1-14.3-5.4-21.9-6.5c-10-1.6-9.9-1.6-10-11.6
					c-0.1-14.1-0.1-14.1-14.2-14.1c-2.1,0-4.1-0.1-6.2,0c-6.6,0.2-7.7,1.3-7.9,8c-0.1,3,0,6,0,9c0,8.8-0.1,8.7-8.5,11.8
					c-20.5,7.4-33.1,21.4-34.5,43.7c-1.2,19.8,9.1,33.1,25.3,42.8c10,6,21.1,9.6,31.7,14.2c4.1,1.8,8.1,3.9,11.6,6.8
					c10.2,8.4,8.3,22.4-3.8,27.7c-6.5,2.8-13.3,3.5-20.3,2.7c-10.8-1.4-21.2-4.2-31-9.3c-5.7-3-7.4-2.2-9.3,4
					c-1.7,5.3-3.2,10.8-4.6,16.2c-2,7.3-1.3,9,5.7,12.4c8.8,4.3,18.3,6.5,27.9,8c7.5,1.2,7.8,1.5,7.9,9.3c0,3.5,0.1,7.1,0.1,10.6
					c0.1,4.5,2.2,7.1,6.8,7.2c5.2,0.1,10.5,0.1,15.7,0c4.3-0.1,6.5-2.4,6.5-6.8c0-4.9,0.3-9.7,0-14.6
					C289,259.9,291.2,257.4,295.9,256.1z"/>
			</g>
		</g>
	</g>
</g>
</svg>
