<?xml version="1.0" encoding="utf-8"?>
<!-- Generator: Adobe Illustrator 18.0.0, SVG Export Plug-In . SVG Version: 6.00 Build 0)  -->
<!DOCTYPE svg PUBLIC "-//W3C//DTD SVG 1.1//EN" "http://www.w3.org/Graphics/SVG/1.1/DTD/svg11.dtd">
<svg version="1.1" id="Layer_1" xmlns="http://www.w3.org/2000/svg" xmlns:xlink="http://www.w3.org/1999/xlink" x="0px" y="0px"
	 viewBox="0 0 512 512" enable-background="new 0 0 512 512" xml:space="preserve">
<g id="XMLID_2607_">
	<path id="XMLID_2614_" fill="#333333" d="M61.5,324.6V195.3h333.1v13c1.2-0.1,2.3-0.1,3.5-0.1h18.2c2,0,3.9,0.1,5.8,0.3v-68.4
		c0-28.2-23-51.2-51.2-51.2H80.6c-28.2,0-51.2,23-51.2,51.2V324c0,28.2,23,51.2,51.2,51.2h227.2v-32.1H80
		C69.8,343.2,61.5,334.8,61.5,324.6z M61.5,139.5c0-10.2,8.3-18.5,18.5-18.5h296.1c10.2,0,18.5,8.3,18.5,18.5v7.1H61.5V139.5z"/>
	<path id="XMLID_2608_" fill="#E2574C" d="M464.8,318.3c0.2-1.9,0.4-3.9,0.4-5.9v-31.4c0-26.9-21.9-48.8-48.8-48.8h-18.2
		c-26.9,0-48.8,21.9-48.8,48.8v31.4c0,2,0.2,3.9,0.4,5.9c-10.3,2.2-18,11.3-18,22.2v60c0,12.5,10.2,22.7,22.7,22.7h105.4
		c12.5,0,22.7-10.2,22.7-22.7v-60C482.6,329.6,474.9,320.5,464.8,318.3z M414.6,372.6c-1,0.7-1.3,1.5-1.3,2.7c0,5.4,0,10.7,0,16.1
		c0,0,0,0,0,0c0,3.4-2.8,6.2-6.2,6.2s-6.2-2.8-6.2-6.2c0,0,0,0,0,0c0-5.4,0-10.8,0-16.2c0-1.1-0.2-1.8-1.2-2.5
		c-4.9-3.6-6.5-9.7-4-15.1c2.4-5.3,8.1-8.3,13.6-7.2c6,1.2,10.3,6.1,10.3,12.2C419.7,366.7,418,370.2,414.6,372.6z M440.4,312.3
		c0,1.8-0.2,3.6-0.6,5.4h-65c-0.4-1.7-0.6-3.5-0.6-5.4v-31.4c0-13.2,10.8-24,24-24h18.2c13.2,0,24,10.8,24,24V312.3z"/>
</g>
</svg>
