<?xml version="1.0" encoding="utf-8"?>
<!-- Generator: Adobe Illustrator 18.0.0, SVG Export Plug-In . SVG Version: 6.00 Build 0)  -->
<!DOCTYPE svg PUBLIC "-//W3C//DTD SVG 1.1//EN" "http://www.w3.org/Graphics/SVG/1.1/DTD/svg11.dtd">
<svg version="1.1" id="Layer_1" xmlns="http://www.w3.org/2000/svg" xmlns:xlink="http://www.w3.org/1999/xlink" x="0px" y="0px"
	 viewBox="0 0 512 512" enable-background="new 0 0 512 512" xml:space="preserve">
<g>
	<g>
		<path fill="#333333" d="M266.1,436.6v-29.5c0-1.1,0.1-2.2,0.2-3.2c-11.3-9.3-12.8-21.3-12.9-24.9h23.3c1.6-1.8,3.2-3.5,5.1-5.1
			c20.1-16.5,41-29,54.2-36.2v-19.7H43.1c-2.7,0-5-2.2-5-5V103.8c0-2.7,2.2-5,5-5h333.5c2.7,0,5,2.2,5,5v85.1
			c2.2-0.2,4.4-0.4,6.6-0.4h4.6h4.6c2.6,0,5.1,0.2,7.6,0.5v-85.3c0-15.6-12.7-28.4-28.4-28.4H43.1c-15.6,0-28.4,12.7-28.4,28.4
			v209.3c0,0.1,0,0.2,0,0.3v38c0,0.2,0,0.3,0,0.4v2.1c0,0.2,0,0.3,0,0.4v0.5h0c0.5,13.4,11.5,24,25,24h126.6
			c-0.2,5.6-3.4,31.1-41.4,35.9h1.2c-6,0-10.9,4.9-10.9,10.9c0,6,4.9,10.9,10.9,10.9H266.1z M209.8,337.1c7.7,0,13.9,6.2,13.9,13.9
			s-6.2,13.9-13.9,13.9c-7.7,0-13.9-6.2-13.9-13.9S202.2,337.1,209.8,337.1z"/>
		<path fill="#E2574C" d="M427.5,350v-41.5c5.2-3.5,8.7-9.4,8.7-16.1v-43c0-21.4-17.3-38.7-38.7-38.7h-4.6h-4.6
			c-21.4,0-38.7,17.3-38.7,38.7v43c0,6.7,3.4,12.7,8.7,16.1V350c0,0.7-0.4,1.4-1.1,1.7c-5.8,2.9-34.6,17.4-61.2,39.3
			c-4.8,4-7.6,9.9-7.6,16.1v29.5h90.8l9-41.1c-18.1-25.3,1.4-26.5,4.7-26.5h0h0c3.4,0,22.9,1.2,4.7,26.5l9,41.1h90.8v-29.5
			c0-6.2-2.8-12.1-7.6-16.1c-26.6-21.9-55.3-36.4-61.2-39.3C427.9,351.4,427.5,350.8,427.5,350z"/>
	</g>
	<g>
		<g>
			<path fill="#333333" d="M293.4,284.5V177.2c0-3-2.4-5.4-5.4-5.4h-37.1c-3,0-5.4,2.4-5.4,5.4v107.3c0,3,2.4,5.4,5.4,5.4h37.1
				C290.9,289.9,293.4,287.5,293.4,284.5z M282.5,279.1h-26.3v-96.4h26.3V279.1z"/>
		</g>
		<g>
			<path fill="#333333" d="M131.7,200.2c-3,0-5.4,2.4-5.4,5.4v78.8c0,3,2.4,5.4,5.4,5.4h37.1c3,0,5.4-2.4,5.4-5.4v-78.8
				c0-3-2.4-5.4-5.4-5.4H131.7z M137.1,279.1v-8.5l8.5,8.5H137.1z M154.2,279.1L137.1,262v-8.6l25.6,25.6H154.2z M163.4,271.1
				l-26.3-26.3v-8.6l26.3,26.3V271.1z M163.4,253.9l-26.3-26.3V219l26.3,26.3V253.9z M163.4,236.7l-25.6-25.6h8.6l17,17V236.7z
				 M163.4,219.5l-8.4-8.4h8.4V219.5z"/>
		</g>
		<g>
			<path fill="#333333" d="M233.8,284.5V133.6c0-3-2.4-5.4-5.4-5.4h-37.1c-3,0-5.4,2.4-5.4,5.4v150.9c0,3,2.4,5.4,5.4,5.4h37.1
				C231.4,289.9,233.8,287.5,233.8,284.5z"/>
		</g>
	</g>
</g>
</svg>
