<?xml version="1.0" encoding="utf-8"?>
<!-- Generator: Adobe Illustrator 18.0.0, SVG Export Plug-In . SVG Version: 6.00 Build 0)  -->
<!DOCTYPE svg PUBLIC "-//W3C//DTD SVG 1.1//EN" "http://www.w3.org/Graphics/SVG/1.1/DTD/svg11.dtd">
<svg version="1.1" id="Layer_1" xmlns="http://www.w3.org/2000/svg" xmlns:xlink="http://www.w3.org/1999/xlink" x="0px" y="0px"
	 viewBox="0 0 512 512" enable-background="new 0 0 512 512" xml:space="preserve">
<g>
	<path fill="#333333" d="M238.2,300.3v-69.6c8.7-5.8,14.5-15.8,14.5-27.1v-72.2c0-35.9-29.1-65-65-65H180h-7.8
		c-35.9,0-65,29.1-65,65v72.2c0,11.3,5.8,21.2,14.5,27.1v69.6c0,1.2-0.7,2.4-1.8,2.9c-9.8,4.8-58,29.2-102.7,65.9
		c-8.1,6.6-12.7,16.6-12.7,27v49.5H157l15.1-69c-30.4-42.4,2.3-44.5,8-44.5h0h0c5.7,0,38.4,2.1,8,44.5l15.1,69h152.4v-49.5
		c0-10.5-4.6-20.4-12.7-27C298,332.3,249.9,308,240,303.2C238.9,302.6,238.2,301.5,238.2,300.3z"/>
	<path fill="#E2574C" d="M321.6,98.3c-40.9,40.9-42.5,106.4-4.6,149.1l1.1,0.9c-4.1,8.9-11.2,19.8-22.4,25.4c-3.7,1.8-2.9,7.3,1.2,8
		c12.3,1.9,29.9-0.2,46.3-12.6l0.2,0.2c41.7,24.5,96.3,18.9,132.1-16.9c42.5-42.5,42.5-111.5,0-154
		C433.1,55.8,364.1,55.8,321.6,98.3z M423.9,210.1c-3.8,4.7-8.9,7.8-14.7,9.4c-2.5,0.7-3.7,2-3.6,4.7c0.1,2.6,0,5.2,0,7.8
		c0,2.3-1.2,3.6-3.5,3.6c-2.8,0.1-5.6,0.1-8.4,0c-2.5,0-3.6-1.4-3.6-3.8c0-1.9,0-3.8-0.1-5.7c0-4.2-0.2-4.4-4.2-5
		c-5.2-0.8-10.2-2-15-4.3c-3.7-1.8-4.1-2.7-3-6.6c0.8-2.9,1.6-5.8,2.5-8.7c1-3.3,1.9-3.7,5-2.2c5.2,2.7,10.8,4.2,16.6,5
		c3.8,0.5,7.4,0.1,10.9-1.4c6.5-2.8,7.5-10.3,2-14.9c-1.9-1.5-4-2.7-6.2-3.6c-5.7-2.5-11.6-4.4-17-7.6c-8.7-5.2-14.2-12.4-13.6-23
		c0.7-12,7.5-19.4,18.5-23.4c4.5-1.6,4.6-1.6,4.6-6.3c0-1.6,0-3.2,0-4.8c0.1-3.6,0.7-4.2,4.2-4.3c1.1,0,2.2,0,3.3,0
		c7.6,0,7.6,0,7.6,7.6c0,5.4,0,5.4,5.4,6.2c4.1,0.6,8,1.8,11.8,3.5c2.1,0.9,2.9,2.4,2.2,4.6c-1,3.3-1.8,6.6-2.9,9.8
		c-1,3.1-2,3.5-4.9,2.1c-5.9-2.9-12.1-4.1-18.6-3.7c-1.7,0.1-3.4,0.3-5,1c-5.6,2.5-6.6,8.7-1.8,12.5c2.4,1.9,5.2,3.4,8.1,4.5
		c5,2.1,10,4.1,14.8,6.7C430.5,178.2,434.6,197.2,423.9,210.1z"/>
</g>
</svg>
