<?xml version="1.0" encoding="utf-8"?>
<!-- Generator: Adobe Illustrator 18.0.0, SVG Export Plug-In . SVG Version: 6.00 Build 0)  -->
<!DOCTYPE svg PUBLIC "-//W3C//DTD SVG 1.1//EN" "http://www.w3.org/Graphics/SVG/1.1/DTD/svg11.dtd">
<svg version="1.1" id="Layer_1" xmlns="http://www.w3.org/2000/svg" xmlns:xlink="http://www.w3.org/1999/xlink" x="0px" y="0px"
	 viewBox="0 0 512 512" enable-background="new 0 0 512 512" xml:space="preserve">
<g id="XMLID_6841_">
	<g id="XMLID_6851_">
		<g>
			<path fill="#E2574C" d="M256,93.7c-56,0-101.5,45.5-101.5,101.5S200,296.8,256,296.8s101.5-45.5,101.5-101.5S312,93.7,256,93.7z
				 M328.3,182.8l-32.7,27.6l10.2,41.6c1.9,7.8-6.6,14-13.5,9.8L256,239.2l-36.4,22.6c-6.8,4.3-15.4-2-13.5-9.8l10.2-41.6
				l-32.7-27.6c-6.2-5.2-2.9-15.2,5.1-15.8l42.7-3.1l16.1-39.6c3-7.5,13.6-7.5,16.6,0l16.1,39.6l42.7,3.1
				C331.2,167.6,334.5,177.6,328.3,182.8z"/>
		</g>
	</g>
	<g id="XMLID_6844_">
		<path fill="#333333" d="M424.3,200.2c-1.7-3.1-1.7-6.8,0-9.9l17.3-30.5c2.6-4.5,1.3-10.2-3-13.2l-28.9-20c-2.9-2-4.5-5.4-4.3-8.9
			l2.4-35c0.4-5.2-3.3-9.7-8.4-10.5l-34.7-5.5c-3.5-0.5-6.4-2.9-7.7-6.2L344,28c-1.9-4.8-7.2-7.3-12.2-5.9l-33.6,10.1
			c-3.4,1-7,0.2-9.6-2.2L262.7,6.4c-3.8-3.5-9.7-3.5-13.5,0l-25.9,23.7c-2.6,2.4-6.3,3.2-9.6,2.2l-33.6-10.1c-5-1.5-10.2,1-12.2,5.9
			l-13,32.6c-1.3,3.3-4.2,5.6-7.7,6.2l-34.7,5.5c-5.1,0.8-8.8,5.4-8.4,10.5l2.4,35c0.2,3.5-1.4,6.9-4.3,8.9l-28.9,20
			c-4.3,2.9-5.6,8.7-3,13.2l17.3,30.5c1.7,3.1,1.7,6.8,0,9.9l-17.3,30.5c-2.6,4.5-1.3,10.2,3,13.2l28.9,20c2.9,2,4.5,5.4,4.3,8.9
			l-2.4,35c-0.4,5.2,3.3,9.7,8.4,10.5l34.7,5.5c3.5,0.5,6.4,2.9,7.7,6.2l13,32.6c1.9,4.8,7.2,7.3,12.2,5.9l33.6-10.1
			c3.4-1,7-0.2,9.6,2.2l25.9,23.7c3.8,3.5,9.7,3.5,13.5,0l25.9-23.7c2.6-2.4,6.3-3.2,9.6-2.2l33.6,10.1c5,1.5,10.2-1,12.2-5.9
			l13-32.6c1.3-3.3,4.2-5.6,7.7-6.2l34.7-5.5c5.1-0.8,8.8-5.4,8.4-10.5l-2.4-35c-0.2-3.5,1.4-6.9,4.3-8.9l28.9-20
			c4.3-2.9,5.6-8.7,3-13.2L424.3,200.2z M256,319.4c-68.5,0-124.2-55.7-124.2-124.2S187.5,71,256,71c68.5,0,124.2,55.7,124.2,124.2
			S324.5,319.4,256,319.4z"/>
	</g>
	<path id="XMLID_6843_" fill="#E2574C" d="M358,381.7c-6,6.1-14.3,9.7-23.3,9.7c-3.2,0-6.4-0.5-9.4-1.4l-26.7-8l-20.5,18.8
		c-0.7,0.6-1.4,1.2-2.1,1.8L309.1,505c1.2,3.6,5.8,4.4,8.1,1.4l24-30.8c1.2-1.5,3.2-2.1,5-1.6l37.5,10.9c3.6,1,6.9-2.4,5.7-5.9
		L358,381.7z"/>
	<path id="XMLID_6842_" fill="#E2574C" d="M233.9,400.8L213.4,382l-26.7,8c-3.1,0.9-6.2,1.4-9.4,1.4c-9,0-17.3-3.6-23.3-9.7
		L122.5,479c-1.2,3.6,2.2,7,5.7,5.9l37.5-10.9c1.8-0.5,3.8,0.1,5,1.6l24,30.8c2.3,3,7,2.1,8.1-1.4L236,402.6
		C235.3,402,234.6,401.5,233.9,400.8z"/>
</g>
</svg>
