<?xml version="1.0" encoding="utf-8"?>
<!-- Generator: Adobe Illustrator 18.0.0, SVG Export Plug-In . SVG Version: 6.00 Build 0)  -->
<!DOCTYPE svg PUBLIC "-//W3C//DTD SVG 1.1//EN" "http://www.w3.org/Graphics/SVG/1.1/DTD/svg11.dtd">
<svg version="1.1" id="Layer_1" xmlns="http://www.w3.org/2000/svg" xmlns:xlink="http://www.w3.org/1999/xlink" x="0px" y="0px"
	 viewBox="0 0 512 512" enable-background="new 0 0 512 512" xml:space="preserve">
<g>
	<g id="XMLID_540_">
		<g id="XMLID_546_">
			<path fill="#333333" d="M483.9,456.6c-26.2-21.5-54.4-35.8-60.1-38.6c-0.6-0.3-1.1-1-1.1-1.7v-40.7c5.1-3.4,8.5-9.2,8.5-15.8
				v-42.2c0-21-17-38.1-38.1-38.1h-4.5h-4.5c-21,0-38.1,17-38.1,38.1v42.2c0,6.6,3.4,12.4,8.5,15.8v40.7c0,0.2-0.1,0.5-0.1,0.7
				c8,5.5,16.4,11.6,24.6,18.4c9.6,7.9,15.1,19.5,15.1,31.9v34h97.3v-28.9C491.3,466.3,488.6,460.5,483.9,456.6z"/>
		</g>
		<g id="XMLID_541_">
			<path fill="#333333" d="M28.1,456.6c26.2-21.5,54.4-35.8,60.1-38.6c0.6-0.3,1.1-1,1.1-1.7v-40.7c-5.1-3.4-8.5-9.2-8.5-15.8v-42.2
				c0-21,17-38.1,38.1-38.1h4.5h4.5c21,0,38.1,17,38.1,38.1v42.2c0,6.6-3.4,12.4-8.5,15.8v40.7c0,0.2,0.1,0.5,0.1,0.7
				c-8,5.5-16.4,11.6-24.6,18.4c-9.6,7.9-15.1,19.5-15.1,31.9v34H20.7v-28.9C20.7,466.3,23.4,460.5,28.1,456.6z"/>
		</g>
		<g id="XMLID_548_">
			<path fill="#333333" d="M368,448.8c-30.8-25.3-63.9-42-70.7-45.3c-0.8-0.4-1.2-1.1-1.2-2v-47.9c6-4,10-10.9,10-18.6v-49.6
				c0-24.7-20-44.7-44.7-44.7h-5.3h-5.3c-24.7,0-44.7,20-44.7,44.7V335c0,7.8,4,14.6,10,18.6v47.9c0,0.8-0.5,1.6-1.2,2
				c-6.8,3.3-39.9,20.1-70.7,45.3c-5.6,4.6-8.7,11.4-8.7,18.6v34h104.9l10.4-47.4c-20.9-29.2,1.6-30.6,5.5-30.6c0,0,0,0,0,0h0
				c3.9,0,26.4,1.4,5.5,30.6l10.4,47.4h104.9v-34C376.8,460.2,373.6,453.4,368,448.8z"/>
		</g>
	</g>
	<g id="XMLID_512_">
		<g>
			<path fill="#E2574C" d="M256.1,10.6c-48.9,0-88.5,39.6-88.5,88.5s39.6,88.5,88.5,88.5s88.5-39.6,88.5-88.5S305,10.6,256.1,10.6z
				 M282.7,135.7c-4,4.9-9.3,8.2-15.5,9.9c-2.7,0.7-3.9,2.1-3.8,4.9c0.1,2.7,0,5.5,0,8.2c0,2.4-1.2,3.8-3.7,3.8
				c-2.9,0.1-5.9,0.1-8.8,0c-2.6,0-3.8-1.5-3.8-4c0-2,0-4-0.1-6c0-4.4-0.2-4.6-4.4-5.3c-5.4-0.9-10.8-2.1-15.7-4.5
				c-3.9-1.9-4.3-2.9-3.2-7c0.8-3,1.7-6.1,2.6-9.1c1.1-3.5,2-3.9,5.3-2.3c5.5,2.9,11.3,4.5,17.5,5.2c3.9,0.5,7.8,0.1,11.5-1.5
				c6.8-3,7.9-10.9,2.1-15.6c-2-1.6-4.2-2.8-6.5-3.8c-6-2.6-12.2-4.6-17.9-8c-9.2-5.5-15-13-14.3-24.2c0.8-12.6,7.9-20.5,19.4-24.7
				c4.8-1.7,4.8-1.7,4.8-6.6c0-1.7,0-3.4,0-5.1c0.1-3.8,0.7-4.4,4.5-4.5c1.2,0,2.3,0,3.5,0c8,0,8,0,8,8c0,5.6,0,5.7,5.6,6.5
				c4.3,0.7,8.4,1.9,12.4,3.7c2.2,1,3,2.5,2.3,4.8c-1,3.4-1.9,6.9-3,10.3c-1,3.2-2.1,3.7-5.2,2.2c-6.2-3-12.7-4.3-19.6-3.9
				c-1.8,0.1-3.6,0.3-5.2,1.1c-5.9,2.6-6.9,9.1-1.8,13.2c2.6,2,5.5,3.5,8.5,4.8c5.3,2.2,10.6,4.3,15.5,7
				C289.6,102.1,293.9,122.1,282.7,135.7z"/>
		</g>
	</g>
</g>
</svg>
