<?xml version="1.0" encoding="utf-8"?>
<!-- Generator: Adobe Illustrator 18.0.0, SVG Export Plug-In . SVG Version: 6.00 Build 0)  -->
<!DOCTYPE svg PUBLIC "-//W3C//DTD SVG 1.1//EN" "http://www.w3.org/Graphics/SVG/1.1/DTD/svg11.dtd">
<svg version="1.1" id="Layer_1" xmlns="http://www.w3.org/2000/svg" xmlns:xlink="http://www.w3.org/1999/xlink" x="0px" y="0px"
	 viewBox="0 0 512 512" enable-background="new 0 0 512 512" xml:space="preserve">
<g>
	<g>
		<path fill="#333333" d="M312.3,360.8c0-11.2,0-67.3,0-67.3c8.5-5.6,14-15.3,14-26.2V205c0-38.9-31.5-70.4-70.4-70.4h0h0
			c-38.9,0-70.4,31.5-70.4,70.4v62.3c0,10.9,5.6,20.5,14.1,26.2l0,67.3c0,1.2-0.7,2.3-1.7,2.8c-9.5,4.6-56.2,28.3-99.5,63.9
			c-7.8,6.4-12.2,16-12.2,26v47.8h147.4l14.6-66.7c-29.4-41.1,2.2-43,7.7-43.1h0h0c5.5,0,37.1,2,7.7,43.1l14.6,66.7h147.4v-47.8
			c0-10-4.4-19.6-12.2-26c-43.3-35.6-90-59.2-99.5-63.9C313,363,312.3,361.9,312.3,360.8z"/>
	</g>
	<g id="XMLID_387_">
		<g>
			<path id="XMLID_137_" fill="#E2574C" d="M417.8,172.5c-15.4,0-28.5,10.3-32.7,24.3h-37.7c0.3,3.2,0.5,6.5,0.5,9.8
				c0,4.7-0.4,9.3-1,13.7h39.7c5.3,12,17.3,20.4,31.2,20.4c18.8,0,34.1-15.3,34.1-34.1C451.9,187.8,436.6,172.5,417.8,172.5z"/>
			<path id="XMLID_136_" fill="#E2574C" d="M126.3,220.4h38.8c-0.7-4.5-1-9.1-1-13.7c0-3.3,0.2-6.6,0.5-9.8h-38.3
				c-4.8-13-17.3-22.3-32-22.3c-18.8,0-34.1,15.3-34.1,34.1s15.3,34.1,34.1,34.1C108.9,242.7,121.5,233.4,126.3,220.4z"/>
			<path id="XMLID_134_" fill="#E2574C" d="M244.2,76.9v38.6c3.9-0.5,7.8-0.7,11.8-0.7c4,0,7.9,0.3,11.8,0.7V76.9
				c13-4.8,22.3-17.3,22.3-32c0-18.8-15.3-34.1-34.1-34.1c-18.8,0-34.1,15.3-34.1,34.1C221.9,59.6,231.2,72.1,244.2,76.9z"/>
			<path id="XMLID_133_" fill="#E2574C" d="M328.8,150.5l27.3-27.3c12.6,5.8,28,3.5,38.4-6.8c13.3-13.3,13.3-34.9,0-48.2
				c-13.3-13.3-34.9-13.3-48.2,0c-10.4,10.4-12.7,25.8-6.8,38.4l-17.4,17.4l0,0l-9.9,9.9C318.4,138.7,324,144.3,328.8,150.5z"/>
			<path id="XMLID_132_" fill="#E2574C" d="M141.6,126.4c5.1,0,10-1.1,14.3-3.1l27.3,27.3c4.8-6.2,10.4-11.8,16.7-16.7l-27.3-27.3
				c2-4.4,3.1-9.2,3.1-14.3c0-18.8-15.3-34.1-34.1-34.1c-18.8,0-34.1,15.3-34.1,34.1C107.5,111.1,122.8,126.4,141.6,126.4z"/>
		</g>
	</g>
</g>
</svg>
