<?xml version="1.0" encoding="utf-8"?>
<!-- Generator: Adobe Illustrator 18.0.0, SVG Export Plug-In . SVG Version: 6.00 Build 0)  -->
<!DOCTYPE svg PUBLIC "-//W3C//DTD SVG 1.1//EN" "http://www.w3.org/Graphics/SVG/1.1/DTD/svg11.dtd">
<svg version="1.1" id="Layer_1" xmlns="http://www.w3.org/2000/svg" xmlns:xlink="http://www.w3.org/1999/xlink" x="0px" y="0px"
	 viewBox="0 0 512 512" enable-background="new 0 0 512 512" xml:space="preserve">
<g>
	<path fill="#333333" d="M256.4,276.1c0-5.3,0-31.6,0-31.6c4-2.7,6.6-7.2,6.6-12.3v-29.3c0-18.3-14.8-33.1-33.1-33.1h0h0
		c-18.3,0-33.1,14.8-33.1,33.1v29.3c0,5.1,2.6,9.7,6.6,12.3l0,31.6c0,0.6-0.3,1.1-0.8,1.3c-4.5,2.2-26.4,13.3-46.8,30
		c-3.6,3-5.7,7.5-5.7,12.2v22.5h69.3l6.8-31.4c-13.8-19.3,1-20.2,3.6-20.2h0h0c2.6,0,17.5,1,3.6,20.2l6.8,31.4h69.3v-22.5
		c0-4.7-2.1-9.2-5.7-12.2c-20.3-16.7-42.3-27.8-46.8-30C256.7,277.2,256.4,276.7,256.4,276.1z"/>
	<g>
		<path fill="#333333" d="M349.2,282.1C349.2,282.1,349.2,282.1,349.2,282.1c-4.2,0-8.3-0.4-12.4-1V405c0,6.9-5.6,12.6-12.6,12.6
			H135.7c-6.9,0-12.6-5.6-12.6-12.6V107.2c0-6.9,5.6-12.6,12.6-12.6h188.5c6.6,0,12,5.1,12.5,11.6v3.3v6.9c4.1-0.6,8.2-1,12.4-1
			c4.6,0,9.2,0.5,13.7,1.2v-15.3V76.9c0-27-22.1-49.1-49.1-49.1H146.1c-27,0-49.1,22.1-49.1,49.1v358.3c0,27,22.1,49.1,49.1,49.1
			h167.6c27,0,49.1-22.1,49.1-49.1V280.9C358.3,281.6,353.8,282.1,349.2,282.1z M251.1,463.6h-47.3c-7,0-12.7-5.7-12.7-12.7
			c0-7,5.7-12.7,12.7-12.7h47.3c7,0,12.7,5.7,12.7,12.7C263.8,457.9,258.1,463.6,251.1,463.6z"/>
	</g>
	<path fill="#E2574C" d="M302.6,152.2c-24.7,24.7-25.7,64.3-2.8,90.1l0.7,0.6c-2.5,5.4-6.8,12-13.5,15.3c-2.2,1.1-1.7,4.4,0.7,4.8
		c7.4,1.2,18.1-0.1,28-7.6l0.1,0.1c25.2,14.8,58.2,11.4,79.8-10.2c25.7-25.7,25.7-67.3,0-93C370,126.5,328.3,126.5,302.6,152.2z
		 M320.4,207.9c-5.1,0-9.2-4.1-9.2-9.2c0-5.1,4.1-9.2,9.2-9.2c5.1,0,9.2,4.1,9.2,9.2C329.7,203.8,325.5,207.9,320.4,207.9z
		 M349.2,207.9c-5.1,0-9.2-4.1-9.2-9.2c0-5.1,4.1-9.2,9.2-9.2s9.2,4.1,9.2,9.2C358.4,203.8,354.2,207.9,349.2,207.9z M377.9,207.9
		c-5.1,0-9.2-4.1-9.2-9.2c0-5.1,4.1-9.2,9.2-9.2c5.1,0,9.2,4.1,9.2,9.2C387.1,203.8,383,207.9,377.9,207.9z"/>
</g>
</svg>
