<?xml version="1.0" encoding="utf-8"?>
<!-- Generator: Adobe Illustrator 18.0.0, SVG Export Plug-In . SVG Version: 6.00 Build 0)  -->
<!DOCTYPE svg PUBLIC "-//W3C//DTD SVG 1.1//EN" "http://www.w3.org/Graphics/SVG/1.1/DTD/svg11.dtd">
<svg version="1.1" id="Layer_1" xmlns="http://www.w3.org/2000/svg" xmlns:xlink="http://www.w3.org/1999/xlink" x="0px" y="0px"
	 viewBox="0 0 512 512" enable-background="new 0 0 512 512" xml:space="preserve">
<g>
	<g id="XMLID_277_">
		<g>
			<path fill="#E2574C" d="M312,270.3c38.1,0,69.1-30.9,69.1-69.1c0-38.1-30.9-69.1-69.1-69.1c-38.1,0-69.1,30.9-69.1,69.1
				C243,239.4,273.9,270.3,312,270.3z M287.9,228.5c0.6-2.3,1.2-4.5,2-6.8c0.8-2.6,1.5-2.9,3.9-1.7c4.1,2.1,8.5,3.3,13,3.9
				c2.9,0.4,5.8,0.1,8.5-1.1c5.1-2.2,5.9-8.1,1.6-11.6c-1.5-1.2-3.1-2.1-4.9-2.9c-4.4-2-9.1-3.5-13.3-6c-6.8-4.1-11.1-9.7-10.6-18
				c0.6-9.4,5.9-15.2,14.5-18.4c3.5-1.3,3.6-1.2,3.6-5c0-1.3,0-2.5,0-3.8c0.1-2.8,0.5-3.3,3.3-3.4c0.9,0,1.7,0,2.6,0
				c5.9,0,5.9,0,6,5.9c0,4.2,0,4.2,4.2,4.9c3.2,0.5,6.3,1.4,9.2,2.8c1.6,0.7,2.2,1.9,1.7,3.6c-0.7,2.6-1.4,5.1-2.3,7.7
				c-0.8,2.4-1.5,2.7-3.8,1.6c-4.6-2.2-9.5-3.2-14.6-2.9c-1.3,0.1-2.7,0.3-3.9,0.8c-4.4,1.9-5.1,6.8-1.4,9.8
				c1.9,1.5,4.1,2.6,6.3,3.6c3.9,1.6,7.9,3.2,11.6,5.2c11.8,6.6,15,21.4,6.7,31.6c-3,3.7-6.9,6.1-11.5,7.4c-2,0.5-2.9,1.6-2.8,3.7
				c0.1,2,0,4.1,0,6.1c0,1.8-0.9,2.8-2.7,2.8c-2.2,0.1-4.4,0.1-6.6,0c-1.9,0-2.8-1.1-2.9-3c0-1.5,0-3,0-4.5c0-3.3-0.1-3.4-3.3-3.9
				c-4-0.6-8-1.6-11.7-3.4C287.4,232.3,287.1,231.6,287.9,228.5z"/>
		</g>
	</g>
	<g id="XMLID_275_">
		<circle fill="#333333" cx="211.6" cy="204.7" r="19.1"/>
	</g>
	<g id="XMLID_273_">
		<circle fill="#333333" cx="412.6" cy="204.7" r="19.1"/>
	</g>
	<g id="XMLID_266_">
		<path fill="#333333" d="M159.6,313.8h300.8c17.4,0,31.5-14.1,31.5-31.5V120.1c0-17.4-14.1-31.5-31.5-31.5H159.6
			c-17.4,0-31.5,14.1-31.5,31.5v162.2C128.1,299.7,142.2,313.8,159.6,313.8z M155,152.8c1.8,0.3,3.7,0.5,5.6,0.5
			c17.6,0,31.9-14.3,31.9-31.9c0-2-0.2-4-0.5-5.9h233.5c-0.2,1.3-0.2,2.6-0.2,4c0,17.6,14.3,31.9,31.9,31.9c2.7,0,5.4-0.3,7.9-1
			v97.9c-2.5-0.6-5.2-1-7.9-1c-17.6,0-31.9,14.3-31.9,31.9c0,2.7,0.3,5.3,1,7.8H191.9c0.4-1.9,0.5-3.9,0.5-5.9
			c0-17.6-14.3-31.9-31.9-31.9c-1.9,0-3.8,0.2-5.6,0.5V152.8z"/>
	</g>
	<path fill="#333333" d="M105.5,368.5h301.1c15.8,0,28.8-11.7,31-26.9h-26.6h-9.5H115.5c-8,0-14.4-6.4-14.4-14.4V180.1v-10v-26.4
		c-15.2,2.2-26.9,15.2-26.9,31v162.6C74.2,354.5,88.2,368.5,105.5,368.5z"/>
	<path fill="#333333" d="M51.5,423.4h301.1c15.8,0,28.8-11.7,31-26.9H357h-9.5H61.4c-8,0-14.4-6.4-14.4-14.4V234.9v-10v-26.4
		c-15.2,2.2-26.9,15.2-26.9,31v162.6C20.1,409.4,34.2,423.4,51.5,423.4z"/>
</g>
</svg>
