<?xml version="1.0" encoding="utf-8"?>
<!-- Generator: Adobe Illustrator 18.0.0, SVG Export Plug-In . SVG Version: 6.00 Build 0)  -->
<!DOCTYPE svg PUBLIC "-//W3C//DTD SVG 1.1//EN" "http://www.w3.org/Graphics/SVG/1.1/DTD/svg11.dtd">
<svg version="1.1" id="Layer_1" xmlns="http://www.w3.org/2000/svg" xmlns:xlink="http://www.w3.org/1999/xlink" x="0px" y="0px"
	 viewBox="0 0 512 512" enable-background="new 0 0 512 512" xml:space="preserve">
<g>
	<path fill="#E2574C" d="M447.2,106.1l-0.2-0.2V50h-28.5v27.7C373.9,37.1,316.7,14.8,256,14.8c-64.4,0-125,25.1-170.6,70.7
		L75.3,95.6l20.2,20.2l10.1-10.1c40.2-40.2,93.6-62.3,150.4-62.3c52.8,0,102.7,19.2,141.7,54.1h-26.8v28.5h55.8l0.2,0.2l0.2-0.2H447
		v-19.8L447.2,106.1z"/>
	<path fill="#E2574C" d="M406.4,406.4c-80.1,80.1-208.7,82.8-292.1,8.1h26.8V386H85.2l-0.2-0.2l-0.2,0.2H65v19.7l-0.2,0.2l0.2,0.2
		v55.8h28.5v-27.7c45.9,41.8,104.2,62.8,162.4,62.8c61.8,0,123.5-23.5,170.6-70.5l10.1-10.1l-20.2-20.2L406.4,406.4z"/>
	<path fill="#333333" d="M108.9,305l8.5,20.4c2.8,6.7,10.5,9.9,17.2,7.1l18.8-7.8c8.8,13.2,20.3,24.9,34,34l-7.8,18.7
		c-2.8,6.7,0.4,14.4,7.1,17.2l20.4,8.5c6.7,2.8,14.4-0.4,17.2-7.1l7.8-18.7c16.2,3.2,32.5,3.1,48.1,0l7.8,18.8
		c2.8,6.7,10.5,9.9,17.2,7.1l20.4-8.5c6.7-2.8,9.9-10.5,7.1-17.2l-7.8-18.8c13.2-8.8,24.9-20.3,34-34l18.7,7.8
		c6.7,2.8,14.4-0.4,17.2-7.1l8.5-20.4c2.8-6.7-0.4-14.4-7.1-17.2l-18.7-7.8c3.2-16.2,3.1-32.5,0-48.1l18.8-7.8
		c6.7-2.8,9.9-10.5,7.1-17.2l-8.4-20.4c-2.8-6.7-10.5-9.9-17.2-7.1l-18.8,7.8c-8.8-13.2-20.3-24.9-34-34l7.8-18.7
		c2.8-6.7-0.4-14.4-7.1-17.2L305,109c-6.7-2.8-14.4,0.4-17.2,7.1l-7.8,18.7c-16.2-3.2-32.5-3.1-48.1,0l-7.8-18.8
		c-2.8-6.7-10.5-9.9-17.2-7.1l-20.4,8.5c-6.7,2.8-9.9,10.5-7.1,17.2l7.8,18.8c-13.2,8.8-24.9,20.3-34,34l-18.7-7.8
		c-6.7-2.8-14.4,0.4-17.2,7.1l-8.5,20.4c-2.8,6.7,0.4,14.4,7.1,17.2l18.7,7.8c-3.2,16.2-3.1,32.5,0,48.1l-18.8,7.8
		C109.3,290.6,106.1,298.3,108.9,305z M201.6,233.5c12.4-30,46.9-44.3,76.9-31.8c30,12.4,44.3,46.9,31.8,76.9
		c-12.4,30-46.9,44.3-76.9,31.8C203.4,298,189.2,263.5,201.6,233.5z"/>
</g>
</svg>
