<?xml version="1.0" encoding="utf-8"?>
<!-- Generator: Adobe Illustrator 18.0.0, SVG Export Plug-In . SVG Version: 6.00 Build 0)  -->
<!DOCTYPE svg PUBLIC "-//W3C//DTD SVG 1.1//EN" "http://www.w3.org/Graphics/SVG/1.1/DTD/svg11.dtd">
<svg version="1.1" id="Layer_1" xmlns="http://www.w3.org/2000/svg" xmlns:xlink="http://www.w3.org/1999/xlink" x="0px" y="0px"
	 viewBox="0 0 512 512" enable-background="new 0 0 512 512" xml:space="preserve">
<g id="XMLID_1248_">
	<g id="XMLID_1260_">
		<path id="XMLID_1261_" fill="#333333" d="M322.3,402.6c-3.3-1.9-7-3.5-11.3-4.5c-43.7-10.8-80-27.2-80-27.2
			c-4.5-6.1-6.7-16.3-7.7-23c9.9-13.3,14.9-29,17.3-42.9c4.2,2.9,11.1,1.4,18.7-25.9c6.2-22.2,2.4-29.6-2.9-31.5h0
			c17.4-84.3-22.4-87.2-22.4-87.2s-6-11.7-21.8-20.5c-10.6-6.3-25.3-11.3-44.8-9.6c-6.3,0.3-12.3,1.5-17.8,3.4h0l0,0
			c-7.1,2.4-13.7,6-19.6,10.2c-7.3,4.7-14.1,10.4-20.2,16.9c-9.6,9.9-18.1,22.7-21.8,38.7c-3.5,13.6-3.4,28.3,1.8,43.2
			c-7.1-0.7-15.6,3.5-7.6,31.9c5.8,20.8,11.2,26.6,15.3,26.9c2.3,15,7.5,32.5,18.6,47.1c-0.9,6-2.8,14.5-6.4,20.4
			c-0.3,0.1-37.6,18.3-81.2,29c-4.3,1.1-8,2.6-11.3,4.5c33,49.1,89,81.3,152.5,81.3C233.3,484,289.3,451.7,322.3,402.6z"/>
	</g>
	<path id="XMLID_1249_" fill="#E2574C" d="M464.9,57.9c-39.8-39.8-104.4-39.8-144.2,0c-38.3,38.3-39.8,99.6-4.3,139.6l1,0.9
		c-3.9,8.3-10.5,18.6-21,23.7c-3.5,1.7-2.7,6.9,1.1,7.5c11.5,1.8,28-0.2,43.3-11.8l0.2,0.2c39.1,23,90.2,17.7,123.7-15.8
		C504.7,162.3,504.7,97.7,464.9,57.9z M347,142.2c-6.8,0-12.3-5.5-12.3-12.3c0-6.8,5.5-12.3,12.3-12.3s12.3,5.5,12.3,12.3
		C359.3,136.8,353.8,142.2,347,142.2z M392.8,142.2c-6.8,0-12.3-5.5-12.3-12.3c0-6.8,5.5-12.3,12.3-12.3s12.3,5.5,12.3,12.3
		C405.1,136.8,399.6,142.2,392.8,142.2z M438.6,142.2c-6.8,0-12.3-5.5-12.3-12.3c0-6.8,5.5-12.3,12.3-12.3s12.3,5.5,12.3,12.3
		C450.9,136.8,445.4,142.2,438.6,142.2z"/>
</g>
</svg>
