<?xml version="1.0" encoding="utf-8"?>
<!-- Generator: Adobe Illustrator 18.0.0, SVG Export Plug-In . SVG Version: 6.00 Build 0)  -->
<!DOCTYPE svg PUBLIC "-//W3C//DTD SVG 1.1//EN" "http://www.w3.org/Graphics/SVG/1.1/DTD/svg11.dtd">
<svg version="1.1" id="Layer_1" xmlns="http://www.w3.org/2000/svg" xmlns:xlink="http://www.w3.org/1999/xlink" x="0px" y="0px"
	 viewBox="0 0 512 512" enable-background="new 0 0 512 512" xml:space="preserve">
<g id="XMLID_1288_">
	<g id="XMLID_246_">
		<path fill="#333333" d="M430.9,321.7c-20.1-16.5-41.7-27.5-46.2-29.6c-0.5-0.2-0.8-0.7-0.8-1.3v-31.3c3.9-2.6,6.5-7.1,6.5-12.2
			V215c0-16.1-13.1-29.2-29.2-29.2h-3.5h-3.5c-16.1,0-29.2,13.1-29.2,29.2v32.4c0,5.1,2.6,9.5,6.5,12.2v31.3c0,0.2,0,0.4-0.1,0.5
			c6.2,4.2,12.6,8.9,18.9,14.1c7.3,6,11.6,15,11.6,24.5v26.1h74.7v-22.2C436.7,329.2,434.6,324.7,430.9,321.7z"/>
	</g>
	<g id="XMLID_245_">
		<path fill="#333333" d="M81.1,321.7c20.1-16.5,41.7-27.5,46.2-29.6c0.5-0.2,0.8-0.7,0.8-1.3v-31.3c-3.9-2.6-6.5-7.1-6.5-12.2V215
			c0-16.1,13.1-29.2,29.2-29.2h3.5h3.5c16.1,0,29.2,13.1,29.2,29.2v32.4c0,5.1-2.6,9.5-6.5,12.2v31.3c0,0.2,0,0.4,0.1,0.5
			c-6.2,4.2-12.6,8.9-18.9,14.1c-7.3,6-11.6,15-11.6,24.5v26.1H75.3v-22.2C75.3,329.2,77.4,324.7,81.1,321.7z"/>
	</g>
	<g id="XMLID_209_">
		<path fill="#333333" d="M505.5,328.6c-16.1-13.2-33.4-22-37-23.7c-0.4-0.2-0.6-0.6-0.6-1v-25.1c3.2-2.1,5.2-5.7,5.2-9.7v-26
			c0-12.9-10.5-23.4-23.4-23.4h-2.8h-2.8c-12.9,0-23.4,10.5-23.4,23.4v26c0,4.1,2.1,7.6,5.2,9.7v22.1c4.5,3.2,9.1,6.6,13.6,10.3
			c6.8,5.6,10.7,13.8,10.7,22.7v22.2h59.8v-17.8C510.1,334.5,508.4,331,505.5,328.6z"/>
	</g>
	<g id="XMLID_162_">
		<path fill="#333333" d="M6.5,328.6c16.1-13.2,33.4-22,37-23.7c0.4-0.2,0.6-0.6,0.6-1v-25.1c-3.2-2.1-5.2-5.7-5.2-9.7v-26
			c0-12.9,10.5-23.4,23.4-23.4h2.8h2.8c12.9,0,23.4,10.5,23.4,23.4v26c0,4.1-2.1,7.6-5.2,9.7v22.1c-4.5,3.2-9.1,6.6-13.6,10.3
			c-6.8,5.6-10.7,13.8-10.7,22.7v22.2H1.9v-17.8C1.9,334.5,3.6,331,6.5,328.6z"/>
	</g>
	<g id="XMLID_147_">
		<path fill="#E2574C" d="M170,315.7c23.6-19.4,49.1-32.3,54.2-34.8c0.6-0.3,1-0.9,1-1.5v-36.8c-4.6-3.1-7.7-8.3-7.7-14.3v-38.1
			c0-19,15.4-34.3,34.3-34.3h4.1h4.1c19,0,34.3,15.4,34.3,34.3v38.1c0,6-3.1,11.2-7.7,14.3v36.8c0,0.7,0.4,1.2,1,1.5
			c5.2,2.5,30.6,15.4,54.2,34.8c4.3,3.5,6.7,8.8,6.7,14.3v26.1h-80.5l-8-36.4c16.1-22.4-1.2-23.5-4.2-23.5h0c0,0,0,0,0,0
			c-3,0-20.3,1.1-4.2,23.5l-8,36.4h-80.5V330C163.3,324.5,165.8,319.2,170,315.7z"/>
	</g>
</g>
</svg>
