<?xml version="1.0" encoding="utf-8"?>
<!-- Generator: Adobe Illustrator 18.0.0, SVG Export Plug-In . SVG Version: 6.00 Build 0)  -->
<!DOCTYPE svg PUBLIC "-//W3C//DTD SVG 1.1//EN" "http://www.w3.org/Graphics/SVG/1.1/DTD/svg11.dtd">
<svg version="1.1" id="Layer_1" xmlns="http://www.w3.org/2000/svg" xmlns:xlink="http://www.w3.org/1999/xlink" x="0px" y="0px"
	 viewBox="0 0 512 512" enable-background="new 0 0 512 512" xml:space="preserve">
<g>
	<g>
		<path fill="#333333" d="M268.6,224.1h83.1v-27c0-5.7-2.5-11.1-6.9-14.7c-24.4-20-50.7-33.3-56-35.9c-0.6-0.3-1-0.9-1-1.6v-38
			c4.8-3.2,7.9-8.6,7.9-14.8V52.8c0-19.6-15.9-35.5-35.5-35.5H256h-4.2c-19.6,0-35.5,15.9-35.5,35.5v39.4c0,6.2,3.2,11.6,7.9,14.8
			v38c0,0.7-0.4,1.3-1,1.6c-5.4,2.6-31.6,15.9-56,35.9c-4.4,3.6-6.9,9-6.9,14.7v27h83.1H268.6z"/>
	</g>
	<path fill="#333333" d="M418.8,494.7H502v-27c0-5.7-2.5-11.1-6.9-14.7c-24.4-20-50.7-33.3-56-35.9c-0.6-0.3-1-0.9-1-1.6v-38
		c4.8-3.2,7.9-8.6,7.9-14.8v-39.4c0-19.6-15.9-35.5-35.5-35.5h-4.2H402c-19.6,0-35.5,15.9-35.5,35.5v39.4c0,6.2,3.2,11.6,7.9,14.8
		v38c0,0.7-0.4,1.3-1,1.6c-5.4,2.6-31.6,15.9-56,35.9c-4.4,3.6-6.9,9-6.9,14.7v27h83.1H418.8z"/>
	<path fill="#333333" d="M118.3,494.7h83.1v-27c0-5.7-2.5-11.1-6.9-14.7c-24.4-20-50.7-33.3-56-35.9c-0.6-0.3-1-0.9-1-1.6v-38
		c4.8-3.2,7.9-8.6,7.9-14.8v-39.4c0-19.6-15.9-35.5-35.5-35.5h-4.2h-4.2c-19.6,0-35.5,15.9-35.5,35.5v39.4c0,6.2,3.2,11.6,7.9,14.8
		v38c0,0.7-0.4,1.3-1,1.6c-5.4,2.6-31.6,15.9-56,35.9c-4.4,3.6-6.9,9-6.9,14.7v27h83.1H118.3z"/>
	<g id="XMLID_130_">
		<path id="XMLID_160_" fill="#E2574C" d="M325.4,323l-9.8,0c-1.5-8-4.6-15.8-9.4-22.8l6.9-6.9c2.5-2.5,2.5-6.5,0-9.1l-7-7
			c-2.5-2.5-6.5-2.5-9.1,0l-6.9,6.9c-7-4.8-14.7-8-22.7-9.5l0-9.8c0-3.5-2.9-6.4-6.4-6.4l-9.9,0c-3.5,0-6.4,2.9-6.4,6.4l0,9.7
			c-8.1,1.5-15.9,4.6-22.9,9.3l-6.8-6.8c-2.5-2.5-6.5-2.5-9.1,0l-7,7c-2.5,2.5-2.5,6.5,0,9.1l6.7,6.8c-4.9,7-8.1,14.8-9.6,22.9
			l-9.5,0c-3.5,0-6.4,2.9-6.4,6.4l0,9.9c0,3.5,2.9,6.4,6.4,6.4l9.4,0c1.5,8.1,4.6,16,9.4,23.1l-6.7,6.6c-2.5,2.5-2.5,6.5,0,9.1l7,7
			c2.5,2.5,6.5,2.5,9.1,0l6.7-6.6c7.1,4.8,14.9,8,23,9.6l0,9.4c0,3.5,2.9,6.4,6.4,6.4l9.9,0c3.5,0,6.4-2.8,6.4-6.4l0-9.5
			c8.1-1.5,15.9-4.7,23-9.5l6.7,6.8c2.5,2.5,6.5,2.5,9.1,0l7-7c2.5-2.5,2.5-6.5,0-9.1l-6.8-6.8c4.8-7,7.9-14.8,9.5-22.9l9.7,0
			c3.5,0,6.4-2.9,6.4-6.4l0-9.9C331.8,325.8,329,323,325.4,323z M279.3,357.5c-12.9,12.9-33.8,12.8-46.7-0.1
			c-12.9-12.9-12.8-33.8,0.1-46.7c12.9-12.9,33.8-12.8,46.7,0.1C292.3,323.8,292.2,344.7,279.3,357.5z"/>
		<path id="XMLID_159_" fill="#333333" d="M256,317c-9.5,0-17.2,7.7-17.2,17.2c0,9.5,7.7,17.2,17.2,17.2s17.2-7.7,17.2-17.2
			C263.7,334.1,256,326.4,256,317z"/>
	</g>
</g>
</svg>
