<?xml version="1.0" encoding="utf-8"?>
<!-- Generator: Adobe Illustrator 18.0.0, SVG Export Plug-In . SVG Version: 6.00 Build 0)  -->
<!DOCTYPE svg PUBLIC "-//W3C//DTD SVG 1.1//EN" "http://www.w3.org/Graphics/SVG/1.1/DTD/svg11.dtd">
<svg version="1.1" id="Layer_1" xmlns="http://www.w3.org/2000/svg" xmlns:xlink="http://www.w3.org/1999/xlink" x="0px" y="0px"
	 viewBox="0 0 512 512" enable-background="new 0 0 512 512" xml:space="preserve">
<g>
	<g>
		<path fill="#333333" d="M416.5,248.6H389c-3.3,0-5.9,2.7-5.9,5.9v44.2V316v44.2c0,3.3,2.7,5.9,5.9,5.9h27.4c3.3,0,5.9-2.7,5.9-5.9
			V316v-17.3v-44.2C422.4,251.2,419.7,248.6,416.5,248.6z"/>
	</g>
	<g>
		<path fill="#333333" d="M500.6,210.4l-38.6-62c-1.7-2.8-5.8-2.8-7.6,0l-38.6,62c-1.9,3,0.3,6.8,3.8,6.8h19v143.1
			c0,3.3,2.7,5.9,5.9,5.9h27.4c3.1,0,5.7-2.4,5.9-5.5h0V266v-2.7v-46.2h19C500.3,217.2,502.5,213.3,500.6,210.4z"/>
	</g>
	<g>
		<path fill="#333333" d="M361,281.4h-27.4c-3.3,0-5.9,2.7-5.9,5.9v11.4v50.1v11.4c0,3.3,2.7,5.9,5.9,5.9H361c3.3,0,5.9-2.7,5.9-5.9
			v-11.4v-50.1v-11.4C366.9,284,364.3,281.4,361,281.4z"/>
	</g>
	<g>
		<g>
			<path fill="#333333" d="M368.8,262.7v-89.9c0-14.9-12-26.9-26.9-26.9H241.2h0H125.5c-14.9,0-26.9,12.1-26.9,26.9v13.2
				c10.8,2.1,20.3,8.1,26.8,16.4v-29.7c0,0,0,0,0.1,0h127.8h88.5c0,0,0.1,0,0.1,0v92.1H361c2.7,0,5.3,0.5,7.8,1.4L368.8,262.7
				L368.8,262.7z"/>
		</g>
		<g>
			<g>
				<path fill="#333333" d="M311.1,348.9v-38.1H156c3.9,2.8,7.9,5.8,11.9,9.1c7.5,6.2,11.8,15.3,11.8,25v21.4h132.3
					c-0.5-1.9-0.8-3.9-0.8-5.9V348.9z M262.8,339.6c0,5.1-4.2,9.3-9.3,9.3h-39.8c-5.1,0-9.3-4.2-9.3-9.3v-2h58.3V339.6z"/>
			</g>
		</g>
	</g>
	<g>
		<path fill="#E2574C" d="M111.7,303.4v-30.1c3.8-2.5,6.3-6.8,6.3-11.7v-31.2c0-15.5-12.6-28.1-28.1-28.1h-3.4h-3.4
			c-15.5,0-28.1,12.6-28.1,28.1v31.2c0,4.9,2.5,9.2,6.3,11.7v30.1c0,0.5-0.3,1-0.8,1.3c-4.2,2.1-25.1,12.6-44.4,28.5
			c-3.5,2.9-5.5,7.2-5.5,11.7v21.4h65.9l6.5-29.8c-13.2-18.3,1-19.2,3.4-19.3h0h0c2.5,0,16.6,0.9,3.4,19.3l6.5,29.8h65.9v-21.4
			c0-4.5-2-8.8-5.5-11.7c-19.3-15.9-40.2-26.4-44.4-28.5C112,304.4,111.7,303.9,111.7,303.4z"/>
	</g>
</g>
</svg>
