<?xml version="1.0" encoding="utf-8"?>
<!-- Generator: Adobe Illustrator 18.0.0, SVG Export Plug-In . SVG Version: 6.00 Build 0)  -->
<!DOCTYPE svg PUBLIC "-//W3C//DTD SVG 1.1//EN" "http://www.w3.org/Graphics/SVG/1.1/DTD/svg11.dtd">
<svg version="1.1" id="Layer_1" xmlns="http://www.w3.org/2000/svg" xmlns:xlink="http://www.w3.org/1999/xlink" x="0px" y="0px"
	 viewBox="0 0 512 512" enable-background="new 0 0 512 512" xml:space="preserve">
<g id="XMLID_11423_">
	<path id="XMLID_11427_" fill="#E2574C" d="M307.3,225.8c-4.6,5.6-10.6,9.3-17.5,11.2c-3,0.8-4.4,2.4-4.3,5.6c0.1,3.1,0,6.2,0,9.3
		c0,2.8-1.4,4.3-4.1,4.3c-3.3,0.1-6.7,0.1-10,0c-2.9-0.1-4.3-1.7-4.3-4.6c0-2.3,0-4.5-0.1-6.8c-0.1-5-0.2-5.2-5-6
		c-6.2-1-12.2-2.4-17.8-5.1c-4.4-2.1-4.9-3.3-3.6-7.9c0.9-3.5,1.9-6.9,3-10.3c1.2-4,2.3-4.5,6-2.6c6.2,3.2,12.9,5.1,19.8,5.9
		c4.5,0.6,8.8,0.1,13-1.7c7.7-3.4,8.9-12.3,2.4-17.7c-2.2-1.8-4.7-3.2-7.4-4.3c-6.8-3-13.8-5.3-20.2-9.1
		c-10.4-6.2-17-14.7-16.2-27.4c0.9-14.3,8.9-23.2,22-27.9c5.4-2,5.4-1.9,5.5-7.5c0-1.9,0-3.8,0-5.7c0.1-4.3,0.8-5,5.1-5.1
		c1.3,0,2.6,0,3.9,0c9,0,9,0,9.1,9c0,6.4,0,6.4,6.4,7.4c4.9,0.8,9.5,2.2,14,4.2c2.5,1.1,3.4,2.8,2.7,5.4c-1.1,3.9-2.2,7.8-3.4,11.7
		c-1.2,3.7-2.3,4.2-5.9,2.5c-7-3.4-14.4-4.8-22.2-4.4c-2,0.1-4,0.4-5.9,1.2c-6.7,2.9-7.8,10.4-2.1,14.9c2.9,2.3,6.2,4,9.6,5.4
		c6,2.5,12,4.8,17.6,8C315.1,187.8,320,210.4,307.3,225.8z"/>
	<path id="XMLID_11424_" fill="#333333" d="M276.9,16.9c-27.9,0-54.4,6.3-78,17.5c-62.4,29-105.6,92.1-105.6,165.4v0v24.4v5.9
		l-37.2,71c-9.4,17.9-0.5,32.6,19.7,32.6h17.5v0.4v31v36.2c0,21.1,17.3,38.4,38.4,38.4l52.7-7.8l0.1,52.7v0v0v0.4l0,0
		c0.3,6.8,6,11.2,13,10l189.9-33.6c7.2-1.3,13-8.3,13-15.5v-8.4v-6.7v-61.7c-0.2-66.1,54.7-88.7,59.2-169.5
		C465.1,98.8,377.7,16.9,276.9,16.9z M357.2,264.4c-37.2,37.2-94,43.1-137.4,17.6l-0.2-0.2c-17.1,12.9-35.4,15.1-48.1,13.1
		c-4.2-0.7-5.1-6.4-1.3-8.3c11.7-5.7,19-17.1,23.3-26.4l-1.2-1c-39.4-44.5-37.8-112.5,4.8-155c44.2-44.2,115.9-44.2,160.1,0
		C401.4,148.5,401.4,220.2,357.2,264.4z"/>
</g>
</svg>
