<?xml version="1.0" encoding="utf-8"?>
<!-- Generator: Adobe Illustrator 18.0.0, SVG Export Plug-In . SVG Version: 6.00 Build 0)  -->
<!DOCTYPE svg PUBLIC "-//W3C//DTD SVG 1.1//EN" "http://www.w3.org/Graphics/SVG/1.1/DTD/svg11.dtd">
<svg version="1.1" id="Layer_1" xmlns="http://www.w3.org/2000/svg" xmlns:xlink="http://www.w3.org/1999/xlink" x="0px" y="0px"
	 viewBox="0 0 512 512" enable-background="new 0 0 512 512" xml:space="preserve">
<g>
	<path fill="#E2574C" d="M438.1,63.2l-24.1,0.3l0.4,30.9c-1.6-1.5-3.1-3-4.7-4.4c-0.4-0.3-0.8-0.7-1.2-1c-2.7-2.4-5.5-4.7-8.3-6.9
		c0,0,0,0,0,0C357.1,47.7,303.9,29.3,248,30c-55.8,0.6-108.5,20.2-150.8,55.5c-0.1,0.1-0.2,0.1-0.3,0.2c-2.7,2.3-5.3,4.6-7.9,7
		c-0.4,0.4-0.9,0.8-1.3,1.1c-3,2.8-5.9,5.6-8.8,8.5l-8.4,8.6l17.2,16.8l8.4-8.6c81.9-83.8,215.8-86.7,301.3-7.7l-30.5,0.4l0.3,24.1
		L439,135L438.1,63.2z"/>
	<path id="XMLID_263_" fill="#333333" stroke="#000000" stroke-width="8" stroke-miterlimit="10" d="M87.5,110.7"/>
	<path id="XMLID_262_" fill="#333333" stroke="#000000" stroke-width="8" stroke-miterlimit="10" d="M91.2,433.5"/>
	<path fill="#333333" d="M94.9,308.6c-14-19.5,1-20.4,3.7-20.4h0h0c2.6,0,17.6,1,3.7,20.4l6.9,31.6h69.9v-22.7
		c0-4.8-2.1-9.4-5.8-12.4c-20.5-16.9-42.6-28-47.1-30.2c-0.5-0.2-0.8-0.8-0.8-1.3v-31.9c4-2.7,6.7-7.2,6.7-12.4v-33.1
		c0-16.5-13.4-29.8-29.8-29.8h-3.6H95c-16.5,0-29.8,13.4-29.8,29.8v33.1c0,5.2,2.7,9.7,6.7,12.4v31.9c0,0.6-0.3,1.1-0.8,1.3
		c-4.5,2.2-26.6,13.4-47.1,30.2c-3.7,3-5.8,7.6-5.8,12.4v22.7H88L94.9,308.6z"/>
	<path fill="#333333" d="M409.7,308.6c-14-19.5,1-20.4,3.7-20.4h0h0c2.6,0,17.6,1,3.7,20.4l6.9,31.6h69.9v-22.7
		c0-4.8-2.1-9.4-5.8-12.4c-20.5-16.9-42.6-28-47.1-30.2c-0.5-0.2-0.8-0.8-0.8-1.3v-31.9c4-2.7,6.7-7.2,6.7-12.4v-33.1
		c0-16.5-13.4-29.8-29.8-29.8h-3.6h-3.6c-16.5,0-29.8,13.4-29.8,29.8v33.1c0,5.2,2.7,9.7,6.7,12.4v31.9c0,0.6-0.3,1.1-0.8,1.3
		c-4.5,2.2-26.6,13.4-47.1,30.2c-3.7,3-5.8,7.6-5.8,12.4v22.7h69.9L409.7,308.6z"/>
	<path fill="#E2574C" d="M71.3,448.8l24.1-0.3L95,417.6c1.6,1.5,3.1,3,4.7,4.4c0.4,0.3,0.8,0.7,1.2,1c2.7,2.4,5.5,4.7,8.3,6.9
		c0,0,0,0,0,0c43.1,34.4,96.3,52.8,152.3,52.1c55.8-0.6,108.5-20.2,150.8-55.5c0.1-0.1,0.2-0.1,0.3-0.2c2.7-2.3,5.3-4.6,7.9-7
		c0.4-0.4,0.9-0.8,1.3-1.1c3-2.8,5.9-5.6,8.8-8.5l8.4-8.6l-17.2-16.8l-8.4,8.6c-81.9,83.8-215.8,86.7-301.3,7.7l30.5-0.4l-0.3-24.1
		L70.5,377L71.3,448.8z"/>
</g>
</svg>
