<?xml version="1.0" encoding="utf-8"?>
<!-- Generator: Adobe Illustrator 18.0.0, SVG Export Plug-In . SVG Version: 6.00 Build 0)  -->
<!DOCTYPE svg PUBLIC "-//W3C//DTD SVG 1.1//EN" "http://www.w3.org/Graphics/SVG/1.1/DTD/svg11.dtd">
<svg version="1.1" id="Layer_1" xmlns="http://www.w3.org/2000/svg" xmlns:xlink="http://www.w3.org/1999/xlink" x="0px" y="0px"
	 viewBox="0 0 512 512" enable-background="new 0 0 512 512" xml:space="preserve">
<g>
	<g id="XMLID_180_">
		<path id="XMLID_182_" fill="#333333" d="M457,64.2h-323c-18.7,0-33.9,15.2-33.9,33.9v42.2h277.7c34,0,61.6,27.6,61.6,61.6v104.2
			H457c18.7,0,33.9-15.2,33.9-33.9V98C490.9,79.4,475.7,64.2,457,64.2z"/>
	</g>
	<g id="XMLID_181_">
		<path fill="#333333" d="M214.1,363.1c41,0,74.2-33.2,74.2-74.2c0-41-33.2-74.2-74.2-74.2c-41,0-74.2,33.2-74.2,74.2
			C139.9,329.9,173.2,363.1,214.1,363.1z M188.2,318.3c0.7-2.4,1.3-4.9,2.1-7.3c0.9-2.8,1.6-3.2,4.2-1.8c4.4,2.3,9.1,3.6,14,4.2
			c3.2,0.4,6.2,0.1,9.2-1.2c5.5-2.4,6.3-8.7,1.7-12.5c-1.6-1.3-3.3-2.2-5.2-3.1c-4.8-2.1-9.8-3.7-14.3-6.4
			c-7.3-4.4-12-10.4-11.4-19.3c0.6-10.1,6.3-16.4,15.6-19.7c3.8-1.4,3.8-1.3,3.9-5.3c0-1.3,0-2.7,0-4c0.1-3,0.6-3.5,3.6-3.6
			c0.9,0,1.9,0,2.8,0c6.4,0,6.4,0,6.4,6.4c0,4.5,0,4.5,4.5,5.2c3.4,0.5,6.7,1.6,9.9,3c1.8,0.8,2.4,2,1.9,3.8
			c-0.8,2.8-1.5,5.5-2.4,8.2c-0.8,2.6-1.7,3-4.1,1.8c-5-2.4-10.2-3.4-15.7-3.1c-1.4,0.1-2.9,0.3-4.2,0.9c-4.7,2.1-5.5,7.3-1.5,10.6
			c2,1.6,4.4,2.8,6.8,3.8c4.2,1.7,8.4,3.4,12.4,5.6c12.7,7,16.1,23,7.2,33.9c-3.2,3.9-7.4,6.6-12.4,7.9c-2.1,0.6-3.1,1.7-3,3.9
			c0.1,2.2,0,4.4,0,6.6c0,2-1,3-2.9,3c-2.4,0.1-4.7,0.1-7.1,0c-2.1,0-3-1.2-3.1-3.2c0-1.6,0-3.2,0-4.8c0-3.5-0.1-3.7-3.5-4.2
			c-4.3-0.7-8.6-1.7-12.6-3.6C187.7,322.3,187.3,321.6,188.2,318.3z"/>
	</g>
	<g id="XMLID_179_">
		<circle fill="#333333" cx="106.3" cy="292.7" r="20.6"/>
	</g>
	<g id="XMLID_177_">
		<circle fill="#333333" cx="322" cy="292.7" r="20.6"/>
	</g>
	<g>
		<path fill="#333333" d="M296.6,383.3c0-0.8,0.1-1.5,0.1-2.3H92.5c0.2-1.4,0.3-2.8,0.3-4.2c0-18.9-15.3-34.3-34.3-34.3
			c-2.9,0-5.8,0.4-8.5,1.1V238.5c2.7,0.7,5.5,1.1,8.5,1.1c18.9,0,34.3-15.3,34.3-34.3c0-2.9-0.4-5.7-1-8.4h251.5
			c-0.4,2-0.6,4.1-0.6,6.3c0,18.9,15.3,34.3,34.3,34.3c2.1,0,4.1-0.2,6-0.5v57.6c0.9,0,1.8-0.1,2.7-0.1c9.1,0,17.9,1.4,26.2,3.9
			v-96.5c0-18.7-15.2-33.9-33.9-33.9H55c-18.7,0-33.9,15.2-33.9,33.9v174.2c0,18.7,15.2,33.9,33.9,33.9h245.7
			C298.1,401.5,296.6,392.6,296.6,383.3z"/>
	</g>
	<g>
		<g>
			<path fill="#E2574C" d="M385.6,318.8c-35.6,0-64.5,28.9-64.5,64.5s28.9,64.5,64.5,64.5c35.6,0,64.5-28.9,64.5-64.5
				S421.2,318.8,385.6,318.8z M388.3,343.5c5.8,0,10.4,4.8,10.4,10.7c0,5.8-4.8,10.6-10.4,10.5c-5.9,0-10.6-4.8-10.5-10.7
				C377.8,348.1,382.5,343.5,388.3,343.5z M403.2,414.4c-0.2,0.9-0.8,1.8-1.5,2.5c-3.8,3.9-8.4,6.2-13.9,6.3c-2.6,0-5.1-0.1-7.7-0.4
				c-4.2-0.6-9.5-5.8-8.8-11.4c0.5-3.8,1.1-7.6,1.7-11.4c1.1-6.6,2.3-13.1,3.4-19.7c0.1-0.4,0.1-0.8,0.1-1.3c0-2.7-0.9-3.7-3.6-4.1
				c-1.2-0.2-2.4-0.3-3.5-0.6c-1.4-0.5-2-1.5-1.8-2.6c0.1-1.2,0.9-1.9,2.3-2.2c0.8-0.2,1.6-0.2,2.4-0.2c3.2,0,6.4,0,9.7,0
				c3.4,0,6.8,0,10.2,0c2.5,0,3.9,1.2,4,3.6c0,2-0.3,4.1-0.7,6.1c-1.3,7.5-2.7,15-4.1,22.5c-0.5,2.5-1,5-1.3,7.5
				c-0.1,1.2,0,2.5,0.3,3.6c0.4,1.6,1.6,2.4,3.2,2.3c1.3-0.1,2.7-0.6,3.9-1.1c1-0.4,1.9-1.1,3-1.5
				C402.4,411.8,403.6,412.8,403.2,414.4z"/>
		</g>
	</g>
</g>
</svg>
