<?xml version="1.0" encoding="utf-8"?>
<!-- Generator: Adobe Illustrator 18.0.0, SVG Export Plug-In . SVG Version: 6.00 Build 0)  -->
<!DOCTYPE svg PUBLIC "-//W3C//DTD SVG 1.1//EN" "http://www.w3.org/Graphics/SVG/1.1/DTD/svg11.dtd">
<svg version="1.1" id="Layer_1" xmlns="http://www.w3.org/2000/svg" xmlns:xlink="http://www.w3.org/1999/xlink" x="0px" y="0px"
	 viewBox="0 0 512 512" enable-background="new 0 0 512 512" xml:space="preserve">
<g id="XMLID_6177_">
	<g id="XMLID_6195_">
		<path fill="#333333" d="M126.9,40.1C53.8,83.6,14.1,149.7,3.9,234.8c17.4,1.5,33.8,3,50.2,4.4c9-128.7,151.1-227.3,287.4-166
			c7-14.9,13.9-29.9,21.3-45.7C281.7-6.6,202.5-4.9,126.9,40.1z"/>
	</g>
	<g id="XMLID_6192_">
		<path fill="#333333" d="M504.4,213.1c-16.3,2.8-32.6,5.7-49.4,8.6c8.8,58.9-3.4,111.9-39.4,158.4c-35.8,46.3-83.6,71.7-142.2,78.1
			c1.4,16.6,2.8,32.8,4.3,49C400.3,503,531.7,379.8,504.4,213.1z"/>
	</g>
	<g id="XMLID_6189_">
		<path fill="#333333" d="M233.9,508.1c1.5-16.7,2.9-32.9,4.3-48.7C132.5,441.7,71.2,380.4,53.4,274.6c-15.6,1.3-31.8,2.7-48.1,4.2
			C9.1,381.5,98.7,497.1,233.9,508.1z"/>
	</g>
	<g id="XMLID_6186_">
		<path fill="#333333" d="M400.7,50c-9.6,13.7-19.1,27.2-28.9,41.3c16.7,12.2,31.6,26.1,44.2,42.4c12.6,16.3,22.3,34.3,29.9,54.1
			c15.7-5.7,31.2-11.3,47.4-17.3C474.5,120.7,444,81,400.7,50z"/>
	</g>
	<g id="XMLID_6178_">
		<g>
			<path fill="#E2574C" d="M415.9,256c0-88.3-71.6-159.9-159.9-159.9c-88.3,0-159.9,71.6-159.9,159.9c0,88.3,71.6,159.9,159.9,159.9
				C344.3,415.9,415.9,344.3,415.9,256z M247.2,365.4c-4.5-0.1-6.6-2.6-6.6-7c0-3.5-0.1-6.9-0.1-10.4c-0.1-7.6-0.3-7.9-7.6-9.1
				c-9.4-1.5-18.6-3.6-27.1-7.8c-6.7-3.3-7.4-4.9-5.5-12c1.4-5.3,2.9-10.5,4.5-15.7c1.2-3.8,2.3-5.5,4.3-5.5c1.2,0,2.7,0.6,4.7,1.6
				c9.5,4.9,19.6,7.7,30.1,9c1.8,0.2,3.6,0.3,5.4,0.3c4.9,0,9.8-0.9,14.4-2.9c11.8-5.1,13.6-18.8,3.7-26.9
				c-3.4-2.8-7.2-4.8-11.2-6.6c-10.3-4.5-21.1-8-30.8-13.8c-15.8-9.5-25.8-22.4-24.6-41.7c1.3-21.7,13.6-35.3,33.5-42.5
				c8.2-3,8.3-2.9,8.3-11.5c0-2.9,0-5.8,0-8.7c0.2-6.5,1.3-7.6,7.7-7.8c0.7,0,1.5,0,2.2,0c1.3,0,2.5,0,3.8,0c0.5,0,1,0,1.5,0
				c12.2,0,12.2,0.5,12.3,13.7c0,9.7,0,9.8,9.7,11.3c7.4,1.2,14.5,3.3,21.3,6.4c3.8,1.7,5.2,4.3,4,8.3c-1.7,5.9-3.3,11.9-5.2,17.8
				c-1.2,3.6-2.3,5.2-4.4,5.2c-1.2,0-2.6-0.5-4.5-1.4c-9.5-4.6-19.4-6.8-29.8-6.8c-1.3,0-2.7,0-4,0.1c-3.1,0.2-6.1,0.6-9,1.8
				c-10.2,4.5-11.9,15.8-3.2,22.7c4.4,3.5,9.4,6.1,14.7,8.3c9.1,3.8,18.2,7.4,26.8,12.1c27.4,15.2,34.8,49.6,15.5,73.1
				c-7,8.5-16.1,14.2-26.7,17.1c-4.6,1.3-6.7,3.7-6.5,8.5c0.2,4.7,0,9.4,0,14.2c0,4.2-2.2,6.5-6.3,6.6c-2.7,0.1-5.4,0.1-8.1,0.1
				C251.9,365.5,249.6,365.5,247.2,365.4z"/>
		</g>
	</g>
</g>
</svg>
