<?xml version="1.0" encoding="utf-8"?>
<!-- Generator: Adobe Illustrator 18.0.0, SVG Export Plug-In . SVG Version: 6.00 Build 0)  -->
<!DOCTYPE svg PUBLIC "-//W3C//DTD SVG 1.1//EN" "http://www.w3.org/Graphics/SVG/1.1/DTD/svg11.dtd">
<svg version="1.1" id="Layer_1" xmlns="http://www.w3.org/2000/svg" xmlns:xlink="http://www.w3.org/1999/xlink" x="0px" y="0px"
	 viewBox="0 0 512 512" enable-background="new 0 0 512 512" xml:space="preserve">
<g>
	<path fill="#333333" d="M477.2,368.1L477.2,368.1l0-53.1l0,0V83.5c0-17.7-14.4-32.2-32.2-32.2H67c-17.7,0-32.2,14.4-32.2,32.2
		v237.2c0,0.1,0,0.3,0,0.4v43c0,0.2,0,0.3,0,0.5v2.4c0,0.2,0,0.3,0,0.5v0.6h0c0.6,15.1,13,27.2,28.3,27.2h143.5
		c-0.3,6.4-3.8,35.2-46.9,40.7h1.4c-6.8,0-12.3,5.5-12.3,12.3c0,6.8,5.5,12.3,12.3,12.3h189.1c6.8,0,12.3-5.5,12.3-12.3
		c0-6.8-5.5-12.3-12.3-12.3h2.1c-43.1-5.4-46.7-34.3-46.9-40.7h143.5C464.1,395.4,476.6,383.3,477.2,368.1z M256,379.4
		c-8.7,0-15.7-7-15.7-15.7c0-8.7,7-15.7,15.7-15.7c8.7,0,15.7,7,15.7,15.7C271.7,372.3,264.7,379.4,256,379.4z M67,326.4
		c-3.1,0-5.6-2.5-5.6-5.6V83.5c0-3.1,2.5-5.6,5.6-5.6h378c3.1,0,5.6,2.5,5.6,5.6v237.2c0,3.1-2.5,5.6-5.6,5.6H67z"/>
	<g>
		<g>
			<path fill="#333333" d="M346.4,285.8V169.7c0-3.2-2.6-5.9-5.9-5.9h-40.2c-3.2,0-5.9,2.6-5.9,5.9v116.1c0,3.2,2.6,5.9,5.9,5.9
				h40.2C343.8,291.7,346.4,289.1,346.4,285.8z M334.7,279.9h-28.4V175.6h28.4V279.9z"/>
			<path fill="#333333" d="M171.4,194.6c-3.2,0-5.9,2.6-5.9,5.9v85.3c0,3.2,2.6,5.9,5.9,5.9h40.2c3.2,0,5.9-2.6,5.9-5.9v-85.3
				c0-3.2-2.6-5.9-5.9-5.9H171.4z M177.3,279.9v-9.2l9.2,9.2H177.3z M195.8,279.9l-18.5-18.5v-9.3l27.8,27.8H195.8z M205.8,271.3
				l-28.4-28.4v-9.3l28.4,28.4V271.3z M205.8,252.7l-28.4-28.4V215l28.4,28.4V252.7z M205.8,234.1L178,206.4h9.3l18.4,18.4V234.1z
				 M205.8,215.5l-9.1-9.1h9.1V215.5z"/>
			<path fill="#E2574C" d="M282,285.8V122.5c0-3.2-2.6-5.9-5.9-5.9h-40.2c-3.2,0-5.9,2.6-5.9,5.9v163.3c0,3.2,2.6,5.9,5.9,5.9h40.2
				C279.3,291.7,282,289.1,282,285.8z"/>
		</g>
	</g>
</g>
</svg>
