<?xml version="1.0" encoding="utf-8"?>
<!-- Generator: Adobe Illustrator 18.0.0, SVG Export Plug-In . SVG Version: 6.00 Build 0)  -->
<!DOCTYPE svg PUBLIC "-//W3C//DTD SVG 1.1//EN" "http://www.w3.org/Graphics/SVG/1.1/DTD/svg11.dtd">
<svg version="1.1" id="Layer_1" xmlns="http://www.w3.org/2000/svg" xmlns:xlink="http://www.w3.org/1999/xlink" x="0px" y="0px"
	 viewBox="0 0 512 512" enable-background="new 0 0 512 512" xml:space="preserve">
<g>
	<path fill="#333333" d="M60.7,489.5h167.6c27,0,49.1-22.1,49.1-49.1v-37.6c-1.7,0.2-3.4,0.4-5.1,0.4l-15.2,0c-2,0-3.9-0.2-5.7-0.5
		v7.5c0,6.9-5.6,12.6-12.6,12.6H50.3c-6.9,0-12.6-5.6-12.6-12.6V112.5c0-6.9,5.6-12.6,12.6-12.6h188.5c6.9,0,12.6,5.6,12.6,12.6v2.2
		h-0.1v7.5c1.8-0.3,3.6-0.5,5.5-0.5l15.2,0h0h0c1.8,0,3.6,0.2,5.3,0.4V82.1c0-27-22.1-49.1-49.1-49.1H60.7
		c-27,0-49.1,22.1-49.1,49.1v358.3C11.6,467.4,33.7,489.5,60.7,489.5z M118.4,443.4h47.3c7,0,12.7,5.7,12.7,12.7
		c0,7-5.7,12.7-12.7,12.7h-47.3c-7,0-12.7-5.7-12.7-12.7C105.6,449.1,111.4,443.4,118.4,443.4z"/>
	<path fill="#E2574C" d="M281.9,156.1c0-5.4-4.4-9.8-9.8-9.8l-15.2,0c-5.4,0-9.8,4.4-9.8,9.8l0,14.9c-12.3,2.3-24.3,7.1-35.1,14.4
		L201.6,175c-3.8-3.8-10.1-3.8-13.9,0L177,185.8c-3.8,3.8-3.8,10.1,0,13.9l10.4,10.3c-7.4,10.8-12.3,22.8-14.6,35.2l-14.5,0
		c-5.4,0-9.8,4.4-9.8,9.8l0,15.2c0,5.4,4.4,9.8,9.8,9.8l14.4,0c2.3,12.4,7.2,24.5,14.6,35.3l-10.2,10.2c-3.8,3.8-3.8,10.1,0,13.9
		l10.7,10.7c3.8,3.8,10.1,3.8,13.9,0l10.2-10.2c10.9,7.4,22.9,12.2,35.4,14.5l0,14.4c0,5.4,4.4,9.8,9.8,9.8l15.2,0
		c5.4,0,9.8-4.4,9.8-9.8l0-14.5c12.4-2.4,24.4-7.3,35.2-14.7l10.4,10.3c3.8,3.8,10.1,3.8,13.9,0l10.7-10.7c3.8-3.8,3.8-10.1,0-13.9
		l-10.4-10.4c7.3-10.8,12.1-22.8,14.4-35.1l14.9,0c5.4,0,9.8-4.4,9.8-9.8l0-15.2c0-5.4-4.4-9.8-9.8-9.8l-15,0
		c-2.4-12.3-7.2-24.2-14.5-34.9l10.6-10.6c3.8-3.8,3.8-10.1,0-13.9l-10.7-10.7c-3.8-3.8-10.1-3.8-13.9,0l-10.6,10.6
		c-10.7-7.3-22.6-12.1-34.9-14.5L281.9,156.1z M300.4,298.3c-19.7,19.8-51.8,19.8-71.6,0.1c-19.8-19.7-19.8-51.8-0.1-71.6
		c19.7-19.8,51.8-19.8,71.6-0.1C320.1,246.4,320.1,278.5,300.4,298.3z"/>
	<path fill="#333333" d="M455.6,37.2c1.5-4-0.4-8.4-4.4-9.9L440.2,23c-4-1.5-8.4,0.4-9.9,4.4l-4.2,10.9c-9.6-1.8-19.7-1.7-29.6,0.6
		l-4.7-10.5c-1.7-3.9-6.2-5.6-10.1-3.9l-10.8,4.8c-3.9,1.7-5.6,6.3-3.9,10.1l4.6,10.5c-8.4,5.8-15.4,13.1-20.6,21.5l-10.6-4.1
		c-4-1.5-8.4,0.4-9.9,4.4l-4.3,11.1c-1.5,4,0.4,8.4,4.4,9.9l10.5,4.1c-1.8,9.7-1.7,19.9,0.7,29.9l-10.3,4.6
		c-3.9,1.7-5.6,6.3-3.9,10.1l4.8,10.8c1.7,3.9,6.2,5.6,10.1,3.9l10.3-4.6c5.8,8.4,13.3,15.4,21.7,20.6l-4.1,10.5
		c-1.5,4,0.4,8.4,4.4,9.9l11.1,4.3c4,1.5,8.4-0.4,9.9-4.4l4.1-10.6c9.7,1.8,19.8,1.6,29.8-0.8l4.6,10.5c1.7,3.9,6.2,5.6,10.1,3.9
		l10.8-4.8c3.9-1.7,5.6-6.3,3.9-10.1l-4.7-10.5c8.4-5.8,15.2-13.2,20.4-21.5l10.9,4.2c4,1.5,8.4-0.4,9.9-4.4l4.3-11.1
		c1.5-4-0.4-8.4-4.4-9.9l-10.9-4.2c1.7-9.6,1.6-19.7-0.8-29.5l10.7-4.8c3.9-1.7,5.6-6.2,3.9-10.1l-4.8-10.8
		c-1.7-3.9-6.2-5.6-10.1-3.9l-10.7,4.8c-5.8-8.3-13.1-15.2-21.4-20.4L455.6,37.2z M429,146.1c-20,8.8-43.3-0.2-52.2-20.1
		C368,106,377,82.6,397,73.7c20-8.8,43.3,0.2,52.2,20.1C458,113.8,449,137.2,429,146.1z"/>
</g>
</svg>
