<?xml version="1.0" encoding="utf-8"?>
<!-- Generator: Adobe Illustrator 18.0.0, SVG Export Plug-In . SVG Version: 6.00 Build 0)  -->
<!DOCTYPE svg PUBLIC "-//W3C//DTD SVG 1.1//EN" "http://www.w3.org/Graphics/SVG/1.1/DTD/svg11.dtd">
<svg version="1.1" id="Layer_1" xmlns="http://www.w3.org/2000/svg" xmlns:xlink="http://www.w3.org/1999/xlink" x="0px" y="0px"
	 viewBox="0 0 512 512" enable-background="new 0 0 512 512" xml:space="preserve">
<g>
	<g id="XMLID_122_">
		<path id="XMLID_124_" fill="#333333" d="M383.1,364.2V243.3h9.9c24.5,0,48.5,8.4,67.7,23.7c18.8,15.1,32.2,36.2,37.8,59.5l2.3,9.6
			L383.1,364.2z M402.9,263.6v75.5l73.5-17.6C465,289.8,436.6,267.3,402.9,263.6z"/>
	</g>
	<g>
		<path fill="#3C92CA" d="M384.6,362.2l0.6-0.1c-0.2-0.2-0.4-0.3-0.6-0.5V362.2z"/>
		<path fill="#333333" d="M248.5,385.2c0-34.3,14.7-65.3,38.2-86.8c-5.2-2.7-9-4.6-11.2-5.7c-1.2-0.6-2-1.9-2-3.2v-78.1
			c9.8-6.5,16.3-17.7,16.3-30.4v-81c0-40.3-32.7-72.9-72.9-72.9h-8.7h-8.7c-40.3,0-72.9,32.7-72.9,72.9v81
			c0,12.7,6.5,23.8,16.3,30.4v78.1c0,1.4-0.8,2.6-2,3.2c-11,5.4-65.1,32.7-115.2,73.9c-9.1,7.4-14.3,18.6-14.3,30.3v55.5h171
			l16.9-77.4c-34.1-47.6,2.5-49.9,8.9-50h0h0c6.4,0,43.1,2.3,8.9,50l16.9,77.4h35.6C256.3,433.3,248.5,410.1,248.5,385.2z"/>
	</g>
	<g id="XMLID_120_">
		<g>
			<g id="XMLID_165_">
				<path fill="#E2574C" d="M366.5,385.2v-99.9c-55.1,0-99.9,44.7-99.9,99.9s44.7,99.9,99.9,99.9s99.9-44.7,99.9-99.9
					c0-8-0.9-15.8-2.7-23.2C450.8,365,423.8,371.5,366.5,385.2z"/>
			</g>
		</g>
	</g>
</g>
</svg>
