<?xml version="1.0" encoding="utf-8"?>
<!-- Generator: Adobe Illustrator 18.0.0, SVG Export Plug-In . SVG Version: 6.00 Build 0)  -->
<!DOCTYPE svg PUBLIC "-//W3C//DTD SVG 1.1//EN" "http://www.w3.org/Graphics/SVG/1.1/DTD/svg11.dtd">
<svg version="1.1" id="Layer_1" xmlns="http://www.w3.org/2000/svg" xmlns:xlink="http://www.w3.org/1999/xlink" x="0px" y="0px"
	 viewBox="0 0 512 512" enable-background="new 0 0 512 512" xml:space="preserve">
<g>
	<path fill="#333333" d="M171.3,60.7v56.8v149.7c5,1.5,9.5,2.5,13.6,3.5l10-12.6V117.5V85.3c0-4,2.5-8,6-10c1-1,3-1.5,4.5-1.5
		c0,0,0.5,0,1,0h254.2c2.5,0,4.5,1,6.5,2c3.5,2,5.5,6,5.5,10V118c0,0,0,201.5,0,280.4c0,4,0,7.5,0,11.1v2.5c0,7.5-6,13.6-13.6,13.6
		h-80.4h-0.5H271.8c-8,4-15.6,8.5-23.6,13.6c-2.5,2-6,4-9.5,6c-4,2-8,4.5-10.6,6.5c-10.6,7.5-21.6,12.6-36.2,15.1
		c-1,0.5-5,1.5-10.6,3.5c7,8,17.1,13.1,28.1,13.1h64.8h60.8h44.7h81.4c19.6,0,35.7-16.1,35.7-35.7v-1v-17.1v-30.6V118.5V61.7
		c0-15.6-9.5-28.6-22.6-34.2c-4.5-2-9.5-3-14.6-3H334.1H208.5c-5,0-10,1-14.6,2C180.8,32,171.3,45.6,171.3,60.7z M361.2,454.1
		c0,1.5-0.5,3-1,4.5c-1.5,3-5,5-8.5,5H316c-5,0-9.5-4.5-10-9.5c0-2,0.5-3.5,1.5-5c0.5-0.5,1-1,1.5-1.5c2-2,4.5-3,7-3h35.7
		c3.5,0,7,2,8.5,5C360.7,451.1,361.2,452.6,361.2,454.1z"/>
	<g id="XMLID_414_">
		<path fill="#E2574C" d="M344.5,229.2h-25.9c-3.1,0-5.6,2.5-5.6,5.6v41.8v16.4v41.8c0,3.1,2.5,5.6,5.6,5.6h25.9
			c3.1,0,5.6-2.5,5.6-5.6v-41.8v-16.4v-41.8C350.1,231.7,347.6,229.2,344.5,229.2z"/>
	</g>
	<g id="XMLID_413_">
		<path fill="#E2574C" d="M424,193.1l-36.5-58.6c-1.7-2.6-5.5-2.6-7.2,0l-36.5,58.6c-1.7,2.8,0.3,6.4,3.6,6.4h17.9v135.2
			c0,3.1,2.5,5.6,5.6,5.6h25.9c3,0,5.3-2.3,5.6-5.2h0v-89.4v-2.5v-43.6h17.9C423.8,199.5,425.8,195.9,424,193.1z"/>
	</g>
	<g>
		<path fill="#E2574C" d="M260.6,314.8v9.1v10.8c0,3.1,2.5,5.6,5.6,5.6h25.9c3.1,0,5.6-2.5,5.6-5.6v-10.8v-47.4v-10.8
			c0-3.1-2.5-5.6-5.6-5.6h-0.7l-6.9,12.3C276.6,286.4,268.6,300.6,260.6,314.8z"/>
	</g>
	<path fill="#333333" d="M17,413.4c-3.5,6-2,13.6,3,18.1l60.8,49.7c10,8,24.6,8.5,35.2,0.5c32.2-24.6,71.8-32.7,71.8-32.7l0,0
		c10-2,19.1-5,28.1-11.6c6-4.5,15.1-9,21.1-13.1c16.1-10.6,33.2-19.6,51.2-25.6c8-2.5,10-7.5,7-15.6c-1.5-4-6-9-10-11.1
		c-9-4.5-18.6-4-27.6-2.5c-5.5,0.5-29.6,12.6-40.7,16.6c-9.5,3.5-11.1-5-10-15.1c0.5-5,2.5-9.5,4.5-14.1
		c21.1-39.2,43.2-77.9,65.3-117.1c5-8.5,3-17.6-4.5-23.1c-7.5-5-17.6-3.5-23.6,4c-8.5,10.6-16.6,21.1-25.1,32.2
		c-7.5,10-15.6,19.6-23.1,29.6l-9.5,12.1c0,0-56.3-21.6-120.1-6.5c-3.5,1-6.5,3-8,6.5c-7,13.1-25.6,49.2-30.6,84.4
		c-2.5,9-6,16.6-8,21.6L17,413.4z"/>
</g>
</svg>
