<?xml version="1.0" encoding="utf-8"?>
<!-- Generator: Adobe Illustrator 18.0.0, SVG Export Plug-In . SVG Version: 6.00 Build 0)  -->
<!DOCTYPE svg PUBLIC "-//W3C//DTD SVG 1.1//EN" "http://www.w3.org/Graphics/SVG/1.1/DTD/svg11.dtd">
<svg version="1.1" id="Layer_1" xmlns="http://www.w3.org/2000/svg" xmlns:xlink="http://www.w3.org/1999/xlink" x="0px" y="0px"
	 viewBox="0 0 512 512" enable-background="new 0 0 512 512" xml:space="preserve">
<g>
	<path fill="#333333" d="M379.7,171.2H54.3c-20,0-36.1,16.2-36.1,36.1v174c0,20,16.2,36.1,36.1,36.1h325.4c20,0,36.1-16.2,36.1-36.1
		v-174C415.9,187.4,399.7,171.2,379.7,171.2z M54.3,199h325.4c4.6,0,8.3,3.7,8.3,8.3v18.4H46v-18.4C46,202.7,49.7,199,54.3,199z
		 M379.7,389.6H54.3c-4.6,0-8.3-3.7-8.3-8.3V272h342v109.3C388.1,385.9,384.3,389.6,379.7,389.6z"/>
	<g>
		<polygon fill="#333333" points="362.9,297.6 362.9,297.1 362,297.1 		"/>
		<path fill="#E2574C" d="M493.8,130.7c0-20-16.2-36.1-36.1-36.1H132.3c-20,0-36.1,16.2-36.1,36.1v15.3h283.6
			c33.8,0,61.3,27.5,61.3,61.3v133.5h16.7c12,0,22.6-5.9,29.2-14.9l0.1,0l0-0.1c4.3-6,6.9-13.3,6.9-21.2V130.7z"/>
	</g>
</g>
</svg>
