<?xml version="1.0" encoding="utf-8"?>
<!-- Generator: Adobe Illustrator 18.0.0, SVG Export Plug-In . SVG Version: 6.00 Build 0)  -->
<!DOCTYPE svg PUBLIC "-//W3C//DTD SVG 1.1//EN" "http://www.w3.org/Graphics/SVG/1.1/DTD/svg11.dtd">
<svg version="1.1" id="Layer_1" xmlns="http://www.w3.org/2000/svg" xmlns:xlink="http://www.w3.org/1999/xlink" x="0px" y="0px"
	 viewBox="0 0 512 512" enable-background="new 0 0 512 512" xml:space="preserve">
<g>
	<path fill="#333333" d="M120.5,484.2h167.6c27,0,49.1-22.1,49.1-49.1v-37.6c-1.7,0.2-3.4,0.4-5.1,0.4l-15.2,0c-2,0-3.9-0.2-5.7-0.5
		v7.5c0,6.9-5.6,12.6-12.6,12.6H110.1c-6.9,0-12.6-5.6-12.6-12.6V107.2c0-6.9,5.6-12.6,12.6-12.6h188.5c6.9,0,12.6,5.6,12.6,12.6
		v2.2h-0.1v7.5c1.8-0.3,3.6-0.5,5.5-0.5l15.2,0h0h0c1.8,0,3.6,0.2,5.3,0.4V76.9c0-27-22.1-49.1-49.1-49.1H120.5
		c-27,0-49.1,22.1-49.1,49.1v358.3C71.4,462.1,93.5,484.2,120.5,484.2z M178.2,438.1h47.3c7,0,12.7,5.7,12.7,12.7
		c0,7-5.7,12.7-12.7,12.7h-47.3c-7,0-12.7-5.7-12.7-12.7C165.4,443.8,171.2,438.1,178.2,438.1z"/>
	<path fill="#E2574C" d="M341.7,150.8c0-5.4-4.4-9.8-9.8-9.8l-15.2,0c-5.4,0-9.8,4.4-9.8,9.8l0,14.9c-12.3,2.3-24.3,7.1-35.1,14.4
		l-10.4-10.4c-3.8-3.8-10.1-3.8-13.9,0l-10.7,10.7c-3.8,3.8-3.8,10.1,0,13.9l10.4,10.3c-7.4,10.8-12.3,22.8-14.6,35.2l-14.5,0
		c-5.4,0-9.8,4.4-9.8,9.8l0,15.2c0,5.4,4.4,9.8,9.8,9.8l14.4,0c2.3,12.4,7.2,24.5,14.6,35.3l-10.2,10.2c-3.8,3.8-3.8,10.1,0,13.9
		l10.7,10.7c3.8,3.8,10.1,3.8,13.9,0l10.2-10.2c10.9,7.4,22.9,12.2,35.4,14.5l0,14.4c0,5.4,4.4,9.8,9.8,9.8l15.2,0
		c5.4,0,9.8-4.4,9.8-9.8l0-14.5c12.4-2.4,24.4-7.3,35.2-14.7l10.4,10.3c3.8,3.8,10.1,3.8,13.9,0L412,334c3.8-3.8,3.8-10.1,0-13.9
		l-10.4-10.4c7.3-10.8,12.1-22.8,14.4-35.1l14.9,0c5.4,0,9.8-4.4,9.8-9.8l0-15.2c0-5.4-4.4-9.8-9.8-9.8l-15,0
		c-2.4-12.3-7.2-24.2-14.5-34.9l10.6-10.6c3.8-3.8,3.8-10.1,0-13.9l-10.7-10.7c-3.8-3.8-10.1-3.8-13.9,0l-10.6,10.6
		c-10.7-7.3-22.6-12.1-34.9-14.5L341.7,150.8z M360.2,293c-19.7,19.8-51.8,19.8-71.6,0.1c-19.8-19.7-19.8-51.8-0.1-71.6
		c19.7-19.8,51.8-19.8,71.6-0.1C379.9,241.2,379.9,273.2,360.2,293z"/>
</g>
</svg>
