<?xml version="1.0" encoding="utf-8"?>
<!-- Generator: Adobe Illustrator 18.0.0, SVG Export Plug-In . SVG Version: 6.00 Build 0)  -->
<!DOCTYPE svg PUBLIC "-//W3C//DTD SVG 1.1//EN" "http://www.w3.org/Graphics/SVG/1.1/DTD/svg11.dtd">
<svg version="1.1" id="Layer_1" xmlns="http://www.w3.org/2000/svg" xmlns:xlink="http://www.w3.org/1999/xlink" x="0px" y="0px"
	 viewBox="0 0 512 512" enable-background="new 0 0 512 512" xml:space="preserve">
<g>
	<g>
		<g>
			<path fill="#333333" d="M476.2,322.2c-9.1-0.7-27.9,9.6-33.1,12.1c-18.4,9.2-43.8,23.7-60.6,35.3c-1.2,0.8-2.7,1.8-3.9,2.6
				c-7.5,4.9-15.5,8.1-24.3,10c-48.7,10.4-119.6,11.5-119.6,11.5l-4.1,0.2c-3.1,0.2-5.9-2-6.3-5c-0.5-3.3,2-6.4,5.4-6.7l105.5-10
				c11.6-1.3,20.9-12.1,19.6-24.4c-1.3-12.2-12.5-21.1-24.1-19.9l-93.8-1.2c-6.4-0.1-16.6-1.7-22.7-3.5
				c-60.5-17.7-94.5-1.1-112.7,6.6c-4-6.7-11.7-11-20.3-10.5l-40.5,2.7c-13.5,0.9-23.6,12.1-22.7,25.1l6.5,89.8
				c0.9,13,12.6,22.8,26,21.9l40.5-2.7c8.5-0.6,15.5-5.8,18.5-13l177.7,7.7c19.8,2.1,38.4-0.3,55.8-9.4l5.1-2.7l134.3-78.6
				c6.6-3.9,11.3-10.5,11.5-18C494.3,333.2,489,323.2,476.2,322.2z M65.4,437.6c-7.6,0-13.8-5.9-13.8-13.3S57.8,411,65.4,411
				c7.6,0,13.8,5.9,13.8,13.3S73,437.6,65.4,437.6z"/>
			<path fill="#333333" d="M374.3,336.6c1,2.9,1.7,6,2,9.1c0.3,2.5,0.2,5,0.1,7.5c1.4-1,2.8-2,4.2-2.9c13.7-9.6,41.7-24.8,57.6-32.8
				c4.8-2.4,9.8-4.8,15.3-6.7c-6.9-4.6-14.3-4.8-21.9-1.8c-15.1,6-42.9,19.4-57,27.1C374.4,336.2,374.3,336.4,374.3,336.6z"/>
			<path fill="#333333" d="M366.3,322.6c0.6-0.4,1.2-0.9,1.8-1.2l6.8-3.7c9.9-5.5,31.1-12.9,42-17.8c-6.9-4.5-14.2-4.7-21.7-1.7
				c-9.3,3.7-30.2,10.4-39.4,15.4C359.7,316,363.3,319.1,366.3,322.6z"/>
		</g>
	</g>
	<g>
		<g id="XMLID_221_">
			<path id="XMLID_222_" fill="#E2574C" d="M270.1,175.3c0,3.8,1.4,7.6,4.2,10.4c0.6,0.6,1.2,1.1,1.9,1.6l35.1,29.5l0,0
				c4.1,3.5,10.2,3.3,14-0.5c3.7-3.7,4-9.5,0.9-13.5l0,0l-0.1-0.1c-0.1-0.1-0.2-0.3-0.3-0.4l-25.4-30.3c-1.1-1.3-1.7-2.9-1.8-4.6
				l-3.7-57l0,0c-0.5-5.3-4.9-9.4-10.3-9.4c-5.3,0-9.6,4-10.2,9.1l0,0l0,0.1c0,0.2,0,0.4,0,0.7l-4.1,62.7c0,0.4-0.1,0.8-0.1,1.2
				l0,0.1l0,0c0,0.1,0,0.2,0,0.2C270.1,175,270.1,175.2,270.1,175.3z"/>
		</g>
		<g id="XMLID_186_">
			<g>
				<path fill="#333333" d="M285.5,53.1c-66,0-119.8,53.7-119.8,119.8s53.7,119.8,119.8,119.8s119.8-53.7,119.8-119.8
					S351.5,53.1,285.5,53.1z M285.5,265.1c-51,0-92.3-41.3-92.3-92.3s41.3-92.3,92.3-92.3c51,0,92.3,41.3,92.3,92.3
					S336.4,265.1,285.5,265.1z"/>
			</g>
		</g>
	</g>
</g>
</svg>
