<?xml version="1.0" encoding="utf-8"?>
<!-- Generator: Adobe Illustrator 18.0.0, SVG Export Plug-In . SVG Version: 6.00 Build 0)  -->
<!DOCTYPE svg PUBLIC "-//W3C//DTD SVG 1.1//EN" "http://www.w3.org/Graphics/SVG/1.1/DTD/svg11.dtd">
<svg version="1.1" id="Layer_1" xmlns="http://www.w3.org/2000/svg" xmlns:xlink="http://www.w3.org/1999/xlink" x="0px" y="0px"
	 viewBox="0 0 512 512" enable-background="new 0 0 512 512" xml:space="preserve">
<g>
	<g id="XMLID_5811_">
		<g>
			<g id="XMLID_269_">
				<path fill="#E2574C" d="M501.9,304.9c-28.5-23.4-59.3-39-65.5-42c-0.7-0.3-1.1-1.1-1.1-1.8v-44.4c5.6-3.7,9.3-10.1,9.3-17.3v-46
					c0-22.9-18.6-41.5-41.5-41.5h-5h-5c-22.9,0-41.5,18.6-41.5,41.5v46c0,7.2,3.7,13.6,9.3,17.3V261c0,0.8-0.4,1.5-1.2,1.8
					c-3.9,1.9-17.2,8.6-33.5,19c16.3,9,42,24.4,66.4,44.4c8.5,7,14.2,16.7,16.2,27.4h101.2v-31.5
					C510.1,315.5,507.1,309.1,501.9,304.9z"/>
			</g>
			<g id="XMLID_268_">
				<path fill="#E2574C" d="M10.1,304.9c28.5-23.4,59.3-39,65.5-42c0.7-0.3,1.1-1.1,1.1-1.8v-44.4c-5.6-3.7-9.3-10.1-9.3-17.3v-46
					c0-22.9,18.6-41.5,41.5-41.5h5h5c22.9,0,41.5,18.6,41.5,41.5v46c0,7.2-3.7,13.6-9.3,17.3V261c0,0.8,0.4,1.5,1.2,1.8
					c3.9,1.9,17.2,8.6,33.5,19c-16.3,9-42,24.4-66.4,44.4c-8.5,7-14.2,16.7-16.2,27.4H1.9v-31.5C1.9,315.5,4.9,309.1,10.1,304.9z"/>
			</g>
		</g>
	</g>
	<g id="XMLID_5808_">
		<path fill="#333333" d="M379.8,342c-34-27.9-70.6-46.5-78.1-50.1c-0.8-0.4-1.4-1.3-1.4-2.2v-52.9c6.7-4.4,11-12,11-20.6v-54.9
			c0-27.3-22.1-49.4-49.4-49.4H256h-5.9c-27.3,0-49.4,22.1-49.4,49.4v54.9c0,8.6,4.4,16.2,11,20.6v52.9c0,0.9-0.5,1.8-1.4,2.2
			c-7.5,3.7-44.1,22.2-78.1,50.1c-6.1,5-9.7,12.6-9.7,20.5v37.6h115.9l11.5-52.4c-23.1-32.3,1.7-33.8,6.1-33.9h0h0
			c4.3,0,29.2,1.6,6.1,33.9l11.5,52.4h115.9v-37.6C389.4,354.6,385.9,347,379.8,342z"/>
	</g>
</g>
</svg>
