<?xml version="1.0" encoding="utf-8"?>
<!-- Generator: Adobe Illustrator 18.0.0, SVG Export Plug-In . SVG Version: 6.00 Build 0)  -->
<!DOCTYPE svg PUBLIC "-//W3C//DTD SVG 1.1//EN" "http://www.w3.org/Graphics/SVG/1.1/DTD/svg11.dtd">
<svg version="1.1" id="Layer_1" xmlns="http://www.w3.org/2000/svg" xmlns:xlink="http://www.w3.org/1999/xlink" x="0px" y="0px"
	 viewBox="0 0 512 512" enable-background="new 0 0 512 512" xml:space="preserve">
<g id="XMLID_5377_">
	<path id="XMLID_5381_" fill="#333333" d="M443.2,383.1c-3.3-4-5.1-9.1-5.1-14.3v-23.6V330v-43.7c-12.7,4.2-26.2,6.4-40,6.4V330
		v15.1V371H75.3v-30.4V330V165.2c0,0,0-0.1,0.1-0.1h195.1c0-13.5,2.1-27.1,6.4-40H75.4c-22.2,0-40.1,18-40.1,40.1V330v8.8v29.5
		c0,5.2-1.8,10.3-5.1,14.3L9.5,408.1c-1.6,1.9-2.4,4.3-2.4,6.8v11.6c0,15,12.2,27.2,27.2,27.2h404.5c15,0,27.2-12.2,27.2-27.2v-11.6
		c0-2.5-0.9-4.9-2.4-6.8L443.2,383.1z M280.2,414c0,7.6-6.2,13.8-13.8,13.8H207c-7.6,0-13.8-6.2-13.8-13.8v-3h87V414z"/>
	<path id="XMLID_5378_" fill="#E2574C" d="M473.6,89.6c-41.7-41.7-109.4-41.7-151.1,0c-40.2,40.2-41.7,104.4-4.5,146.3l1.1,0.9
		c-4,8.7-11,19.5-22,24.9c-3.6,1.8-2.8,7.2,1.2,7.8c12,1.9,29.3-0.2,45.4-12.4l0.2,0.2c41,24.1,94.5,18.5,129.7-16.6
		C515.3,199,515.3,131.3,473.6,89.6z M430.5,217.4c-3,1.4-6.2,2.5-9.5,3.4c-12.4,3.4-24.8,3.5-37.1-0.5c-14.9-4.8-24.8-15-30.7-29.2
		c-1.1-2.7-1.9-5.7-2.8-8.5h-11.7c-2,0-3.5-1.6-3.5-3.5v-7.9c0-2,1.6-3.5,3.5-3.5h9.7c0-2.2,0-4.2,0-6.4h-9.7c-2,0-3.5-1.6-3.5-3.5
		V150c0-2,1.6-3.5,3.5-3.5h12.3l0.4-1.2c3.3-10.5,9-19.5,17.8-26.3c6.9-5.4,15-8.4,23.6-9.7c12.3-2,24.1-0.3,35.6,4.2
		c0.7,0.3,1.5,0.6,2.2,1c2.8,1.6,3.5,3.7,2.3,6.6c-1.3,3.1-2.6,6.2-4,9.3c-1.2,2.6-2.9,3.5-5.7,2.8c-3.9-0.9-7.7-2.1-11.6-2.9
		c-8.2-1.7-16.4-1.8-24.4,1.4c-6.9,2.7-11,7.9-13.9,14.5c0,0.1,0,0.1,0,0.3h23.9c2,0,3.5,1.6,3.5,3.5v7.9c0,2-1.6,3.5-3.5,3.5H370
		c0,2.1,0,4.2,0,6.4h27.3c2,0,3.5,1.6,3.5,3.5v7.9c0,2-1.6,3.5-3.5,3.5h-25c3,8.6,7.9,15.3,17.1,18.2c7.4,2.3,14.8,2.2,22.2,0.6
		c3.9-0.8,7.6-2,11.5-2.8c3-0.7,4.6,0.1,5.9,2.9c1.4,3.1,2.8,6.2,4,9.4C434.2,213.8,433.5,216.1,430.5,217.4z"/>
</g>
</svg>
