<?xml version="1.0" encoding="utf-8"?>
<!-- Generator: Adobe Illustrator 18.0.0, SVG Export Plug-In . SVG Version: 6.00 Build 0)  -->
<!DOCTYPE svg PUBLIC "-//W3C//DTD SVG 1.1//EN" "http://www.w3.org/Graphics/SVG/1.1/DTD/svg11.dtd">
<svg version="1.1" id="Layer_1" xmlns="http://www.w3.org/2000/svg" xmlns:xlink="http://www.w3.org/1999/xlink" x="0px" y="0px"
	 viewBox="0 0 512 512" enable-background="new 0 0 512 512" xml:space="preserve">
<g>
	<circle fill="#333333" cx="182.4" cy="262.4" r="19.9"/>
	<circle fill="#333333" cx="390.8" cy="262.4" r="19.9"/>
	<path fill="#333333" d="M274.5,405.1c0,6.9-5.6,12.7-12.7,12.7H73.2c-6.9,0-12.7-5.6-12.7-12.7V107.1c0-6.9,5.6-12.7,12.7-12.7H262
		c6.9,0,12.7,5.6,12.7,12.7v2.2h-0.1v8.1h26.1V76.7c0-27-22.1-49.1-49.1-49.1H83.6c-27,0-49.1,22.1-49.1,49.1v358.7
		c0,27,22.1,49.1,49.1,49.1h167.8c27,0,49.1-22.1,49.1-49.1v-35.1h-26.1V405.1z M188.7,463.8h-47.3c-7,0-12.8-5.7-12.8-12.8
		c0-7,5.7-12.8,12.8-12.8h47.3c7,0,12.8,5.7,12.8,12.8C201.5,458.1,195.7,463.8,188.7,463.8z"/>
	<path fill="#333333" d="M132.8,142c-18,0-32.7,14.7-32.7,32.7v168.3c0,18,14.7,32.7,32.7,32.7h312c18,0,32.7-14.7,32.7-32.7V174.7
		c0-18-14.7-32.7-32.7-32.7H132.8z M449.6,309.1c-1.9-0.3-3.8-0.5-5.8-0.5c-18.3,0-33.1,14.8-33.1,33.1c0,2.1,0.2,4.1,0.6,6.1H169.1
		c0.2-1.3,0.3-2.7,0.3-4.1c0-18.3-14.8-33.1-33.1-33.1c-2.8,0-5.6,0.4-8.2,1V210c2.6,0.7,5.4,1,8.2,1c18.3,0,33.1-14.8,33.1-33.1
		c0-2.8-0.4-5.5-1-8.1h242.9c-0.4,2-0.6,4-0.6,6.1c0,18.3,14.8,33.1,33.1,33.1c2,0,3.9-0.2,5.8-0.5V309.1z"/>
	<path fill="#E2574C" d="M286.6,187.2c-39.4,0-71.4,32.1-71.4,71.6s32,71.6,71.4,71.6s71.4-32.1,71.4-71.6S326,187.2,286.6,187.2z
		 M311.5,295.1c-2.1,1-4.4,1.8-6.7,2.4c-8.7,2.4-17.4,2.5-26.1-0.3c-10.4-3.4-17.4-10.5-21.5-20.6c-0.8-1.9-1.3-4-1.9-6h-8.2
		c-1.4,0-2.5-1.1-2.5-2.5v-5.5c0-1.4,1.1-2.5,2.5-2.5h6.8c0-1.5,0-3,0-4.5h-6.8c-1.4,0-2.5-1.1-2.5-2.5v-5.5c0-1.4,1.1-2.5,2.5-2.5
		h8.6l0.3-0.9c2.3-7.4,6.3-13.7,12.5-18.5c4.9-3.8,10.5-5.9,16.6-6.9c8.6-1.4,16.9-0.2,25,3c0.5,0.2,1,0.4,1.5,0.7
		c1.9,1.1,2.4,2.6,1.6,4.7c-0.9,2.2-1.8,4.4-2.8,6.5c-0.9,1.9-2,2.5-4,2c-2.7-0.6-5.4-1.5-8.2-2c-5.8-1.2-11.5-1.2-17.1,1
		c-4.8,1.9-7.8,5.6-9.8,10.2c0,0,0,0.1,0,0.2h16.8c1.4,0,2.5,1.1,2.5,2.5v5.5c0,1.4-1.1,2.5-2.5,2.5h-19.2c0,1.5,0,3,0,4.5h19.2
		c1.4,0,2.5,1.1,2.5,2.5v5.5c0,1.4-1.1,2.5-2.5,2.5h-17.5c2.1,6.1,5.6,10.7,12,12.8c5.2,1.6,10.4,1.5,15.6,0.4
		c2.7-0.6,5.4-1.4,8.1-2c2.1-0.5,3.3,0.1,4.2,2c1,2.2,1.9,4.4,2.8,6.6C314.1,292.5,313.5,294.2,311.5,295.1z"/>
</g>
</svg>
