<?xml version="1.0" encoding="utf-8"?>
<!-- Generator: Adobe Illustrator 18.0.0, SVG Export Plug-In . SVG Version: 6.00 Build 0)  -->
<!DOCTYPE svg PUBLIC "-//W3C//DTD SVG 1.1//EN" "http://www.w3.org/Graphics/SVG/1.1/DTD/svg11.dtd">
<svg version="1.1" id="Layer_1" xmlns="http://www.w3.org/2000/svg" xmlns:xlink="http://www.w3.org/1999/xlink" x="0px" y="0px"
	 viewBox="0 0 512 512" enable-background="new 0 0 512 512" xml:space="preserve">
<g>
	<g>
		<g>
			<path fill="#333333" d="M476.2,366.2c-9.1-0.7-27.9,9.6-33.1,12.1c-18.4,9.2-43.8,23.7-60.6,35.3c-1.2,0.8-2.7,1.8-3.9,2.6
				c-7.5,4.9-15.5,8.1-24.3,10c-48.7,10.4-119.6,11.5-119.6,11.5l-4.1,0.2c-3.1,0.2-5.9-2-6.3-5c-0.5-3.3,2-6.4,5.4-6.7l105.5-10
				c11.6-1.3,20.9-12.1,19.6-24.4c-1.3-12.2-12.5-21.1-24.1-19.9l-93.8-1.2c-6.4-0.1-16.6-1.7-22.7-3.5
				c-60.5-17.7-94.5-1.1-112.7,6.6c-4-6.7-11.7-11-20.3-10.5L40.8,366c-13.5,0.9-23.6,12.1-22.7,25.1l6.5,89.8
				c0.9,13,12.6,22.8,26,21.9l40.5-2.7c8.5-0.6,15.5-5.8,18.5-13l177.7,7.7c19.8,2.1,38.4-0.3,55.8-9.4l5.1-2.7l134.3-78.6
				c6.6-3.9,11.3-10.5,11.5-18C494.3,377.1,489,367.1,476.2,366.2z M65.4,481.5c-7.6,0-13.8-5.9-13.8-13.3S57.8,455,65.4,455
				c7.6,0,13.8,5.9,13.8,13.3S73,481.5,65.4,481.5z"/>
			<path fill="#333333" d="M374.3,380.5c1,2.9,1.7,6,2,9.1c0.3,2.5,0.2,5,0.1,7.5c1.4-1,2.8-2,4.2-2.9c13.7-9.6,41.7-24.8,57.6-32.8
				c4.8-2.4,9.8-4.8,15.3-6.7c-6.9-4.6-14.3-4.8-21.9-1.8c-15.1,6-42.9,19.4-57,27.1C374.4,380.1,374.3,380.3,374.3,380.5z"/>
			<path fill="#333333" d="M366.3,366.6c0.6-0.4,1.2-0.9,1.8-1.2l6.8-3.7c9.9-5.5,31.1-12.9,42-17.8c-6.9-4.5-14.2-4.7-21.7-1.7
				c-9.3,3.7-30.2,10.4-39.4,15.4C359.7,360,363.3,363,366.3,366.6z"/>
		</g>
	</g>
	<path fill="#333333" d="M313,298.4v9.8c0,7.8-5.7,14.2-13.1,15.2l-2.4,8.8c-1.3,4.7-5.7,8.1-10.4,8.1h-23.6
		c-5.1,0-9.4-3.4-10.4-8.1l-2.4-8.8c-7.4-1-13.1-7.4-13.1-15.2v-9.8c0-5.1,4-9.4,9.4-9.4h57C308.9,289.3,313,293.3,313,298.4z"/>
	<path fill="#333333" d="M273.9,86.3c-45.2,0.3-81.2,37.1-80.9,82.6c0.3,21.6,9.1,41.1,22.9,55.6c10.8,11.1,17.9,25.6,20.2,40.8
		c1,6.7,6.7,11.5,13.5,11.5h50.6c6.7,0,12.5-5.1,13.5-11.5c2.4-15.5,9.4-29.7,20.2-40.8c14.2-14.5,22.9-34.7,22.9-56.6
		C356.8,122.7,320.1,86,273.9,86.3z M274.9,128.1c-22.2,0-40.4,18.2-40.4,40.4c0,5.1-4,9.1-9.1,9.1s-9.1-4-9.1-9.1
		c0-32.7,26.6-59,59-59c5.1,0,9.1,4,9.1,9.1S280.3,127.8,274.9,128.1z"/>
	<path fill="#E2574C" d="M275.2,59.7c5.1,0,9.1-4,9.1-9.1V18.3c0-5.1-4-9.1-9.1-9.1s-9.1,4-9.1,9.1v32.4
		C266.1,55.7,270.2,59.7,275.2,59.7z"/>
	<path fill="#E2574C" d="M167,167.9c0-5.1-4-9.1-9.1-9.1h-32.4c-5.1,0-9.1,4-9.1,9.1c0,5.1,4,9.1,9.1,9.1h32.4
		C162.7,177,167,173,167,167.9z"/>
	<path fill="#E2574C" d="M424.9,158.8h-32.4c-5.1,0-9.1,4-9.1,9.1c0,5.1,4,9.1,9.1,9.1h32.4c5.1,0,9.1-4,9.1-9.1
		C434.3,162.9,430.3,158.8,424.9,158.8z"/>
	<path fill="#E2574C" d="M185.6,244.4l-22.9,22.9c-3.7,3.7-3.7,9.4,0,13.1c1.7,1.7,4,2.7,6.4,2.7s4.7-1,6.4-2.7l22.9-22.9
		c3.7-3.7,3.7-9.4,0-13.1C195,241.1,189.3,241.1,185.6,244.4z"/>
	<path fill="#E2574C" d="M358.5,94.1c2.4,0,4.7-1,6.4-2.7l22.9-22.9c3.7-3.7,3.7-9.4,0-13.1c-3.7-3.7-9.4-3.7-13.1,0l-22.9,22.9
		c-3.7,3.7-3.7,9.4,0,13.1C353.8,93.1,356.1,94.1,358.5,94.1z"/>
	<path fill="#E2574C" d="M185.6,91.4c1.7,1.7,4,2.7,6.4,2.7c2.4,0,4.7-1,6.4-2.7c3.7-3.7,3.7-9.4,0-13.1l-22.9-22.9
		c-3.7-3.7-9.4-3.7-13.1,0c-3.7,3.7-3.7,9.4,0,13.1L185.6,91.4z"/>
	<path fill="#E2574C" d="M364.9,244.4c-3.7-3.7-9.4-3.7-13.1,0s-3.7,9.4,0,13.1l22.9,22.9c1.7,1.7,4,2.7,6.4,2.7
		c2.4,0,4.7-1,6.4-2.7c3.7-3.7,3.7-9.4,0-13.1L364.9,244.4z"/>
</g>
</svg>
