<?xml version="1.0" encoding="utf-8"?>
<!-- Generator: Adobe Illustrator 18.0.0, SVG Export Plug-In . SVG Version: 6.00 Build 0)  -->
<!DOCTYPE svg PUBLIC "-//W3C//DTD SVG 1.1//EN" "http://www.w3.org/Graphics/SVG/1.1/DTD/svg11.dtd">
<svg version="1.1" id="Layer_1" xmlns="http://www.w3.org/2000/svg" xmlns:xlink="http://www.w3.org/1999/xlink" x="0px" y="0px"
	 viewBox="0 0 512 512" enable-background="new 0 0 512 512" xml:space="preserve">
<g>
	<path fill="#E2574C" d="M495.8,226.3l-75.8-124.9c-4.1-6.7-12.7-8.8-19.4-4.8l-35.6,21.6c-6.7,4.1-8.8,12.7-4.8,19.4l75.8,124.9
		c4.1,6.7,12.7,8.8,19.4,4.8l35.6-21.6C497.8,241.7,499.9,233,495.8,226.3z"/>
	<path fill="#E2574C" d="M262.6,381.1c-1.2-1.6-2.2-3.2-3.1-4.9l-38.5,23.2c-2.2,1.3-4.8,1.7-7.3,1.1c-2.5-0.6-4.6-2.2-6-4.4
		c-2.8-4.6-1.3-10.6,3.3-13.3l1.4-0.8l0,0l36.5-22c5-3,6.6-9.5,3.6-14.5c-3-5-9.5-6.6-14.5-3.6l-36.5,22l0,0l-31.6,19
		c-2.2,1.3-4.8,1.7-7.3,1.1c-2.5-0.6-4.6-2.2-6-4.4c-1.3-2.2-1.7-4.8-1.1-7.3c0.6-2.5,2.2-4.6,4.4-6l23.9-14.4v0l47.1-28.4
		c5-3,6.6-9.5,3.6-14.5c-3-5-9.5-6.6-14.5-3.6l-82.3,49.6c-4.6,2.8-10.6,1.3-13.3-3.3c-2.8-4.6-1.3-10.6,3.3-13.3l40.7-24.6l0,0
		l30.7-18.5c5-3,6.6-9.5,3.6-14.5c-3-5-9.5-6.6-14.5-3.6l-60.1,36.3c-4.6,2.8-10.6,1.3-13.3-3.3c-2.8-4.6-1.3-10.6,3.3-13.3
		l43.7-26.4c5-3,6.6-9.5,3.6-14.5c-3-5-9.5-6.6-14.5-3.6l-43.7,26.4c-14.5,8.8-19.2,27.7-10.4,42.2c2.5,4.1,5.8,7.4,9.6,9.9
		c-1.5,2.6-2.8,5.3-3.6,8.3c-2,8-0.7,16.2,3.5,23.3c4.2,7,11,12,19,14c3,0.7,6,1,9,0.8c0.4,4.6,1.8,9,4.3,13.1c4.2,7,11,12,19,14
		c3.4,0.8,6.8,1.1,10.1,0.8c4.6-0.4,9.1-1.9,13.2-4.3l5.2-3.1c0.7,3.1,1.9,6.2,3.6,9.1c4.2,7,11,12,19,14c3.4,0.8,6.8,1.1,10.1,0.8
		c4.6-0.4,9.1-1.9,13.2-4.3l40-24.1c-0.9-1-1.7-2-2.5-3.1L262.6,381.1z"/>
	<path fill="#333333" d="M416.9,272.5c-4.8-6.5-12.5-9.6-20-9c-4,0.3-7.9,1.8-11.3,4.3c-9.8,7.3-12,21.2-4.8,31.1
		c-3.9-2.2-8.4-3.1-12.8-2.7c-3.9,0.3-7.9,1.7-11.3,4.3c-6.9,5.1-10,13.4-8.8,21.3c-4.5-3.4-10-4.9-15.5-4.4
		c-4,0.3-7.9,1.7-11.3,4.3c-6.6,4.9-9.7,12.7-8.9,20.3c-4.8-5.5-11.9-8.1-18.8-7.5c-4,0.3-7.9,1.7-11.3,4.3
		c-9.9,7.3-12,21.4-4.7,31.3l6.8,9.2c4.8,6.5,12.5,9.6,20,9c4-0.3,7.9-1.8,11.3-4.3c6.6-4.9,9.7-12.7,8.9-20.3
		c4.8,5.5,11.9,8.1,18.8,7.5c4-0.3,7.9-1.7,11.3-4.3c6.9-5.1,10-13.4,8.8-21.3c4.5,3.4,10,4.9,15.5,4.4c4-0.3,7.9-1.7,11.3-4.3
		c9.8-7.3,12-21.2,4.8-31.1c3.9,2.2,8.4,3.1,12.8,2.7c4-0.3,7.9-1.7,11.3-4.3c9.9-7.3,12-21.4,4.7-31.3L416.9,272.5z"/>
	<path fill="#333333" d="M164.3,223.2c66,10.5,81.5-55,81.5-55l54.5,17.4c44.1,14.1,44.5-30.8,44.5-30.8L215,113
		c-10.8-3.5-22.6-2.5-32.7,2.7l-6.4,3.3c-8.6,4.4-18.4,5.8-27.8,3.9c-0.3,2.6-0.8,5.3-1.6,7.8l-40.9,127.8L164.3,223.2z"/>
	<path fill="#333333" d="M119.6,103.6L80,90.9c-7.4-2.4-15.4,1.7-17.8,9.2L14.8,248c-2.4,7.4,1.7,15.4,9.2,17.8l39.6,12.7
		c7.4,2.4,15.4-1.7,17.8-9.2l47.4-148C131.1,113.9,127,105.9,119.6,103.6z"/>
</g>
</svg>
