<?xml version="1.0" encoding="utf-8"?>
<!-- Generator: Adobe Illustrator 18.0.0, SVG Export Plug-In . SVG Version: 6.00 Build 0)  -->
<!DOCTYPE svg PUBLIC "-//W3C//DTD SVG 1.1//EN" "http://www.w3.org/Graphics/SVG/1.1/DTD/svg11.dtd">
<svg version="1.1" id="Layer_1" xmlns="http://www.w3.org/2000/svg" xmlns:xlink="http://www.w3.org/1999/xlink" x="0px" y="0px"
	 viewBox="0 0 512 512" enable-background="new 0 0 512 512" xml:space="preserve">
<g>
	<path fill="#333333" d="M492.2,320.4c-23.4-19.2-48.6-32-53.8-34.5c-0.6-0.3-0.9-0.9-0.9-1.5V248c4.6-3.1,7.6-8.3,7.6-14.2V196
		c0-18.8-15.2-34-34-34H407H403c-18.8,0-34,15.2-34,34v37.8c0,5.9,3,11.1,7.6,14.2v36.4c0,0.6-0.4,1.2-0.9,1.5
		c-1.8,0.9-5.9,2.9-11.5,6v68.5H395l7.9-36.1c-15.9-22.2,1.2-23.3,4.2-23.3h0h0c3,0,20.1,1.1,4.2,23.3l7.9,36.1h79.8v-25.9
		C498.9,329.1,496.4,323.9,492.2,320.4z"/>
	<path fill="#333333" d="M19.8,320.4c23.4-19.2,48.6-32,53.8-34.5c0.6-0.3,0.9-0.9,0.9-1.5V248c-4.6-3.1-7.6-8.3-7.6-14.2V196
		c0-18.8,15.2-34,34-34h4.1h4.1c18.8,0,34,15.2,34,34v37.8c0,5.9-3,11.1-7.6,14.2v36.4c0,0.6,0.4,1.2,0.9,1.5
		c1.8,0.9,5.9,2.9,11.5,6v68.5H117l-7.9-36.1c15.9-22.2-1.2-23.3-4.2-23.3h0h0c-3,0-20.1,1.1-4.2,23.3l-7.9,36.1H13.1v-25.9
		C13.1,329.1,15.6,323.9,19.8,320.4z"/>
	<path fill="#333333" d="M345.4,264.5c-1.1-1.9-2.5-3.7-4.3-5.1c-23.4-19.2-48.6-32-53.8-34.5c-0.5-0.2-0.7-0.7-0.8-1.1v-36.5
		c4.6-3.1,7.6-8.3,7.6-14.2v-37.9c0-18.9-15.3-34.1-34.1-34.1h0H256h-4.1h0c-18.9,0-34.1,15.3-34.1,34.1v37.9c0,5.9,3,11.2,7.6,14.2
		v36.5c-0.1,0.5-0.4,0.9-0.8,1.1c-5.1,2.5-30.4,15.3-53.8,34.5c-1.7,1.4-3.2,3.2-4.3,5.1c-1.8,2.9-2.7,6.2-2.7,9.7v86.3h26.5
		c0-33.4,25.2-61.1,57.5-65.1l3.9-31.4c0,0-0.1-0.1-0.1-0.1l0.1-0.4c-4.9-6.9-6.7-11.7-6.7-15.1c0.4-7.1,8.8-7.7,10.9-7.7h0h0
		c2,0,10.4,0.5,10.8,7.7c0,3.4-1.8,8.3-6.7,15.1l0.1,0.4c0,0-0.1,0.1-0.1,0.1l3.9,31.4c32.4,4,57.5,31.6,57.5,65.1h26.5v-86.3
		C348.2,270.7,347.2,267.4,345.4,264.5z"/>
	<g id="XMLID_232_">
		<g>
			<path fill="#E2574C" d="M256,309.9c-27.9,0-50.5,22.6-50.5,50.5S228.1,411,256,411c27.9,0,50.5-22.6,50.5-50.5
				S283.9,309.9,256,309.9z M270.5,380.4c-2.2,2.7-5.1,4.5-8.4,5.4c-1.5,0.4-2.1,1.2-2,2.7c0.1,1.5,0,3,0,4.5c0,1.3-0.7,2-2,2.1
				c-1.6,0-3.2,0-4.8,0c-1.4,0-2.1-0.8-2.1-2.2c0-1.1,0-2.2,0-3.3c0-2.4-0.1-2.5-2.4-2.9c-3-0.5-5.9-1.1-8.6-2.5
				c-2.1-1-2.3-1.6-1.7-3.8c0.5-1.7,0.9-3.3,1.4-5c0.6-1.9,1.1-2.1,2.9-1.2c3,1.6,6.2,2.4,9.5,2.9c2.2,0.3,4.3,0.1,6.2-0.8
				c3.7-1.6,4.3-5.9,1.2-8.5c-1.1-0.9-2.3-1.5-3.6-2.1c-3.3-1.4-6.7-2.5-9.7-4.4c-5-3-8.2-7.1-7.8-13.2c0.4-6.9,4.3-11.2,10.6-13.4
				c2.6-0.9,2.6-0.9,2.6-3.6c0-0.9,0-1.8,0-2.8c0.1-2,0.4-2.4,2.4-2.5c0.6,0,1.3,0,1.9,0c4.3,0,4.3,0,4.4,4.3c0,3.1,0,3.1,3.1,3.6
				c2.3,0.4,4.6,1.1,6.7,2c1.2,0.5,1.6,1.4,1.3,2.6c-0.5,1.9-1.1,3.8-1.7,5.6c-0.6,1.8-1.1,2-2.8,1.2c-3.4-1.6-6.9-2.3-10.7-2.1
				c-1,0.1-1.9,0.2-2.9,0.6c-3.2,1.4-3.8,5-1,7.2c1.4,1.1,3,1.9,4.6,2.6c2.9,1.2,5.7,2.3,8.5,3.8
				C274.3,362.1,276.6,372.9,270.5,380.4z"/>
		</g>
	</g>
</g>
</svg>
