<?xml version="1.0" encoding="utf-8"?>
<!-- Generator: Adobe Illustrator 18.0.0, SVG Export Plug-In . SVG Version: 6.00 Build 0)  -->
<!DOCTYPE svg PUBLIC "-//W3C//DTD SVG 1.1//EN" "http://www.w3.org/Graphics/SVG/1.1/DTD/svg11.dtd">
<svg version="1.1" id="Layer_1" xmlns="http://www.w3.org/2000/svg" xmlns:xlink="http://www.w3.org/1999/xlink" x="0px" y="0px"
	 viewBox="0 0 512 512" enable-background="new 0 0 512 512" xml:space="preserve">
<g>
	<g>
		<path fill="#333333" d="M198,107.1L198,107.1c0.1,0,0.2,0,0.2,0c0.1,0,0.2,0,0.2,0v0c41.3-0.4,35.3-55.6,35.3-55.6
			c-1.7-36.9-32.5-36.6-35.6-36.4c-3-0.1-33.9-0.4-35.6,36.4C162.7,51.5,156.7,106.7,198,107.1z"/>
		<path fill="#333333" d="M375.6,220l-71.9-20.4L269.6,146l0,0c-0.3-0.6-0.7-1.1-1.1-1.5c-3.6-3.6-5.4-5.3-9.4-8.3
			C243.8,125,225,117.4,225,117.4l-14.3,45.3l-8.4-23.8c15-21-1.8-21.6-4-21.6c-2.2,0-19.1,0.6-4,21.6l-8.4,23.8l-14.3-45.3
			c0,0-16.4,6.6-31,16.7c-2,1.4-3.8,2.9-5.4,4.7L82,196.2c-9.4,11.1-8.1,27.7,2.8,37.2l63.9,54.6l-10.6,194.2
			c-0.4,7.1,4.7,13.4,11.7,14.5h0c7.5,1.2,14.6-3.9,15.9-11.4L194,333.8l15,150.3c0.5,7.1,6.4,12.7,13.6,12.8
			c7.5,0.1,13.8-5.8,14.1-13.3l8.8-214.8l7.2-70.5c0.1-1.3,1.8-1.7,2.6-0.7l17.5,25.1c2.9,4.2,7.3,7,12.3,8l84.1,16.5
			c8.7,1.7,16.7-4.9,16.7-13.7v0C385.8,227.2,381.6,221.7,375.6,220z M143.2,192.1l5.9,56.9l-32.5-32.9L143.2,192.1z"/>
	</g>
	<g id="XMLID_198_">
		<g>
			<path fill="#E2574C" d="M385.8,100.9c-27.9,0-50.5,22.6-50.5,50.5s22.6,50.5,50.5,50.5c27.9,0,50.5-22.6,50.5-50.5
				S413.7,100.9,385.8,100.9z M400.3,171.3c-2.2,2.7-5.1,4.5-8.4,5.4c-1.5,0.4-2.1,1.2-2,2.7c0.1,1.5,0,3,0,4.5c0,1.3-0.7,2-2,2.1
				c-1.6,0-3.2,0-4.8,0c-1.4,0-2.1-0.8-2.1-2.2c0-1.1,0-2.2,0-3.3c0-2.4-0.1-2.5-2.4-2.9c-3-0.5-5.9-1.1-8.6-2.5
				c-2.1-1-2.3-1.6-1.7-3.8c0.5-1.7,0.9-3.3,1.4-5c0.6-1.9,1.1-2.1,2.9-1.2c3,1.6,6.2,2.4,9.5,2.9c2.2,0.3,4.3,0.1,6.2-0.8
				c3.7-1.6,4.3-5.9,1.2-8.5c-1.1-0.9-2.3-1.5-3.6-2.1c-3.3-1.4-6.7-2.5-9.7-4.4c-5-3-8.2-7.1-7.8-13.2c0.4-6.9,4.3-11.2,10.6-13.4
				c2.6-0.9,2.6-0.9,2.6-3.6c0-0.9,0-1.8,0-2.8c0.1-2,0.4-2.4,2.4-2.5c0.6,0,1.3,0,1.9,0c4.3,0,4.3,0,4.4,4.3c0,3.1,0,3.1,3.1,3.6
				c2.3,0.4,4.6,1.1,6.7,2c1.2,0.5,1.6,1.4,1.3,2.6c-0.5,1.9-1.1,3.8-1.7,5.6c-0.6,1.8-1.1,2-2.8,1.2c-3.4-1.6-6.9-2.3-10.7-2.1
				c-1,0.1-1.9,0.2-2.9,0.6c-3.2,1.4-3.8,5-1,7.2c1.4,1.1,3,1.9,4.6,2.6c2.9,1.2,5.7,2.3,8.5,3.8C404,153,406.4,163.9,400.3,171.3z"
				/>
		</g>
	</g>
</g>
</svg>
