<?xml version="1.0" encoding="utf-8"?>
<!-- Generator: Adobe Illustrator 18.0.0, SVG Export Plug-In . SVG Version: 6.00 Build 0)  -->
<!DOCTYPE svg PUBLIC "-//W3C//DTD SVG 1.1//EN" "http://www.w3.org/Graphics/SVG/1.1/DTD/svg11.dtd">
<svg version="1.1" id="Layer_1" xmlns="http://www.w3.org/2000/svg" xmlns:xlink="http://www.w3.org/1999/xlink" x="0px" y="0px"
	 viewBox="0 0 512 512" enable-background="new 0 0 512 512" xml:space="preserve">
<g>
	<path fill="#333333" d="M251.6,186.5c-16.6-23.1,1.2-24.3,4.3-24.3h0h0c3.1,0,20.9,1.1,4.3,24.3l8.2,37.6h83.1v-27
		c0-5.7-2.5-11.1-6.9-14.7c-24.4-20-50.7-33.3-56-35.9c-0.6-0.3-1-0.9-1-1.6v-38c4.8-3.2,7.9-8.6,7.9-14.8V52.8
		c0-19.6-15.9-35.5-35.5-35.5H256h-4.2c-19.6,0-35.5,15.9-35.5,35.5v39.4c0,6.2,3.2,11.6,7.9,14.8v38c0,0.7-0.4,1.3-1,1.6
		c-5.4,2.6-31.6,15.9-56,35.9c-4.4,3.6-6.9,9-6.9,14.7v27h83.1L251.6,186.5z"/>
	<path fill="#333333" d="M495,452.9c-24.4-20-50.7-33.3-56-35.9c-0.6-0.3-1-0.9-1-1.6v-38c4.8-3.2,7.9-8.6,7.9-14.8v-39.4
		c0-19.6-15.9-35.5-35.5-35.5h-4.2H402c-19.6,0-35.5,15.9-35.5,35.5v39.4c0,6.2,3.2,11.6,7.9,14.8v38c0,0.7-0.4,1.3-1,1.6
		c-5.4,2.6-31.6,15.9-56,35.9c-4.4,3.6-6.9,9-6.9,14.7v27h83.1l8.2-37.6c-16.6-23.1,1.2-24.3,4.3-24.3h0h0c3.1,0,20.9,1.1,4.3,24.3
		l8.2,37.6H502v-27C502,462,499.4,456.6,495,452.9z"/>
	<path fill="#333333" d="M194.5,452.9c-24.4-20-50.7-33.3-56-35.9c-0.6-0.3-1-0.9-1-1.6v-38c4.8-3.2,7.9-8.6,7.9-14.8v-39.4
		c0-19.6-15.9-35.5-35.5-35.5h-4.2h-4.2c-19.6,0-35.5,15.9-35.5,35.5v39.4c0,6.2,3.2,11.6,7.9,14.8v38c0,0.7-0.4,1.3-1,1.6
		c-5.4,2.6-31.6,15.9-56,35.9c-4.4,3.6-6.9,9-6.9,14.7v27h83.1l8.2-37.6c-16.6-23.1,1.2-24.3,4.3-24.3h0h0c3.1,0,20.9,1.1,4.3,24.3
		l8.2,37.6h83.1v-27C201.5,462,198.9,456.6,194.5,452.9z"/>
	<polygon fill="#E2574C" points="336.9,377 267.9,337.4 267.9,257.6 244.1,257.6 244.1,336.8 175.1,377 187.1,397.6 255.5,357.7 
		324.9,397.6 	"/>
</g>
</svg>
