<?xml version="1.0" encoding="utf-8"?>
<!-- Generator: Adobe Illustrator 18.0.0, SVG Export Plug-In . SVG Version: 6.00 Build 0)  -->
<!DOCTYPE svg PUBLIC "-//W3C//DTD SVG 1.1//EN" "http://www.w3.org/Graphics/SVG/1.1/DTD/svg11.dtd">
<svg version="1.1" id="Layer_1" xmlns="http://www.w3.org/2000/svg" xmlns:xlink="http://www.w3.org/1999/xlink" x="0px" y="0px"
	 viewBox="0 0 512 512" enable-background="new 0 0 512 512" xml:space="preserve">
<g id="XMLID_88_">
	<g id="XMLID_253_">
		<circle fill="#333333" cx="125.9" cy="260.4" r="24.3"/>
	</g>
	<g id="XMLID_252_">
		<circle fill="#333333" cx="380.7" cy="260.4" r="24.3"/>
	</g>
	<g id="XMLID_205_">
		<g>
			<path fill="#333333" d="M446.7,113.1H65.3c-22.1,0-40,17.9-40,40v205.8c0,22.1,17.9,40,40,40h381.5c22.1,0,40-17.9,40-40V153.1
				C486.7,131.1,468.8,113.1,446.7,113.1z M452.6,317.4c-2.3-0.4-4.7-0.6-7.1-0.6c-22.4,0-40.5,18.1-40.5,40.5c0,2.5,0.2,5,0.7,7.4
				H109.6c0.2-1.6,0.3-3.3,0.3-5c0-22.4-18.1-40.5-40.5-40.5c-3.5,0-6.8,0.4-10,1.3V196.4c3.2,0.8,6.6,1.3,10,1.3
				c22.4,0,40.5-18.1,40.5-40.5c0-3.4-0.4-6.7-1.2-9.9h297c-0.4,2.4-0.7,4.9-0.7,7.4c0,22.4,18.1,40.5,40.5,40.5
				c2.4,0,4.8-0.2,7.1-0.6V317.4z"/>
		</g>
	</g>
	<g id="XMLID_204_">
		<path fill="#E2574C" d="M253.2,494.9c65.3,0,124.5-26.2,167.6-68.7H85.7C128.8,468.7,188,494.9,253.2,494.9z"/>
	</g>
	<g id="XMLID_201_">
		<path fill="#E2574C" d="M420.8,85.7c-43.1-42.5-102.3-68.7-167.6-68.7S128.8,43.3,85.7,85.7H420.8z"/>
	</g>
	<path fill="#333333" d="M253.2,168.3c-48.3,0-87.5,39.3-87.5,87.7s39.2,87.7,87.5,87.7s87.5-39.3,87.5-87.7
		S301.5,168.3,253.2,168.3z M283.8,300.5c-2.6,1.2-5.4,2.2-8.2,3c-10.7,3-21.3,3.1-31.9-0.4c-12.8-4.2-21.3-12.9-26.4-25.2
		c-1-2.4-1.6-4.9-2.4-7.4h-10c-1.7,0-3-1.4-3-3v-6.8c0-1.7,1.4-3,3-3h8.3c0-1.9,0-3.7,0-5.5h-8.3c-1.7,0-3-1.4-3-3v-6.8
		c0-1.7,1.4-3,3-3h10.6l0.4-1.1c2.8-9.1,7.7-16.8,15.3-22.7c6-4.6,12.9-7.2,20.3-8.4c10.5-1.7,20.8-0.2,30.7,3.6
		c0.6,0.2,1.3,0.5,1.9,0.9c2.4,1.4,3,3.2,1.9,5.7c-1.1,2.7-2.2,5.4-3.4,8c-1,2.3-2.5,3-4.9,2.5c-3.3-0.8-6.6-1.8-10-2.5
		c-7.1-1.4-14.1-1.5-20.9,1.2c-5.9,2.3-9.5,6.9-12,12.5c0,0.1,0,0.1,0,0.2h20.5c1.7,0,3,1.4,3,3v6.8c0,1.7-1.4,3-3,3h-23.5
		c0,1.8,0,3.6,0,5.5h23.5c1.7,0,3,1.4,3,3v6.8c0,1.7-1.4,3-3,3h-21.5c2.6,7.4,6.8,13.2,14.7,15.7c6.3,2,12.7,1.9,19.1,0.5
		c3.3-0.7,6.6-1.7,9.9-2.5c2.6-0.6,4,0.1,5.1,2.5c1.2,2.7,2.4,5.4,3.5,8.1C286.9,297.3,286.3,299.3,283.8,300.5z"/>
</g>
</svg>
