<?xml version="1.0" encoding="utf-8"?>
<!-- Generator: Adobe Illustrator 18.0.0, SVG Export Plug-In . SVG Version: 6.00 Build 0)  -->
<!DOCTYPE svg PUBLIC "-//W3C//DTD SVG 1.1//EN" "http://www.w3.org/Graphics/SVG/1.1/DTD/svg11.dtd">
<svg version="1.1" id="Layer_1" xmlns="http://www.w3.org/2000/svg" xmlns:xlink="http://www.w3.org/1999/xlink" x="0px" y="0px"
	 viewBox="0 0 512 512" enable-background="new 0 0 512 512" xml:space="preserve">
<g id="XMLID_575_">
	<g id="XMLID_591_">
		<path fill="#333333" d="M256.5,303.2V229c9.3-6.2,15.5-16.8,15.5-28.9v-76.9c0-38.3-31-69.3-69.3-69.3h-8.3h-8.3
			c-38.3,0-69.3,31-69.3,69.3v76.9c0,12.1,6.2,22.7,15.5,28.9v74.2c0,1.3-0.7,2.5-1.9,3.1c-10.5,5.1-61.9,31.1-109.5,70.3
			c-8.6,7.1-13.6,17.7-13.6,28.8l0,52.7h187.1h187.1v-52.7c0-11.1-5-21.7-13.6-28.8c-47.7-39.2-99.1-65.1-109.5-70.3
			C257.2,305.7,256.5,304.5,256.5,303.2z"/>
	</g>
	<g id="XMLID_583_">
		<g>
			<path fill="#E2574C" d="M475.1,83.5C435.7,44,371.7,44,332.2,83.5c-38,38-39.4,98.7-4.3,138.4l1,0.8
				c-3.8,8.2-10.4,18.4-20.8,23.5c-3.4,1.7-2.6,6.8,1.1,7.4c11.4,1.8,27.7-0.2,43-11.7l0.2,0.2c38.7,22.8,89.4,17.5,122.6-15.7
				C514.6,186.9,514.6,122.9,475.1,83.5z M358.3,167.1c-6.7,0-12.1-5.4-12.1-12.1c0-6.7,5.4-12.1,12.1-12.1s12.1,5.4,12.1,12.1
				C370.4,161.6,365,167.1,358.3,167.1z M403.7,167.1c-6.7,0-12.1-5.4-12.1-12.1c0-6.7,5.4-12.1,12.1-12.1s12.1,5.4,12.1,12.1
				C415.8,161.6,410.4,167.1,403.7,167.1z M449.1,167.1c-6.7,0-12.1-5.4-12.1-12.1c0-6.7,5.4-12.1,12.1-12.1s12.1,5.4,12.1,12.1
				C461.2,161.6,455.8,167.1,449.1,167.1z"/>
		</g>
	</g>
</g>
</svg>
