<?xml version="1.0" encoding="utf-8"?>
<!-- Generator: Adobe Illustrator 18.0.0, SVG Export Plug-In . SVG Version: 6.00 Build 0)  -->
<!DOCTYPE svg PUBLIC "-//W3C//DTD SVG 1.1//EN" "http://www.w3.org/Graphics/SVG/1.1/DTD/svg11.dtd">
<svg version="1.1" id="Layer_1" xmlns="http://www.w3.org/2000/svg" xmlns:xlink="http://www.w3.org/1999/xlink" x="0px" y="0px"
	 viewBox="0 0 512 512" enable-background="new 0 0 512 512" xml:space="preserve">
<g>
	<path fill="#E2574C" d="M182.5,101.6c-44.6,0-80.8,36.2-80.8,80.8c0,7.1,5.8,12.9,12.9,12.9s12.9-5.8,12.9-12.9
		c0-30.3,24.7-54.9,54.9-54.9c7.1,0,12.9-5.8,12.9-12.9S189.6,101.6,182.5,101.6z"/>
	<g>
		<g>
			<g>
				<g>
					<path fill="#333333" d="M296.5,67.4c-63.3-63.3-165.8-63.3-229.1,0c-63.3,63.3-63.3,165.8,0,229.1
						c57.6,57.6,147.8,62.7,211.3,15.4l9.2,9.2l-6,6l155.6,155.6c12.5,12.5,32.7,12.5,45.2,0c12.5-12.5,12.5-32.7,0-45.2
						L327.1,281.9l-6,6l-9.2-9.2C359.2,215.2,354.1,125,296.5,67.4z M261.3,261.3c-43.8,43.8-114.9,43.8-158.7,0
						c-43.8-43.8-43.8-114.9,0-158.7c43.8-43.8,114.9-43.8,158.7,0C305.1,146.4,305.1,217.5,261.3,261.3z"/>
				</g>
			</g>
		</g>
	</g>
</g>
</svg>
