<svg
   xmlns:dc="http://purl.org/dc/elements/1.1/"
   xmlns:cc="http://creativecommons.org/ns#"
   xmlns:rdf="http://www.w3.org/1999/02/22-rdf-syntax-ns#"
   xmlns:svg="http://www.w3.org/2000/svg"
   xmlns="http://www.w3.org/2000/svg"
   xmlns:sodipodi="http://sodipodi.sourceforge.net/DTD/sodipodi-0.dtd"
   xmlns:inkscape="http://www.inkscape.org/namespaces/inkscape"
   id="svg3336"
   version="1.1"
   inkscape:version="0.91 r13725"
   xml:space="preserve"
   width="405"
   height="1012.5"
   viewBox="0 0 405 1012.5"
   sodipodi:docname="1_2Page-4.25x11.svg"><metadata
     id="metadata3342"><rdf:RDF><cc:Work
         rdf:about=""><dc:format>image/svg+xml</dc:format><dc:type
           rdf:resource="http://purl.org/dc/dcmitype/StillImage" /><dc:title></dc:title></cc:Work></rdf:RDF></metadata><defs
     id="defs3340"><clipPath
       clipPathUnits="userSpaceOnUse"
       id="clipPath3350"><path
         d="M 0,0 324,0 324,810 0,810 0,0 Z"
         id="path3352"
         inkscape:connector-curvature="0" /></clipPath><clipPath
       clipPathUnits="userSpaceOnUse"
       id="clipPath3364"><path
         d="M 0,810 324,810 324,0 0,0 0,810 Z"
         id="path3366"
         inkscape:connector-curvature="0" /></clipPath><clipPath
       clipPathUnits="userSpaceOnUse"
       id="clipPath3372"><path
         d="m -505.559,1115.5 1480,0 0,-1119.26562 -1480,0 0,1119.26562 z"
         id="path3374"
         inkscape:connector-curvature="0" /></clipPath><clipPath
       clipPathUnits="userSpaceOnUse"
       id="clipPath3392"><path
         d="m 30.6001,779.4 262.7999,0 0,-748.8004 -262.7999,0 0,748.8004 z"
         id="path3394"
         inkscape:connector-curvature="0" /></clipPath><clipPath
       clipPathUnits="userSpaceOnUse"
       id="clipPath3418"><path
         d="M 0,810 324,810 324,0 0,0 0,810 Z"
         id="path3420"
         inkscape:connector-curvature="0" /></clipPath><clipPath
       clipPathUnits="userSpaceOnUse"
       id="clipPath3466"><path
         d="M 0,810 324,810 324,0 0,0 0,810 Z"
         id="path3468"
         inkscape:connector-curvature="0" /></clipPath><clipPath
       clipPathUnits="userSpaceOnUse"
       id="clipPath3482"><path
         d="M 0,810 324,810 324,0 0,0 0,810 Z"
         id="path3484"
         inkscape:connector-curvature="0" /></clipPath><clipPath
       clipPathUnits="userSpaceOnUse"
       id="clipPath3498"><path
         d="M 0,810 324,810 324,0 0,0 0,810 Z"
         id="path3500"
         inkscape:connector-curvature="0" /></clipPath><clipPath
       clipPathUnits="userSpaceOnUse"
       id="clipPath3518"><path
         d="M 0,810 324,810 324,0 0,0 0,810 Z"
         id="path3520"
         inkscape:connector-curvature="0" /></clipPath><clipPath
       clipPathUnits="userSpaceOnUse"
       id="clipPath3540"><path
         d="M 0,810 324,810 324,0 0,0 0,810 Z"
         id="path3542"
         inkscape:connector-curvature="0" /></clipPath><clipPath
       clipPathUnits="userSpaceOnUse"
       id="clipPath3572"><path
         d="M 0,810 324,810 324,0 0,0 0,810 Z"
         id="path3574"
         inkscape:connector-curvature="0" /></clipPath><clipPath
       clipPathUnits="userSpaceOnUse"
       id="clipPath3612"><path
         d="M 0,810 324,810 324,0 0,0 0,810 Z"
         id="path3614"
         inkscape:connector-curvature="0" /></clipPath><clipPath
       clipPathUnits="userSpaceOnUse"
       id="clipPath3654"><path
         d="M 0,810 324,810 324,0 0,0 0,810 Z"
         id="path3656"
         inkscape:connector-curvature="0" /></clipPath><clipPath
       clipPathUnits="userSpaceOnUse"
       id="clipPath3670"><path
         d="M 0,810 324,810 324,0 0,0 0,810 Z"
         id="path3672"
         inkscape:connector-curvature="0" /></clipPath><clipPath
       clipPathUnits="userSpaceOnUse"
       id="clipPath3686"><path
         d="M 0,810 324,810 324,0 0,0 0,810 Z"
         id="path3688"
         inkscape:connector-curvature="0" /></clipPath><clipPath
       clipPathUnits="userSpaceOnUse"
       id="clipPath3696"><path
         d="m 97.053,148.365 129.895,0 0,86.596 -129.895,0 0,-86.596 z"
         id="path3698"
         inkscape:connector-curvature="0" /></clipPath></defs><sodipodi:namedview
     pagecolor="#ffffff"
     bordercolor="#666666"
     borderopacity="1"
     objecttolerance="10"
     gridtolerance="10"
     guidetolerance="10"
     inkscape:pageopacity="0"
     inkscape:pageshadow="2"
     inkscape:window-width="1366"
     inkscape:window-height="705"
     id="namedview3338"
     showgrid="false"
     inkscape:zoom="0.52938272"
     inkscape:cx="202.5"
     inkscape:cy="506.25"
     inkscape:window-x="-8"
     inkscape:window-y="-8"
     inkscape:window-maximized="1"
     inkscape:current-layer="g3344" /><g
     id="g3344"
     inkscape:groupmode="layer"
     inkscape:label="1_2Page-4.25x11"
     transform="matrix(1.25,0,0,-1.25,0,1012.5)"><g
       id="g3360"><g
         id="g3362"
         clip-path="url(#clipPath3364)"><g
           id="g3368"><g
             id="g3370" /><g
             id="g3376"><g
               clip-path="url(#clipPath3372)"
               id="g3378"
               style="opacity:0.5"><g
                 transform="translate(-505.5586,155.3506)"
                 id="g3380"><path
                   d="m 0,0 965.597,960.148 514.403,0 L 368.365,-159.116 0,0 Z"
                   style="fill:#231f20;fill-opacity:1;fill-rule:evenodd;stroke:none"
                   id="path3382"
                   class="color2"
                   inkscape:connector-curvature="0" /></g></g></g></g><g
           id="g3384"
           transform="translate(-505.5586,155.3506)"><path
             d="m 0,0 965.597,960.148 514.403,0 L 368.365,-159.116 0,0 Z"
             style="fill:none;stroke:#ffffff;stroke-width:2;stroke-linecap:butt;stroke-linejoin:miter;stroke-miterlimit:10;stroke-dasharray:none;stroke-opacity:1"
             id="path3386"
             inkscape:connector-curvature="0" /></g><g
           id="g3388"><g
             id="g3390" /><g
             id="g3396"><g
               clip-path="url(#clipPath3392)"
               id="g3398"
               style="opacity:0.49000501"><path
                 d="m 293.4,30.6 -262.8,0 0,748.8 262.8,0 0,-748.8 z"
                 style="fill:#3f2c5a;fill-opacity:1;fill-rule:evenodd;stroke:none"
                 id="path3400"
                 class="color3"
                 inkscape:connector-curvature="0" /></g></g></g></g></g><g
       id="g3402"
       transform="translate(0,810)"><path class="color1"
         d="M 0,0 0,-151.919 152.861,0 0,0 Z"
         style="fill:#f3f3f3;fill-opacity:1;fill-rule:nonzero;stroke:none"
         id="path3404"
         inkscape:connector-curvature="0" /></g><g
       id="g3406"
       
       transform="translate(139.3496,0)"><path
         d="m 0,0 184.65,0 0,184.341 L 0,0 Z"
         style="fill:#f3f3f3;fill-opacity:1;fill-rule:nonzero;stroke:none"
         id="path3408"
         class="color4"
         inkscape:connector-curvature="0" /></g></g></svg>