<?xml version="1.0" encoding="UTF-8" standalone="no"?>
<svg
   xmlns:dc="http://purl.org/dc/elements/1.1/"
   xmlns:cc="http://creativecommons.org/ns#"
   xmlns:rdf="http://www.w3.org/1999/02/22-rdf-syntax-ns#"
   xmlns:svg="http://www.w3.org/2000/svg"
   xmlns="http://www.w3.org/2000/svg"
   viewBox="0 0 405 1012.5"
   height="1012.5"
   width="405"
   xml:space="preserve"
   version="1.1"
   id="svg3810"><metadata
     id="metadata3816"><rdf:RDF><cc:Work
         rdf:about=""><dc:format>image/svg+xml</dc:format><dc:type
           rdf:resource="http://purl.org/dc/dcmitype/StillImage" /><dc:title></dc:title></cc:Work></rdf:RDF></metadata><defs
     id="defs3814"><clipPath
       id="clipPath3824"
       clipPathUnits="userSpaceOnUse"><path
         id="path3826"
         d="m 0,598 324,0 0,212 -324,0 0,-212 z" /></clipPath><clipPath
       id="clipPath3838"
       clipPathUnits="userSpaceOnUse"><path
         id="path3840"
         d="M 0,810 324,810 324,0 0,0 0,810 Z" /></clipPath><clipPath
       id="clipPath3846"
       clipPathUnits="userSpaceOnUse"><path
         id="path3848"
         d="m -171.5,690 660,0 0,-699 -660,0 0,699 z" /></clipPath><clipPath
       id="clipPath3862"
       clipPathUnits="userSpaceOnUse"><path
         id="path3864"
         d="m -171.5,660 660,0 0,-669 -660,0 0,669 z" /></clipPath><clipPath
       id="clipPath3878"
       clipPathUnits="userSpaceOnUse"><path
         id="path3880"
         d="m -171.5,690 660,0 0,-699 -660,0 0,699 z" /></clipPath><clipPath
       id="clipPath3894"
       clipPathUnits="userSpaceOnUse"><path
         id="path3896"
         d="m -171.5,660 660,0 0,-669 -660,0 0,669 z" /></clipPath><clipPath
       id="clipPath3914"
       clipPathUnits="userSpaceOnUse"><path
         id="path3916"
         d="M 0,810 324,810 324,0 0,0 0,810 Z" /></clipPath><clipPath
       id="clipPath3982"
       clipPathUnits="userSpaceOnUse"><path
         id="path3984"
         d="M 0,810 324,810 324,0 0,0 0,810 Z" /></clipPath><clipPath
       id="clipPath3998"
       clipPathUnits="userSpaceOnUse"><path
         id="path4000"
         d="M 0,810 324,810 324,0 0,0 0,810 Z" /></clipPath><clipPath
       id="clipPath4014"
       clipPathUnits="userSpaceOnUse"><path
         id="path4016"
         d="M 0,810 324,810 324,0 0,0 0,810 Z" /></clipPath><clipPath
       id="clipPath4030"
       clipPathUnits="userSpaceOnUse"><path
         id="path4032"
         d="M 0,810 324,810 324,0 0,0 0,810 Z" /></clipPath><clipPath
       id="clipPath4046"
       clipPathUnits="userSpaceOnUse"><path
         id="path4048"
         d="M 0,810 324,810 324,0 0,0 0,810 Z" /></clipPath><clipPath
       id="clipPath4062"
       clipPathUnits="userSpaceOnUse"><path
         id="path4064"
         d="M 0,810 324,810 324,0 0,0 0,810 Z" /></clipPath><clipPath
       id="clipPath4078"
       clipPathUnits="userSpaceOnUse"><path
         id="path4080"
         d="M 0,810 324,810 324,0 0,0 0,810 Z" /></clipPath><clipPath
       id="clipPath4118"
       clipPathUnits="userSpaceOnUse"><path
         id="path4120"
         d="M 0,810 324,810 324,0 0,0 0,810 Z" /></clipPath><clipPath
       id="clipPath4158"
       clipPathUnits="userSpaceOnUse"><path
         id="path4160"
         d="M 0,810 324,810 324,0 0,0 0,810 Z" /></clipPath><clipPath
       id="clipPath4180"
       clipPathUnits="userSpaceOnUse"><path
         id="path4182"
         d="M 0,810 324,810 324,0 0,0 0,810 Z" /></clipPath><clipPath
       id="clipPath4196"
       clipPathUnits="userSpaceOnUse"><path
         id="path4198"
         d="M 0,810 324,810 324,0 0,0 0,810 Z" /></clipPath><clipPath
       id="clipPath4212"
       clipPathUnits="userSpaceOnUse"><path
         id="path4214"
         d="M 0,810 324,810 324,0 0,0 0,810 Z" /></clipPath><clipPath
       id="clipPath4222"
       clipPathUnits="userSpaceOnUse"><path
         id="path4224"
         d="m 29.496,32.072 72.442,0 0,48.295 -72.442,0 0,-48.295 z" /></clipPath></defs><g
     transform="matrix(1.25,0,0,-1.25,0,1012.5)"
     id="g3818"><g
       id="g3834"><g
         clip-path="url(#clipPath3838)"
         id="g3836"><g
           id="g3842"><g
             id="g3844" /><g
             id="g3850"><g
               style="opacity:0.80000299"
               id="g3852"
               clip-path="url(#clipPath3846)"><g
                 id="g3854"
                 transform="translate(488.5,-9)"><path
                   id="path3856" class="color1"
                   style="fill:#181615;fill-opacity:1;fill-rule:evenodd;stroke:none"
                   d="m 0,0 -660,0 0,699 L 0,633 0,0 Z" /></g></g></g></g><g
           id="g3858"><g
             id="g3860" /><g
             id="g3866"><g
               style="opacity:0.80000299"
               id="g3868"
               clip-path="url(#clipPath3862)"><g
                 id="g3870"
                 transform="translate(488.5,-9)"><path
                   id="path3872" class="color2"
                   style="fill:#181615;fill-opacity:1;fill-rule:evenodd;stroke:none"
                   d="m 0,0 -660,0 0,669 L 0,633 0,0 Z" /></g></g></g></g><g
           id="g3874"><g
             id="g3876" /><g
             id="g3882"><g
               style="opacity:0.80000299"
               id="g3884"
               clip-path="url(#clipPath3878)"><g
                 id="g3886"
                 transform="translate(-171.5,-9)"><path
                   id="path3888" class="color3"
                   style="fill:#181615;fill-opacity:1;fill-rule:evenodd;stroke:none"
                   d="M 0,0 660,0 660,699 0,633 0,0 Z" /></g></g></g></g><g
           id="g3890"><g
             id="g3892" /><g
             id="g3898"><g
               style="opacity:0.80000299"
               id="g3900"
               clip-path="url(#clipPath3894)"><g
                 id="g3902"
                 transform="translate(-171.5,-9)"><path
                   id="path3904" class="color4"
                   style="fill:#181615;fill-opacity:1;fill-rule:evenodd;stroke:none"
                   d="M 0,0 660,0 660,669 0,633 0,0 Z" /></g></g></g></g></g></g></g></svg>